<?xml version="1.0" encoding="UTF-8" standalone="no"?>
<!DOCTYPE svg PUBLIC "-//W3C//DTD SVG 1.1//EN"
 "http://www.w3.org/Graphics/SVG/1.1/DTD/svg11.dtd">
<!-- Generated by graphviz version 2.40.1 (20161225.0304)
 -->
<!-- Title: %3 Pages: 1 -->
<svg width="433pt" height="394pt"
 viewBox="0.00 0.00 433.00 394.00" xmlns="http://www.w3.org/2000/svg" xmlns:xlink="http://www.w3.org/1999/xlink">
<g id="graph0" class="graph" transform="scale(1 1) rotate(0) translate(4 390)">
<title>%3</title>
<polygon fill="#ffffff" stroke="transparent" points="-4,4 -4,-390 429,-390 429,4 -4,4"/>
<!-- 5172 -->
<g id="node1" class="node">
<title>5172</title>
<ellipse fill="#007992" stroke="#007992" cx="209.4143" cy="-210.4077" rx="28.6953" ry="18"/>
<text text-anchor="middle" x="209.4143" y="-206.7077" font-family="Times,serif" font-size="14.00" fill="#000000">5172</text>
</g>
<!-- 5173 -->
<g id="node2" class="node">
<title>5173</title>
<ellipse fill="#007992" stroke="#007992" cx="142.4398" cy="-228.3736" rx="28.6953" ry="18"/>
<text text-anchor="middle" x="142.4398" y="-224.6736" font-family="Times,serif" font-size="14.00" fill="#000000">5173</text>
</g>
<!-- 5172&#45;&#45;5173 -->
<g id="edge1" class="edge">
<title>5172&#45;&#45;5173</title>
<path fill="none" stroke="#7fff00" d="M202.8481,-192.8146C181.2218,-149.75 136.264,-161.9366 139.3422,-210.2298"/>
</g>
<!-- 5172&#45;&#45;5173 -->
<g id="edge2" class="edge">
<title>5172&#45;&#45;5173</title>
<path fill="none" stroke="#00ffff" d="M212.5134,-228.5767C215.5748,-276.8562 170.6149,-289.0274 148.9962,-245.9472"/>
</g>
<!-- 5172&#45;&#45;5173 -->
<g id="edge3" class="edge">
<title>5172&#45;&#45;5173</title>
<path fill="none" stroke="#ff7f50" d="M211.0756,-228.796C207.6526,-260.2125 169.8195,-270.6572 150.7595,-245.8637"/>
</g>
<!-- 5172&#45;&#45;5173 -->
<g id="edge4" class="edge">
<title>5172&#45;&#45;5173</title>
<path fill="none" stroke="#000000" d="M207.1454,-228.5903C198.2568,-244.1112 172.5959,-251.6631 156.0779,-244.2944"/>
</g>
<!-- 5172&#45;&#45;5173 -->
<g id="edge5" class="edge">
<title>5172&#45;&#45;5173</title>
<path fill="none" stroke="#000000" d="M195.5982,-226.4395C188.0488,-230.1964 178.4762,-233.1342 169.5265,-234.543"/>
</g>
<!-- 5172&#45;&#45;5173 -->
<g id="edge6" class="edge">
<title>5172&#45;&#45;5173</title>
<path fill="none" stroke="#bdb76b" d="M182.9442,-217.5083C178.4103,-218.7245 173.6967,-219.9889 169.1565,-221.2068"/>
</g>
<!-- 5172&#45;&#45;5173 -->
<g id="edge7" class="edge">
<title>5172&#45;&#45;5173</title>
<path fill="none" stroke="#e9967a" d="M182.2487,-204.2508C173.2792,-205.6711 163.6923,-208.6238 156.1486,-212.3953"/>
</g>
<!-- 5172&#45;&#45;5173 -->
<g id="edge8" class="edge">
<title>5172&#45;&#45;5173</title>
<path fill="none" stroke="#8fbc8f" d="M195.7552,-194.4776C179.1807,-187.0997 153.4201,-194.7279 144.6191,-210.3485"/>
</g>
<!-- 5172&#45;&#45;5173 -->
<g id="edge9" class="edge">
<title>5172&#45;&#45;5173</title>
<path fill="none" stroke="#b03060" d="M201.047,-192.8559C181.9519,-168.1157 144.1201,-178.6166 140.7679,-210.0832"/>
</g>
<!-- 5174 -->
<g id="node3" class="node">
<title>5174</title>
<ellipse fill="#007992" stroke="#007992" cx="103.5975" cy="-170.8209" rx="28.6953" ry="18"/>
<text text-anchor="middle" x="103.5975" y="-167.1209" font-family="Times,serif" font-size="14.00" fill="#000000">5174</text>
</g>
<!-- 5172&#45;&#45;5174 -->
<g id="edge10" class="edge">
<title>5172&#45;&#45;5174</title>
<path fill="none" stroke="#7fff00" d="M213.2288,-192.241C215.2605,-142.588 144.8474,-115.9128 113.2686,-153.8455"/>
</g>
<!-- 5172&#45;&#45;5174 -->
<g id="edge11" class="edge">
<title>5172&#45;&#45;5174</title>
<path fill="none" stroke="#00ffff" d="M199.6858,-227.4519C168.0578,-265.3091 97.6574,-238.5744 99.7872,-188.8869"/>
</g>
<!-- 5172&#45;&#45;5174 -->
<g id="edge12" class="edge">
<title>5172&#45;&#45;5174</title>
<path fill="none" stroke="#ff7f50" d="M196.8653,-226.6158C168.0648,-246.3065 108.3846,-223.2838 101.9147,-189.0064"/>
</g>
<!-- 5172&#45;&#45;5174 -->
<g id="edge13" class="edge">
<title>5172&#45;&#45;5174</title>
<path fill="none" stroke="#000000" d="M188.6912,-222.9838C162.4747,-225.5661 120.4536,-208.6885 106.9116,-188.9179"/>
</g>
<!-- 5172&#45;&#45;5174 -->
<g id="edge14" class="edge">
<title>5172&#45;&#45;5174</title>
<path fill="none" stroke="#000000" d="M180.8067,-212.0922C160.1249,-207.4711 133.2039,-196.923 117.1501,-186.8477"/>
</g>
<!-- 5172&#45;&#45;5174 -->
<g id="edge15" class="edge">
<title>5172&#45;&#45;5174</title>
<path fill="none" stroke="#bdb76b" d="M184.6049,-201.1263C167.6229,-194.7732 145.2001,-186.3847 128.2514,-180.0441"/>
</g>
<!-- 5172&#45;&#45;5174 -->
<g id="edge16" class="edge">
<title>5172&#45;&#45;5174</title>
<path fill="none" stroke="#e9967a" d="M195.9973,-194.4662C179.9357,-184.3499 152.8634,-173.7385 132.1109,-169.1154"/>
</g>
<!-- 5172&#45;&#45;5174 -->
<g id="edge17" class="edge">
<title>5172&#45;&#45;5174</title>
<path fill="none" stroke="#8fbc8f" d="M206.2375,-192.5128C192.8463,-172.6578 150.6371,-155.658 124.3306,-158.2438"/>
</g>
<!-- 5172&#45;&#45;5174 -->
<g id="edge18" class="edge">
<title>5172&#45;&#45;5174</title>
<path fill="none" stroke="#b03060" d="M211.1273,-192.3845C204.814,-158.0094 144.9638,-134.8801 116.1258,-154.6269"/>
</g>
<!-- 5175 -->
<g id="node4" class="node">
<title>5175</title>
<ellipse fill="#007992" stroke="#007992" cx="147.3611" cy="-117" rx="28.6953" ry="18"/>
<text text-anchor="middle" x="147.3611" y="-113.3" font-family="Times,serif" font-size="14.00" fill="#000000">5175</text>
</g>
<!-- 5172&#45;&#45;5175 -->
<g id="edge19" class="edge">
<title>5172&#45;&#45;5175</title>
<path fill="none" stroke="#7fff00" d="M225.2782,-195.0772C250.655,-157.983 215.5967,-102.7505 172.0783,-107.6167"/>
</g>
<!-- 5172&#45;&#45;5175 -->
<g id="edge20" class="edge">
<title>5172&#45;&#45;5175</title>
<path fill="none" stroke="#00ffff" d="M184.6758,-219.7933C141.1341,-224.6428 106.0713,-169.3346 131.5551,-132.2459"/>
</g>
<!-- 5172&#45;&#45;5175 -->
<g id="edge21" class="edge">
<title>5172&#45;&#45;5175</title>
<path fill="none" stroke="#ff7f50" d="M181.7552,-215.1323C150.8811,-207.5658 123.2191,-162.5194 134.2056,-133.3347"/>
</g>
<!-- 5172&#45;&#45;5175 -->
<g id="edge22" class="edge">
<title>5172&#45;&#45;5175</title>
<path fill="none" stroke="#000000" d="M181.5058,-206.1096C160.3151,-191.379 139.2513,-156.8929 139.3834,-134.3659"/>
</g>
<!-- 5172&#45;&#45;5175 -->
<g id="edge23" class="edge">
<title>5172&#45;&#45;5175</title>
<path fill="none" stroke="#000000" d="M187.9859,-198.0443C172.6528,-181.7158 154.5962,-153.6965 147.8071,-135.0469"/>
</g>
<!-- 5172&#45;&#45;5175 -->
<g id="edge24" class="edge">
<title>5172&#45;&#45;5175</title>
<path fill="none" stroke="#bdb76b" d="M198.3204,-193.7082C187.0952,-176.8112 169.8336,-150.8276 158.5681,-133.8698"/>
</g>
<!-- 5172&#45;&#45;5175 -->
<g id="edge25" class="edge">
<title>5172&#45;&#45;5175</title>
<path fill="none" stroke="#e9967a" d="M208.8573,-192.0578C201.9693,-173.3685 183.9622,-145.4836 168.6907,-129.2583"/>
</g>
<!-- 5172&#45;&#45;5175 -->
<g id="edge26" class="edge">
<title>5172&#45;&#45;5175</title>
<path fill="none" stroke="#8fbc8f" d="M217.3923,-192.6832C217.3014,-170.2203 196.4779,-136.1628 175.4657,-121.435"/>
</g>
<!-- 5172&#45;&#45;5175 -->
<g id="edge27" class="edge">
<title>5172&#45;&#45;5175</title>
<path fill="none" stroke="#b03060" d="M222.4857,-194.2938C233.6901,-165.1312 206.0011,-119.908 175.0685,-112.2872"/>
</g>
<!-- 5176 -->
<g id="node5" class="node">
<title>5176</title>
<ellipse fill="#007992" stroke="#007992" cx="212.5625" cy="-140.6609" rx="28.6953" ry="18"/>
<text text-anchor="middle" x="212.5625" y="-136.9609" font-family="Times,serif" font-size="14.00" fill="#000000">5176</text>
</g>
<!-- 5172&#45;&#45;5176 -->
<g id="edge28" class="edge">
<title>5172&#45;&#45;5176</title>
<path fill="none" stroke="#7fff00" d="M237.773,-207.2095C272.8432,-196.139 274.3443,-160.2972 240.174,-146.2584"/>
</g>
<!-- 5172&#45;&#45;5176 -->
<g id="edge29" class="edge">
<title>5172&#45;&#45;5176</title>
<path fill="none" stroke="#00ffff" d="M182.0355,-204.9052C147.6272,-190.9344 149.054,-154.9573 184.1997,-143.8603"/>
</g>
<!-- 5172&#45;&#45;5176 -->
<g id="edge30" class="edge">
<title>5172&#45;&#45;5176</title>
<path fill="none" stroke="#ff7f50" d="M183.9217,-202.0409C165.2319,-187.9444 166.2659,-159.8876 185.702,-147.1549"/>
</g>
<!-- 5172&#45;&#45;5176 -->
<g id="edge31" class="edge">
<title>5172&#45;&#45;5176</title>
<path fill="none" stroke="#000000" d="M189.1016,-197.6351C181.6628,-184.6813 182.4013,-164.8268 190.6749,-152.2964"/>
</g>
<!-- 5172&#45;&#45;5176 -->
<g id="edge32" class="edge">
<title>5172&#45;&#45;5176</title>
<path fill="none" stroke="#000000" d="M198.5547,-193.7079C196.5859,-182.6509 197.1734,-168.2132 200.0102,-157.191"/>
</g>
<!-- 5172&#45;&#45;5176 -->
<g id="edge33" class="edge">
<title>5172&#45;&#45;5176</title>
<path fill="none" stroke="#bdb76b" d="M210.2414,-192.0825C210.7005,-181.9116 211.27,-169.2958 211.7299,-159.1058"/>
</g>
<!-- 5172&#45;&#45;5176 -->
<g id="edge34" class="edge">
<title>5172&#45;&#45;5176</title>
<path fill="none" stroke="#e9967a" d="M221.9209,-194.054C224.7908,-183.0337 225.3987,-168.5395 223.4349,-157.4327"/>
</g>
<!-- 5172&#45;&#45;5176 -->
<g id="edge35" class="edge">
<title>5172&#45;&#45;5176</title>
<path fill="none" stroke="#8fbc8f" d="M231.4262,-198.5825C239.5934,-186.0257 240.2783,-166.2703 232.846,-153.3827"/>
</g>
<!-- 5172&#45;&#45;5176 -->
<g id="edge36" class="edge">
<title>5172&#45;&#45;5176</title>
<path fill="none" stroke="#b03060" d="M236.3316,-203.8763C255.7447,-191.1052 256.73,-163.0182 237.9628,-148.9583"/>
</g>
<!-- 5174&#45;&#45;5173 -->
<g id="edge37" class="edge">
<title>5174&#45;&#45;5173</title>
<path fill="none" stroke="#7fff00" d="M86.0682,-185.1584C50.1218,-221.5598 73.9034,-258.1593 120.4168,-240.1394"/>
</g>
<!-- 5174&#45;&#45;5173 -->
<g id="edge38" class="edge">
<title>5174&#45;&#45;5173</title>
<path fill="none" stroke="#00ffff" d="M125.5618,-159.0779C172.1038,-141.0084 195.9203,-177.6037 159.9922,-214.0126"/>
</g>
<!-- 5174&#45;&#45;5173 -->
<g id="edge39" class="edge">
<title>5174&#45;&#45;5173</title>
<path fill="none" stroke="#ff7f50" d="M127.339,-160.5555C159.7438,-154.5799 179.3035,-185.599 158.758,-213.2216"/>
</g>
<!-- 5174&#45;&#45;5173 -->
<g id="edge40" class="edge">
<title>5174&#45;&#45;5173</title>
<path fill="none" stroke="#000000" d="M131.423,-165.874C149.945,-171.4035 162.6194,-193.715 155.6244,-212.3288"/>
</g>
<!-- 5174&#45;&#45;5173 -->
<g id="edge41" class="edge">
<title>5174&#45;&#45;5173</title>
<path fill="none" stroke="#000000" d="M130.4986,-177.3453C139.8167,-185.9207 147.4335,-199.1432 148.9028,-210.425"/>
</g>
<!-- 5174&#45;&#45;5173 -->
<g id="edge42" class="edge">
<title>5174&#45;&#45;5173</title>
<path fill="none" stroke="#bdb76b" d="M120.8976,-185.1904C126.9079,-192.8528 133.1476,-202.3002 137.5253,-210.4339"/>
</g>
<!-- 5174&#45;&#45;5173 -->
<g id="edge43" class="edge">
<title>5174&#45;&#45;5173</title>
<path fill="none" stroke="#e9967a" d="M108.4652,-188.6738C112.822,-196.7839 119.0419,-206.2144 125.0441,-213.8823"/>
</g>
<!-- 5174&#45;&#45;5173 -->
<g id="edge44" class="edge">
<title>5174&#45;&#45;5173</title>
<path fill="none" stroke="#ffa500" d="M97.1193,-188.6517C98.5432,-199.9002 106.1087,-213.1057 115.3927,-221.7145"/>
</g>
<!-- 5174&#45;&#45;5173 -->
<g id="edge45" class="edge">
<title>5174&#45;&#45;5173</title>
<path fill="none" stroke="#8fbc8f" d="M90.4151,-186.8596C83.3968,-205.5232 96.1563,-227.9067 114.7591,-233.3634"/>
</g>
<!-- 5174&#45;&#45;5173 -->
<g id="edge46" class="edge">
<title>5174&#45;&#45;5173</title>
<path fill="none" stroke="#b03060" d="M87.4279,-185.774C66.6121,-213.4834 86.2681,-244.7125 118.8287,-238.6148"/>
</g>
<!-- 5174&#45;&#45;5175 -->
<g id="edge47" class="edge">
<title>5174&#45;&#45;5175</title>
<path fill="none" stroke="#7fff00" d="M123.4194,-183.9641C169.0276,-207.2633 196.6852,-172.2108 162.9959,-132.1758"/>
</g>
<!-- 5174&#45;&#45;5175 -->
<g id="edge48" class="edge">
<title>5174&#45;&#45;5175</title>
<path fill="none" stroke="#00ffff" d="M87.9042,-155.5757C54.2908,-115.5522 81.9813,-80.5407 127.5985,-103.8872"/>
</g>
<!-- 5174&#45;&#45;5175 -->
<g id="edge49" class="edge">
<title>5174&#45;&#45;5175</title>
<path fill="none" stroke="#ff7f50" d="M89.1255,-154.9793C70.1353,-125.1218 93.0853,-95.1615 125.5814,-104.937"/>
</g>
<!-- 5174&#45;&#45;5175 -->
<g id="edge50" class="edge">
<title>5174&#45;&#45;5175</title>
<path fill="none" stroke="#000000" d="M92.0034,-154.0769C86.2321,-134.3703 101.7178,-112.4775 121.4243,-109.3495"/>
</g>
<!-- 5174&#45;&#45;5175 -->
<g id="edge51" class="edge">
<title>5174&#45;&#45;5175</title>
<path fill="none" stroke="#000000" d="M98.6519,-152.8298C100.9131,-141.8992 109.387,-129.536 119.2382,-121.6868"/>
</g>
<!-- 5174&#45;&#45;5175 -->
<g id="edge52" class="edge">
<title>5174&#45;&#45;5175</title>
<path fill="none" stroke="#bdb76b" d="M110.2216,-153.1828C115.12,-145.7832 121.8047,-137.3619 128.2064,-130.464"/>
</g>
<!-- 5174&#45;&#45;5175 -->
<g id="edge53" class="edge">
<title>5174&#45;&#45;5175</title>
<path fill="none" stroke="#e9967a" d="M122.8768,-157.2225C129.2254,-150.366 135.8391,-142.0291 140.7026,-134.6901"/>
</g>
<!-- 5174&#45;&#45;5175 -->
<g id="edge54" class="edge">
<title>5174&#45;&#45;5175</title>
<path fill="none" stroke="#ffa500" d="M131.5687,-166.2545C141.5571,-158.3543 150.1591,-145.7952 152.3556,-134.7496"/>
</g>
<!-- 5174&#45;&#45;5175 -->
<g id="edge55" class="edge">
<title>5174&#45;&#45;5175</title>
<path fill="none" stroke="#8fbc8f" d="M129.6773,-178.4484C149.3846,-175.2261 164.8204,-153.2493 158.8937,-133.5371"/>
</g>
<!-- 5174&#45;&#45;5175 -->
<g id="edge56" class="edge">
<title>5174&#45;&#45;5175</title>
<path fill="none" stroke="#b03060" d="M125.0059,-182.7706C157.6741,-192.88 180.8616,-162.8567 161.8747,-132.9073"/>
</g>
<!-- 5174&#45;&#45;5176 -->
<g id="edge57" class="edge">
<title>5174&#45;&#45;5176</title>
<path fill="none" stroke="#7fff00" d="M110.9653,-188.5875C140.0935,-238.4283 216.7218,-216.9519 215.3648,-158.8909"/>
</g>
<!-- 5174&#45;&#45;5176 -->
<g id="edge58" class="edge">
<title>5174&#45;&#45;5176</title>
<path fill="none" stroke="#00ffff" d="M100.7957,-152.61C99.4186,-94.418 176.3714,-72.9618 205.3696,-123.1954"/>
</g>
<!-- 5174&#45;&#45;5176 -->
<g id="edge59" class="edge">
<title>5174&#45;&#45;5176</title>
<path fill="none" stroke="#ff7f50" d="M102.2215,-152.7001C107.9097,-110.9335 176.0079,-91.5835 203.4068,-123.1894"/>
</g>
<!-- 5174&#45;&#45;5176 -->
<g id="edge60" class="edge">
<title>5174&#45;&#45;5176</title>
<path fill="none" stroke="#000000" d="M105.5353,-152.5784C118.5646,-126.5847 172.8029,-110.8969 199.1455,-124.6424"/>
</g>
<!-- 5174&#45;&#45;5176 -->
<g id="edge61" class="edge">
<title>5174&#45;&#45;5176</title>
<path fill="none" stroke="#000000" d="M113.2661,-153.7815C130.1824,-141.0681 164.8895,-130.707 188.5393,-130.6829"/>
</g>
<!-- 5174&#45;&#45;5176 -->
<g id="edge62" class="edge">
<title>5174&#45;&#45;5176</title>
<path fill="none" stroke="#bdb76b" d="M125.2027,-158.993C142.0753,-152.885 165.6524,-146.2628 184.067,-142.4111"/>
</g>
<!-- 5174&#45;&#45;5176 -->
<g id="edge63" class="edge">
<title>5174&#45;&#45;5176</title>
<path fill="none" stroke="#e9967a" d="M132.1107,-169.067C150.4538,-165.2292 173.9136,-158.6444 190.7675,-152.5574"/>
</g>
<!-- 5174&#45;&#45;5176 -->
<g id="edge64" class="edge">
<title>5174&#45;&#45;5176</title>
<path fill="none" stroke="#ffa500" d="M127.6037,-180.7989C151.2365,-180.7798 185.9226,-170.4319 202.8566,-157.7282"/>
</g>
<!-- 5174&#45;&#45;5176 -->
<g id="edge65" class="edge">
<title>5174&#45;&#45;5176</title>
<path fill="none" stroke="#8fbc8f" d="M117.2735,-186.9731C143.6968,-200.475 197.5799,-184.8291 210.6036,-158.9452"/>
</g>
<!-- 5174&#45;&#45;5176 -->
<g id="edge66" class="edge">
<title>5174&#45;&#45;5176</title>
<path fill="none" stroke="#b03060" d="M112.5399,-188.0444C139.7908,-219.9917 208.2047,-200.6657 213.9347,-158.8099"/>
</g>
<!-- 5175&#45;&#45;5173 -->
<g id="edge67" class="edge">
<title>5175&#45;&#45;5173</title>
<path fill="none" stroke="#7fff00" d="M119.1639,-121.1363C74.4425,-138.1422 71.8788,-201.7004 115.4367,-222.1094"/>
</g>
<!-- 5175&#45;&#45;5173 -->
<g id="edge68" class="edge">
<title>5175&#45;&#45;5173</title>
<path fill="none" stroke="#00ffff" d="M174.3965,-123.2794C217.927,-143.7077 215.3465,-207.2541 170.6176,-224.2447"/>
</g>
<!-- 5175&#45;&#45;5173 -->
<g id="edge69" class="edge">
<title>5175&#45;&#45;5173</title>
<path fill="none" stroke="#ff7f50" d="M172.4197,-125.7774C200.2993,-147.1983 198.1989,-201.5999 169.1126,-221.2261"/>
</g>
<!-- 5175&#45;&#45;5173 -->
<g id="edge70" class="edge">
<title>5175&#45;&#45;5173</title>
<path fill="none" stroke="#000000" d="M168.3686,-129.4502C183.5084,-151.2799 181.7227,-196.0736 165.0778,-217.069"/>
</g>
<!-- 5175&#45;&#45;5173 -->
<g id="edge71" class="edge">
<title>5175&#45;&#45;5173</title>
<path fill="none" stroke="#000000" d="M161.1975,-133.1277C167.8106,-154.5001 166.2259,-191.9354 157.8788,-212.9487"/>
</g>
<!-- 5175&#45;&#45;5173 -->
<g id="edge72" class="edge">
<title>5175&#45;&#45;5173</title>
<path fill="none" stroke="#bdb76b" d="M151.6802,-135.1199C152.9415,-155.9997 151.434,-190.0814 148.3337,-210.7495"/>
</g>
<!-- 5175&#45;&#45;5173 -->
<g id="edge73" class="edge">
<title>5175&#45;&#45;5173</title>
<path fill="none" stroke="#e9967a" d="M141.4605,-134.6683C138.3625,-155.3555 136.8581,-189.4373 138.1233,-210.2983"/>
</g>
<!-- 5175&#45;&#45;5173 -->
<g id="edge74" class="edge">
<title>5175&#45;&#45;5173</title>
<path fill="none" stroke="#ffa500" d="M131.9685,-132.3081C123.5444,-153.3904 121.9642,-191.16 128.69,-212.5239"/>
</g>
<!-- 5175&#45;&#45;5173 -->
<g id="edge75" class="edge">
<title>5175&#45;&#45;5173</title>
<path fill="none" stroke="#8fbc8f" d="M124.6743,-128.3661C108.0474,-149.422 106.3014,-194.2622 121.507,-216.0309"/>
</g>
<!-- 5175&#45;&#45;5173 -->
<g id="edge76" class="edge">
<title>5175&#45;&#45;5173</title>
<path fill="none" stroke="#b03060" d="M120.8568,-124.0344C91.7287,-143.4846 89.4658,-197.6922 117.0429,-219.3336"/>
</g>
<!-- 5175&#45;&#45;5176 -->
<g id="edge77" class="edge">
<title>5175&#45;&#45;5176</title>
<path fill="none" stroke="#7fff00" d="M142.2865,-135.0456C131.5297,-190.6588 177.1994,-207.3671 204.6953,-158.0991"/>
</g>
<!-- 5175&#45;&#45;5176 -->
<g id="edge78" class="edge">
<title>5175&#45;&#45;5176</title>
<path fill="none" stroke="#00ffff" d="M155.2343,-99.5509C182.7334,-50.2917 228.4014,-67.0092 217.6341,-122.6306"/>
</g>
<!-- 5175&#45;&#45;5176 -->
<g id="edge79" class="edge">
<title>5175&#45;&#45;5176</title>
<path fill="none" stroke="#ff7f50" d="M156.5073,-99.5185C179.69,-68.2062 219.912,-83.2464 216.6642,-122.6812"/>
</g>
<!-- 5175&#45;&#45;5176 -->
<g id="edge80" class="edge">
<title>5175&#45;&#45;5176</title>
<path fill="none" stroke="#000000" d="M159.3688,-100.5503C178.6869,-86.7728 210.0817,-98.8465 214.3892,-122.5594"/>
</g>
<!-- 5175&#45;&#45;5176 -->
<g id="edge81" class="edge">
<title>5175&#45;&#45;5176</title>
<path fill="none" stroke="#000000" d="M170.2802,-106.2061C183.6461,-107.0281 199.2244,-113.6591 207.5265,-122.6557"/>
</g>
<!-- 5175&#45;&#45;5176 -->
<g id="edge82" class="edge">
<title>5175&#45;&#45;5176</title>
<path fill="none" stroke="#bdb76b" d="M175.7673,-120.2542C181.7951,-122.2053 188.016,-124.5572 193.5928,-127.0061"/>
</g>
<!-- 5175&#45;&#45;5176 -->
<g id="edge83" class="edge">
<title>5175&#45;&#45;5176</title>
<path fill="none" stroke="#e9967a" d="M166.1826,-130.5896C171.8494,-133.0849 178.1916,-135.4823 184.3255,-137.4613"/>
</g>
<!-- 5175&#45;&#45;5176 -->
<g id="edge84" class="edge">
<title>5175&#45;&#45;5176</title>
<path fill="none" stroke="#ffa500" d="M152.368,-134.9735C160.624,-143.9441 176.1162,-150.5696 189.4556,-151.4429"/>
</g>
<!-- 5175&#45;&#45;5176 -->
<g id="edge85" class="edge">
<title>5175&#45;&#45;5176</title>
<path fill="none" stroke="#8fbc8f" d="M145.5679,-135.2828C150.0093,-158.9146 181.3889,-170.8923 200.6497,-157.0425"/>
</g>
<!-- 5175&#45;&#45;5176 -->
<g id="edge86" class="edge">
<title>5175&#45;&#45;5176</title>
<path fill="none" stroke="#b03060" d="M143.2501,-135.0938C140.0795,-174.5645 180.5036,-189.5164 203.6296,-157.8522"/>
</g>
<!-- 5176&#45;&#45;5173 -->
<g id="edge87" class="edge">
<title>5176&#45;&#45;5173</title>
<path fill="none" stroke="#7fff00" d="M191.0015,-128.5407C141.232,-111.5624 97.0953,-168.4401 127.668,-212.7695"/>
</g>
<!-- 5176&#45;&#45;5173 -->
<g id="edge88" class="edge">
<title>5176&#45;&#45;5173</title>
<path fill="none" stroke="#00ffff" d="M227.4121,-156.3781C257.8507,-200.7185 213.6733,-257.5279 163.9084,-240.4622"/>
</g>
<!-- 5176&#45;&#45;5173 -->
<g id="edge89" class="edge">
<title>5176&#45;&#45;5173</title>
<path fill="none" stroke="#ff7f50" d="M225.4383,-156.7687C241.6006,-191.8067 204.308,-241.0146 166.4968,-238.1772"/>
</g>
<!-- 5176&#45;&#45;5173 -->
<g id="edge90" class="edge">
<title>5176&#45;&#45;5173</title>
<path fill="none" stroke="#000000" d="M221.8953,-157.7787C225.1499,-183.6759 197.658,-221.3635 170.9921,-231.3493"/>
</g>
<!-- 5176&#45;&#45;5173 -->
<g id="edge91" class="edge">
<title>5176&#45;&#45;5173</title>
<path fill="none" stroke="#000000" d="M215.1767,-158.6864C209.7579,-178.3348 188.2937,-206.8951 169.1696,-221.3703"/>
</g>
<!-- 5176&#45;&#45;5173 -->
<g id="edge92" class="edge">
<title>5176&#45;&#45;5173</title>
<path fill="none" stroke="#bdb76b" d="M205.0184,-158.3709C194.3537,-174.8885 175.1955,-199.044 160.7694,-214.2945"/>
</g>
<!-- 5176&#45;&#45;5173 -->
<g id="edge93" class="edge">
<title>5176&#45;&#45;5173</title>
<path fill="none" stroke="#e9967a" d="M194.0382,-154.9461C179.5611,-170.2854 160.4057,-194.4662 149.8215,-210.9155"/>
</g>
<!-- 5176&#45;&#45;5173 -->
<g id="edge94" class="edge">
<title>5176&#45;&#45;5173</title>
<path fill="none" stroke="#ffa500" d="M185.812,-147.6799C166.6781,-162.1713 145.2089,-190.7514 139.8129,-210.3941"/>
</g>
<!-- 5176&#45;&#45;5173 -->
<g id="edge95" class="edge">
<title>5176&#45;&#45;5173</title>
<path fill="none" stroke="#8fbc8f" d="M184.1477,-137.6339C157.4699,-147.5299 129.911,-185.2262 133.0957,-211.1652"/>
</g>
<!-- 5176&#45;&#45;5173 -->
<g id="edge96" class="edge">
<title>5176&#45;&#45;5173</title>
<path fill="none" stroke="#b03060" d="M188.4995,-130.8568C150.7351,-128.0284 113.4907,-177.1133 129.5069,-212.1415"/>
</g>
<!-- Cluster 786 -->
<g id="node6" class="node">
<title>Cluster 786</title>
<polygon fill="none" stroke="#000000" points="330,-286 250,-286 250,-250 330,-250 330,-286"/>
<text text-anchor="middle" x="290" y="-264.3" font-family="Times,serif" font-size="14.00" fill="#000000">Cluster 786</text>
</g>
<!-- p993&#45;p443 -->
<g id="node7" class="node">
<title>p993&#45;p443</title>
<polygon fill="none" stroke="#8fbc8f" points="335,-126 260,-126 260,-90 335,-90 335,-126"/>
<text text-anchor="middle" x="297.5" y="-104.3" font-family="Times,serif" font-size="14.00" fill="#000000">p993&#45;p443</text>
</g>
<!-- p443&#45;p443 -->
<g id="node8" class="node">
<title>p443&#45;p443</title>
<polygon fill="none" stroke="#ffa500" points="145,-316 70,-316 70,-280 145,-280 145,-316"/>
<text text-anchor="middle" x="107.5" y="-294.3" font-family="Times,serif" font-size="14.00" fill="#000000">p443&#45;p443</text>
</g>
<!-- p443&#45;p110 -->
<g id="node9" class="node">
<title>p443&#45;p110</title>
<polygon fill="none" stroke="#ff7f50" points="365,-186 290,-186 290,-150 365,-150 365,-186"/>
<text text-anchor="middle" x="327.5" y="-164.3" font-family="Times,serif" font-size="14.00" fill="#000000">p443&#45;p110</text>
</g>
<!-- p143&#45;p143 -->
<g id="node10" class="node">
<title>p143&#45;p143</title>
<polygon fill="none" stroke="#000000" points="375,-346 300,-346 300,-310 375,-310 375,-346"/>
<text text-anchor="middle" x="337.5" y="-324.3" font-family="Times,serif" font-size="14.00" fill="#000000">p143&#45;p143</text>
</g>
<!-- p993&#45;p993 -->
<g id="node11" class="node">
<title>p993&#45;p993</title>
<polygon fill="none" stroke="#b03060" points="275,-346 200,-346 200,-310 275,-310 275,-346"/>
<text text-anchor="middle" x="237.5" y="-324.3" font-family="Times,serif" font-size="14.00" fill="#000000">p993&#45;p993</text>
</g>
<!-- p110&#45;p110 -->
<g id="node12" class="node">
<title>p110&#45;p110</title>
<polygon fill="none" stroke="#7fff00" points="325,-66 250,-66 250,-30 325,-30 325,-66"/>
<text text-anchor="middle" x="287.5" y="-44.3" font-family="Times,serif" font-size="14.00" fill="#000000">p110&#45;p110</text>
</g>
<!-- p443&#45;p143 -->
<g id="node13" class="node">
<title>p443&#45;p143</title>
<polygon fill="none" stroke="#bdb76b" points="95,-66 20,-66 20,-30 95,-30 95,-66"/>
<text text-anchor="middle" x="57.5" y="-44.3" font-family="Times,serif" font-size="14.00" fill="#000000">p443&#45;p143</text>
</g>
<!-- p993&#45;p143 -->
<g id="node14" class="node">
<title>p993&#45;p143</title>
<polygon fill="none" stroke="#e9967a" points="175,-376 100,-376 100,-340 175,-340 175,-376"/>
<text text-anchor="middle" x="137.5" y="-354.3" font-family="Times,serif" font-size="14.00" fill="#000000">p993&#45;p143</text>
</g>
<!-- p993&#45;p110 -->
<g id="node15" class="node">
<title>p993&#45;p110</title>
<polygon fill="none" stroke="#000000" points="75,-386 0,-386 0,-350 75,-350 75,-386"/>
<text text-anchor="middle" x="37.5" y="-364.3" font-family="Times,serif" font-size="14.00" fill="#000000">p993&#45;p110</text>
</g>
<!-- p143&#45;p110 -->
<g id="node16" class="node">
<title>p143&#45;p110</title>
<polygon fill="none" stroke="#00ffff" points="425,-36 350,-36 350,0 425,0 425,-36"/>
<text text-anchor="middle" x="387.5" y="-14.3" font-family="Times,serif" font-size="14.00" fill="#000000">p143&#45;p110</text>
</g>
</g>
</svg>
