<?xml version="1.0" encoding="UTF-8" standalone="no"?>
<!DOCTYPE svg PUBLIC "-//W3C//DTD SVG 1.1//EN"
 "http://www.w3.org/Graphics/SVG/1.1/DTD/svg11.dtd">
<!-- Generated by graphviz version 2.40.1 (20161225.0304)
 -->
<!-- Title: %3 Pages: 1 -->
<svg width="549pt" height="244pt"
 viewBox="0.00 0.00 549.17 244.00" xmlns="http://www.w3.org/2000/svg" xmlns:xlink="http://www.w3.org/1999/xlink">
<g id="graph0" class="graph" transform="scale(1 1) rotate(0) translate(4 240)">
<title>%3</title>
<polygon fill="#ffffff" stroke="transparent" points="-4,4 -4,-240 545.175,-240 545.175,4 -4,4"/>
<!-- 2404 -->
<g id="node1" class="node">
<title>2404</title>
<ellipse fill="#0073cc" stroke="#0073cc" cx="270.7149" cy="-18" rx="28.6953" ry="18"/>
<text text-anchor="middle" x="270.7149" y="-14.3" font-family="Times,serif" font-size="14.00" fill="#000000">2404</text>
</g>
<!-- 2405 -->
<g id="node2" class="node">
<title>2405</title>
<ellipse fill="#00083e" stroke="#00083e" cx="351.9517" cy="-134.3229" rx="28.6953" ry="18"/>
<text text-anchor="middle" x="351.9517" y="-130.6229" font-family="Times,serif" font-size="14.00" fill="#000000">2405</text>
</g>
<!-- 2404&#45;&#45;2405 -->
<g id="edge1" class="edge">
<title>2404&#45;&#45;2405</title>
<path fill="none" stroke="#000000" d="M277.1594,-35.96C280.2982,-44.1188 284.3231,-53.8023 288.6337,-62.2001 300.2755,-84.8795 320.6185,-106.2117 335.1036,-119.7061"/>
</g>
<!-- 2406 -->
<g id="node3" class="node">
<title>2406</title>
<ellipse fill="#00083e" stroke="#00083e" cx="270.558" cy="-144.0043" rx="28.6953" ry="18"/>
<text text-anchor="middle" x="270.558" y="-140.3043" font-family="Times,serif" font-size="14.00" fill="#000000">2406</text>
</g>
<!-- 2404&#45;&#45;2406 -->
<g id="edge2" class="edge">
<title>2404&#45;&#45;2406</title>
<path fill="none" stroke="#000000" d="M270.6924,-36.0533C270.6626,-60.0068 270.6102,-102.0479 270.5804,-125.9845"/>
</g>
<!-- 2407 -->
<g id="node4" class="node">
<title>2407</title>
<ellipse fill="#00083e" stroke="#00083e" cx="189.0572" cy="-134.096" rx="28.6953" ry="18"/>
<text text-anchor="middle" x="189.0572" y="-130.396" font-family="Times,serif" font-size="14.00" fill="#000000">2407</text>
</g>
<!-- 2404&#45;&#45;2407 -->
<g id="edge3" class="edge">
<title>2404&#45;&#45;2407</title>
<path fill="none" stroke="#000000" d="M264.3667,-35.9016C261.2651,-44.0304 257.2751,-53.6734 252.9689,-62.0223 241.2398,-84.7631 220.7018,-106.0658 206.0739,-119.5265"/>
</g>
<!-- 2408 -->
<g id="node5" class="node">
<title>2408</title>
<ellipse fill="#0073cc" stroke="#0073cc" cx="318.831" cy="-62.2715" rx="28.6953" ry="18"/>
<text text-anchor="middle" x="318.831" y="-58.5715" font-family="Times,serif" font-size="14.00" fill="#000000">2408</text>
</g>
<!-- 2404&#45;&#45;2408 -->
<g id="edge4" class="edge">
<title>2404&#45;&#45;2408</title>
<path fill="none" stroke="#000000" d="M287.0048,-32.9883C292.0213,-37.604 297.5425,-42.684 302.5579,-47.2986"/>
</g>
<!-- 2409 -->
<g id="node6" class="node">
<title>2409</title>
<ellipse fill="#0073cc" stroke="#0073cc" cx="222.7714" cy="-62.0044" rx="28.6953" ry="18"/>
<text text-anchor="middle" x="222.7714" y="-58.3044" font-family="Times,serif" font-size="14.00" fill="#000000">2409</text>
</g>
<!-- 2404&#45;&#45;2409 -->
<g id="edge5" class="edge">
<title>2404&#45;&#45;2409</title>
<path fill="none" stroke="#000000" d="M254.4834,-32.8979C249.485,-37.4857 243.9835,-42.5351 238.9862,-47.1219"/>
</g>
<!-- 5606 -->
<g id="node8" class="node">
<title>5606</title>
<ellipse fill="#0073cc" stroke="#0073cc" cx="512.5775" cy="-204.3958" rx="28.6953" ry="18"/>
<text text-anchor="middle" x="512.5775" y="-200.6958" font-family="Times,serif" font-size="14.00" fill="#000000">5606</text>
</g>
<!-- 2405&#45;&#45;5606 -->
<g id="edge17" class="edge">
<title>2405&#45;&#45;5606</title>
<path fill="none" stroke="#ffa500" d="M375.6526,-144.6624C406.1088,-157.9489 458.6646,-180.8763 489.0411,-194.128"/>
</g>
<!-- 2406&#45;&#45;2405 -->
<g id="edge6" class="edge">
<title>2406&#45;&#45;2405</title>
<path fill="none" stroke="#000000" d="M299.0256,-140.6182C307.0023,-139.6694 315.6699,-138.6385 323.6377,-137.6907"/>
</g>
<!-- 2406&#45;&#45;2407 -->
<g id="edge7" class="edge">
<title>2406&#45;&#45;2407</title>
<path fill="none" stroke="#000000" d="M242.053,-140.5389C234.0658,-139.5679 225.3867,-138.5127 217.4085,-137.5428"/>
</g>
<!-- 2406&#45;&#45;2408 -->
<g id="edge8" class="edge">
<title>2406&#45;&#45;2408</title>
<path fill="none" stroke="#000000" d="M280.5602,-127.0692C288.845,-113.0419 300.5603,-93.2063 308.8416,-79.1849"/>
</g>
<!-- 2406&#45;&#45;2409 -->
<g id="edge9" class="edge">
<title>2406&#45;&#45;2409</title>
<path fill="none" stroke="#000000" d="M260.6566,-127.0139C252.4552,-112.9407 240.858,-93.0403 232.6602,-78.9731"/>
</g>
<!-- 2407&#45;&#45;2405 -->
<g id="edge11" class="edge">
<title>2407&#45;&#45;2405</title>
<path fill="none" stroke="#000000" d="M216.8774,-129.1162C232.5869,-126.7253 252.614,-124.3779 270.5706,-124.4043 288.5044,-124.4307 308.4991,-126.8339 324.1815,-129.2678"/>
</g>
<!-- 2407&#45;&#45;2408 -->
<g id="edge12" class="edge">
<title>2407&#45;&#45;2408</title>
<path fill="none" stroke="#000000" d="M210.7784,-122.0742C234.7339,-108.8158 273.0551,-87.6066 297.0389,-74.3325"/>
</g>
<!-- 2407&#45;&#45;2409 -->
<g id="edge13" class="edge">
<title>2407&#45;&#45;2409</title>
<path fill="none" stroke="#000000" d="M197.2185,-116.6446C202.5192,-105.31 209.3996,-90.5975 214.6853,-79.2951"/>
</g>
<!-- 5111 -->
<g id="node7" class="node">
<title>5111</title>
<ellipse fill="#0073cc" stroke="#0073cc" cx="28.5975" cy="-204.3559" rx="28.6953" ry="18"/>
<text text-anchor="middle" x="28.5975" y="-200.6559" font-family="Times,serif" font-size="14.00" fill="#000000">5111</text>
</g>
<!-- 2407&#45;&#45;5111 -->
<g id="edge10" class="edge">
<title>2407&#45;&#45;5111</title>
<path fill="none" stroke="#ffa500" d="M165.3808,-144.4631C134.9561,-157.7851 82.4546,-180.7737 52.1096,-194.0608"/>
</g>
<!-- 2408&#45;&#45;2405 -->
<g id="edge14" class="edge">
<title>2408&#45;&#45;2405</title>
<path fill="none" stroke="#000000" d="M326.8486,-79.7131C332.0177,-90.9581 338.716,-105.5297 343.8932,-116.7922"/>
</g>
<!-- 2408&#45;&#45;2409 -->
<g id="edge15" class="edge">
<title>2408&#45;&#45;2409</title>
<path fill="none" stroke="#000000" d="M290.01,-62.1914C277.852,-62.1576 263.7279,-62.1183 251.5721,-62.0845"/>
</g>
<!-- 2409&#45;&#45;2405 -->
<g id="edge16" class="edge">
<title>2409&#45;&#45;2405</title>
<path fill="none" stroke="#000000" d="M244.3933,-74.1089C268.2393,-87.4585 306.3852,-108.8136 330.2593,-122.1789"/>
</g>
<!-- Cluster 148 -->
<g id="node9" class="node">
<title>Cluster 148</title>
<polygon fill="none" stroke="#000000" points="420,-236 340,-236 340,-200 420,-200 420,-236"/>
<text text-anchor="middle" x="380" y="-214.3" font-family="Times,serif" font-size="14.00" fill="#000000">Cluster 148</text>
</g>
<!-- p443&#45;p443 -->
<g id="node10" class="node">
<title>p443&#45;p443</title>
<polygon fill="none" stroke="#ffa500" points="295,-236 220,-236 220,-200 295,-200 295,-236"/>
<text text-anchor="middle" x="257.5" y="-214.3" font-family="Times,serif" font-size="14.00" fill="#000000">p443&#45;p443</text>
</g>
<!-- p22&#45;p22 -->
<g id="node11" class="node">
<title>p22&#45;p22</title>
<polygon fill="none" stroke="#000000" points="442,-56 380,-56 380,-20 442,-20 442,-56"/>
<text text-anchor="middle" x="411" y="-34.3" font-family="Times,serif" font-size="14.00" fill="#000000">p22&#45;p22</text>
</g>
</g>
</svg>
