<?xml version="1.0" encoding="UTF-8" standalone="no"?>
<!DOCTYPE svg PUBLIC "-//W3C//DTD SVG 1.1//EN"
 "http://www.w3.org/Graphics/SVG/1.1/DTD/svg11.dtd">
<!-- Generated by graphviz version 2.40.1 (20161225.0304)
 -->
<!-- Title: %3 Pages: 1 -->
<svg width="263pt" height="212pt"
 viewBox="0.00 0.00 263.00 212.00" xmlns="http://www.w3.org/2000/svg" xmlns:xlink="http://www.w3.org/1999/xlink">
<g id="graph0" class="graph" transform="scale(1 1) rotate(0) translate(4 208)">
<title>%3</title>
<polygon fill="#ffffff" stroke="transparent" points="-4,4 -4,-208 259,-208 259,4 -4,4"/>
<!-- 1591 -->
<g id="node1" class="node">
<title>1591</title>
<ellipse fill="#001aae" stroke="#001aae" cx="138.3548" cy="-62.5753" rx="28.6953" ry="18"/>
<text text-anchor="middle" x="138.3548" y="-58.8753" font-family="Times,serif" font-size="14.00" fill="#000000">1591</text>
</g>
<!-- 1592 -->
<g id="node2" class="node">
<title>1592</title>
<ellipse fill="#001aae" stroke="#001aae" cx="93.7989" cy="-125.4007" rx="28.6953" ry="18"/>
<text text-anchor="middle" x="93.7989" y="-121.7007" font-family="Times,serif" font-size="14.00" fill="#000000">1592</text>
</g>
<!-- 1591&#45;&#45;1592 -->
<g id="edge1" class="edge">
<title>1591&#45;&#45;1592</title>
<path fill="none" stroke="#ffa500" d="M126.6483,-79.0819C120.1509,-88.2435 112.0916,-99.6073 105.582,-108.7862"/>
</g>
<!-- 1593 -->
<g id="node3" class="node">
<title>1593</title>
<ellipse fill="#001aae" stroke="#001aae" cx="28.5975" cy="-81.516" rx="28.6953" ry="18"/>
<text text-anchor="middle" x="28.5975" y="-77.816" font-family="Times,serif" font-size="14.00" fill="#000000">1593</text>
</g>
<!-- 1591&#45;&#45;1593 -->
<g id="edge2" class="edge">
<title>1591&#45;&#45;1593</title>
<path fill="none" stroke="#ffa500" d="M110.6584,-67.3548C94.02,-70.2261 72.9218,-73.867 56.285,-76.738"/>
</g>
<!-- 1594 -->
<g id="node4" class="node">
<title>1594</title>
<ellipse fill="#00201c" stroke="#00201c" cx="74.4384" cy="-18" rx="28.6953" ry="18"/>
<text text-anchor="middle" x="74.4384" y="-14.3" font-family="Times,serif" font-size="14.00" fill="#000000">1594</text>
</g>
<!-- 1591&#45;&#45;1594 -->
<g id="edge3" class="edge">
<title>1591&#45;&#45;1594</title>
<path fill="none" stroke="#ffa500" d="M119.1778,-49.2012C111.0881,-43.5595 101.6902,-37.0054 93.6019,-31.3646"/>
</g>
<!-- 1593&#45;&#45;1592 -->
<g id="edge4" class="edge">
<title>1593&#45;&#45;1592</title>
<path fill="none" stroke="#ffa500" d="M48.16,-94.6829C56.4124,-100.2372 65.9993,-106.6898 74.2501,-112.2431"/>
</g>
<!-- 1593&#45;&#45;1594 -->
<g id="edge5" class="edge">
<title>1593&#45;&#45;1594</title>
<path fill="none" stroke="#ffa500" d="M40.6416,-64.8279C47.3265,-55.5656 55.6182,-44.0769 62.3156,-34.7972"/>
</g>
<!-- 1594&#45;&#45;1592 -->
<g id="edge6" class="edge">
<title>1594&#45;&#45;1592</title>
<path fill="none" stroke="#ffa500" d="M77.7227,-36.2191C81.3044,-56.0884 87.0007,-87.688 90.5632,-107.4507"/>
</g>
<!-- Cluster 56 -->
<g id="node5" class="node">
<title>Cluster 56</title>
<polygon fill="none" stroke="#000000" points="217,-144 144,-144 144,-108 217,-108 217,-144"/>
<text text-anchor="middle" x="180.5" y="-122.3" font-family="Times,serif" font-size="14.00" fill="#000000">Cluster 56</text>
</g>
<!-- p443&#45;p443 -->
<g id="node6" class="node">
<title>p443&#45;p443</title>
<polygon fill="none" stroke="#ffa500" points="255,-204 180,-204 180,-168 255,-168 255,-204"/>
<text text-anchor="middle" x="217.5" y="-182.3" font-family="Times,serif" font-size="14.00" fill="#000000">p443&#45;p443</text>
</g>
</g>
</svg>
