<?xml version="1.0" encoding="UTF-8" standalone="no"?>
<!DOCTYPE svg PUBLIC "-//W3C//DTD SVG 1.1//EN"
 "http://www.w3.org/Graphics/SVG/1.1/DTD/svg11.dtd">
<!-- Generated by graphviz version 2.40.1 (20161225.0304)
 -->
<!-- Title: %3 Pages: 1 -->
<svg width="376pt" height="341pt"
 viewBox="0.00 0.00 376.00 341.00" xmlns="http://www.w3.org/2000/svg" xmlns:xlink="http://www.w3.org/1999/xlink">
<g id="graph0" class="graph" transform="scale(1 1) rotate(0) translate(4 337)">
<title>%3</title>
<polygon fill="#ffffff" stroke="transparent" points="-4,4 -4,-337 372,-337 372,4 -4,4"/>
<!-- 1019 -->
<g id="node1" class="node">
<title>1019</title>
<ellipse fill="#00407d" stroke="#00407d" cx="139.0567" cy="-129.3204" rx="28.6953" ry="18"/>
<text text-anchor="middle" x="139.0567" y="-125.6204" font-family="Times,serif" font-size="14.00" fill="#000000">1019</text>
</g>
<!-- 1020 -->
<g id="node2" class="node">
<title>1020</title>
<ellipse fill="#00407d" stroke="#00407d" cx="138.5411" cy="-182.3648" rx="28.6953" ry="18"/>
<text text-anchor="middle" x="138.5411" y="-178.6648" font-family="Times,serif" font-size="14.00" fill="#000000">1020</text>
</g>
<!-- 1019&#45;&#45;1020 -->
<g id="edge1" class="edge">
<title>1019&#45;&#45;1020</title>
<path fill="none" stroke="#0000ff" d="M110.3011,-131.1862C58.4716,-139.2503 58.227,-170.9593 110.0176,-179.9737"/>
</g>
<!-- 1019&#45;&#45;1020 -->
<g id="edge2" class="edge">
<title>1019&#45;&#45;1020</title>
<path fill="none" stroke="#ffebcd" d="M167.7706,-131.7448C219.4335,-140.8147 219.0618,-172.5226 167.1057,-180.5285"/>
</g>
<!-- 1019&#45;&#45;1020 -->
<g id="edge3" class="edge">
<title>1019&#45;&#45;1020</title>
<path fill="none" stroke="#dc143c" d="M167.208,-132.9932C201.4843,-142.8853 201.2697,-169.927 166.9034,-179.2009"/>
</g>
<!-- 1019&#45;&#45;1020 -->
<g id="edge4" class="edge">
<title>1019&#45;&#45;1020</title>
<path fill="none" stroke="#a52a2a" d="M165.96,-135.6673C183.8543,-146.0199 183.7105,-166.386 165.726,-176.4511"/>
</g>
<!-- 1019&#45;&#45;1020 -->
<g id="edge5" class="edge">
<title>1019&#45;&#45;1020</title>
<path fill="none" stroke="#7fff00" d="M161.4902,-140.7889C167.3474,-149.8484 167.2217,-162.411 161.1825,-171.3506"/>
</g>
<!-- 1019&#45;&#45;1020 -->
<g id="edge6" class="edge">
<title>1019&#45;&#45;1020</title>
<path fill="none" stroke="#00ffff" d="M151.4461,-145.6456C152.636,-152.1169 152.5808,-159.5436 151.299,-166.0171"/>
</g>
<!-- 1019&#45;&#45;1020 -->
<g id="edge7" class="edge">
<title>1019&#45;&#45;1020</title>
<path fill="none" stroke="#000000" d="M138.8792,-147.5753C138.8268,-152.9696 138.7695,-158.8709 138.7171,-164.256"/>
</g>
<!-- 1019&#45;&#45;1020 -->
<g id="edge8" class="edge">
<title>1019&#45;&#45;1020</title>
<path fill="none" stroke="#000000" d="M126.2943,-145.6907C125.0232,-152.1265 124.9637,-159.5014 126.1339,-165.9422"/>
</g>
<!-- 1019&#45;&#45;1020 -->
<g id="edge9" class="edge">
<title>1019&#45;&#45;1020</title>
<path fill="none" stroke="#e9967a" d="M116.4045,-140.3507C110.3723,-149.2947 110.2537,-161.8573 116.1181,-170.9126"/>
</g>
<!-- 1019&#45;&#45;1020 -->
<g id="edge10" class="edge">
<title>1019&#45;&#45;1020</title>
<path fill="none" stroke="#ffa500" d="M111.6697,-135.348C93.9078,-145.4401 93.811,-165.6558 111.5739,-175.9808"/>
</g>
<!-- 1019&#45;&#45;1020 -->
<g id="edge11" class="edge">
<title>1019&#45;&#45;1020</title>
<path fill="none" stroke="#b03060" d="M110.8393,-132.4453C76.3772,-141.6693 76.0662,-168.7101 110.2457,-178.6502"/>
</g>
<!-- 1021 -->
<g id="node3" class="node">
<title>1021</title>
<ellipse fill="#00407d" stroke="#00407d" cx="64.5975" cy="-155.6621" rx="28.6953" ry="18"/>
<text text-anchor="middle" x="64.5975" y="-151.9621" font-family="Times,serif" font-size="14.00" fill="#000000">1021</text>
</g>
<!-- 1019&#45;&#45;1021 -->
<g id="edge12" class="edge">
<title>1019&#45;&#45;1021</title>
<path fill="none" stroke="#0000ff" d="M131.1352,-111.8753C102.7914,-62.7084 50.4678,-81.4918 59.9124,-137.8901"/>
</g>
<!-- 1019&#45;&#45;1021 -->
<g id="edge13" class="edge">
<title>1019&#45;&#45;1021</title>
<path fill="none" stroke="#ffebcd" d="M143.8042,-147.4705C152.953,-203.5786 100.7917,-222.1668 72.5127,-173.0964"/>
</g>
<!-- 1019&#45;&#45;1021 -->
<g id="edge14" class="edge">
<title>1019&#45;&#45;1021</title>
<path fill="none" stroke="#dc143c" d="M142.7075,-147.2512C144.4326,-187.4366 98.113,-204.22 73.746,-172.8384"/>
</g>
<!-- 1019&#45;&#45;1021 -->
<g id="edge15" class="edge">
<title>1019&#45;&#45;1021</title>
<path fill="none" stroke="#a52a2a" d="M140.2132,-147.4033C134.3014,-171.8034 98.2177,-185.3116 77.1869,-171.9284"/>
</g>
<!-- 1019&#45;&#45;1021 -->
<g id="edge16" class="edge">
<title>1019&#45;&#45;1021</title>
<path fill="none" stroke="#7fff00" d="M133.2918,-146.9545C123.3983,-157.1008 104.0742,-164.9542 88.2963,-165.9236"/>
</g>
<!-- 1019&#45;&#45;1021 -->
<g id="edge17" class="edge">
<title>1019&#45;&#45;1021</title>
<path fill="none" stroke="#00ffff" d="M119.5831,-142.7713C111.4626,-146.3181 101.8794,-149.8129 93.0026,-152.4885"/>
</g>
<!-- 1019&#45;&#45;1021 -->
<g id="edge18" class="edge">
<title>1019&#45;&#45;1021</title>
<path fill="none" stroke="#000000" d="M110.8561,-132.4325C101.9841,-135.0973 92.3882,-138.5883 84.2417,-142.1367"/>
</g>
<!-- 1019&#45;&#45;1021 -->
<g id="edge19" class="edge">
<title>1019&#45;&#45;1021</title>
<path fill="none" stroke="#000000" d="M115.5677,-119.0464C99.8244,-119.9545 80.4783,-127.7644 70.4998,-137.8877"/>
</g>
<!-- 1019&#45;&#45;1021 -->
<g id="edge20" class="edge">
<title>1019&#45;&#45;1021</title>
<path fill="none" stroke="#e9967a" d="M126.4401,-113.0368C105.4741,-99.7263 69.5858,-113.1015 63.4999,-137.3403"/>
</g>
<!-- 1019&#45;&#45;1021 -->
<g id="edge21" class="edge">
<title>1019&#45;&#45;1021</title>
<path fill="none" stroke="#b03060" d="M129.7075,-111.8875C105.3258,-80.9028 59.3694,-97.6038 60.9389,-137.5446"/>
</g>
<!-- 1022 -->
<g id="node4" class="node">
<title>1022</title>
<ellipse fill="#00407d" stroke="#00407d" cx="204.2581" cy="-126" rx="28.6953" ry="18"/>
<text text-anchor="middle" x="204.2581" y="-122.3" font-family="Times,serif" font-size="14.00" fill="#000000">1022</text>
</g>
<!-- 1019&#45;&#45;1022 -->
<g id="edge22" class="edge">
<title>1019&#45;&#45;1022</title>
<path fill="none" stroke="#ffa500" d="M167.8448,-127.8544C170.4375,-127.7223 173.0628,-127.5886 175.6539,-127.4567"/>
</g>
<!-- 1023 -->
<g id="node5" class="node">
<title>1023</title>
<ellipse fill="#00407d" stroke="#00407d" cx="205.0121" cy="-185.2412" rx="28.6953" ry="18"/>
<text text-anchor="middle" x="205.0121" y="-181.5412" font-family="Times,serif" font-size="14.00" fill="#000000">1023</text>
</g>
<!-- 1019&#45;&#45;1023 -->
<g id="edge23" class="edge">
<title>1019&#45;&#45;1023</title>
<path fill="none" stroke="#ffa500" d="M156.3857,-144.0129C166.0037,-152.1677 177.9337,-162.2826 187.5698,-170.4526"/>
</g>
<!-- 1020&#45;&#45;1021 -->
<g id="edge27" class="edge">
<title>1020&#45;&#45;1021</title>
<path fill="none" stroke="#0000ff" d="M143.4136,-164.2485C152.9716,-108.217 101.1725,-89.376 72.619,-138.2772"/>
</g>
<!-- 1020&#45;&#45;1021 -->
<g id="edge28" class="edge">
<title>1020&#45;&#45;1021</title>
<path fill="none" stroke="#ffebcd" d="M130.5133,-199.7605C101.9558,-248.6526 50.1582,-229.8023 59.7276,-173.7629"/>
</g>
<!-- 1020&#45;&#45;1021 -->
<g id="edge29" class="edge">
<title>1020&#45;&#45;1021</title>
<path fill="none" stroke="#dc143c" d="M129.0915,-199.7411C104.5633,-230.5861 58.9286,-213.6625 60.8097,-173.7513"/>
</g>
<!-- 1020&#45;&#45;1021 -->
<g id="edge30" class="edge">
<title>1020&#45;&#45;1021</title>
<path fill="none" stroke="#a52a2a" d="M125.8467,-198.5759C104.8608,-211.7736 69.2265,-198.2247 63.3585,-173.9684"/>
</g>
<!-- 1020&#45;&#45;1021 -->
<g id="edge31" class="edge">
<title>1020&#45;&#45;1021</title>
<path fill="none" stroke="#7fff00" d="M114.6517,-192.4871C99.0089,-191.385 79.9856,-183.4859 70.2427,-173.362"/>
</g>
<!-- 1020&#45;&#45;1021 -->
<g id="edge32" class="edge">
<title>1020&#45;&#45;1021</title>
<path fill="none" stroke="#00ffff" d="M110.0579,-178.9817C101.2787,-176.2651 91.8284,-172.7421 83.8235,-169.177"/>
</g>
<!-- 1020&#45;&#45;1021 -->
<g id="edge33" class="edge">
<title>1020&#45;&#45;1021</title>
<path fill="none" stroke="#000000" d="M119.2546,-168.823C111.1957,-165.2373 101.6797,-161.696 92.8606,-158.9772"/>
</g>
<!-- 1020&#45;&#45;1021 -->
<g id="edge34" class="edge">
<title>1020&#45;&#45;1021</title>
<path fill="none" stroke="#000000" d="M132.9403,-164.7112C123.1682,-154.5205 103.986,-146.5741 88.2807,-145.5256"/>
</g>
<!-- 1020&#45;&#45;1021 -->
<g id="edge35" class="edge">
<title>1020&#45;&#45;1021</title>
<path fill="none" stroke="#e9967a" d="M139.8369,-164.2975C134.1436,-139.8808 98.3157,-126.1982 77.2647,-139.4681"/>
</g>
<!-- 1020&#45;&#45;1021 -->
<g id="edge36" class="edge">
<title>1020&#45;&#45;1021</title>
<path fill="none" stroke="#b03060" d="M142.3198,-164.4621C144.3577,-124.3073 98.362,-107.2995 73.8452,-138.5413"/>
</g>
<!-- 1022&#45;&#45;1020 -->
<g id="edge24" class="edge">
<title>1022&#45;&#45;1020</title>
<path fill="none" stroke="#ffa500" d="M187.3344,-140.5153C177.5986,-148.8656 165.4003,-159.3279 155.6359,-167.7027"/>
</g>
<!-- 1022&#45;&#45;1023 -->
<g id="edge25" class="edge">
<title>1022&#45;&#45;1023</title>
<path fill="none" stroke="#ffa500" d="M204.4884,-144.0962C204.5802,-151.3099 204.6858,-159.604 204.778,-166.847"/>
</g>
<!-- 1023&#45;&#45;1020 -->
<g id="edge26" class="edge">
<title>1023&#45;&#45;1020</title>
<path fill="none" stroke="#ffa500" d="M176.4366,-184.0046C173.3402,-183.8706 170.1886,-183.7343 167.0924,-183.6003"/>
</g>
<!-- Cluster 32 -->
<g id="node6" class="node">
<title>Cluster 32</title>
<polygon fill="none" stroke="#000000" points="82,-333 9,-333 9,-297 82,-297 82,-333"/>
<text text-anchor="middle" x="45.5" y="-311.3" font-family="Times,serif" font-size="14.00" fill="#000000">Cluster 32</text>
</g>
<!-- p993&#45;p25 -->
<g id="node7" class="node">
<title>p993&#45;p25</title>
<polygon fill="none" stroke="#a52a2a" points="68,-63 0,-63 0,-27 68,-27 68,-63"/>
<text text-anchor="middle" x="34" y="-41.3" font-family="Times,serif" font-size="14.00" fill="#000000">p993&#45;p25</text>
</g>
<!-- p993&#45;p110 -->
<g id="node8" class="node">
<title>p993&#45;p110</title>
<polygon fill="none" stroke="#000000" points="282,-261 207,-261 207,-225 282,-225 282,-261"/>
<text text-anchor="middle" x="244.5" y="-239.3" font-family="Times,serif" font-size="14.00" fill="#000000">p993&#45;p110</text>
</g>
<!-- p143&#45;p143 -->
<g id="node9" class="node">
<title>p143&#45;p143</title>
<polygon fill="none" stroke="#000000" points="219,-90 144,-90 144,-54 219,-54 219,-90"/>
<text text-anchor="middle" x="181.5" y="-68.3" font-family="Times,serif" font-size="14.00" fill="#000000">p143&#45;p143</text>
</g>
<!-- p25&#45;p25 -->
<g id="node10" class="node">
<title>p25&#45;p25</title>
<polygon fill="none" stroke="#0000ff" points="368,-252 306,-252 306,-216 368,-216 368,-252"/>
<text text-anchor="middle" x="337" y="-230.3" font-family="Times,serif" font-size="14.00" fill="#000000">p25&#45;p25</text>
</g>
<!-- p993&#45;p143 -->
<g id="node11" class="node">
<title>p993&#45;p143</title>
<polygon fill="none" stroke="#e9967a" points="318,-90 243,-90 243,-54 318,-54 318,-90"/>
<text text-anchor="middle" x="280.5" y="-68.3" font-family="Times,serif" font-size="14.00" fill="#000000">p993&#45;p143</text>
</g>
<!-- p443&#45;p443 -->
<g id="node12" class="node">
<title>p443&#45;p443</title>
<polygon fill="none" stroke="#ffa500" points="327,-144 252,-144 252,-108 327,-108 327,-144"/>
<text text-anchor="middle" x="289.5" y="-122.3" font-family="Times,serif" font-size="14.00" fill="#000000">p443&#45;p443</text>
</g>
<!-- p143&#45;p25 -->
<g id="node13" class="node">
<title>p143&#45;p25</title>
<polygon fill="none" stroke="#dc143c" points="212,-36 144,-36 144,0 212,0 212,-36"/>
<text text-anchor="middle" x="178" y="-14.3" font-family="Times,serif" font-size="14.00" fill="#000000">p143&#45;p25</text>
</g>
<!-- p143&#45;p110 -->
<g id="node14" class="node">
<title>p143&#45;p110</title>
<polygon fill="none" stroke="#00ffff" points="327,-198 252,-198 252,-162 327,-162 327,-198"/>
<text text-anchor="middle" x="289.5" y="-176.3" font-family="Times,serif" font-size="14.00" fill="#000000">p143&#45;p110</text>
</g>
<!-- p110&#45;p25 -->
<g id="node15" class="node">
<title>p110&#45;p25</title>
<polygon fill="none" stroke="#ffebcd" points="302,-36 234,-36 234,0 302,0 302,-36"/>
<text text-anchor="middle" x="268" y="-14.3" font-family="Times,serif" font-size="14.00" fill="#000000">p110&#45;p25</text>
</g>
<!-- p110&#45;p110 -->
<g id="node16" class="node">
<title>p110&#45;p110</title>
<polygon fill="none" stroke="#7fff00" points="183,-306 108,-306 108,-270 183,-270 183,-306"/>
<text text-anchor="middle" x="145.5" y="-284.3" font-family="Times,serif" font-size="14.00" fill="#000000">p110&#45;p110</text>
</g>
<!-- p993&#45;p993 -->
<g id="node17" class="node">
<title>p993&#45;p993</title>
<polygon fill="none" stroke="#b03060" points="336,-315 261,-315 261,-279 336,-279 336,-315"/>
<text text-anchor="middle" x="298.5" y="-293.3" font-family="Times,serif" font-size="14.00" fill="#000000">p993&#45;p993</text>
</g>
</g>
</svg>
