<?xml version="1.0" encoding="UTF-8" standalone="no"?>
<!DOCTYPE svg PUBLIC "-//W3C//DTD SVG 1.1//EN"
 "http://www.w3.org/Graphics/SVG/1.1/DTD/svg11.dtd">
<!-- Generated by graphviz version 2.40.1 (20161225.0304)
 -->
<!-- Title: %3 Pages: 1 -->
<svg width="516pt" height="440pt"
 viewBox="0.00 0.00 515.95 440.00" xmlns="http://www.w3.org/2000/svg" xmlns:xlink="http://www.w3.org/1999/xlink">
<g id="graph0" class="graph" transform="scale(1 1) rotate(0) translate(4 436)">
<title>%3</title>
<polygon fill="#ffffff" stroke="transparent" points="-4,4 -4,-436 511.9549,-436 511.9549,4 -4,4"/>
<!-- 4384 -->
<g id="node1" class="node">
<title>4384</title>
<ellipse fill="#007992" stroke="#007992" cx="180.677" cy="-268.6193" rx="28.6953" ry="18"/>
<text text-anchor="middle" x="180.677" y="-264.9193" font-family="Times,serif" font-size="14.00" fill="#000000">4384</text>
</g>
<!-- 4385 -->
<g id="node2" class="node">
<title>4385</title>
<ellipse fill="#007992" stroke="#007992" cx="245.1581" cy="-215.6176" rx="28.6953" ry="18"/>
<text text-anchor="middle" x="245.1581" y="-211.9176" font-family="Times,serif" font-size="14.00" fill="#000000">4385</text>
</g>
<!-- 4384&#45;&#45;4385 -->
<g id="edge1" class="edge">
<title>4384&#45;&#45;4385</title>
<path fill="none" stroke="#ffa500" d="M198.2968,-254.1363C207.3951,-246.6577 218.4644,-237.5591 227.5597,-230.083"/>
</g>
<!-- 4386 -->
<g id="node3" class="node">
<title>4386</title>
<ellipse fill="#007992" stroke="#007992" cx="84.5524" cy="-215.6934" rx="28.6953" ry="18"/>
<text text-anchor="middle" x="84.5524" y="-211.9934" font-family="Times,serif" font-size="14.00" fill="#000000">4386</text>
</g>
<!-- 4384&#45;&#45;4386 -->
<g id="edge2" class="edge">
<title>4384&#45;&#45;4386</title>
<path fill="none" stroke="#ee82ee" d="M176.1529,-250.738C164.0098,-235.2094 134.9746,-217.9704 112.5412,-211.9566"/>
</g>
<!-- 4384&#45;&#45;4386 -->
<g id="edge3" class="edge">
<title>4384&#45;&#45;4386</title>
<path fill="none" stroke="#bdb76b" d="M152.6675,-272.3506C130.19,-266.3191 101.0944,-249.0264 89.0006,-233.4774"/>
</g>
<!-- 4384&#45;&#45;4386 -->
<g id="edge4" class="edge">
<title>4384&#45;&#45;4386</title>
<path fill="none" stroke="#ffa500" d="M154.5727,-260.9567C137.2825,-252.9072 115.2017,-240.5906 100.474,-230.6929"/>
</g>
<!-- 4384&#45;&#45;4386 -->
<g id="edge5" class="edge">
<title>4384&#45;&#45;4386</title>
<path fill="none" stroke="#8fbc8f" d="M164.7757,-253.6335C150.039,-243.7274 127.9278,-231.3941 110.6249,-223.3412"/>
</g>
<!-- 4387 -->
<g id="node4" class="node">
<title>4387</title>
<ellipse fill="#007992" stroke="#007992" cx="115.5084" cy="-153" rx="28.6953" ry="18"/>
<text text-anchor="middle" x="115.5084" y="-149.3" font-family="Times,serif" font-size="14.00" fill="#000000">4387</text>
</g>
<!-- 4384&#45;&#45;4387 -->
<g id="edge6" class="edge">
<title>4384&#45;&#45;4387</title>
<path fill="none" stroke="#ee82ee" d="M185.2434,-250.5987C181.7126,-225.9605 159.0002,-184.0391 139.0143,-163.7024"/>
</g>
<!-- 4384&#45;&#45;4387 -->
<g id="edge7" class="edge">
<title>4384&#45;&#45;4387</title>
<path fill="none" stroke="#bdb76b" d="M157.2639,-258.0111C137.2202,-237.6742 114.3978,-195.5484 110.9234,-170.8899"/>
</g>
<!-- 4384&#45;&#45;4387 -->
<g id="edge8" class="edge">
<title>4384&#45;&#45;4387</title>
<path fill="none" stroke="#ffa500" d="M166.0842,-253.0396C151.3788,-231.7023 130.0198,-193.6317 120.1813,-171.0715"/>
</g>
<!-- 4384&#45;&#45;4387 -->
<g id="edge9" class="edge">
<title>4384&#45;&#45;4387</title>
<path fill="none" stroke="#8fbc8f" d="M176.0596,-250.6751C166.2365,-228.1092 144.7927,-189.8832 130.0583,-168.5176"/>
</g>
<!-- 4388 -->
<g id="node5" class="node">
<title>4388</title>
<ellipse fill="#007992" stroke="#007992" cx="180.7098" cy="-163.015" rx="28.6953" ry="18"/>
<text text-anchor="middle" x="180.7098" y="-159.315" font-family="Times,serif" font-size="14.00" fill="#000000">4388</text>
</g>
<!-- 4384&#45;&#45;4388 -->
<g id="edge10" class="edge">
<title>4384&#45;&#45;4388</title>
<path fill="none" stroke="#ee82ee" d="M199.6064,-254.8192C210.3786,-234.5836 210.3909,-197.0744 199.6324,-176.8302"/>
</g>
<!-- 4384&#45;&#45;4388 -->
<g id="edge11" class="edge">
<title>4384&#45;&#45;4388</title>
<path fill="none" stroke="#ff7f50" d="M161.7563,-254.8075C150.9965,-234.5652 151.0076,-197.056 161.7787,-176.8184"/>
</g>
<!-- 4384&#45;&#45;4388 -->
<g id="edge12" class="edge">
<title>4384&#45;&#45;4388</title>
<path fill="none" stroke="#bdb76b" d="M170.4526,-251.6489C166.0952,-231.9407 166.1083,-199.6244 170.4842,-179.9368"/>
</g>
<!-- 4384&#45;&#45;4388 -->
<g id="edge13" class="edge">
<title>4384&#45;&#45;4388</title>
<path fill="none" stroke="#ffa500" d="M180.6827,-250.2244C180.6887,-230.8414 180.6982,-200.5021 180.7042,-181.199"/>
</g>
<!-- 4384&#45;&#45;4388 -->
<g id="edge14" class="edge">
<title>4384&#45;&#45;4388</title>
<path fill="none" stroke="#8fbc8f" d="M190.9119,-251.6553C195.2816,-231.9497 195.2886,-199.6335 190.9249,-179.9432"/>
</g>
<!-- 4389 -->
<g id="node6" class="node">
<title>4389</title>
<ellipse fill="#007992" stroke="#007992" cx="115.4482" cy="-278.3345" rx="28.6953" ry="18"/>
<text text-anchor="middle" x="115.4482" y="-274.6345" font-family="Times,serif" font-size="14.00" fill="#000000">4389</text>
</g>
<!-- 4384&#45;&#45;4389 -->
<g id="edge15" class="edge">
<title>4384&#45;&#45;4389</title>
<path fill="none" stroke="#ee82ee" d="M164.0138,-253.8779C151.331,-251.0138 134.4444,-253.9891 124.2419,-261.1821"/>
</g>
<!-- 4384&#45;&#45;4389 -->
<g id="edge16" class="edge">
<title>4384&#45;&#45;4389</title>
<path fill="none" stroke="#ff7f50" d="M171.6427,-285.9397C161.4271,-293.004 144.728,-295.9119 132.1487,-293.0843"/>
</g>
<!-- 4384&#45;&#45;4389 -->
<g id="edge17" class="edge">
<title>4384&#45;&#45;4389</title>
<path fill="none" stroke="#bdb76b" d="M156.9844,-278.7889C152.8281,-279.6048 148.4627,-280.2936 144.1873,-280.8108"/>
</g>
<!-- 4384&#45;&#45;4389 -->
<g id="edge18" class="edge">
<title>4384&#45;&#45;4389</title>
<path fill="none" stroke="#8fbc8f" d="M152.03,-266.1319C147.7064,-266.6526 143.2885,-267.3493 139.086,-268.1757"/>
</g>
<!-- 4385&#45;&#45;4386 -->
<g id="edge114" class="edge">
<title>4385&#45;&#45;4386</title>
<path fill="none" stroke="#ee82ee" d="M226.0974,-201.9631C195.1832,-193.1934 134.4653,-193.2244 103.5754,-202.028"/>
</g>
<!-- 4385&#45;&#45;4386 -->
<g id="edge115" class="edge">
<title>4385&#45;&#45;4386</title>
<path fill="none" stroke="#bdb76b" d="M226.1103,-229.2902C195.2044,-238.089 134.4865,-238.1154 103.5883,-229.341"/>
</g>
<!-- 4385&#45;&#45;4386 -->
<g id="edge116" class="edge">
<title>4385&#45;&#45;4386</title>
<path fill="none" stroke="#ffa500" d="M217.5515,-220.8727C188.0455,-222.8993 141.5444,-222.9192 112.072,-220.9162"/>
</g>
<!-- 4385&#45;&#45;4386 -->
<g id="edge117" class="edge">
<title>4385&#45;&#45;4386</title>
<path fill="none" stroke="#8fbc8f" d="M217.5465,-210.3886C188.0387,-208.3898 141.5376,-208.4139 112.067,-210.4447"/>
</g>
<!-- 4387&#45;&#45;4385 -->
<g id="edge19" class="edge">
<title>4387&#45;&#45;4385</title>
<path fill="none" stroke="#ee82ee" d="M121.8619,-170.5648C127.5718,-185.3056 136.1254,-204.7301 143.0941,-209.3795 149.069,-213.366 188.3136,-214.8048 216.3282,-215.324"/>
</g>
<!-- 4387&#45;&#45;4385 -->
<g id="edge20" class="edge">
<title>4387&#45;&#45;4385</title>
<path fill="none" stroke="#bdb76b" d="M137.2019,-165.224C144.19,-169.0472 152.0111,-173.211 159.2793,-176.8236 179.9143,-187.0801 203.8423,-197.7963 221.1761,-205.3544"/>
</g>
<!-- 4387&#45;&#45;4385 -->
<g id="edge21" class="edge">
<title>4387&#45;&#45;4385</title>
<path fill="none" stroke="#ffa500" d="M130.0143,-168.9022C136.7287,-175.4825 145.1528,-182.7242 153.8842,-187.6756 164.9726,-193.9635 195.715,-202.7895 218.4526,-208.8244"/>
</g>
<!-- 4387&#45;&#45;4385 -->
<g id="edge22" class="edge">
<title>4387&#45;&#45;4385</title>
<path fill="none" stroke="#8fbc8f" d="M125.8458,-169.9102C133.1356,-181.2769 142.626,-194.8568 148.4891,-198.5276 159.6008,-205.4844 192.2901,-210.2516 216.5754,-212.946"/>
</g>
<!-- 4387&#45;&#45;4386 -->
<g id="edge23" class="edge">
<title>4387&#45;&#45;4386</title>
<path fill="none" stroke="#0000ff" d="M90.7063,-144.0049C43.6697,-133.6642 25.5261,-172.0503 64.061,-202.8911"/>
</g>
<!-- 4387&#45;&#45;4386 -->
<g id="edge24" class="edge">
<title>4387&#45;&#45;4386</title>
<path fill="none" stroke="#dc143c" d="M135.9992,-165.8019C174.5255,-196.6352 156.4002,-235.0106 109.3889,-224.6961"/>
</g>
<!-- 4387&#45;&#45;4386 -->
<g id="edge25" class="edge">
<title>4387&#45;&#45;4386</title>
<path fill="none" stroke="#ee82ee" d="M134.7086,-166.8963C156.8675,-190.9828 142.5476,-222.8202 111.3624,-222.686"/>
</g>
<!-- 4387&#45;&#45;4386 -->
<g id="edge26" class="edge">
<title>4387&#45;&#45;4386</title>
<path fill="none" stroke="#a52a2a" d="M131.2748,-168.2618C139.6466,-185.5851 130.266,-208.513 113.2342,-216.5876"/>
</g>
<!-- 4387&#45;&#45;4386 -->
<g id="edge27" class="edge">
<title>4387&#45;&#45;4386</title>
<path fill="none" stroke="#000000" d="M124.2938,-170.2145C124.2465,-181.9573 118.1044,-196.5627 109.6626,-206.3448"/>
</g>
<!-- 4387&#45;&#45;4386 -->
<g id="edge28" class="edge">
<title>4387&#45;&#45;4386</title>
<path fill="none" stroke="#bdb76b" d="M113.1607,-171.1164C109.7624,-180.2626 104.4622,-191.2207 99.2283,-200.005"/>
</g>
<!-- 4387&#45;&#45;4386 -->
<g id="edge29" class="edge">
<title>4387&#45;&#45;4386</title>
<path fill="none" stroke="#e9967a" d="M100.8143,-168.7189C95.6044,-177.4676 90.3312,-188.3654 86.9355,-197.4818"/>
</g>
<!-- 4387&#45;&#45;4386 -->
<g id="edge30" class="edge">
<title>4387&#45;&#45;4386</title>
<path fill="none" stroke="#ffa500" d="M90.6655,-162.0414C82.1652,-171.7331 75.9303,-186.3411 75.7699,-198.151"/>
</g>
<!-- 4387&#45;&#45;4386 -->
<g id="edge31" class="edge">
<title>4387&#45;&#45;4386</title>
<path fill="none" stroke="#8fbc8f" d="M86.868,-152.0863C69.7767,-160.1591 60.3706,-183.184 68.8353,-200.5331"/>
</g>
<!-- 4387&#45;&#45;4386 -->
<g id="edge32" class="edge">
<title>4387&#45;&#45;4386</title>
<path fill="none" stroke="#b03060" d="M88.9584,-146.0093C57.4922,-145.6955 43.039,-177.8495 65.5676,-202.0298"/>
</g>
<!-- 4387&#45;&#45;4388 -->
<g id="edge33" class="edge">
<title>4387&#45;&#45;4388</title>
<path fill="none" stroke="#0000ff" d="M113.3172,-171.0218C105.2378,-263.6011 157.2154,-271.6588 177.3437,-181.0781"/>
</g>
<!-- 4387&#45;&#45;4388 -->
<g id="edge34" class="edge">
<title>4387&#45;&#45;4388</title>
<path fill="none" stroke="#ffebcd" d="M118.8931,-134.853C139.0203,-44.4267 190.9026,-52.4307 182.9185,-144.7921"/>
</g>
<!-- 4387&#45;&#45;4388 -->
<g id="edge35" class="edge">
<title>4387&#45;&#45;4388</title>
<path fill="none" stroke="#dc143c" d="M119.1282,-134.9271C137.458,-62.3538 187.0602,-70.039 182.6694,-144.8861"/>
</g>
<!-- 4387&#45;&#45;4388 -->
<g id="edge36" class="edge">
<title>4387&#45;&#45;4388</title>
<path fill="none" stroke="#ee82ee" d="M119.5307,-135.1048C136.3598,-80.3313 182.778,-87.5538 182.2414,-145.0152"/>
</g>
<!-- 4387&#45;&#45;4388 -->
<g id="edge37" class="edge">
<title>4387&#45;&#45;4388</title>
<path fill="none" stroke="#a52a2a" d="M120.4729,-135.1357C136.3006,-98.5012 177.5926,-105.0069 181.3849,-144.9817"/>
</g>
<!-- 4387&#45;&#45;4388 -->
<g id="edge38" class="edge">
<title>4387&#45;&#45;4388</title>
<path fill="none" stroke="#00ffff" d="M123.0084,-135.4202C138.273,-116.9888 170.5948,-122.1799 179.1155,-144.7177"/>
</g>
<!-- 4387&#45;&#45;4388 -->
<g id="edge39" class="edge">
<title>4387&#45;&#45;4388</title>
<path fill="none" stroke="#000000" d="M132.2424,-138.3353C144.9413,-135.5294 161.8188,-138.5823 171.9913,-145.8222"/>
</g>
<!-- 4387&#45;&#45;4388 -->
<g id="edge40" class="edge">
<title>4387&#45;&#45;4388</title>
<path fill="none" stroke="#bdb76b" d="M144.1739,-150.6443C148.4962,-151.1849 152.9121,-151.9018 157.1119,-152.7476"/>
</g>
<!-- 4387&#45;&#45;4388 -->
<g id="edge41" class="edge">
<title>4387&#45;&#45;4388</title>
<path fill="none" stroke="#e9967a" d="M139.161,-163.2784C143.3147,-164.1134 147.6781,-164.8223 151.9523,-165.3591"/>
</g>
<!-- 4387&#45;&#45;4388 -->
<g id="edge42" class="edge">
<title>4387&#45;&#45;4388</title>
<path fill="none" stroke="#ff7f50" d="M124.1928,-170.1685C134.3815,-177.44 151.3287,-180.5006 164.0502,-177.6631"/>
</g>
<!-- 4387&#45;&#45;4388 -->
<g id="edge43" class="edge">
<title>4387&#45;&#45;4388</title>
<path fill="none" stroke="#ffa500" d="M117.0844,-171.2487C125.5678,-193.8032 157.8645,-199.0282 173.1603,-180.6544"/>
</g>
<!-- 4387&#45;&#45;4388 -->
<g id="edge44" class="edge">
<title>4387&#45;&#45;4388</title>
<path fill="none" stroke="#8fbc8f" d="M114.8526,-171.2336C118.7527,-210.918 159.7133,-217.4162 175.6117,-181.186"/>
</g>
<!-- 4387&#45;&#45;4388 -->
<g id="edge45" class="edge">
<title>4387&#45;&#45;4388</title>
<path fill="none" stroke="#000000" d="M113.9746,-171.2774C113.59,-228.454 159.8366,-235.5878 176.6608,-180.9969"/>
</g>
<!-- 4387&#45;&#45;4388 -->
<g id="edge46" class="edge">
<title>4387&#45;&#45;4388</title>
<path fill="none" stroke="#b03060" d="M113.552,-171.0736C109.1301,-246.0321 158.8351,-253.6913 177.1339,-180.9135"/>
</g>
<!-- 4387&#45;&#45;4389 -->
<g id="edge47" class="edge">
<title>4387&#45;&#45;4389</title>
<path fill="none" stroke="#0000ff" d="M87.211,-156.2744C16.9613,-173.8916 16.8903,-257.2668 87.0609,-275.0095"/>
</g>
<!-- 4387&#45;&#45;4389 -->
<g id="edge48" class="edge">
<title>4387&#45;&#45;4389</title>
<path fill="none" stroke="#ffebcd" d="M143.8026,-156.3015C214.0353,-173.9861 214.0264,-257.3614 143.8388,-275.0367"/>
</g>
<!-- 4387&#45;&#45;4389 -->
<g id="edge49" class="edge">
<title>4387&#45;&#45;4389</title>
<path fill="none" stroke="#dc143c" d="M143.4388,-157.7736C196.1814,-177.6522 196.1491,-253.7461 143.3959,-273.583"/>
</g>
<!-- 4387&#45;&#45;4389 -->
<g id="edge50" class="edge">
<title>4387&#45;&#45;4389</title>
<path fill="none" stroke="#a52a2a" d="M141.911,-159.9297C178.6184,-181.809 178.6601,-249.2691 142.0797,-271.2971"/>
</g>
<!-- 4387&#45;&#45;4389 -->
<g id="edge51" class="edge">
<title>4387&#45;&#45;4389</title>
<path fill="none" stroke="#00ffff" d="M139.382,-163.6974C161.6515,-187.5057 161.5042,-244.611 138.9722,-268.0392"/>
</g>
<!-- 4387&#45;&#45;4389 -->
<g id="edge52" class="edge">
<title>4387&#45;&#45;4389</title>
<path fill="none" stroke="#000000" d="M133.4773,-167.3861C145.5259,-191.5685 145.4746,-240.0756 133.3469,-264.1333"/>
</g>
<!-- 4387&#45;&#45;4389 -->
<g id="edge53" class="edge">
<title>4387&#45;&#45;4389</title>
<path fill="none" stroke="#e9967a" d="M125.1338,-170.1691C130.2635,-194.0388 130.2568,-237.0115 125.1321,-260.9799"/>
</g>
<!-- 4387&#45;&#45;4389 -->
<g id="edge54" class="edge">
<title>4387&#45;&#45;4389</title>
<path fill="none" stroke="#ee82ee" d="M115.4996,-171.2247C115.4882,-194.9873 115.4684,-236.3144 115.457,-260.0878"/>
</g>
<!-- 4387&#45;&#45;4389 -->
<g id="edge55" class="edge">
<title>4387&#45;&#45;4389</title>
<path fill="none" stroke="#ff7f50" d="M105.8664,-170.1598C100.6849,-194.1587 100.6791,-237.4808 105.8676,-261.3728"/>
</g>
<!-- 4387&#45;&#45;4389 -->
<g id="edge56" class="edge">
<title>4387&#45;&#45;4389</title>
<path fill="none" stroke="#bdb76b" d="M97.5256,-167.3688C85.4539,-191.5397 85.4586,-240.0468 97.5633,-264.1162"/>
</g>
<!-- 4387&#45;&#45;4389 -->
<g id="edge57" class="edge">
<title>4387&#45;&#45;4389</title>
<path fill="none" stroke="#8fbc8f" d="M91.6245,-163.6745C69.3321,-187.4614 69.4247,-244.5669 91.9342,-268.0167"/>
</g>
<!-- 4387&#45;&#45;4389 -->
<g id="edge58" class="edge">
<title>4387&#45;&#45;4389</title>
<path fill="none" stroke="#000000" d="M88.7983,-160.0848C52.3537,-182.1276 52.3644,-249.3308 88.874,-271.302"/>
</g>
<!-- 4387&#45;&#45;4389 -->
<g id="edge59" class="edge">
<title>4387&#45;&#45;4389</title>
<path fill="none" stroke="#b03060" d="M87.5734,-157.7468C34.8117,-177.5748 34.771,-253.6686 87.5052,-273.5562"/>
</g>
<!-- 4388&#45;&#45;4385 -->
<g id="edge60" class="edge">
<title>4388&#45;&#45;4385</title>
<path fill="none" stroke="#ee82ee" d="M176.3201,-181.0081C179.4136,-198.5707 199.7003,-217.3913 218.6005,-222.3052"/>
</g>
<!-- 4388&#45;&#45;4385 -->
<g id="edge61" class="edge">
<title>4388&#45;&#45;4385</title>
<path fill="none" stroke="#ff7f50" d="M207.3632,-156.3524C226.2911,-161.3193 246.5774,-180.2012 249.5744,-197.7778"/>
</g>
<!-- 4388&#45;&#45;4385 -->
<g id="edge62" class="edge">
<title>4388&#45;&#45;4385</title>
<path fill="none" stroke="#bdb76b" d="M207.9445,-169.1209C219.9012,-176.5729 232.6809,-187.7604 240.1115,-197.6458"/>
</g>
<!-- 4388&#45;&#45;4385 -->
<g id="edge63" class="edge">
<title>4388&#45;&#45;4385</title>
<path fill="none" stroke="#ffa500" d="M198.3206,-177.3889C207.4143,-184.8112 218.4779,-193.8413 227.5686,-201.2611"/>
</g>
<!-- 4388&#45;&#45;4385 -->
<g id="edge64" class="edge">
<title>4388&#45;&#45;4385</title>
<path fill="none" stroke="#8fbc8f" d="M185.747,-180.9743C193.1763,-190.8627 205.9617,-202.0565 217.9234,-209.5117"/>
</g>
<!-- 4388&#45;&#45;4386 -->
<g id="edge65" class="edge">
<title>4388&#45;&#45;4386</title>
<path fill="none" stroke="#0000ff" d="M170.1025,-146.0611C116.8983,-71.8323 41.6965,-113.3538 76.2951,-198.422"/>
</g>
<!-- 4388&#45;&#45;4386 -->
<g id="edge66" class="edge">
<title>4388&#45;&#45;4386</title>
<path fill="none" stroke="#dc143c" d="M189.0605,-180.5166C223.4249,-265.4169 148.338,-306.7969 95.1832,-232.6801"/>
</g>
<!-- 4388&#45;&#45;4386 -->
<g id="edge67" class="edge">
<title>4388&#45;&#45;4386</title>
<path fill="none" stroke="#ee82ee" d="M188.6784,-180.7865C212.9377,-250.6382 141.5586,-289.9666 95.6121,-232.4447"/>
</g>
<!-- 4388&#45;&#45;4386 -->
<g id="edge68" class="edge">
<title>4388&#45;&#45;4386</title>
<path fill="none" stroke="#a52a2a" d="M187.7709,-180.4624C202.2749,-235.8964 135.8814,-272.8221 96.4888,-232.1289"/>
</g>
<!-- 4388&#45;&#45;4386 -->
<g id="edge69" class="edge">
<title>4388&#45;&#45;4386</title>
<path fill="none" stroke="#ffebcd" d="M186.3562,-180.9143C190.1172,-221.8076 132.1387,-254.4428 98.6482,-231.5814"/>
</g>
<!-- 4388&#45;&#45;4386 -->
<g id="edge70" class="edge">
<title>4388&#45;&#45;4386</title>
<path fill="none" stroke="#00ffff" d="M183.1815,-181.1183C177.1832,-208.1662 132.4768,-234.1616 104.0087,-229.0031"/>
</g>
<!-- 4388&#45;&#45;4386 -->
<g id="edge71" class="edge">
<title>4388&#45;&#45;4386</title>
<path fill="none" stroke="#ff7f50" d="M176.1568,-180.8817C163.994,-196.3773 134.9466,-213.5413 112.5168,-219.4987"/>
</g>
<!-- 4388&#45;&#45;4386 -->
<g id="edge72" class="edge">
<title>4388&#45;&#45;4386</title>
<path fill="none" stroke="#000000" d="M164.3565,-178.2494C149.6534,-188.0404 127.875,-200.1167 110.7591,-208.0479"/>
</g>
<!-- 4388&#45;&#45;4386 -->
<g id="edge73" class="edge">
<title>4388&#45;&#45;4386</title>
<path fill="none" stroke="#000000" d="M154.6085,-170.6117C137.315,-178.6169 115.2264,-190.8767 100.4905,-200.7361"/>
</g>
<!-- 4388&#45;&#45;4386 -->
<g id="edge74" class="edge">
<title>4388&#45;&#45;4386</title>
<path fill="none" stroke="#bdb76b" d="M152.7247,-159.2152C130.3756,-165.1569 101.4662,-182.2168 89.2327,-197.6652"/>
</g>
<!-- 4388&#45;&#45;4386 -->
<g id="edge75" class="edge">
<title>4388&#45;&#45;4386</title>
<path fill="none" stroke="#e9967a" d="M161.1981,-149.6953C132.7125,-144.5778 88.0285,-170.5868 82.0713,-197.6324"/>
</g>
<!-- 4388&#45;&#45;4386 -->
<g id="edge76" class="edge">
<title>4388&#45;&#45;4386</title>
<path fill="none" stroke="#ffa500" d="M166.646,-147.1489C133.1605,-124.2448 75.1438,-156.8878 78.906,-197.7941"/>
</g>
<!-- 4388&#45;&#45;4386 -->
<g id="edge77" class="edge">
<title>4388&#45;&#45;4386</title>
<path fill="none" stroke="#8fbc8f" d="M168.6941,-146.4977C129.3472,-105.993 63.1836,-142.7455 77.4306,-198.0123"/>
</g>
<!-- 4388&#45;&#45;4386 -->
<g id="edge78" class="edge">
<title>4388&#45;&#45;4386</title>
<path fill="none" stroke="#b03060" d="M169.709,-146.3375C123.6866,-88.6103 52.0712,-128.1744 76.7084,-198.2785"/>
</g>
<!-- 4388&#45;&#45;4389 -->
<g id="edge79" class="edge">
<title>4388&#45;&#45;4389</title>
<path fill="none" stroke="#0000ff" d="M157.2972,-152.4725C76.4564,-125.5542 29.409,-210.132 96.0167,-265.087"/>
</g>
<!-- 4388&#45;&#45;4389 -->
<g id="edge80" class="edge">
<title>4388&#45;&#45;4389</title>
<path fill="none" stroke="#ffebcd" d="M200.2167,-176.3247C266.7355,-231.2995 219.6401,-315.841 138.7808,-288.8503"/>
</g>
<!-- 4388&#45;&#45;4389 -->
<g id="edge81" class="edge">
<title>4388&#45;&#45;4389</title>
<path fill="none" stroke="#dc143c" d="M199.6509,-176.9141C249.6083,-224.7439 205.83,-303.8221 139.6673,-288.0684"/>
</g>
<!-- 4388&#45;&#45;4389 -->
<g id="edge82" class="edge">
<title>4388&#45;&#45;4389</title>
<path fill="none" stroke="#a52a2a" d="M198.3823,-177.5728C232.1934,-218.5271 193.117,-290.2181 141.2458,-286.4599"/>
</g>
<!-- 4388&#45;&#45;4389 -->
<g id="edge83" class="edge">
<title>4388&#45;&#45;4389</title>
<path fill="none" stroke="#7fff00" d="M196.0525,-178.4362C214.7182,-212.825 181.7944,-274.6284 143.2,-282.706"/>
</g>
<!-- 4388&#45;&#45;4389 -->
<g id="edge84" class="edge">
<title>4388&#45;&#45;4389</title>
<path fill="none" stroke="#00ffff" d="M191.9733,-179.6153C197.8087,-208.1203 171.2865,-258.5129 143.7376,-275.4301"/>
</g>
<!-- 4388&#45;&#45;4389 -->
<g id="edge85" class="edge">
<title>4388&#45;&#45;4389</title>
<path fill="none" stroke="#000000" d="M185.256,-181.0244C181.7012,-205.6237 158.9548,-247.4387 138.9559,-267.702"/>
</g>
<!-- 4388&#45;&#45;4389 -->
<g id="edge86" class="edge">
<title>4388&#45;&#45;4389</title>
<path fill="none" stroke="#000000" d="M176.0758,-180.9259C166.2904,-203.3102 145.0068,-241.1272 130.2649,-262.5001"/>
</g>
<!-- 4388&#45;&#45;4389 -->
<g id="edge87" class="edge">
<title>4388&#45;&#45;4389</title>
<path fill="none" stroke="#e9967a" d="M166.1068,-178.5403C151.3853,-199.8158 129.9957,-237.7879 120.1378,-260.2966"/>
</g>
<!-- 4388&#45;&#45;4389 -->
<g id="edge88" class="edge">
<title>4388&#45;&#45;4389</title>
<path fill="none" stroke="#ee82ee" d="M157.295,-173.5535C137.2384,-193.817 114.3818,-235.8359 110.8834,-260.4556"/>
</g>
<!-- 4388&#45;&#45;4389 -->
<g id="edge89" class="edge">
<title>4388&#45;&#45;4389</title>
<path fill="none" stroke="#ff7f50" d="M152.3687,-165.9512C124.8424,-182.8972 98.3608,-233.2322 104.1822,-261.7216"/>
</g>
<!-- 4388&#45;&#45;4389 -->
<g id="edge90" class="edge">
<title>4388&#45;&#45;4389</title>
<path fill="none" stroke="#bdb76b" d="M152.8167,-158.6734C114.2725,-166.8743 81.4442,-228.6012 100.1213,-262.9423"/>
</g>
<!-- 4388&#45;&#45;4389 -->
<g id="edge91" class="edge">
<title>4388&#45;&#45;4389</title>
<path fill="none" stroke="#8fbc8f" d="M155.1683,-154.9088C103.1195,-150.8915 63.8331,-222.894 97.8742,-263.8956"/>
</g>
<!-- 4388&#45;&#45;4389 -->
<g id="edge92" class="edge">
<title>4388&#45;&#45;4389</title>
<path fill="none" stroke="#b03060" d="M156.1871,-153.2095C90.0858,-137.7439 46.483,-216.9386 96.7541,-264.6708"/>
</g>
<!-- 4389&#45;&#45;4385 -->
<g id="edge97" class="edge">
<title>4389&#45;&#45;4385</title>
<path fill="none" stroke="#ee82ee" d="M132.3578,-263.3879C151.0339,-247.9675 182.7975,-224.8534 214.9606,-215.6174 215.4629,-215.4732 215.9718,-215.3402 216.4861,-215.2179"/>
</g>
<!-- 4389&#45;&#45;4385 -->
<g id="edge98" class="edge">
<title>4389&#45;&#45;4385</title>
<path fill="none" stroke="#ff7f50" d="M118.4969,-260.1191C119.9049,-253.3374 121.713,-246.6207 123.7249,-243.9164 136.7935,-226.3503 186.9496,-194.2688 208.8437,-194.3008 210.8493,-194.3037 217.8208,-198.2297 225.1202,-202.7067"/>
</g>
<!-- 4389&#45;&#45;4385 -->
<g id="edge99" class="edge">
<title>4389&#45;&#45;4385</title>
<path fill="none" stroke="#bdb76b" d="M122.5203,-260.7867C124.4856,-256.4465 126.5125,-252.5303 128.0901,-250.7736 142.4031,-234.8365 189.518,-202.9562 210.8827,-201.4063 213.4457,-201.2204 217.7454,-202.5341 222.4459,-204.4284"/>
</g>
<!-- 4389&#45;&#45;4385 -->
<g id="edge100" class="edge">
<title>4389&#45;&#45;4385</title>
<path fill="none" stroke="#8fbc8f" d="M127.958,-262.0002C129.405,-260.4549 130.916,-258.9682 132.4554,-257.6307 148.2698,-243.8906 192.2589,-211.9672 212.9216,-208.5119 214.2741,-208.2857 216.2494,-208.3931 218.5664,-208.7169"/>
</g>
<!-- 4389&#45;&#45;4386 -->
<g id="edge101" class="edge">
<title>4389&#45;&#45;4386</title>
<path fill="none" stroke="#0000ff" d="M137.1856,-266.0576C200.0046,-225.1481 178.7235,-181.2563 108.4636,-205.5906"/>
</g>
<!-- 4389&#45;&#45;4386 -->
<g id="edge102" class="edge">
<title>4389&#45;&#45;4386</title>
<path fill="none" stroke="#dc143c" d="M91.4798,-288.4572C21.2439,-312.7553 0,-268.8417 62.8732,-227.9325"/>
</g>
<!-- 4389&#45;&#45;4386 -->
<g id="edge103" class="edge">
<title>4389&#45;&#45;4386</title>
<path fill="none" stroke="#ee82ee" d="M90.8321,-287.8845C36.1581,-302.842 16.9267,-262.2042 63.7745,-228.0866"/>
</g>
<!-- 4389&#45;&#45;4386 -->
<g id="edge104" class="edge">
<title>4389&#45;&#45;4386</title>
<path fill="none" stroke="#a52a2a" d="M89.7469,-286.6007C50.7384,-291.811 34.3416,-256.4859 64.445,-229.0593"/>
</g>
<!-- 4389&#45;&#45;4386 -->
<g id="edge105" class="edge">
<title>4389&#45;&#45;4386</title>
<path fill="none" stroke="#ffebcd" d="M87.7218,-283.076C63.7679,-278.6692 51.7815,-250.7328 66.8993,-229.9563"/>
</g>
<!-- 4389&#45;&#45;4386 -->
<g id="edge106" class="edge">
<title>4389&#45;&#45;4386</title>
<path fill="none" stroke="#00ffff" d="M87.4728,-274.0697C75.7481,-264.3952 68.4401,-246.3109 71.6388,-232.1643"/>
</g>
<!-- 4389&#45;&#45;4386 -->
<g id="edge107" class="edge">
<title>4389&#45;&#45;4386</title>
<path fill="none" stroke="#ff7f50" d="M95.1959,-265.3782C88.7152,-256.191 83.1234,-243.9531 80.9654,-233.8243"/>
</g>
<!-- 4389&#45;&#45;4386 -->
<g id="edge108" class="edge">
<title>4389&#45;&#45;4386</title>
<path fill="none" stroke="#000000" d="M106.842,-260.8855C102.5568,-252.1972 97.3913,-241.7243 93.1125,-233.0489"/>
</g>
<!-- 4389&#45;&#45;4386 -->
<g id="edge109" class="edge">
<title>4389&#45;&#45;4386</title>
<path fill="none" stroke="#000000" d="M119.0782,-260.4075C116.9502,-250.2296 111.3181,-237.8749 104.7859,-228.623"/>
</g>
<!-- 4389&#45;&#45;4386 -->
<g id="edge110" class="edge">
<title>4389&#45;&#45;4386</title>
<path fill="none" stroke="#bdb76b" d="M128.2997,-262.1324C131.6293,-248.0474 124.4303,-229.9528 112.7781,-220.1667"/>
</g>
<!-- 4389&#45;&#45;4386 -->
<g id="edge111" class="edge">
<title>4389&#45;&#45;4386</title>
<path fill="none" stroke="#e9967a" d="M133.1521,-264.0017C148.1607,-243.2762 136.2561,-215.4708 112.4294,-210.98"/>
</g>
<!-- 4389&#45;&#45;4386 -->
<g id="edge112" class="edge">
<title>4389&#45;&#45;4386</title>
<path fill="none" stroke="#8fbc8f" d="M135.3087,-265.1926C165.7889,-237.6981 149.3246,-202.1077 110.0968,-207.4485"/>
</g>
<!-- 4389&#45;&#45;4386 -->
<g id="edge113" class="edge">
<title>4389&#45;&#45;4386</title>
<path fill="none" stroke="#b03060" d="M136.3073,-265.8822C183.0719,-231.762 163.7942,-191.1594 109.0974,-206.1629"/>
</g>
<!-- 5248 -->
<g id="node7" class="node">
<title>5248</title>
<ellipse fill="#007992" stroke="#007992" cx="420.8854" cy="-215.7297" rx="28.6953" ry="18"/>
<text text-anchor="middle" x="420.8854" y="-212.0297" font-family="Times,serif" font-size="14.00" fill="#000000">5248</text>
</g>
<!-- 5248&#45;&#45;4385 -->
<g id="edge93" class="edge">
<title>5248&#45;&#45;4385</title>
<path fill="none" stroke="#ee82ee" d="M401.4166,-202.4196C367.6441,-193.1363 298.5761,-193.0843 264.7311,-202.3085"/>
</g>
<!-- 5248&#45;&#45;4385 -->
<g id="edge94" class="edge">
<title>5248&#45;&#45;4385</title>
<path fill="none" stroke="#ff7f50" d="M401.3996,-229.015C367.6153,-238.2552 298.5473,-238.2191 264.7142,-228.9517"/>
</g>
<!-- 5248&#45;&#45;4385 -->
<g id="edge95" class="edge">
<title>5248&#45;&#45;4385</title>
<path fill="none" stroke="#bdb76b" d="M393.4248,-220.7747C360.5067,-223.0015 305.6669,-222.9687 272.7089,-220.7043"/>
</g>
<!-- 5248&#45;&#45;4385 -->
<g id="edge96" class="edge">
<title>5248&#45;&#45;4385</title>
<path fill="none" stroke="#8fbc8f" d="M393.4313,-210.6497C360.516,-208.3809 305.6763,-208.3437 272.7153,-210.5661"/>
</g>
<!-- Cluster 536 -->
<g id="node8" class="node">
<title>Cluster 536</title>
<polygon fill="none" stroke="#000000" points="343.9549,-168 263.9549,-168 263.9549,-132 343.9549,-132 343.9549,-168"/>
<text text-anchor="middle" x="303.9549" y="-146.3" font-family="Times,serif" font-size="14.00" fill="#000000">Cluster 536</text>
</g>
<!-- p443&#45;p143 -->
<g id="node9" class="node">
<title>p443&#45;p143</title>
<polygon fill="none" stroke="#bdb76b" points="382.9549,-300 307.9549,-300 307.9549,-264 382.9549,-264 382.9549,-300"/>
<text text-anchor="middle" x="345.4549" y="-278.3" font-family="Times,serif" font-size="14.00" fill="#000000">p443&#45;p143</text>
</g>
<!-- p993&#45;p25 -->
<g id="node10" class="node">
<title>p993&#45;p25</title>
<polygon fill="none" stroke="#a52a2a" points="397.9549,-36 329.9549,-36 329.9549,0 397.9549,0 397.9549,-36"/>
<text text-anchor="middle" x="363.9549" y="-14.3" font-family="Times,serif" font-size="14.00" fill="#000000">p993&#45;p25</text>
</g>
<!-- p143&#45;p143 -->
<g id="node11" class="node">
<title>p143&#45;p143</title>
<polygon fill="none" stroke="#000000" points="305.9549,-102 230.9549,-102 230.9549,-66 305.9549,-66 305.9549,-102"/>
<text text-anchor="middle" x="268.4549" y="-80.3" font-family="Times,serif" font-size="14.00" fill="#000000">p143&#45;p143</text>
</g>
<!-- p993&#45;p110 -->
<g id="node12" class="node">
<title>p993&#45;p110</title>
<polygon fill="none" stroke="#000000" points="404.9549,-102 329.9549,-102 329.9549,-66 404.9549,-66 404.9549,-102"/>
<text text-anchor="middle" x="367.4549" y="-80.3" font-family="Times,serif" font-size="14.00" fill="#000000">p993&#45;p110</text>
</g>
<!-- p25&#45;p25 -->
<g id="node13" class="node">
<title>p25&#45;p25</title>
<polygon fill="none" stroke="#0000ff" points="479.9549,-36 417.9549,-36 417.9549,0 479.9549,0 479.9549,-36"/>
<text text-anchor="middle" x="448.9549" y="-14.3" font-family="Times,serif" font-size="14.00" fill="#000000">p25&#45;p25</text>
</g>
<!-- p993&#45;p143 -->
<g id="node14" class="node">
<title>p993&#45;p143</title>
<polygon fill="none" stroke="#e9967a" points="448.9549,-168 373.9549,-168 373.9549,-132 448.9549,-132 448.9549,-168"/>
<text text-anchor="middle" x="411.4549" y="-146.3" font-family="Times,serif" font-size="14.00" fill="#000000">p993&#45;p143</text>
</g>
<!-- p443&#45;p25 -->
<g id="node15" class="node">
<title>p443&#45;p25</title>
<polygon fill="none" stroke="#ee82ee" points="496.9549,-102 428.9549,-102 428.9549,-66 496.9549,-66 496.9549,-102"/>
<text text-anchor="middle" x="462.9549" y="-80.3" font-family="Times,serif" font-size="14.00" fill="#000000">p443&#45;p25</text>
</g>
<!-- p443&#45;p443 -->
<g id="node16" class="node">
<title>p443&#45;p443</title>
<polygon fill="none" stroke="#ffa500" points="448.9549,-366 373.9549,-366 373.9549,-330 448.9549,-330 448.9549,-366"/>
<text text-anchor="middle" x="411.4549" y="-344.3" font-family="Times,serif" font-size="14.00" fill="#000000">p443&#45;p443</text>
</g>
<!-- p143&#45;p25 -->
<g id="node17" class="node">
<title>p143&#45;p25</title>
<polygon fill="none" stroke="#dc143c" points="100.9549,-421 32.9549,-421 32.9549,-385 100.9549,-385 100.9549,-421"/>
<text text-anchor="middle" x="66.9549" y="-399.3" font-family="Times,serif" font-size="14.00" fill="#000000">p143&#45;p25</text>
</g>
<!-- p143&#45;p110 -->
<g id="node18" class="node">
<title>p143&#45;p110</title>
<polygon fill="none" stroke="#00ffff" points="349.9549,-366 274.9549,-366 274.9549,-330 349.9549,-330 349.9549,-366"/>
<text text-anchor="middle" x="312.4549" y="-344.3" font-family="Times,serif" font-size="14.00" fill="#000000">p143&#45;p110</text>
</g>
<!-- p993&#45;p443 -->
<g id="node19" class="node">
<title>p993&#45;p443</title>
<polygon fill="none" stroke="#8fbc8f" points="195.9549,-366 120.9549,-366 120.9549,-330 195.9549,-330 195.9549,-366"/>
<text text-anchor="middle" x="158.4549" y="-344.3" font-family="Times,serif" font-size="14.00" fill="#000000">p993&#45;p443</text>
</g>
<!-- p110&#45;p25 -->
<g id="node20" class="node">
<title>p110&#45;p25</title>
<polygon fill="none" stroke="#ffebcd" points="507.9549,-432 439.9549,-432 439.9549,-396 507.9549,-396 507.9549,-432"/>
<text text-anchor="middle" x="473.9549" y="-410.3" font-family="Times,serif" font-size="14.00" fill="#000000">p110&#45;p25</text>
</g>
<!-- p443&#45;p110 -->
<g id="node21" class="node">
<title>p443&#45;p110</title>
<polygon fill="none" stroke="#ff7f50" points="481.9549,-300 406.9549,-300 406.9549,-264 481.9549,-264 481.9549,-300"/>
<text text-anchor="middle" x="444.4549" y="-278.3" font-family="Times,serif" font-size="14.00" fill="#000000">p443&#45;p110</text>
</g>
<!-- p110&#45;p110 -->
<g id="node22" class="node">
<title>p110&#45;p110</title>
<polygon fill="none" stroke="#7fff00" points="129.9549,-58 54.9549,-58 54.9549,-22 129.9549,-22 129.9549,-58"/>
<text text-anchor="middle" x="92.4549" y="-36.3" font-family="Times,serif" font-size="14.00" fill="#000000">p110&#45;p110</text>
</g>
<!-- p993&#45;p993 -->
<g id="node23" class="node">
<title>p993&#45;p993</title>
<polygon fill="none" stroke="#b03060" points="305.9549,-36 230.9549,-36 230.9549,0 305.9549,0 305.9549,-36"/>
<text text-anchor="middle" x="268.4549" y="-14.3" font-family="Times,serif" font-size="14.00" fill="#000000">p993&#45;p993</text>
</g>
</g>
</svg>
