<?xml version="1.0" encoding="UTF-8" standalone="no"?>
<!DOCTYPE svg PUBLIC "-//W3C//DTD SVG 1.1//EN"
 "http://www.w3.org/Graphics/SVG/1.1/DTD/svg11.dtd">
<!-- Generated by graphviz version 2.40.1 (20161225.0304)
 -->
<!-- Title: %3 Pages: 1 -->
<svg width="456pt" height="419pt"
 viewBox="0.00 0.00 456.00 419.00" xmlns="http://www.w3.org/2000/svg" xmlns:xlink="http://www.w3.org/1999/xlink">
<g id="graph0" class="graph" transform="scale(1 1) rotate(0) translate(4 415)">
<title>%3</title>
<polygon fill="#ffffff" stroke="transparent" points="-4,4 -4,-415 452,-415 452,4 -4,4"/>
<!-- 977 -->
<g id="node1" class="node">
<title>977</title>
<ellipse fill="#00407d" stroke="#00407d" cx="263.2934" cy="-349.1737" rx="27" ry="18"/>
<text text-anchor="middle" x="263.2934" y="-345.4737" font-family="Times,serif" font-size="14.00" fill="#000000">977</text>
</g>
<!-- 978 -->
<g id="node2" class="node">
<title>978</title>
<ellipse fill="#00407d" stroke="#00407d" cx="136.0331" cy="-265.8318" rx="27" ry="18"/>
<text text-anchor="middle" x="136.0331" y="-262.1318" font-family="Times,serif" font-size="14.00" fill="#000000">978</text>
</g>
<!-- 977&#45;&#45;978 -->
<g id="edge1" class="edge">
<title>977&#45;&#45;978</title>
<path fill="none" stroke="#0000ff" d="M243.9653,-336.5159C220.0461,-320.8513 179.546,-294.3281 155.5431,-278.6088"/>
</g>
<!-- 979 -->
<g id="node3" class="node">
<title>979</title>
<ellipse fill="#0000ae" stroke="#0000ae" cx="197.128" cy="-190.438" rx="27" ry="18"/>
<text text-anchor="middle" x="197.128" y="-186.738" font-family="Times,serif" font-size="14.00" fill="#000000">979</text>
</g>
<!-- 977&#45;&#45;979 -->
<g id="edge2" class="edge">
<title>977&#45;&#45;979</title>
<path fill="none" stroke="#0000ff" d="M259.7611,-331.0495C256.9274,-317.9419 252.4556,-299.938 246.5878,-284.7358 235.6707,-256.4518 218.4428,-225.7068 207.4702,-207.2617"/>
</g>
<!-- 980 -->
<g id="node4" class="node">
<title>980</title>
<ellipse fill="#0000ae" stroke="#0000ae" cx="27" cy="-218.3291" rx="27" ry="18"/>
<text text-anchor="middle" x="27" y="-214.6291" font-family="Times,serif" font-size="14.00" fill="#000000">980</text>
</g>
<!-- 977&#45;&#45;980 -->
<g id="edge3" class="edge">
<title>977&#45;&#45;980</title>
<path fill="none" stroke="#0000ff" d="M240.2185,-339.7036C210.6784,-327.2665 158.2437,-304.1252 115.8096,-279.691 90.1493,-264.9154 62.3341,-245.0044 44.7984,-231.9254"/>
</g>
<!-- 981 -->
<g id="node5" class="node">
<title>981</title>
<ellipse fill="#0000ae" stroke="#0000ae" cx="68.9134" cy="-74.0463" rx="27" ry="18"/>
<text text-anchor="middle" x="68.9134" y="-70.3463" font-family="Times,serif" font-size="14.00" fill="#000000">981</text>
</g>
<!-- 977&#45;&#45;981 -->
<g id="edge4" class="edge">
<title>977&#45;&#45;981</title>
<path fill="none" stroke="#0000ff" d="M243.3214,-336.657C229.4181,-327.2862 211.0467,-313.5283 197.6731,-298.4429 166.76,-263.5727 101.3665,-137.8049 77.6981,-91.4023"/>
</g>
<!-- 982 -->
<g id="node6" class="node">
<title>982</title>
<ellipse fill="#00407d" stroke="#00407d" cx="100.0528" cy="-189.838" rx="27" ry="18"/>
<text text-anchor="middle" x="100.0528" y="-186.138" font-family="Times,serif" font-size="14.00" fill="#000000">982</text>
</g>
<!-- 977&#45;&#45;982 -->
<g id="edge5" class="edge">
<title>977&#45;&#45;982</title>
<path fill="none" stroke="#0000ff" d="M244.4543,-336.0421C230.9211,-326.2733 212.5227,-312.2899 197.6731,-298.4429 177.4394,-279.5751 174.7398,-272.5582 156.2565,-251.9727 141.9713,-236.0627 125.5599,-217.9368 114.1743,-205.3858"/>
</g>
<!-- 983 -->
<g id="node7" class="node">
<title>983</title>
<ellipse fill="#00407d" stroke="#00407d" cx="133.9081" cy="-31.225" rx="27" ry="18"/>
<text text-anchor="middle" x="133.9081" y="-27.525" font-family="Times,serif" font-size="14.00" fill="#000000">983</text>
</g>
<!-- 977&#45;&#45;983 -->
<g id="edge6" class="edge">
<title>977&#45;&#45;983</title>
<path fill="none" stroke="#0000ff" d="M260.7608,-331.0422C256.1824,-301.0114 245.1545,-239.4044 225.7279,-190.4461 203.7198,-134.982 164.8705,-75.5895 145.5271,-47.6026"/>
</g>
<!-- 984 -->
<g id="node8" class="node">
<title>984</title>
<ellipse fill="#0000ae" stroke="#0000ae" cx="281.4852" cy="-41.3509" rx="27" ry="18"/>
<text text-anchor="middle" x="281.4852" y="-37.6509" font-family="Times,serif" font-size="14.00" fill="#000000">984</text>
</g>
<!-- 977&#45;&#45;984 -->
<g id="edge7" class="edge">
<title>977&#45;&#45;984</title>
<path fill="none" stroke="#0000ff" d="M260.7013,-331.0827C256.0617,-295.7803 247.5395,-215.2924 255.5655,-148.2095 259.3754,-116.3657 269.3475,-80.2967 275.7531,-59.2621"/>
</g>
<!-- 985 -->
<g id="node9" class="node">
<title>985</title>
<ellipse fill="#0000ae" stroke="#0000ae" cx="284.1492" cy="-232.6076" rx="27" ry="18"/>
<text text-anchor="middle" x="284.1492" y="-228.9076" font-family="Times,serif" font-size="14.00" fill="#000000">985</text>
</g>
<!-- 977&#45;&#45;985 -->
<g id="edge8" class="edge">
<title>977&#45;&#45;985</title>
<path fill="none" stroke="#0000ff" d="M266.5064,-331.2157C270.4142,-309.3746 276.9733,-272.7147 280.8982,-250.778"/>
</g>
<!-- 986 -->
<g id="node10" class="node">
<title>986</title>
<ellipse fill="#0000ae" stroke="#0000ae" cx="217.9881" cy="-284.6467" rx="27" ry="18"/>
<text text-anchor="middle" x="217.9881" y="-280.9467" font-family="Times,serif" font-size="14.00" fill="#000000">986</text>
</g>
<!-- 977&#45;&#45;986 -->
<g id="edge9" class="edge">
<title>977&#45;&#45;986</title>
<path fill="none" stroke="#0000ff" d="M251.6262,-332.5564C244.8095,-322.8476 236.2416,-310.6446 229.459,-300.9843"/>
</g>
<!-- 987 -->
<g id="node11" class="node">
<title>987</title>
<ellipse fill="#0000ae" stroke="#0000ae" cx="113.52" cy="-341.6648" rx="27" ry="18"/>
<text text-anchor="middle" x="113.52" y="-337.9648" font-family="Times,serif" font-size="14.00" fill="#000000">987</text>
</g>
<!-- 977&#45;&#45;987 -->
<g id="edge10" class="edge">
<title>977&#45;&#45;987</title>
<path fill="none" stroke="#0000ff" d="M236.5478,-345.5116C221.7081,-343.6778 202.9004,-341.6788 186.0632,-340.8687 171.0924,-340.1484 154.3646,-340.2698 140.7482,-340.606"/>
</g>
<!-- 988 -->
<g id="node12" class="node">
<title>988</title>
<ellipse fill="#0000ae" stroke="#0000ae" cx="323.5856" cy="-305.1693" rx="27" ry="18"/>
<text text-anchor="middle" x="323.5856" y="-301.4693" font-family="Times,serif" font-size="14.00" fill="#000000">988</text>
</g>
<!-- 977&#45;&#45;988 -->
<g id="edge11" class="edge">
<title>977&#45;&#45;988</title>
<path fill="none" stroke="#0000ff" d="M281.7107,-335.7318C289.1909,-330.2724 297.8125,-323.9799 305.2811,-318.5289"/>
</g>
<!-- 989 -->
<g id="node13" class="node">
<title>989</title>
<ellipse fill="#0000ae" stroke="#0000ae" cx="185.7967" cy="-360.4679" rx="27" ry="18"/>
<text text-anchor="middle" x="185.7967" y="-356.7679" font-family="Times,serif" font-size="14.00" fill="#000000">989</text>
</g>
<!-- 977&#45;&#45;989 -->
<g id="edge12" class="edge">
<title>977&#45;&#45;989</title>
<path fill="none" stroke="#0000ff" d="M236.6235,-353.0605C228.7425,-354.2091 220.1208,-355.4656 212.2533,-356.6121"/>
</g>
<!-- 990 -->
<g id="node14" class="node">
<title>990</title>
<ellipse fill="#0000ae" stroke="#0000ae" cx="136.3824" cy="-114.183" rx="27" ry="18"/>
<text text-anchor="middle" x="136.3824" y="-110.483" font-family="Times,serif" font-size="14.00" fill="#000000">990</text>
</g>
<!-- 977&#45;&#45;990 -->
<g id="edge13" class="edge">
<title>977&#45;&#45;990</title>
<path fill="none" stroke="#0000ff" d="M260.0698,-331.2277C257.3631,-318.0478 252.9152,-299.8778 246.5878,-284.7358 225.6098,-234.5331 193.2207,-238.9133 168.528,-190.4298 158.553,-170.8442 149.019,-147.4347 142.9619,-131.7679"/>
</g>
<!-- 991 -->
<g id="node15" class="node">
<title>991</title>
<ellipse fill="#00407d" stroke="#00407d" cx="284.1651" cy="-148.3185" rx="27" ry="18"/>
<text text-anchor="middle" x="284.1651" y="-144.6185" font-family="Times,serif" font-size="14.00" fill="#000000">991</text>
</g>
<!-- 977&#45;&#45;991 -->
<g id="edge14" class="edge">
<title>977&#45;&#45;991</title>
<path fill="none" stroke="#0000ff" d="M259.8697,-330.9145C256.0593,-307.8886 250.9995,-267.122 255.5496,-232.5043 258.708,-208.4751 268.7551,-182.2558 276.0535,-165.5703"/>
</g>
<!-- 992 -->
<g id="node16" class="node">
<title>992</title>
<ellipse fill="#0000ae" stroke="#0000ae" cx="366.2031" cy="-162.9984" rx="27" ry="18"/>
<text text-anchor="middle" x="366.2031" y="-159.2984" font-family="Times,serif" font-size="14.00" fill="#000000">992</text>
</g>
<!-- 977&#45;&#45;992 -->
<g id="edge15" class="edge">
<title>977&#45;&#45;992</title>
<path fill="none" stroke="#0000ff" d="M272.7905,-331.9925C292.3952,-296.5253 337.144,-215.5697 356.729,-180.1381"/>
</g>
<!-- 993 -->
<g id="node17" class="node">
<title>993</title>
<ellipse fill="#0000ae" stroke="#0000ae" cx="338.0702" cy="-90.6806" rx="27" ry="18"/>
<text text-anchor="middle" x="338.0702" y="-86.9806" font-family="Times,serif" font-size="14.00" fill="#000000">993</text>
</g>
<!-- 977&#45;&#45;993 -->
<g id="edge16" class="edge">
<title>977&#45;&#45;993</title>
<path fill="none" stroke="#0000ff" d="M272.103,-331.8723C283.1407,-309.5174 301.9184,-269.1373 312.7488,-232.7108 325.6689,-189.2561 332.9771,-136.2491 336.1504,-108.9201"/>
</g>
<!-- 994 -->
<g id="node18" class="node">
<title>994</title>
<ellipse fill="#00407d" stroke="#00407d" cx="218.4239" cy="-96.3988" rx="27" ry="18"/>
<text text-anchor="middle" x="218.4239" y="-92.6988" font-family="Times,serif" font-size="14.00" fill="#000000">994</text>
</g>
<!-- 977&#45;&#45;994 -->
<g id="edge17" class="edge">
<title>977&#45;&#45;994</title>
<path fill="none" stroke="#0000ff" d="M260.0665,-330.9947C251.7878,-284.3559 229.8681,-160.8704 221.6216,-114.413"/>
</g>
<!-- 995 -->
<g id="node19" class="node">
<title>995</title>
<ellipse fill="#0000ae" stroke="#0000ae" cx="207.4019" cy="-18" rx="27" ry="18"/>
<text text-anchor="middle" x="207.4019" y="-14.3" font-family="Times,serif" font-size="14.00" fill="#000000">995</text>
</g>
<!-- 977&#45;&#45;995 -->
<g id="edge18" class="edge">
<title>977&#45;&#45;995</title>
<path fill="none" stroke="#0000ff" d="M262.0653,-330.9873C260.5203,-308.0365 257.7972,-267.3473 255.5496,-232.5043 253.5988,-202.263 254.968,-125.6468 247.0239,-96.4025 240.867,-73.7373 227.7793,-49.9691 218.3275,-34.6269"/>
</g>
<!-- 996 -->
<g id="node20" class="node">
<title>996</title>
<ellipse fill="#0000ae" stroke="#0000ae" cx="33.9172" cy="-140.693" rx="27" ry="18"/>
<text text-anchor="middle" x="33.9172" y="-136.993" font-family="Times,serif" font-size="14.00" fill="#000000">996</text>
</g>
<!-- 977&#45;&#45;996 -->
<g id="edge19" class="edge">
<title>977&#45;&#45;996</title>
<path fill="none" stroke="#0000ff" d="M244.4543,-336.0421C230.9211,-326.2733 212.5227,-312.2899 197.6731,-298.4429 177.4394,-279.5751 177.361,-269.8611 156.2565,-251.9727 125.6009,-225.9885 109.1529,-231.1437 79.8111,-203.6846 65.1896,-190.0013 52.1351,-171.0857 43.7228,-157.561"/>
</g>
<!-- 997 -->
<g id="node21" class="node">
<title>997</title>
<ellipse fill="#0000ae" stroke="#0000ae" cx="56.3012" cy="-287.2241" rx="27" ry="18"/>
<text text-anchor="middle" x="56.3012" y="-283.5241" font-family="Times,serif" font-size="14.00" fill="#000000">997</text>
</g>
<!-- 977&#45;&#45;997 -->
<g id="edge20" class="edge">
<title>977&#45;&#45;997</title>
<path fill="none" stroke="#0000ff" d="M238.3253,-341.7011C198.433,-329.7619 120.78,-306.5216 81.0357,-294.6267"/>
</g>
<!-- 998 -->
<g id="node22" class="node">
<title>998</title>
<ellipse fill="#0000ae" stroke="#0000ae" cx="363.0724" cy="-237.5848" rx="27" ry="18"/>
<text text-anchor="middle" x="363.0724" y="-233.8848" font-family="Times,serif" font-size="14.00" fill="#000000">998</text>
</g>
<!-- 977&#45;&#45;998 -->
<g id="edge21" class="edge">
<title>977&#45;&#45;998</title>
<path fill="none" stroke="#0000ff" d="M273.4441,-332.433C281.0642,-320.4296 292.1109,-304.1578 303.5311,-291.1953 316.4963,-276.4792 333.242,-261.7105 345.6706,-251.4115"/>
</g>
<!-- 978&#45;&#45;979 -->
<g id="edge211" class="edge">
<title>978&#45;&#45;979</title>
<path fill="none" stroke="#0000ff" d="M148.9897,-249.8427C159.3577,-237.0481 173.8269,-219.1925 184.19,-206.404"/>
</g>
<!-- 978&#45;&#45;980 -->
<g id="edge212" class="edge">
<title>978&#45;&#45;980</title>
<path fill="none" stroke="#0000ff" d="M113.1762,-255.8737C94.5675,-247.7664 68.4274,-236.3779 49.8268,-228.2741"/>
</g>
<!-- 978&#45;&#45;981 -->
<g id="edge213" class="edge">
<title>978&#45;&#45;981</title>
<path fill="none" stroke="#0000ff" d="M136.1812,-247.6601C135.86,-232.0351 134.3086,-209.051 128.6528,-189.8559 117.591,-152.3134 94.1981,-112.624 80.1921,-90.8343"/>
</g>
<!-- 978&#45;&#45;982 -->
<g id="edge214" class="edge">
<title>978&#45;&#45;982</title>
<path fill="none" stroke="#0000ff" d="M127.8686,-248.5877C121.9802,-236.1508 114.0659,-219.4351 108.185,-207.0139"/>
</g>
<!-- 978&#45;&#45;983 -->
<g id="edge215" class="edge">
<title>978&#45;&#45;983</title>
<path fill="none" stroke="#0000ff" d="M135.1434,-247.5953C134.1788,-232.1278 132.266,-209.4033 128.6528,-189.8559 122.3027,-155.5021 107.1409,-149.0015 107.7828,-114.0717 108.2151,-90.5488 117.8218,-64.9303 125.2611,-48.5052"/>
</g>
<!-- 978&#45;&#45;984 -->
<g id="edge216" class="edge">
<title>978&#45;&#45;984</title>
<path fill="none" stroke="#0000ff" d="M142.8532,-248.1473C149.0126,-232.663 158.6084,-209.6926 168.528,-190.4298 190.1991,-148.3465 209.8863,-147.8596 238.6433,-110.2607 251.4805,-93.4764 263.9827,-72.7029 272.1352,-58.3775"/>
</g>
<!-- 979&#45;&#45;980 -->
<g id="edge217" class="edge">
<title>979&#45;&#45;980</title>
<path fill="none" stroke="#0000ff" d="M171.2536,-196.028C151.7428,-200.1147 124.2877,-205.5926 100.0267,-209.438 84.7632,-211.8572 67.6141,-213.9758 53.7717,-215.5375"/>
</g>
<!-- 979&#45;&#45;981 -->
<g id="edge218" class="edge">
<title>979&#45;&#45;981</title>
<path fill="none" stroke="#0000ff" d="M178.2658,-177.5143C161.277,-165.508 135.9852,-146.7072 116.0446,-127.9634 103.5432,-116.2123 90.8241,-101.4627 81.7548,-90.3621"/>
</g>
<!-- 979&#45;&#45;982 -->
<g id="edge219" class="edge">
<title>979&#45;&#45;982</title>
<path fill="none" stroke="#0000ff" d="M170.0871,-190.2708C156.735,-190.1883 140.6632,-190.089 127.2853,-190.0063"/>
</g>
<!-- 979&#45;&#45;983 -->
<g id="edge220" class="edge">
<title>979&#45;&#45;983</title>
<path fill="none" stroke="#0000ff" d="M190.1208,-172.7911C177.9686,-142.1871 153.1206,-79.6099 140.9466,-48.9509"/>
</g>
<!-- 979&#45;&#45;984 -->
<g id="edge221" class="edge">
<title>979&#45;&#45;984</title>
<path fill="none" stroke="#0000ff" d="M206.8048,-173.3358C223.077,-144.5774 255.725,-86.8776 271.9212,-58.2536"/>
</g>
<!-- 980&#45;&#45;981 -->
<g id="edge222" class="edge">
<title>980&#45;&#45;981</title>
<path fill="none" stroke="#0000ff" d="M36.7662,-201.3891C45.0987,-186.0741 56.6366,-162.6388 62.517,-140.7514 66.8336,-124.6848 68.3236,-105.7538 68.7979,-92.1717"/>
</g>
<!-- 980&#45;&#45;982 -->
<g id="edge223" class="edge">
<title>980&#45;&#45;982</title>
<path fill="none" stroke="#0000ff" d="M50.5165,-209.1575C58.8585,-205.904 68.242,-202.2444 76.5804,-198.9924"/>
</g>
<!-- 980&#45;&#45;983 -->
<g id="edge224" class="edge">
<title>980&#45;&#45;983</title>
<path fill="none" stroke="#0000ff" d="M36.6759,-201.3948C56.9786,-165.8623 103.8263,-83.8723 124.177,-48.2558"/>
</g>
<!-- 980&#45;&#45;984 -->
<g id="edge225" class="edge">
<title>980&#45;&#45;984</title>
<path fill="none" stroke="#0000ff" d="M43.743,-204.0708C53.9458,-195.5955 67.379,-184.8094 79.848,-175.966 112.6023,-152.7357 125.6199,-153.8016 156.4904,-128.1208 177.6024,-110.558 176.2511,-99.0357 198.2045,-82.5369 216.6435,-68.6792 240.4685,-57.452 257.9088,-50.2405"/>
</g>
<!-- 981&#45;&#45;982 -->
<g id="edge226" class="edge">
<title>981&#45;&#45;982</title>
<path fill="none" stroke="#0000ff" d="M73.7107,-91.885C79.5453,-113.581 89.3386,-149.9974 95.1987,-171.7883"/>
</g>
<!-- 981&#45;&#45;983 -->
<g id="edge227" class="edge">
<title>981&#45;&#45;983</title>
<path fill="none" stroke="#0000ff" d="M88.4139,-61.1985C96.6401,-55.7788 106.1966,-49.4825 114.4213,-44.0637"/>
</g>
<!-- 981&#45;&#45;984 -->
<g id="edge228" class="edge">
<title>981&#45;&#45;984</title>
<path fill="none" stroke="#0000ff" d="M95.4059,-69.9715C136.2516,-63.6891 214.1483,-51.7079 254.9934,-45.4255"/>
</g>
<!-- 982&#45;&#45;983 -->
<g id="edge229" class="edge">
<title>982&#45;&#45;983</title>
<path fill="none" stroke="#0000ff" d="M100.8688,-171.6158C101.8084,-156.1692 103.7731,-133.4954 107.7828,-114.0717 112.5393,-91.0307 121.2001,-65.3068 127.2406,-48.7258"/>
</g>
<!-- 982&#45;&#45;984 -->
<g id="edge230" class="edge">
<title>982&#45;&#45;984</title>
<path fill="none" stroke="#0000ff" d="M114.522,-174.0154C141.8009,-144.1856 198.128,-82.5943 198.2045,-82.5369 216.6421,-68.6773 240.4672,-57.4504 257.908,-50.2394"/>
</g>
<!-- 983&#45;&#45;984 -->
<g id="edge231" class="edge">
<title>983&#45;&#45;984</title>
<path fill="none" stroke="#0000ff" d="M160.7417,-33.7887C174.6371,-35.0569 191.8845,-36.5391 207.3298,-37.5999 222.8908,-38.6687 240.3084,-39.5651 254.3511,-40.2134"/>
</g>
<!-- 985&#45;&#45;978 -->
<g id="edge61" class="edge">
<title>985&#45;&#45;978</title>
<path fill="none" stroke="#0000ff" d="M258.3493,-238.3948C231.2465,-244.4743 188.8703,-253.9798 161.7853,-260.0553"/>
</g>
<!-- 985&#45;&#45;979 -->
<g id="edge62" class="edge">
<title>985&#45;&#45;979</title>
<path fill="none" stroke="#0000ff" d="M262.1901,-221.9664C248.9983,-215.5738 232.2706,-207.4677 219.0801,-201.0757"/>
</g>
<!-- 985&#45;&#45;980 -->
<g id="edge63" class="edge">
<title>985&#45;&#45;980</title>
<path fill="none" stroke="#0000ff" d="M257.1158,-231.1065C207.7282,-228.3642 103.4622,-222.5747 54.0571,-219.8315"/>
</g>
<!-- 985&#45;&#45;981 -->
<g id="edge64" class="edge">
<title>985&#45;&#45;981</title>
<path fill="none" stroke="#0000ff" d="M268.569,-217.5887C255.5663,-205.5505 236.1847,-188.7225 217.3596,-176.5844 175.3832,-149.5188 155.8071,-158.1876 116.0446,-127.9634 102.1874,-117.4303 89.3909,-102.2927 80.6392,-90.7369"/>
</g>
<!-- 985&#45;&#45;982 -->
<g id="edge65" class="edge">
<title>985&#45;&#45;982</title>
<path fill="none" stroke="#0000ff" d="M258.5514,-226.6606C223.478,-218.5123 160.8438,-203.961 125.7293,-195.8032"/>
</g>
<!-- 985&#45;&#45;983 -->
<g id="edge66" class="edge">
<title>985&#45;&#45;983</title>
<path fill="none" stroke="#0000ff" d="M272.1083,-216.468C243.9769,-178.7608 174.1942,-85.2244 146.0063,-47.4414"/>
</g>
<!-- 985&#45;&#45;984 -->
<g id="edge67" class="edge">
<title>985&#45;&#45;984</title>
<path fill="none" stroke="#0000ff" d="M275.1137,-215.3904C267.148,-198.7195 256.6409,-172.4735 255.5655,-148.2095 254.137,-115.9794 265.8905,-79.7334 274.0442,-58.8199"/>
</g>
<!-- 985&#45;&#45;986 -->
<g id="edge68" class="edge">
<title>985&#45;&#45;986</title>
<path fill="none" stroke="#0000ff" d="M266.4192,-246.5531C256.9266,-254.0195 245.2671,-263.1904 235.767,-270.6627"/>
</g>
<!-- 985&#45;&#45;987 -->
<g id="edge69" class="edge">
<title>985&#45;&#45;987</title>
<path fill="none" stroke="#0000ff" d="M260.1683,-241.087C242.3259,-247.8898 217.7291,-258.3309 197.8569,-270.7246 171.5573,-287.1268 144.7703,-311.1781 128.6444,-326.6293"/>
</g>
<!-- 985&#45;&#45;988 -->
<g id="edge70" class="edge">
<title>985&#45;&#45;988</title>
<path fill="none" stroke="#0000ff" d="M293.4951,-249.8037C299.7815,-261.3706 308.0344,-276.5555 314.3068,-288.0966"/>
</g>
<!-- 985&#45;&#45;989 -->
<g id="edge71" class="edge">
<title>985&#45;&#45;989</title>
<path fill="none" stroke="#0000ff" d="M273.2109,-249.1735C264.1333,-262.6991 250.7172,-282.1853 238.1192,-298.5688 225.6821,-314.7432 210.548,-332.4533 199.7621,-344.7704"/>
</g>
<!-- 985&#45;&#45;990 -->
<g id="edge72" class="edge">
<title>985&#45;&#45;990</title>
<path fill="none" stroke="#0000ff" d="M267.5647,-218.3696C254.146,-206.929 234.6972,-190.5261 217.3596,-176.5844 196.0594,-159.4562 171.0822,-140.3537 154.5599,-127.8506"/>
</g>
<!-- 985&#45;&#45;991 -->
<g id="edge73" class="edge">
<title>985&#45;&#45;991</title>
<path fill="none" stroke="#0000ff" d="M284.1526,-214.3181C284.1553,-200.18 284.159,-180.7013 284.1616,-166.5722"/>
</g>
<!-- 985&#45;&#45;992 -->
<g id="edge74" class="edge">
<title>985&#45;&#45;992</title>
<path fill="none" stroke="#0000ff" d="M301.1508,-218.1845C315.3272,-206.1582 335.4126,-189.119 349.504,-177.1648"/>
</g>
<!-- 985&#45;&#45;993 -->
<g id="edge75" class="edge">
<title>985&#45;&#45;993</title>
<path fill="none" stroke="#0000ff" d="M290.8693,-214.9194C301.2585,-187.5738 321.0973,-135.3555 331.4348,-108.1458"/>
</g>
<!-- 985&#45;&#45;995 -->
<g id="edge76" class="edge">
<title>985&#45;&#45;995</title>
<path fill="none" stroke="#0000ff" d="M277.2741,-215.0757C270.8723,-198.177 261.4561,-171.7722 255.5655,-148.2095 249.9057,-125.57 254.2687,-118.5856 247.0239,-96.4025 239.7325,-74.0765 226.8753,-50.2393 217.7872,-34.7885"/>
</g>
<!-- 985&#45;&#45;997 -->
<g id="edge77" class="edge">
<title>985&#45;&#45;997</title>
<path fill="none" stroke="#0000ff" d="M262.2644,-243.4464C233.9592,-256.7456 182.7366,-278.3957 136.0328,-285.4318 118.6449,-288.0514 98.8864,-288.5129 83.3887,-288.3129"/>
</g>
<!-- 985&#45;&#45;998 -->
<g id="edge78" class="edge">
<title>985&#45;&#45;998</title>
<path fill="none" stroke="#0000ff" d="M311.3101,-234.3204C319.3361,-234.8266 328.1165,-235.3803 336.1288,-235.8856"/>
</g>
<!-- 986&#45;&#45;978 -->
<g id="edge79" class="edge">
<title>986&#45;&#45;978</title>
<path fill="none" stroke="#0000ff" d="M192.057,-278.6936C182.3966,-276.4758 171.4407,-273.9605 161.7955,-271.7462"/>
</g>
<!-- 986&#45;&#45;979 -->
<g id="edge80" class="edge">
<title>986&#45;&#45;979</title>
<path fill="none" stroke="#0000ff" d="M213.966,-266.4823C210.2722,-249.8001 204.8276,-225.2112 201.1376,-208.5466"/>
</g>
<!-- 986&#45;&#45;980 -->
<g id="edge81" class="edge">
<title>986&#45;&#45;980</title>
<path fill="none" stroke="#0000ff" d="M197.6475,-272.4881C185.8525,-265.7953 170.5482,-257.7092 156.2565,-251.9727 121.8257,-238.1526 79.9426,-228.4656 53.3721,-223.1438"/>
</g>
<!-- 986&#45;&#45;981 -->
<g id="edge82" class="edge">
<title>986&#45;&#45;981</title>
<path fill="none" stroke="#0000ff" d="M206.2904,-268.1212C178.4232,-228.7527 108.369,-129.786 80.5567,-90.495"/>
</g>
<!-- 986&#45;&#45;982 -->
<g id="edge83" class="edge">
<title>986&#45;&#45;982</title>
<path fill="none" stroke="#0000ff" d="M200.5863,-270.6573C178.2887,-252.7322 139.8579,-221.8375 117.5259,-203.8847"/>
</g>
<!-- 986&#45;&#45;983 -->
<g id="edge84" class="edge">
<title>986&#45;&#45;983</title>
<path fill="none" stroke="#0000ff" d="M206.4902,-268.2171C194.5294,-250.1126 176.4625,-219.6697 168.528,-190.4298 159.6566,-157.7374 171.7864,-147.4786 164.9819,-114.2944 160.1568,-90.7635 149.6734,-65.0641 142.2195,-48.5769"/>
</g>
<!-- 986&#45;&#45;984 -->
<g id="edge85" class="edge">
<title>986&#45;&#45;984</title>
<path fill="none" stroke="#0000ff" d="M222.6572,-266.7566C234.3997,-221.7637 265.0593,-104.2882 276.8092,-59.2672"/>
</g>
<!-- 986&#45;&#45;987 -->
<g id="edge86" class="edge">
<title>986&#45;&#45;987</title>
<path fill="none" stroke="#0000ff" d="M196.8474,-296.1852C178.7227,-306.0776 152.7449,-320.2561 134.6292,-330.1435"/>
</g>
<!-- 986&#45;&#45;988 -->
<g id="edge87" class="edge">
<title>986&#45;&#45;988</title>
<path fill="none" stroke="#0000ff" d="M244.0908,-289.7197C260.3368,-292.8771 281.1588,-296.9238 297.4171,-300.0835"/>
</g>
<!-- 986&#45;&#45;989 -->
<g id="edge88" class="edge">
<title>986&#45;&#45;989</title>
<path fill="none" stroke="#0000ff" d="M210.5218,-302.2322C205.3212,-314.4813 198.4142,-330.7496 193.2225,-342.9778"/>
</g>
<!-- 986&#45;&#45;990 -->
<g id="edge89" class="edge">
<title>986&#45;&#45;990</title>
<path fill="none" stroke="#0000ff" d="M208.4287,-267.5027C198.1254,-248.7874 181.4657,-217.8259 168.528,-190.4298 159.1422,-170.5551 149.4931,-147.2021 143.2481,-131.6275"/>
</g>
<!-- 986&#45;&#45;991 -->
<g id="edge90" class="edge">
<title>986&#45;&#45;991</title>
<path fill="none" stroke="#0000ff" d="M226.3694,-267.3806C239.0989,-241.1573 263.1628,-191.5842 275.8517,-165.4443"/>
</g>
<!-- 986&#45;&#45;992 -->
<g id="edge91" class="edge">
<title>986&#45;&#45;992</title>
<path fill="none" stroke="#0000ff" d="M226.9418,-267.5558C235.1234,-253.1678 248.3196,-232.7431 264.0328,-218.6754 287.6618,-197.5209 320.736,-181.3728 342.7831,-172.0469"/>
</g>
<!-- 986&#45;&#45;993 -->
<g id="edge92" class="edge">
<title>986&#45;&#45;993</title>
<path fill="none" stroke="#0000ff" d="M229.4843,-268.0756C238.7707,-254.7139 252.1959,-235.4516 264.0328,-218.6754 285.9394,-187.6277 295.1569,-182.0999 312.7646,-148.4275 319.6627,-135.2358 326.3735,-119.7626 331.1491,-108.155"/>
</g>
<!-- 986&#45;&#45;995 -->
<g id="edge93" class="edge">
<title>986&#45;&#45;995</title>
<path fill="none" stroke="#0000ff" d="M221.8671,-266.5167C225.3787,-247.4962 229.4729,-216.7642 225.7279,-190.4461 219.4247,-146.1496 193.0449,-141.0218 189.8239,-96.3951 188.2876,-75.1097 194.8664,-51.2648 200.409,-35.5228"/>
</g>
<!-- 986&#45;&#45;997 -->
<g id="edge94" class="edge">
<title>986&#45;&#45;997</title>
<path fill="none" stroke="#0000ff" d="M190.9253,-285.0781C161.0789,-285.5539 113.334,-286.3149 83.4523,-286.7913"/>
</g>
<!-- 986&#45;&#45;998 -->
<g id="edge95" class="edge">
<title>986&#45;&#45;998</title>
<path fill="none" stroke="#0000ff" d="M242.2719,-276.7696C269.0537,-268.0822 311.8959,-254.1852 338.7093,-245.4876"/>
</g>
<!-- 987&#45;&#45;978 -->
<g id="edge96" class="edge">
<title>987&#45;&#45;978</title>
<path fill="none" stroke="#0000ff" d="M118.8553,-323.6935C122.4441,-311.6051 127.1554,-295.7356 130.7361,-283.6742"/>
</g>
<!-- 987&#45;&#45;979 -->
<g id="edge97" class="edge">
<title>987&#45;&#45;979</title>
<path fill="none" stroke="#0000ff" d="M125.2202,-325.2754C133.9667,-312.8864 146.1128,-295.3885 156.2561,-279.6913 160.1624,-273.6461 161.3395,-272.2316 164.6331,-265.832 174.5472,-246.5686 184.144,-223.6012 190.3052,-208.1193"/>
</g>
<!-- 987&#45;&#45;980 -->
<g id="edge98" class="edge">
<title>987&#45;&#45;980</title>
<path fill="none" stroke="#0000ff" d="M104.703,-324.4437C99.1465,-313.7185 91.7514,-299.6737 84.9001,-287.3958 81.4034,-281.1294 80.9461,-279.2723 76.7009,-273.4867 66.1775,-259.1452 52.5571,-244.2375 42.2367,-233.5414"/>
</g>
<!-- 987&#45;&#45;981 -->
<g id="edge99" class="edge">
<title>987&#45;&#45;981</title>
<path fill="none" stroke="#0000ff" d="M106.9866,-323.7467C97.1054,-295.6584 78.7403,-239.3462 71.4528,-189.8201 66.4188,-155.6088 67.0029,-115.1068 67.9282,-92.2108"/>
</g>
<!-- 987&#45;&#45;982 -->
<g id="edge100" class="edge">
<title>987&#45;&#45;982</title>
<path fill="none" stroke="#0000ff" d="M111.9223,-323.6521C109.3304,-294.4317 104.239,-237.0326 101.6485,-207.8273"/>
</g>
<!-- 987&#45;&#45;983 -->
<g id="edge101" class="edge">
<title>987&#45;&#45;983</title>
<path fill="none" stroke="#0000ff" d="M110.2754,-323.5703C107.9481,-308.1977 105.5315,-285.5519 107.4331,-265.8316 110.7981,-230.9342 128.5891,-224.9151 128.6528,-189.8559 128.7162,-154.9202 107.1409,-149.0015 107.7828,-114.0717 108.2151,-90.5488 117.8218,-64.9303 125.2611,-48.5052"/>
</g>
<!-- 987&#45;&#45;984 -->
<g id="edge102" class="edge">
<title>987&#45;&#45;984</title>
<path fill="none" stroke="#0000ff" d="M128.1556,-326.2041C151.9995,-300.2014 199.2234,-245.1715 225.7279,-190.4461 247.8924,-144.6818 266.9997,-87.6809 275.9944,-59.2379"/>
</g>
<!-- 987&#45;&#45;988 -->
<g id="edge103" class="edge">
<title>987&#45;&#45;988</title>
<path fill="none" stroke="#0000ff" d="M139.7002,-337.1164C180.0643,-330.1038 257.0426,-316.7301 297.4062,-309.7175"/>
</g>
<!-- 987&#45;&#45;989 -->
<g id="edge104" class="edge">
<title>987&#45;&#45;989</title>
<path fill="none" stroke="#0000ff" d="M138.7989,-348.2412C145.8007,-350.0628 153.402,-352.0403 160.4099,-353.8634"/>
</g>
<!-- 987&#45;&#45;990 -->
<g id="edge105" class="edge">
<title>987&#45;&#45;990</title>
<path fill="none" stroke="#0000ff" d="M110.2754,-323.5703C107.9481,-308.1977 105.5315,-285.5519 107.4331,-265.8316 110.7981,-230.9342 122.1323,-224.3035 128.6528,-189.8559 132.3369,-170.3925 134.3575,-147.7575 135.3991,-132.3499"/>
</g>
<!-- 987&#45;&#45;991 -->
<g id="edge106" class="edge">
<title>987&#45;&#45;991</title>
<path fill="none" stroke="#0000ff" d="M127.4846,-325.8425C159.5633,-289.4963 238.2131,-200.3835 270.2468,-164.0883"/>
</g>
<!-- 987&#45;&#45;992 -->
<g id="edge107" class="edge">
<title>987&#45;&#45;992</title>
<path fill="none" stroke="#0000ff" d="M130.1862,-327.3687C147.1022,-312.9241 174.1094,-290.0426 197.8569,-270.7246 226.8843,-247.1115 232.789,-239.2667 264.0328,-218.6754 290.514,-201.2229 322.942,-184.2361 344.0628,-173.7079"/>
</g>
<!-- 987&#45;&#45;993 -->
<g id="edge108" class="edge">
<title>987&#45;&#45;993</title>
<path fill="none" stroke="#0000ff" d="M130.0102,-327.1806C170.7405,-291.2452 274.9253,-198.3038 304.2755,-162.2546 317.4631,-146.0571 326.9044,-123.8615 332.3989,-108.5008"/>
</g>
<!-- 987&#45;&#45;995 -->
<g id="edge109" class="edge">
<title>987&#45;&#45;995</title>
<path fill="none" stroke="#0000ff" d="M109.7674,-323.8078C107.0792,-308.3876 104.42,-285.5465 107.4331,-265.8316 111.148,-241.5246 177.2678,-87.5154 199.8868,-35.2928"/>
</g>
<!-- 987&#45;&#45;997 -->
<g id="edge110" class="edge">
<title>987&#45;&#45;997</title>
<path fill="none" stroke="#0000ff" d="M97.8847,-326.7887C89.8111,-319.107 79.9885,-309.7613 71.9176,-302.0823"/>
</g>
<!-- 987&#45;&#45;998 -->
<g id="edge111" class="edge">
<title>987&#45;&#45;998</title>
<path fill="none" stroke="#0000ff" d="M138.2001,-334.103C163.5772,-326.1018 204.0844,-312.6993 238.1192,-298.5688 275.3501,-283.1114 317.1804,-261.8692 341.7657,-248.9675"/>
</g>
<!-- 988&#45;&#45;978 -->
<g id="edge112" class="edge">
<title>988&#45;&#45;978</title>
<path fill="none" stroke="#0000ff" d="M302.5355,-293.866C281.7749,-283.5247 248.7886,-269.2191 218.1181,-265.0469 199.9014,-262.5688 179.2006,-262.7875 163.1448,-263.6143"/>
</g>
<!-- 988&#45;&#45;979 -->
<g id="edge113" class="edge">
<title>988&#45;&#45;979</title>
<path fill="none" stroke="#0000ff" d="M307.5696,-290.6385C283.3779,-268.69 237.763,-227.305 213.4133,-205.2132"/>
</g>
<!-- 988&#45;&#45;980 -->
<g id="edge114" class="edge">
<title>988&#45;&#45;980</title>
<path fill="none" stroke="#0000ff" d="M300.6616,-295.1991C283.6294,-287.9746 259.7338,-278.2217 238.303,-270.8505 173.0675,-248.4126 93.4566,-231.2742 53.12,-223.2826"/>
</g>
<!-- 988&#45;&#45;981 -->
<g id="edge115" class="edge">
<title>988&#45;&#45;981</title>
<path fill="none" stroke="#0000ff" d="M302.8397,-293.4107C273.1797,-276.0648 217.7333,-241.6167 176.8963,-204.2915 137.0034,-167.8292 98.6724,-116.4966 80.2668,-90.5062"/>
</g>
<!-- 988&#45;&#45;982 -->
<g id="edge116" class="edge">
<title>988&#45;&#45;982</title>
<path fill="none" stroke="#0000ff" d="M302.1523,-294.1108C259.4261,-272.0663 164.0941,-222.88 121.4212,-200.8629"/>
</g>
<!-- 988&#45;&#45;983 -->
<g id="edge117" class="edge">
<title>988&#45;&#45;983</title>
<path fill="none" stroke="#0000ff" d="M306.9973,-290.9417C294.335,-279.6104 276.8982,-262.9536 263.8197,-246.3936 235.8956,-211.0361 168.4914,-92.7166 143.469,-48.2822"/>
</g>
<!-- 988&#45;&#45;984 -->
<g id="edge118" class="edge">
<title>988&#45;&#45;984</title>
<path fill="none" stroke="#0000ff" d="M323.5957,-287.1509C323.3324,-257.8386 321.6285,-198.1051 312.7646,-148.4275 307.0155,-116.2067 295.2252,-79.8628 287.8755,-58.8816"/>
</g>
<!-- 988&#45;&#45;989 -->
<g id="edge119" class="edge">
<title>988&#45;&#45;989</title>
<path fill="none" stroke="#0000ff" d="M299.4933,-313.7925C283.4239,-319.6413 261.8757,-327.6714 243.0702,-335.3144 231.5003,-340.0167 218.7675,-345.5702 208.2515,-350.2612"/>
</g>
<!-- 988&#45;&#45;990 -->
<g id="edge120" class="edge">
<title>988&#45;&#45;990</title>
<path fill="none" stroke="#0000ff" d="M307.2011,-290.777C294.6484,-279.3573 277.2595,-262.6617 263.8197,-246.3936 240.0824,-217.6612 242.7837,-203.8356 217.3596,-176.5844 198.8351,-156.7287 173.5287,-138.3174 156.1637,-126.7164"/>
</g>
<!-- 988&#45;&#45;991 -->
<g id="edge121" class="edge">
<title>988&#45;&#45;991</title>
<path fill="none" stroke="#0000ff" d="M321.7917,-287.1313C320.108,-272.3661 317.1781,-251.0072 312.7488,-232.7108 307.0345,-209.1062 297.5784,-182.713 291.1193,-165.8296"/>
</g>
<!-- 988&#45;&#45;992 -->
<g id="edge122" class="edge">
<title>988&#45;&#45;992</title>
<path fill="none" stroke="#0000ff" d="M325.2835,-287.0933C326.8676,-273.3063 329.718,-253.9476 334.4728,-237.4806 340.3216,-217.225 350.21,-195.1349 357.3962,-180.3144"/>
</g>
<!-- 988&#45;&#45;993 -->
<g id="edge123" class="edge">
<title>988&#45;&#45;993</title>
<path fill="none" stroke="#0000ff" d="M324.8205,-286.8821C327.5571,-246.3592 334.1047,-149.4014 336.8384,-108.9215"/>
</g>
<!-- 988&#45;&#45;995 -->
<g id="edge124" class="edge">
<title>988&#45;&#45;995</title>
<path fill="none" stroke="#0000ff" d="M322.8269,-287.1307C321.7443,-272.1781 319.1183,-250.5605 312.7488,-232.7108 297.5084,-190.0012 271.1168,-190.8068 255.5655,-148.2095 247.5626,-126.2884 254.2687,-118.5856 247.0239,-96.4025 239.7325,-74.0765 226.8753,-50.2393 217.7872,-34.7885"/>
</g>
<!-- 988&#45;&#45;997 -->
<g id="edge125" class="edge">
<title>988&#45;&#45;997</title>
<path fill="none" stroke="#0000ff" d="M296.1791,-305.6523C274.8213,-305.8541 244.4315,-305.7589 217.8581,-304.2465 170.1307,-301.5301 114.7801,-294.9484 82.8242,-290.8107"/>
</g>
<!-- 988&#45;&#45;998 -->
<g id="edge126" class="edge">
<title>988&#45;&#45;998</title>
<path fill="none" stroke="#0000ff" d="M333.5498,-288.1149C339.5814,-277.7914 347.242,-264.6796 353.2482,-254.3997"/>
</g>
<!-- 989&#45;&#45;978 -->
<g id="edge127" class="edge">
<title>989&#45;&#45;978</title>
<path fill="none" stroke="#0000ff" d="M176.6693,-343.1102C167.6903,-326.0348 154.0616,-300.1168 145.1026,-283.0795"/>
</g>
<!-- 989&#45;&#45;979 -->
<g id="edge128" class="edge">
<title>989&#45;&#45;979</title>
<path fill="none" stroke="#0000ff" d="M186.4764,-342.3595C187.0963,-326.974 188.1096,-304.3067 189.3884,-284.5576 191.1047,-258.0526 193.7481,-227.4026 195.458,-208.4676"/>
</g>
<!-- 989&#45;&#45;980 -->
<g id="edge129" class="edge">
<title>989&#45;&#45;980</title>
<path fill="none" stroke="#0000ff" d="M169.4008,-345.7919C138.9715,-318.5547 74.0857,-260.4755 43.5446,-233.1382"/>
</g>
<!-- 989&#45;&#45;981 -->
<g id="edge130" class="edge">
<title>989&#45;&#45;981</title>
<path fill="none" stroke="#0000ff" d="M182.9794,-342.3486C179.6956,-323.0536 173.5553,-291.7832 164.6331,-265.832 141.2821,-197.9134 98.7354,-123.3972 79.2086,-90.8346"/>
</g>
<!-- 989&#45;&#45;982 -->
<g id="edge131" class="edge">
<title>989&#45;&#45;982</title>
<path fill="none" stroke="#0000ff" d="M183.5475,-342.5132C180.7133,-323.0865 174.9213,-291.4541 164.6331,-265.832 154.5688,-240.7674 132.7892,-218.0308 117.3096,-204.0924"/>
</g>
<!-- 989&#45;&#45;983 -->
<g id="edge132" class="edge">
<title>989&#45;&#45;983</title>
<path fill="none" stroke="#0000ff" d="M183.6312,-342.3775C179.9892,-311.3379 172.6344,-245.9137 168.528,-190.4298 166.0277,-156.6475 171.7864,-147.4786 164.9819,-114.2944 160.1568,-90.7635 149.6734,-65.0641 142.2195,-48.5769"/>
</g>
<!-- 989&#45;&#45;984 -->
<g id="edge133" class="edge">
<title>989&#45;&#45;984</title>
<path fill="none" stroke="#0000ff" d="M185.0385,-342.4708C184.7658,-326.9587 185.2765,-304.051 189.3884,-284.5576 198.6425,-240.6858 209.7995,-232.3587 225.7279,-190.4461 243.6939,-143.1721 264.4662,-87.2973 274.852,-59.2752"/>
</g>
<!-- 989&#45;&#45;990 -->
<g id="edge134" class="edge">
<title>989&#45;&#45;990</title>
<path fill="none" stroke="#0000ff" d="M182.1631,-342.358C173.0249,-296.8124 149.1652,-177.8936 140.0212,-132.3195"/>
</g>
<!-- 989&#45;&#45;991 -->
<g id="edge135" class="edge">
<title>989&#45;&#45;991</title>
<path fill="none" stroke="#0000ff" d="M200.2654,-344.7231C211.1826,-332.5266 226.2547,-314.9945 238.1192,-298.5688 242.3402,-292.7252 244.0509,-291.4832 246.5878,-284.7358 254.8769,-262.6893 249.7501,-255.3323 255.5496,-232.5043 261.5172,-209.0147 270.9279,-182.6731 277.3139,-165.8124"/>
</g>
<!-- 989&#45;&#45;992 -->
<g id="edge136" class="edge">
<title>989&#45;&#45;992</title>
<path fill="none" stroke="#0000ff" d="M202.3466,-346.156C226.0514,-325.3106 270.5302,-284.891 304.2656,-246.5397 323.5841,-224.578 343.2556,-196.9573 355.0972,-179.6344"/>
</g>
<!-- 989&#45;&#45;993 -->
<g id="edge137" class="edge">
<title>989&#45;&#45;993</title>
<path fill="none" stroke="#0000ff" d="M200.2654,-344.7231C211.1826,-332.5266 226.2547,-314.9945 238.1192,-298.5688 242.3402,-292.7252 244.0509,-291.4832 246.5878,-284.7358 254.8769,-262.6893 247.2506,-254.547 255.5496,-232.5043 271.4756,-190.2039 291.8201,-188.481 312.7646,-148.4275 319.6627,-135.2358 326.3735,-119.7626 331.1491,-108.155"/>
</g>
<!-- 989&#45;&#45;995 -->
<g id="edge138" class="edge">
<title>989&#45;&#45;995</title>
<path fill="none" stroke="#0000ff" d="M182.0775,-342.6359C176.0562,-311.7139 165.1682,-246.1125 168.528,-190.4298 172.0026,-132.8428 191.3389,-66.8442 201.3661,-35.8456"/>
</g>
<!-- 989&#45;&#45;997 -->
<g id="edge139" class="edge">
<title>989&#45;&#45;997</title>
<path fill="none" stroke="#0000ff" d="M166.2593,-347.7077C156.5971,-341.5265 144.6957,-334.1043 133.7904,-327.8379 115.3532,-317.2435 93.9068,-306.0903 78.2566,-298.1579"/>
</g>
<!-- 989&#45;&#45;998 -->
<g id="edge140" class="edge">
<title>989&#45;&#45;998</title>
<path fill="none" stroke="#0000ff" d="M204.7683,-347.3172C238.8889,-323.6657 310.216,-274.2235 344.2372,-250.6409"/>
</g>
<!-- 990&#45;&#45;978 -->
<g id="edge141" class="edge">
<title>990&#45;&#45;978</title>
<path fill="none" stroke="#0000ff" d="M136.3402,-132.4754C136.2731,-161.623 136.1426,-218.2862 136.0754,-247.4746"/>
</g>
<!-- 990&#45;&#45;979 -->
<g id="edge142" class="edge">
<title>990&#45;&#45;979</title>
<path fill="none" stroke="#0000ff" d="M149.2649,-130.3547C159.5737,-143.2955 173.9601,-161.355 184.2639,-174.2896"/>
</g>
<!-- 990&#45;&#45;980 -->
<g id="edge143" class="edge">
<title>990&#45;&#45;980</title>
<path fill="none" stroke="#0000ff" d="M120.7105,-129.1046C99.917,-148.9028 63.4217,-183.651 42.6428,-203.4352"/>
</g>
<!-- 990&#45;&#45;981 -->
<g id="edge144" class="edge">
<title>990&#45;&#45;981</title>
<path fill="none" stroke="#0000ff" d="M116.1394,-102.1407C107.6001,-97.0607 97.6798,-91.1592 89.142,-86.0802"/>
</g>
<!-- 990&#45;&#45;982 -->
<g id="edge145" class="edge">
<title>990&#45;&#45;982</title>
<path fill="none" stroke="#0000ff" d="M128.1386,-131.3503C122.2349,-143.6445 114.3144,-160.1387 108.3897,-172.4768"/>
</g>
<!-- 990&#45;&#45;983 -->
<g id="edge146" class="edge">
<title>990&#45;&#45;983</title>
<path fill="none" stroke="#0000ff" d="M135.8455,-96.1824C135.4333,-82.3628 134.8665,-63.3589 134.4524,-49.477"/>
</g>
<!-- 990&#45;&#45;984 -->
<g id="edge147" class="edge">
<title>990&#45;&#45;984</title>
<path fill="none" stroke="#0000ff" d="M157.8035,-103.1257C169.6859,-97.0153 184.741,-89.3115 198.2045,-82.5369 218.9529,-72.0965 242.7099,-60.3701 259.5259,-52.1078"/>
</g>
<!-- 990&#45;&#45;991 -->
<g id="edge148" class="edge">
<title>990&#45;&#45;991</title>
<path fill="none" stroke="#0000ff" d="M162.1241,-120.129C189.0833,-126.3561 231.1883,-136.0817 258.2224,-142.3261"/>
</g>
<!-- 990&#45;&#45;992 -->
<g id="edge149" class="edge">
<title>990&#45;&#45;992</title>
<path fill="none" stroke="#0000ff" d="M163.4989,-113.6193C197.5098,-113.7682 257.1108,-116.8902 304.5005,-134.5365 318.0986,-139.5999 332.8739,-146.3682 344.556,-152.0341"/>
</g>
<!-- 990&#45;&#45;993 -->
<g id="edge150" class="edge">
<title>990&#45;&#45;993</title>
<path fill="none" stroke="#0000ff" d="M163.4103,-116.343C179.4333,-117.2346 200.1211,-117.709 218.4185,-115.9988 251.6094,-112.8965 289.0922,-104.0768 313.1191,-97.7193"/>
</g>
<!-- 990&#45;&#45;995 -->
<g id="edge151" class="edge">
<title>990&#45;&#45;995</title>
<path fill="none" stroke="#0000ff" d="M148.4299,-97.8669C161.4895,-80.18 182.2127,-52.1143 195.2953,-34.3962"/>
</g>
<!-- 990&#45;&#45;997 -->
<g id="edge152" class="edge">
<title>990&#45;&#45;997</title>
<path fill="none" stroke="#0000ff" d="M136.7453,-132.3885C136.5388,-148.0176 134.9879,-170.9479 128.6528,-189.8559 117.4124,-223.404 89.7658,-254.8532 72.087,-272.5103"/>
</g>
<!-- 990&#45;&#45;998 -->
<g id="edge153" class="edge">
<title>990&#45;&#45;998</title>
<path fill="none" stroke="#0000ff" d="M157.3025,-125.5712C200.3782,-149.0201 298.5607,-202.467 341.8732,-226.0448"/>
</g>
<!-- 991&#45;&#45;978 -->
<g id="edge154" class="edge">
<title>991&#45;&#45;978</title>
<path fill="none" stroke="#0000ff" d="M267.6032,-162.5855C254.1953,-174.0403 234.7453,-190.4425 217.3428,-204.303 196.0182,-221.2873 170.9256,-240.1033 154.3153,-252.4009"/>
</g>
<!-- 991&#45;&#45;979 -->
<g id="edge155" class="edge">
<title>991&#45;&#45;979</title>
<path fill="none" stroke="#0000ff" d="M262.2019,-158.947C249.0077,-165.332 232.277,-173.4284 219.0841,-179.8128"/>
</g>
<!-- 991&#45;&#45;980 -->
<g id="edge156" class="edge">
<title>991&#45;&#45;980</title>
<path fill="none" stroke="#0000ff" d="M258.6109,-154.766C241.2478,-159.1874 217.7754,-165.2434 197.1399,-170.838 188.1214,-173.283 185.6533,-173.2682 176.9131,-176.5729 142.1522,-189.7161 136.4593,-202.1083 100.0267,-209.438 84.8763,-212.486 67.7333,-214.639 53.866,-216.0621"/>
</g>
<!-- 991&#45;&#45;981 -->
<g id="edge157" class="edge">
<title>991&#45;&#45;981</title>
<path fill="none" stroke="#0000ff" d="M260.8475,-139.0061C235.4228,-128.9806 193.4495,-112.8037 156.7202,-100.4027 135.7592,-93.3256 111.6738,-86.1635 94.0364,-81.0952"/>
</g>
<!-- 991&#45;&#45;982 -->
<g id="edge158" class="edge">
<title>991&#45;&#45;982</title>
<path fill="none" stroke="#0000ff" d="M258.565,-154.0916C223.4887,-162.0017 160.849,-176.1277 125.7315,-184.0471"/>
</g>
<!-- 991&#45;&#45;983 -->
<g id="edge159" class="edge">
<title>991&#45;&#45;983</title>
<path fill="none" stroke="#0000ff" d="M259.5439,-140.8994C241.3958,-134.6411 216.7451,-124.4249 198.1968,-110.2554 175.2872,-92.7541 155.4882,-65.4998 144.1264,-48.0076"/>
</g>
<!-- 991&#45;&#45;984 -->
<g id="edge160" class="edge">
<title>991&#45;&#45;984</title>
<path fill="none" stroke="#0000ff" d="M283.7104,-130.1729C283.2177,-110.5029 282.4357,-79.2902 281.942,-59.5855"/>
</g>
<!-- 991&#45;&#45;992 -->
<g id="edge161" class="edge">
<title>991&#45;&#45;992</title>
<path fill="none" stroke="#0000ff" d="M310.574,-153.0441C320.0358,-154.7372 330.6906,-156.6437 340.1242,-158.3318"/>
</g>
<!-- 991&#45;&#45;993 -->
<g id="edge162" class="edge">
<title>991&#45;&#45;993</title>
<path fill="none" stroke="#0000ff" d="M298.6106,-132.8726C306.3448,-124.6028 315.8445,-114.4453 323.5847,-106.1691"/>
</g>
<!-- 991&#45;&#45;995 -->
<g id="edge163" class="edge">
<title>991&#45;&#45;995</title>
<path fill="none" stroke="#0000ff" d="M274.2868,-131.5484C259.6282,-106.6631 232.2625,-60.2051 217.4861,-35.1195"/>
</g>
<!-- 991&#45;&#45;997 -->
<g id="edge164" class="edge">
<title>991&#45;&#45;997</title>
<path fill="none" stroke="#0000ff" d="M268.6016,-163.3681C255.6067,-175.422 236.2228,-192.2504 217.3428,-204.303 175.3233,-231.1274 159.869,-228.6486 115.81,-251.9724 102.3319,-259.1074 87.5809,-267.8389 76.1371,-274.8269"/>
</g>
<!-- 991&#45;&#45;998 -->
<g id="edge165" class="edge">
<title>991&#45;&#45;998</title>
<path fill="none" stroke="#0000ff" d="M297.9097,-163.8675C312.3043,-180.1518 334.7859,-205.5849 349.2205,-221.9145"/>
</g>
<!-- 992&#45;&#45;978 -->
<g id="edge166" class="edge">
<title>992&#45;&#45;978</title>
<path fill="none" stroke="#0000ff" d="M343.7144,-173.0457C299.7112,-192.7051 202.6895,-236.0516 158.6131,-255.7437"/>
</g>
<!-- 992&#45;&#45;979 -->
<g id="edge167" class="edge">
<title>992&#45;&#45;979</title>
<path fill="none" stroke="#0000ff" d="M339.7851,-167.2858C308.1145,-172.4257 255.3507,-180.9889 223.6389,-186.1354"/>
</g>
<!-- 992&#45;&#45;980 -->
<g id="edge168" class="edge">
<title>992&#45;&#45;980</title>
<path fill="none" stroke="#0000ff" d="M342.2201,-171.4995C309.7839,-182.5719 249.9081,-201.5174 197.116,-210.038 147.0529,-218.118 87.7193,-219.0931 54.0043,-218.8564"/>
</g>
<!-- 992&#45;&#45;981 -->
<g id="edge169" class="edge">
<title>992&#45;&#45;981</title>
<path fill="none" stroke="#0000ff" d="M344.556,-152.0341C332.8739,-146.3682 318.0986,-139.5999 304.5005,-134.5365 295.7545,-131.2798 293.3987,-130.8981 284.3241,-128.7188 255.3169,-121.7525 247.4504,-122.8612 218.4185,-115.9988 174.0808,-105.5184 123.1275,-90.5922 93.6158,-81.6576"/>
</g>
<!-- 992&#45;&#45;982 -->
<g id="edge170" class="edge">
<title>992&#45;&#45;982</title>
<path fill="none" stroke="#0000ff" d="M339.1873,-164.7939C323.1553,-165.8149 302.4276,-167.0574 284.006,-167.9182 245.4191,-169.7211 235.5206,-166.4657 197.1399,-170.838 172.7372,-173.6179 145.3031,-179.2206 125.8386,-183.6252"/>
</g>
<!-- 992&#45;&#45;983 -->
<g id="edge171" class="edge">
<title>992&#45;&#45;983</title>
<path fill="none" stroke="#0000ff" d="M347.1454,-150.0727C322.5468,-133.6012 278.2003,-104.6202 238.651,-82.5421 210.8915,-67.0455 177.7855,-51.2554 156.3315,-41.3602"/>
</g>
<!-- 992&#45;&#45;984 -->
<g id="edge172" class="edge">
<title>992&#45;&#45;984</title>
<path fill="none" stroke="#0000ff" d="M351.898,-147.1346C341.8364,-135.6503 328.325,-119.5525 317.6924,-104.4332 313.563,-98.5612 313.0733,-96.7396 309.471,-90.5302 303.2597,-79.8237 296.3831,-67.7427 291.0008,-58.234"/>
</g>
<!-- 992&#45;&#45;993 -->
<g id="edge173" class="edge">
<title>992&#45;&#45;993</title>
<path fill="none" stroke="#0000ff" d="M359.3929,-145.4922C355.0022,-134.2057 349.3127,-119.5803 344.9152,-108.2761"/>
</g>
<!-- 992&#45;&#45;995 -->
<g id="edge174" class="edge">
<title>992&#45;&#45;995</title>
<path fill="none" stroke="#0000ff" d="M350.1025,-148.2972C319.6659,-120.5061 254.0146,-60.5611 223.5452,-32.7401"/>
</g>
<!-- 992&#45;&#45;997 -->
<g id="edge175" class="edge">
<title>992&#45;&#45;997</title>
<path fill="none" stroke="#0000ff" d="M341.0457,-170.1695C295.1891,-183.6249 195.3948,-214.6891 115.81,-251.9724 101.8914,-258.4929 87.0142,-267.3058 75.6166,-274.4886"/>
</g>
<!-- 992&#45;&#45;998 -->
<g id="edge176" class="edge">
<title>992&#45;&#45;998</title>
<path fill="none" stroke="#0000ff" d="M365.4453,-181.0537C364.9566,-192.6943 364.3235,-207.7785 363.8341,-219.4373"/>
</g>
<!-- 993&#45;&#45;978 -->
<g id="edge177" class="edge">
<title>993&#45;&#45;978</title>
<path fill="none" stroke="#0000ff" d="M315.2641,-100.7898C299.6497,-108.4696 279.1238,-120.1286 264.0546,-134.3823 236.9036,-160.0639 242.9808,-177.1109 217.3428,-204.303 198.7624,-224.0097 173.3481,-242.1384 155.9054,-253.5362"/>
</g>
<!-- 993&#45;&#45;979 -->
<g id="edge178" class="edge">
<title>993&#45;&#45;979</title>
<path fill="none" stroke="#0000ff" d="M316.7599,-102.0399C301.6514,-110.3841 281.1148,-122.3236 264.0546,-134.3823 245.737,-147.3297 226.2304,-164.0421 213.0317,-175.8388"/>
</g>
<!-- 993&#45;&#45;980 -->
<g id="edge179" class="edge">
<title>993&#45;&#45;980</title>
<path fill="none" stroke="#0000ff" d="M311.9097,-96.0623C263.8331,-106.6437 159.0981,-132.943 79.848,-175.966 66.2068,-183.3716 52.5824,-194.4032 42.5843,-203.3525"/>
</g>
<!-- 993&#45;&#45;981 -->
<g id="edge180" class="edge">
<title>993&#45;&#45;981</title>
<path fill="none" stroke="#0000ff" d="M311.5276,-86.8515C287.328,-83.5392 250.5591,-78.9534 218.4293,-76.7988 175.688,-73.9325 125.9309,-73.6176 95.9574,-73.7559"/>
</g>
<!-- 993&#45;&#45;982 -->
<g id="edge181" class="edge">
<title>993&#45;&#45;982</title>
<path fill="none" stroke="#0000ff" d="M314.8147,-100.3687C269.1943,-119.3741 168.4656,-161.3374 123.0522,-180.2565"/>
</g>
<!-- 993&#45;&#45;983 -->
<g id="edge182" class="edge">
<title>993&#45;&#45;983</title>
<path fill="none" stroke="#0000ff" d="M313.0359,-83.3902C273.7452,-71.948 198.047,-49.9034 158.8274,-38.482"/>
</g>
<!-- 993&#45;&#45;984 -->
<g id="edge183" class="edge">
<title>993&#45;&#45;984</title>
<path fill="none" stroke="#0000ff" d="M321.3989,-76.1468C314.0965,-69.7808 305.5439,-62.3248 298.2329,-55.9512"/>
</g>
<!-- 993&#45;&#45;995 -->
<g id="edge184" class="edge">
<title>993&#45;&#45;995</title>
<path fill="none" stroke="#0000ff" d="M315.0099,-81.2584C299.4584,-74.6079 278.6635,-65.1325 261.1636,-55.1425 248.7499,-48.0559 235.5322,-38.9475 225.3092,-31.5242"/>
</g>
<!-- 993&#45;&#45;997 -->
<g id="edge185" class="edge">
<title>993&#45;&#45;997</title>
<path fill="none" stroke="#0000ff" d="M315.4032,-100.5398C283.2309,-115.016 223.1031,-143.8746 176.9131,-176.5729 135.1653,-206.1266 92.4967,-248.8247 70.8416,-271.5719"/>
</g>
<!-- 993&#45;&#45;998 -->
<g id="edge186" class="edge">
<title>993&#45;&#45;998</title>
<path fill="none" stroke="#0000ff" d="M336.2766,-108.9374C335.2336,-123.6358 334.6398,-144.7739 337.6031,-162.9884 340.8994,-183.2492 349.077,-205.3775 355.284,-220.2289"/>
</g>
<!-- 994&#45;&#45;978 -->
<g id="edge22" class="edge">
<title>994&#45;&#45;978</title>
<path fill="none" stroke="#0000ff" d="M208.8034,-113.5152C198.4292,-132.1991 181.6395,-163.1042 168.528,-190.4298 159.1548,-209.9643 149.4566,-232.8837 143.1237,-248.2818"/>
</g>
<!-- 994&#45;&#45;979 -->
<g id="edge23" class="edge">
<title>994&#45;&#45;979</title>
<path fill="none" stroke="#0000ff" d="M214.3178,-114.5305C210.5468,-131.1827 204.9885,-155.7273 201.2214,-172.3619"/>
</g>
<!-- 994&#45;&#45;980 -->
<g id="edge24" class="edge">
<title>994&#45;&#45;980</title>
<path fill="none" stroke="#0000ff" d="M196.6737,-107.5404C168.8451,-122.0964 119.5005,-148.9275 79.848,-175.966 67.2182,-184.5781 53.7875,-195.3679 43.6261,-203.9028"/>
</g>
<!-- 994&#45;&#45;981 -->
<g id="edge25" class="edge">
<title>994&#45;&#45;981</title>
<path fill="none" stroke="#0000ff" d="M192.0386,-92.4541C164.7935,-88.3808 122.5264,-82.0617 95.286,-77.9891"/>
</g>
<!-- 994&#45;&#45;982 -->
<g id="edge26" class="edge">
<title>994&#45;&#45;982</title>
<path fill="none" stroke="#0000ff" d="M200.9578,-110.186C178.5778,-127.8523 140.005,-158.3007 117.5905,-175.9941"/>
</g>
<!-- 994&#45;&#45;983 -->
<g id="edge27" class="edge">
<title>994&#45;&#45;983</title>
<path fill="none" stroke="#0000ff" d="M200.5003,-82.5771C186.1576,-71.5169 166.1417,-56.0817 151.8059,-45.0268"/>
</g>
<!-- 994&#45;&#45;984 -->
<g id="edge28" class="edge">
<title>994&#45;&#45;984</title>
<path fill="none" stroke="#0000ff" d="M234.9925,-81.9356C244.1885,-73.9081 255.595,-63.9511 264.8083,-55.9086"/>
</g>
<!-- 994&#45;&#45;985 -->
<g id="edge29" class="edge">
<title>994&#45;&#45;985</title>
<path fill="none" stroke="#0000ff" d="M226.7481,-113.6497C239.3215,-139.7069 263.0295,-188.8391 275.685,-215.0664"/>
</g>
<!-- 994&#45;&#45;986 -->
<g id="edge30" class="edge">
<title>994&#45;&#45;986</title>
<path fill="none" stroke="#0000ff" d="M220.679,-114.3961C222.8466,-133.3014 225.7873,-163.9157 225.7279,-190.4461 225.6685,-217.0292 222.5849,-247.6909 220.3283,-266.6239"/>
</g>
<!-- 994&#45;&#45;987 -->
<g id="edge31" class="edge">
<title>994&#45;&#45;987</title>
<path fill="none" stroke="#0000ff" d="M206.8525,-112.7841C194.8102,-130.8429 176.6043,-161.2172 168.528,-190.4298 159.586,-222.7733 174.4741,-233.7507 164.6331,-265.832 162.5223,-272.713 160.1624,-273.6461 156.2561,-279.6913 146.1128,-295.3885 133.9667,-312.8864 125.2202,-325.2754"/>
</g>
<!-- 994&#45;&#45;988 -->
<g id="edge32" class="edge">
<title>994&#45;&#45;988</title>
<path fill="none" stroke="#0000ff" d="M229.729,-112.9237C238.8686,-126.243 252.0989,-145.4325 263.8297,-162.1005 285.8027,-193.3214 299.9178,-196.7535 312.7488,-232.7108 319.1183,-250.5605 321.7443,-272.1781 322.8269,-287.1307"/>
</g>
<!-- 994&#45;&#45;989 -->
<g id="edge33" class="edge">
<title>994&#45;&#45;989</title>
<path fill="none" stroke="#0000ff" d="M222.2109,-114.5094C225.6277,-133.5072 229.5744,-164.196 225.7279,-190.4461 219.2274,-234.8096 198.6425,-240.6858 189.3884,-284.5576 185.2765,-304.051 184.7658,-326.9587 185.0385,-342.4708"/>
</g>
<!-- 994&#45;&#45;990 -->
<g id="edge34" class="edge">
<title>994&#45;&#45;990</title>
<path fill="none" stroke="#0000ff" d="M192.4655,-102.0258C182.7949,-104.1221 171.8273,-106.4996 162.172,-108.5926"/>
</g>
<!-- 994&#45;&#45;991 -->
<g id="edge35" class="edge">
<title>994&#45;&#45;991</title>
<path fill="none" stroke="#0000ff" d="M236.0413,-110.3123C245.4737,-117.7616 257.0592,-126.9114 266.499,-134.3665"/>
</g>
<!-- 994&#45;&#45;992 -->
<g id="edge36" class="edge">
<title>994&#45;&#45;992</title>
<path fill="none" stroke="#0000ff" d="M241.1196,-106.3427C258.4997,-113.9848 283.054,-124.8397 304.5005,-134.5365 317.6146,-140.4659 332.2427,-147.2079 343.9635,-152.6413"/>
</g>
<!-- 994&#45;&#45;993 -->
<g id="edge37" class="edge">
<title>994&#45;&#45;993</title>
<path fill="none" stroke="#0000ff" d="M245.5735,-95.1012C265.1543,-94.1654 291.4719,-92.9076 311.028,-91.973"/>
</g>
<!-- 994&#45;&#45;995 -->
<g id="edge38" class="edge">
<title>994&#45;&#45;995</title>
<path fill="none" stroke="#0000ff" d="M215.8675,-78.2155C214.0869,-65.5499 211.722,-48.7286 209.9444,-36.0847"/>
</g>
<!-- 994&#45;&#45;996 -->
<g id="edge39" class="edge">
<title>994&#45;&#45;996</title>
<path fill="none" stroke="#0000ff" d="M197.9786,-108.1881C186.1327,-114.681 170.7787,-122.5318 156.4904,-128.1208 125.4123,-140.2774 86.6946,-142.2867 61.1885,-142.0015"/>
</g>
<!-- 994&#45;&#45;997 -->
<g id="edge40" class="edge">
<title>994&#45;&#45;997</title>
<path fill="none" stroke="#0000ff" d="M204.8803,-112.3402C174.287,-148.3498 100.1402,-235.6238 69.6923,-271.4622"/>
</g>
<!-- 994&#45;&#45;998 -->
<g id="edge41" class="edge">
<title>994&#45;&#45;998</title>
<path fill="none" stroke="#0000ff" d="M228.1099,-113.4093C236.5174,-127.3568 249.5575,-147.1632 263.8297,-162.1005 288.3549,-187.7687 322.1864,-211.5283 343.3354,-225.2905"/>
</g>
<!-- 995&#45;&#45;978 -->
<g id="edge187" class="edge">
<title>995&#45;&#45;978</title>
<path fill="none" stroke="#0000ff" d="M202.2693,-35.8235C189.1331,-81.4393 154.4052,-202.0337 141.2151,-247.8369"/>
</g>
<!-- 995&#45;&#45;979 -->
<g id="edge188" class="edge">
<title>995&#45;&#45;979</title>
<path fill="none" stroke="#0000ff" d="M201.8061,-35.8322C197.252,-51.5758 191.3392,-75.248 189.8239,-96.3951 187.9278,-122.8564 191.3564,-153.4873 194.1299,-172.4141"/>
</g>
<!-- 995&#45;&#45;980 -->
<g id="edge189" class="edge">
<title>995&#45;&#45;980</title>
<path fill="none" stroke="#0000ff" d="M190.0515,-31.9628C171.0236,-47.6508 140.0359,-74.3245 116.2743,-100.2452 85.3618,-133.9667 54.2765,-177.883 38.2036,-201.514"/>
</g>
<!-- 995&#45;&#45;981 -->
<g id="edge190" class="edge">
<title>995&#45;&#45;981</title>
<path fill="none" stroke="#0000ff" d="M186.4669,-29.5198C176.7753,-34.6244 165.0154,-40.5006 154.1126,-45.0971 134.2474,-53.4721 111.0415,-61.2301 93.8691,-66.6027"/>
</g>
<!-- 995&#45;&#45;982 -->
<g id="edge191" class="edge">
<title>995&#45;&#45;982</title>
<path fill="none" stroke="#0000ff" d="M201.8663,-35.648C194.1394,-58.497 178.5456,-98.8513 156.4904,-128.1208 143.7333,-145.0508 127.1706,-162.7439 115.2924,-174.8231"/>
</g>
<!-- 995&#45;&#45;983 -->
<g id="edge192" class="edge">
<title>995&#45;&#45;983</title>
<path fill="none" stroke="#0000ff" d="M181.2838,-22.6999C174.5174,-23.9175 167.225,-25.2297 160.4378,-26.4511"/>
</g>
<!-- 995&#45;&#45;984 -->
<g id="edge193" class="edge">
<title>995&#45;&#45;984</title>
<path fill="none" stroke="#0000ff" d="M232.0706,-25.7755C240.068,-28.2963 248.9347,-31.091 256.9242,-33.6093"/>
</g>
<!-- 995&#45;&#45;997 -->
<g id="edge194" class="edge">
<title>995&#45;&#45;997</title>
<path fill="none" stroke="#0000ff" d="M201.3051,-35.6265C189.0222,-69.8217 159.1224,-146.8005 120.2576,-203.7099 103.6759,-227.9903 82.6546,-254.7623 69.3364,-271.2885"/>
</g>
<!-- 995&#45;&#45;998 -->
<g id="edge195" class="edge">
<title>995&#45;&#45;998</title>
<path fill="none" stroke="#0000ff" d="M221.7447,-33.5724C241.4693,-55.341 277.5817,-96.483 304.5005,-134.5365 308.6491,-140.4012 309.1628,-142.2119 312.7646,-148.4275 327.2006,-173.3389 343.5118,-202.425 353.5441,-220.4264"/>
</g>
<!-- 996&#45;&#45;978 -->
<g id="edge42" class="edge">
<title>996&#45;&#45;978</title>
<path fill="none" stroke="#0000ff" d="M45.1539,-157.098C54.1757,-170.0223 67.3507,-188.355 79.8111,-203.6846 93.3012,-220.2812 109.8367,-238.3092 121.4721,-250.6525"/>
</g>
<!-- 996&#45;&#45;979 -->
<g id="edge43" class="edge">
<title>996&#45;&#45;979</title>
<path fill="none" stroke="#0000ff" d="M58.7054,-148.2482C89.4708,-157.6252 141.625,-173.5212 172.3744,-182.8933"/>
</g>
<!-- 996&#45;&#45;980 -->
<g id="edge44" class="edge">
<title>996&#45;&#45;980</title>
<path fill="none" stroke="#0000ff" d="M32.3128,-158.6994C31.2033,-171.1521 29.7324,-187.6617 28.6196,-200.1514"/>
</g>
<!-- 996&#45;&#45;981 -->
<g id="edge45" class="edge">
<title>996&#45;&#45;981</title>
<path fill="none" stroke="#0000ff" d="M42.9296,-123.5298C48.1141,-113.6564 54.6101,-101.2855 59.8099,-91.383"/>
</g>
<!-- 996&#45;&#45;982 -->
<g id="edge46" class="edge">
<title>996&#45;&#45;982</title>
<path fill="none" stroke="#0000ff" d="M51.989,-154.1221C61.3208,-161.0565 72.6741,-169.4931 82.0028,-176.4251"/>
</g>
<!-- 996&#45;&#45;983 -->
<g id="edge47" class="edge">
<title>996&#45;&#45;983</title>
<path fill="none" stroke="#0000ff" d="M50.4229,-126.0263C61.6954,-115.7452 76.7588,-101.4768 89.0628,-87.9561 100.8926,-74.9563 113.1956,-59.2084 121.9162,-47.6059"/>
</g>
<!-- 996&#45;&#45;984 -->
<g id="edge48" class="edge">
<title>996&#45;&#45;984</title>
<path fill="none" stroke="#0000ff" d="M55.2804,-129.3643C71.7252,-120.8496 95.142,-109.1669 116.2743,-100.2452 165.3668,-79.5194 224.5438,-59.6083 257.0769,-49.0832"/>
</g>
<!-- 996&#45;&#45;985 -->
<g id="edge49" class="edge">
<title>996&#45;&#45;985</title>
<path fill="none" stroke="#0000ff" d="M57.5851,-149.8056C75.0596,-156.6685 99.3446,-166.4898 120.2945,-175.9913 145.9087,-187.6083 150.6768,-194.1138 176.8963,-204.2915 185.6056,-207.6722 188.1005,-207.5882 197.116,-210.038 217.7531,-215.6455 241.2276,-221.715 258.5924,-226.146"/>
</g>
<!-- 996&#45;&#45;986 -->
<g id="edge50" class="edge">
<title>996&#45;&#45;986</title>
<path fill="none" stroke="#0000ff" d="M43.6019,-157.6923C51.9442,-171.2932 64.9633,-190.2471 79.8111,-203.6846 98.9313,-220.9887 162.8932,-255.7253 196.6721,-273.5451"/>
</g>
<!-- 996&#45;&#45;987 -->
<g id="edge51" class="edge">
<title>996&#45;&#45;987</title>
<path fill="none" stroke="#0000ff" d="M40.8421,-158.1764C55.8969,-196.1847 91.4628,-285.9773 106.5544,-324.0788"/>
</g>
<!-- 996&#45;&#45;988 -->
<g id="edge52" class="edge">
<title>996&#45;&#45;988</title>
<path fill="none" stroke="#0000ff" d="M57.8909,-149.175C75.5172,-155.7244 99.8585,-165.4298 120.2945,-175.9913 191.6195,-212.8528 270.3082,-267.0847 305.1948,-291.8968"/>
</g>
<!-- 996&#45;&#45;989 -->
<g id="edge53" class="edge">
<title>996&#45;&#45;989</title>
<path fill="none" stroke="#0000ff" d="M42.7423,-158.0426C56.7692,-185.0222 85.6626,-238.239 115.8096,-279.691 133.2717,-303.7012 156.2449,-329.2521 171.0192,-345.0388"/>
</g>
<!-- 996&#45;&#45;990 -->
<g id="edge54" class="edge">
<title>996&#45;&#45;990</title>
<path fill="none" stroke="#0000ff" d="M59.2456,-134.14C75.0097,-130.0615 95.2141,-124.8341 110.9901,-120.7525"/>
</g>
<!-- 996&#45;&#45;991 -->
<g id="edge55" class="edge">
<title>996&#45;&#45;991</title>
<path fill="none" stroke="#0000ff" d="M61.1744,-141.5236C109.3118,-142.9904 208.8279,-146.0228 256.9414,-147.4889"/>
</g>
<!-- 996&#45;&#45;992 -->
<g id="edge56" class="edge">
<title>996&#45;&#45;992</title>
<path fill="none" stroke="#0000ff" d="M60.468,-145.0698C106.0369,-152.2475 202.1401,-165.9263 284.006,-167.9182 302.4422,-168.3667 323.1698,-167.114 339.1981,-165.7606"/>
</g>
<!-- 996&#45;&#45;993 -->
<g id="edge57" class="edge">
<title>996&#45;&#45;993</title>
<path fill="none" stroke="#0000ff" d="M60.9499,-139.9204C81.637,-139.0749 110.8329,-137.3321 136.2199,-133.7827 200.4538,-124.8021 274.7605,-106.9742 312.7864,-97.2989"/>
</g>
<!-- 996&#45;&#45;995 -->
<g id="edge58" class="edge">
<title>996&#45;&#45;995</title>
<path fill="none" stroke="#0000ff" d="M52.4831,-127.5627C85.7866,-104.0096 155.3107,-54.8403 188.7073,-31.2213"/>
</g>
<!-- 996&#45;&#45;997 -->
<g id="edge59" class="edge">
<title>996&#45;&#45;997</title>
<path fill="none" stroke="#0000ff" d="M40.2623,-158.3026C45.5225,-173.8637 52.605,-197.2954 55.6,-218.3637 58.0229,-235.4083 57.9419,-255.0656 57.4073,-269.0033"/>
</g>
<!-- 996&#45;&#45;998 -->
<g id="edge60" class="edge">
<title>996&#45;&#45;998</title>
<path fill="none" stroke="#0000ff" d="M60.6703,-143.4896C96.9619,-147.8274 163.4516,-157.7161 217.3596,-176.5844 261.8817,-192.1676 312.3543,-214.3474 340.6834,-227.2252"/>
</g>
<!-- 997&#45;&#45;978 -->
<g id="edge196" class="edge">
<title>997&#45;&#45;978</title>
<path fill="none" stroke="#0000ff" d="M81.5289,-280.4554C90.9272,-277.9339 101.586,-275.0741 110.9695,-272.5564"/>
</g>
<!-- 997&#45;&#45;979 -->
<g id="edge197" class="edge">
<title>997&#45;&#45;979</title>
<path fill="none" stroke="#0000ff" d="M75.2937,-274.1711C102.1715,-255.6988 151.028,-222.1211 177.9866,-203.5933"/>
</g>
<!-- 997&#45;&#45;980 -->
<g id="edge198" class="edge">
<title>997&#45;&#45;980</title>
<path fill="none" stroke="#0000ff" d="M48.9073,-269.839C44.4994,-259.4747 38.9189,-246.3536 34.4935,-235.9483"/>
</g>
<!-- 997&#45;&#45;981 -->
<g id="edge199" class="edge">
<title>997&#45;&#45;981</title>
<path fill="none" stroke="#0000ff" d="M57.3765,-269.0487C59.7593,-228.7734 65.4605,-132.4083 67.8408,-92.1757"/>
</g>
<!-- 997&#45;&#45;982 -->
<g id="edge200" class="edge">
<title>997&#45;&#45;982</title>
<path fill="none" stroke="#0000ff" d="M64.1231,-269.8134C72.0868,-252.0872 84.3595,-224.7695 92.2986,-207.0979"/>
</g>
<!-- 997&#45;&#45;983 -->
<g id="edge201" class="edge">
<title>997&#45;&#45;983</title>
<path fill="none" stroke="#0000ff" d="M57.9199,-269.0221C59.9563,-249.2648 64.1091,-216.9089 71.4528,-189.8201 85.8545,-136.6966 112.2984,-77.0469 125.6832,-48.398"/>
</g>
<!-- 997&#45;&#45;984 -->
<g id="edge202" class="edge">
<title>997&#45;&#45;984</title>
<path fill="none" stroke="#0000ff" d="M72.3203,-272.6226C111.3844,-236.8675 210.4097,-145.2966 238.6433,-110.2607 251.9022,-93.8075 264.3319,-72.9771 272.352,-58.5477"/>
</g>
<!-- 997&#45;&#45;998 -->
<g id="edge203" class="edge">
<title>997&#45;&#45;998</title>
<path fill="none" stroke="#0000ff" d="M83.3574,-288.093C98.845,-288.222 118.6038,-287.7627 136.0328,-285.4318 173.2916,-280.4491 181.3957,-273.0786 218.1181,-265.0469 229.5343,-262.55 298.3411,-249.6565 336.9103,-242.4587"/>
</g>
<!-- 998&#45;&#45;978 -->
<g id="edge204" class="edge">
<title>998&#45;&#45;978</title>
<path fill="none" stroke="#0000ff" d="M337.1705,-242.9899C321.7776,-246.048 301.8385,-249.7417 283.9986,-252.2073 241.9619,-258.0171 192.853,-261.9861 163.118,-264.081"/>
</g>
<!-- 998&#45;&#45;979 -->
<g id="edge205" class="edge">
<title>998&#45;&#45;979</title>
<path fill="none" stroke="#0000ff" d="M338.6053,-229.5728C328.119,-226.1849 315.7199,-222.2399 304.4787,-218.8215 276.813,-210.4085 244.7121,-202.1097 222.8717,-196.6798"/>
</g>
<!-- 998&#45;&#45;980 -->
<g id="edge206" class="edge">
<title>998&#45;&#45;980</title>
<path fill="none" stroke="#0000ff" d="M338.0019,-244.3004C322.5586,-247.9159 302.2811,-251.7338 283.9986,-252.2073 198.7449,-254.4154 98.8851,-234.791 52.7575,-224.4465"/>
</g>
<!-- 998&#45;&#45;981 -->
<g id="edge207" class="edge">
<title>998&#45;&#45;981</title>
<path fill="none" stroke="#0000ff" d="M345.9164,-223.587C311.8128,-196.3712 232.2582,-135.8867 156.7202,-100.4027 136.696,-90.9963 112.53,-84.0344 94.6235,-79.6356"/>
</g>
<!-- 998&#45;&#45;982 -->
<g id="edge208" class="edge">
<title>998&#45;&#45;982</title>
<path fill="none" stroke="#0000ff" d="M338.6053,-229.5728C328.119,-226.1849 315.7199,-222.2399 304.4787,-218.8215 295.5493,-216.1061 293.5178,-214.4697 284.2999,-213.0078 246.0076,-206.9351 235.6098,-214.6646 197.116,-210.038 172.5074,-207.0802 144.8721,-201.0585 125.4014,-196.3557"/>
</g>
<!-- 998&#45;&#45;983 -->
<g id="edge209" class="edge">
<title>998&#45;&#45;983</title>
<path fill="none" stroke="#0000ff" d="M343.5773,-224.8233C311.4323,-203.2977 246.1033,-157.4801 198.1968,-110.2554 177.9175,-90.2647 157.7181,-64.1602 145.519,-47.5387"/>
</g>
<!-- 998&#45;&#45;984 -->
<g id="edge210" class="edge">
<title>998&#45;&#45;984</title>
<path fill="none" stroke="#0000ff" d="M355.832,-220.1704C340.3495,-182.9316 304.1774,-95.9303 288.7093,-58.7263"/>
</g>
<!-- Cluster 28 -->
<g id="node23" class="node">
<title>Cluster 28</title>
<polygon fill="none" stroke="#000000" points="448,-411 375,-411 375,-375 448,-375 448,-411"/>
<text text-anchor="middle" x="411.5" y="-389.3" font-family="Times,serif" font-size="14.00" fill="#000000">Cluster 28</text>
</g>
<!-- mail -->
<g id="node24" class="node">
<title>mail</title>
<polygon fill="none" stroke="#0000ff" points="404,-36 350,-36 350,0 404,0 404,-36"/>
<text text-anchor="middle" x="377" y="-14.3" font-family="Times,serif" font-size="14.00" fill="#000000">mail</text>
</g>
</g>
</svg>
