<?xml version="1.0" encoding="UTF-8" standalone="no"?>
<!DOCTYPE svg PUBLIC "-//W3C//DTD SVG 1.1//EN"
 "http://www.w3.org/Graphics/SVG/1.1/DTD/svg11.dtd">
<!-- Generated by graphviz version 2.40.1 (20161225.0304)
 -->
<!-- Title: %3 Pages: 1 -->
<svg width="501pt" height="473pt"
 viewBox="0.00 0.00 501.00 473.00" xmlns="http://www.w3.org/2000/svg" xmlns:xlink="http://www.w3.org/1999/xlink">
<g id="graph0" class="graph" transform="scale(1 1) rotate(0) translate(4 469)">
<title>%3</title>
<polygon fill="#ffffff" stroke="transparent" points="-4,4 -4,-469 497,-469 497,4 -4,4"/>
<!-- 1819 -->
<g id="node1" class="node">
<title>1819</title>
<ellipse fill="#0098d2" stroke="#0098d2" cx="139.5975" cy="-178.0044" rx="28.6953" ry="18"/>
<text text-anchor="middle" x="139.5975" y="-174.3044" font-family="Times,serif" font-size="14.00" fill="#000000">1819</text>
</g>
<!-- 1820 -->
<g id="node2" class="node">
<title>1820</title>
<ellipse fill="#0098d2" stroke="#0098d2" cx="202.4993" cy="-134" rx="28.6953" ry="18"/>
<text text-anchor="middle" x="202.4993" y="-130.3" font-family="Times,serif" font-size="14.00" fill="#000000">1820</text>
</g>
<!-- 1819&#45;&#45;1820 -->
<g id="edge1" class="edge">
<title>1819&#45;&#45;1820</title>
<path fill="none" stroke="#000000" d="M151.922,-194.5041C219.3603,-278.7385 269.8368,-243.2739 213.5786,-150.9129"/>
</g>
<!-- 1819&#45;&#45;1820 -->
<g id="edge2" class="edge">
<title>1819&#45;&#45;1820</title>
<path fill="none" stroke="#0000ff" d="M128.5067,-161.0729C72.2631,-68.7198 122.7474,-33.267 190.1877,-117.5165"/>
</g>
<!-- 1819&#45;&#45;1820 -->
<g id="edge3" class="edge">
<title>1819&#45;&#45;1820</title>
<path fill="none" stroke="#ffebcd" d="M128.8167,-161.1806C83.3931,-82.8881 132.0888,-48.5916 190.0263,-117.6692"/>
</g>
<!-- 1819&#45;&#45;1820 -->
<g id="edge4" class="edge">
<title>1819&#45;&#45;1820</title>
<path fill="none" stroke="#dc143c" d="M129.1214,-161.0325C94.9598,-96.9079 140.9847,-64.3152 189.4914,-117.6147"/>
</g>
<!-- 1819&#45;&#45;1820 -->
<g id="edge5" class="edge">
<title>1819&#45;&#45;1820</title>
<path fill="none" stroke="#ee82ee" d="M129.8031,-161.0823C106.7569,-110.582 149.4201,-80.2083 189.0128,-118.078"/>
</g>
<!-- 1819&#45;&#45;1820 -->
<g id="edge6" class="edge">
<title>1819&#45;&#45;1820</title>
<path fill="none" stroke="#a52a2a" d="M130.8649,-160.5967C119.5906,-123.9062 156.294,-97.297 187.1695,-118.4099"/>
</g>
<!-- 1819&#45;&#45;1820 -->
<g id="edge7" class="edge">
<title>1819&#45;&#45;1820</title>
<path fill="none" stroke="#7fff00" d="M133.5121,-160.1009C133.125,-136.7374 160.2189,-116.1655 182.8606,-120.7248"/>
</g>
<!-- 1819&#45;&#45;1820 -->
<g id="edge8" class="edge">
<title>1819&#45;&#45;1820</title>
<path fill="none" stroke="#00ffff" d="M140.0119,-159.9759C145.9783,-148.5248 160.3943,-136.8571 174.2221,-131.2954"/>
</g>
<!-- 1819&#45;&#45;1820 -->
<g id="edge9" class="edge">
<title>1819&#45;&#45;1820</title>
<path fill="none" stroke="#ff7f50" d="M152.3636,-161.7654C159.7379,-155.5668 169.1998,-148.7799 177.9343,-143.3742"/>
</g>
<!-- 1819&#45;&#45;1820 -->
<g id="edge10" class="edge">
<title>1819&#45;&#45;1820</title>
<path fill="none" stroke="#000000" d="M164.2135,-168.5986C172.9783,-163.1705 182.4695,-156.3564 189.8455,-150.1444"/>
</g>
<!-- 1819&#45;&#45;1820 -->
<g id="edge11" class="edge">
<title>1819&#45;&#45;1820</title>
<path fill="none" stroke="#000000" d="M168.0391,-180.6426C181.6927,-175.105 195.8845,-163.6427 201.9225,-152.3362"/>
</g>
<!-- 1819&#45;&#45;1820 -->
<g id="edge12" class="edge">
<title>1819&#45;&#45;1820</title>
<path fill="none" stroke="#bdb76b" d="M159.2737,-191.2872C181.9859,-195.8317 209.1582,-175.112 208.5796,-151.6618"/>
</g>
<!-- 1819&#45;&#45;1820 -->
<g id="edge13" class="edge">
<title>1819&#45;&#45;1820</title>
<path fill="none" stroke="#e9967a" d="M154.6291,-193.3891C185.5472,-214.8657 222.4977,-188.2486 211.2523,-151.4746"/>
</g>
<!-- 1819&#45;&#45;1820 -->
<g id="edge14" class="edge">
<title>1819&#45;&#45;1820</title>
<path fill="none" stroke="#ffa500" d="M153.2706,-194.1045C192.7903,-231.6812 235.2599,-201.3742 212.329,-150.9998"/>
</g>
<!-- 1819&#45;&#45;1820 -->
<g id="edge15" class="edge">
<title>1819&#45;&#45;1820</title>
<path fill="none" stroke="#8fbc8f" d="M152.6171,-194.4026C201.1246,-247.6896 247.144,-215.0843 212.9643,-150.9512"/>
</g>
<!-- 1819&#45;&#45;1820 -->
<g id="edge16" class="edge">
<title>1819&#45;&#45;1820</title>
<path fill="none" stroke="#b03060" d="M152.0931,-194.3622C210.0287,-263.4134 258.7112,-229.0966 213.261,-150.7911"/>
</g>
<!-- 1821 -->
<g id="node3" class="node">
<title>1821</title>
<ellipse fill="#00155a" stroke="#00155a" cx="263.9347" cy="-179.9248" rx="28.6953" ry="18"/>
<text text-anchor="middle" x="263.9347" y="-176.2248" font-family="Times,serif" font-size="14.00" fill="#000000">1821</text>
</g>
<!-- 1819&#45;&#45;1821 -->
<g id="edge17" class="edge">
<title>1819&#45;&#45;1821</title>
<path fill="none" stroke="#0000ff" d="M140.2454,-196.2371C149.442,-298.0743 250.3385,-299.6556 262.7156,-198.1974"/>
</g>
<!-- 1819&#45;&#45;1821 -->
<g id="edge18" class="edge">
<title>1819&#45;&#45;1821</title>
<path fill="none" stroke="#ffebcd" d="M140.8082,-159.8004C153.1454,-58.2958 254.0426,-59.8313 263.2805,-161.6233"/>
</g>
<!-- 1819&#45;&#45;1821 -->
<g id="edge19" class="edge">
<title>1819&#45;&#45;1821</title>
<path fill="none" stroke="#dc143c" d="M141.1489,-159.8752C154.7125,-76.2879 251.939,-77.7777 262.9392,-161.7206"/>
</g>
<!-- 1819&#45;&#45;1821 -->
<g id="edge20" class="edge">
<title>1819&#45;&#45;1821</title>
<path fill="none" stroke="#ee82ee" d="M141.7312,-159.9335C157.0068,-94.3136 249.0689,-95.7191 262.3501,-161.7472"/>
</g>
<!-- 1819&#45;&#45;1821 -->
<g id="edge21" class="edge">
<title>1819&#45;&#45;1821</title>
<path fill="none" stroke="#a52a2a" d="M142.8265,-160.0442C160.4838,-112.3478 244.9856,-113.627 261.2355,-161.795"/>
</g>
<!-- 1819&#45;&#45;1821 -->
<g id="edge22" class="edge">
<title>1819&#45;&#45;1821</title>
<path fill="none" stroke="#7fff00" d="M145.544,-159.9032C166.8136,-130.3622 238.8653,-131.596 258.7937,-162.0153"/>
</g>
<!-- 1819&#45;&#45;1821 -->
<g id="edge23" class="edge">
<title>1819&#45;&#45;1821</title>
<path fill="none" stroke="#00ffff" d="M151.7776,-161.4754C175.8167,-148.0899 229.0539,-148.9543 252.4865,-163.1574"/>
</g>
<!-- 1819&#45;&#45;1821 -->
<g id="edge24" class="edge">
<title>1819&#45;&#45;1821</title>
<path fill="none" stroke="#ff7f50" d="M163.1515,-167.544C185.5773,-164.2922 219.1014,-164.8385 241.2386,-168.8355"/>
</g>
<!-- 1819&#45;&#45;1821 -->
<g id="edge25" class="edge">
<title>1819&#45;&#45;1821</title>
<path fill="none" stroke="#000000" d="M168.4354,-178.4498C188.5224,-178.7601 215.2004,-179.1721 235.2531,-179.4818"/>
</g>
<!-- 1819&#45;&#45;1821 -->
<g id="edge26" class="edge">
<title>1819&#45;&#45;1821</title>
<path fill="none" stroke="#000000" d="M162.2371,-189.0835C184.3347,-193.0827 217.8173,-193.6378 240.2616,-190.4024"/>
</g>
<!-- 1819&#45;&#45;1821 -->
<g id="edge27" class="edge">
<title>1819&#45;&#45;1821</title>
<path fill="none" stroke="#bdb76b" d="M150.8178,-194.6328C174.1682,-208.9917 227.8055,-209.8858 251.8681,-196.3904"/>
</g>
<!-- 1819&#45;&#45;1821 -->
<g id="edge28" class="edge">
<title>1819&#45;&#45;1821</title>
<path fill="none" stroke="#e9967a" d="M144.6664,-195.8036C164.5575,-226.4301 237.1658,-227.6107 258.1955,-197.7347"/>
</g>
<!-- 1819&#45;&#45;1821 -->
<g id="edge29" class="edge">
<title>1819&#45;&#45;1821</title>
<path fill="none" stroke="#ffa500" d="M142.2702,-196.0558C158.4461,-244.2747 242.9471,-245.6059 260.6769,-197.9626"/>
</g>
<!-- 1819&#45;&#45;1821 -->
<g id="edge30" class="edge">
<title>1819&#45;&#45;1821</title>
<path fill="none" stroke="#8fbc8f" d="M141.172,-196.1326C154.4139,-262.1929 246.4755,-263.6313 261.7895,-198.0449"/>
</g>
<!-- 1819&#45;&#45;1821 -->
<g id="edge31" class="edge">
<title>1819&#45;&#45;1821</title>
<path fill="none" stroke="#b03060" d="M140.5883,-196.1729C151.5639,-280.1392 248.7901,-281.6527 262.3774,-198.0896"/>
</g>
<!-- 1822 -->
<g id="node4" class="node">
<title>1822</title>
<ellipse fill="#0098d2" stroke="#0098d2" cx="239.0315" cy="-252.5322" rx="28.6953" ry="18"/>
<text text-anchor="middle" x="239.0315" y="-248.8322" font-family="Times,serif" font-size="14.00" fill="#000000">1822</text>
</g>
<!-- 1819&#45;&#45;1822 -->
<g id="edge32" class="edge">
<title>1819&#45;&#45;1822</title>
<path fill="none" stroke="#000000" d="M128.2641,-194.793C72.5351,-287.6053 151.928,-347.5285 225.4129,-268.8579"/>
</g>
<!-- 1819&#45;&#45;1822 -->
<g id="edge33" class="edge">
<title>1819&#45;&#45;1822</title>
<path fill="none" stroke="#0000ff" d="M153.0143,-161.8951C226.5649,-82.8883 306.1653,-142.8618 250.3433,-235.7794"/>
</g>
<!-- 1819&#45;&#45;1822 -->
<g id="edge34" class="edge">
<title>1819&#45;&#45;1822</title>
<path fill="none" stroke="#ffebcd" d="M153.4772,-161.9575C217.4729,-98.4449 294.0666,-156.385 249.9188,-235.8373"/>
</g>
<!-- 1819&#45;&#45;1822 -->
<g id="edge35" class="edge">
<title>1819&#45;&#45;1822</title>
<path fill="none" stroke="#dc143c" d="M154.1523,-162.1817C208.9007,-114.5005 281.36,-169.452 249.4634,-235.5446"/>
</g>
<!-- 1819&#45;&#45;1822 -->
<g id="edge36" class="edge">
<title>1819&#45;&#45;1822</title>
<path fill="none" stroke="#ee82ee" d="M155.0996,-162.8635C201.1977,-131.0916 268.1348,-182.0483 248.5621,-235.2736"/>
</g>
<!-- 1819&#45;&#45;1822 -->
<g id="edge37" class="edge">
<title>1819&#45;&#45;1822</title>
<path fill="none" stroke="#a52a2a" d="M157.7459,-164.0657C196.0257,-149.411 254.1019,-194.3189 246.8292,-234.9712"/>
</g>
<!-- 1819&#45;&#45;1822 -->
<g id="edge38" class="edge">
<title>1819&#45;&#45;1822</title>
<path fill="none" stroke="#7fff00" d="M164.1951,-168.5512C195.4196,-170.9179 239.4014,-206.076 243.346,-234.4548"/>
</g>
<!-- 1819&#45;&#45;1822 -->
<g id="edge39" class="edge">
<title>1819&#45;&#45;1822</title>
<path fill="none" stroke="#00ffff" d="M168.313,-179.1513C192.8843,-189.8109 224.9686,-215.2544 236.4709,-234.4239"/>
</g>
<!-- 1819&#45;&#45;1822 -->
<g id="edge40" class="edge">
<title>1819&#45;&#45;1822</title>
<path fill="none" stroke="#ff7f50" d="M163.0472,-188.6463C182.6977,-201.2136 209.9299,-221.7966 225.9562,-236.3137"/>
</g>
<!-- 1819&#45;&#45;1822 -->
<g id="edge41" class="edge">
<title>1819&#45;&#45;1822</title>
<path fill="none" stroke="#000000" d="M152.5056,-194.0714C168.5279,-208.6134 195.9267,-229.3276 215.6508,-241.9345"/>
</g>
<!-- 1819&#45;&#45;1822 -->
<g id="edge42" class="edge">
<title>1819&#45;&#45;1822</title>
<path fill="none" stroke="#000000" d="M142.1141,-196.0394C153.5983,-215.2505 185.8244,-240.8002 210.4433,-251.4404"/>
</g>
<!-- 1819&#45;&#45;1822 -->
<g id="edge43" class="edge">
<title>1819&#45;&#45;1822</title>
<path fill="none" stroke="#bdb76b" d="M135.2502,-195.8395C138.9706,-224.2132 182.9752,-259.4956 214.2791,-261.9734"/>
</g>
<!-- 1819&#45;&#45;1822 -->
<g id="edge44" class="edge">
<title>1819&#45;&#45;1822</title>
<path fill="none" stroke="#e9967a" d="M131.8057,-195.5321C124.5012,-236.1598 182.4976,-281.0559 220.7888,-266.5069"/>
</g>
<!-- 1819&#45;&#45;1822 -->
<g id="edge45" class="edge">
<title>1819&#45;&#45;1822</title>
<path fill="none" stroke="#ffa500" d="M130.0834,-195.2182C110.4643,-248.4385 177.3649,-299.4134 223.4742,-267.7111"/>
</g>
<!-- 1819&#45;&#45;1822 -->
<g id="edge46" class="edge">
<title>1819&#45;&#45;1822</title>
<path fill="none" stroke="#8fbc8f" d="M129.138,-195.0489C97.3027,-261.1325 169.7797,-316.0495 224.5172,-268.3196"/>
</g>
<!-- 1819&#45;&#45;1822 -->
<g id="edge47" class="edge">
<title>1819&#45;&#45;1822</title>
<path fill="none" stroke="#b03060" d="M128.6726,-194.7668C84.594,-274.2055 161.2149,-332.1045 225.2028,-268.5285"/>
</g>
<!-- 1823 -->
<g id="node5" class="node">
<title>1823</title>
<ellipse fill="#0098d2" stroke="#0098d2" cx="162.3152" cy="-251.3912" rx="28.6953" ry="18"/>
<text text-anchor="middle" x="162.3152" y="-247.6912" font-family="Times,serif" font-size="14.00" fill="#000000">1823</text>
</g>
<!-- 1819&#45;&#45;1823 -->
<g id="edge48" class="edge">
<title>1819&#45;&#45;1823</title>
<path fill="none" stroke="#000000" d="M114.6283,-186.8707C22.189,-224.4973 38.8187,-279.1249 135.9137,-258.353"/>
</g>
<!-- 1819&#45;&#45;1823 -->
<g id="edge49" class="edge">
<title>1819&#45;&#45;1823</title>
<path fill="none" stroke="#0000ff" d="M166.2062,-170.9984C263.0858,-150.3553 279.647,-204.8894 187.375,-242.488"/>
</g>
<!-- 1819&#45;&#45;1823 -->
<g id="edge50" class="edge">
<title>1819&#45;&#45;1823</title>
<path fill="none" stroke="#ffebcd" d="M166.4107,-171.3837C246.382,-157.1387 262.0175,-208.903 187.1553,-242.1637"/>
</g>
<!-- 1819&#45;&#45;1823 -->
<g id="edge51" class="edge">
<title>1819&#45;&#45;1823</title>
<path fill="none" stroke="#dc143c" d="M166.6063,-172.0503C229.8495,-164.3899 244.2876,-212.4906 186.7943,-241.6455"/>
</g>
<!-- 1819&#45;&#45;1823 -->
<g id="edge52" class="edge">
<title>1819&#45;&#45;1823</title>
<path fill="none" stroke="#ee82ee" d="M167.4286,-173.2677C213.781,-172.7553 226.2716,-215.674 185.9666,-240.8605"/>
</g>
<!-- 1819&#45;&#45;1823 -->
<g id="edge53" class="edge">
<title>1819&#45;&#45;1823</title>
<path fill="none" stroke="#a52a2a" d="M168.147,-176.0231C198.3073,-182.4878 208.198,-218.1132 184.3667,-239.4427"/>
</g>
<!-- 1819&#45;&#45;1823 -->
<g id="edge54" class="edge">
<title>1819&#45;&#45;1823</title>
<path fill="none" stroke="#7fff00" d="M167.6778,-182.2326C183.8997,-193.8164 190.6745,-220.0813 180.6472,-237.268"/>
</g>
<!-- 1819&#45;&#45;1823 -->
<g id="edge55" class="edge">
<title>1819&#45;&#45;1823</title>
<path fill="none" stroke="#00ffff" d="M161.4905,-189.8791C169.8409,-202.1421 175.0021,-220.9603 173.3696,-234.6896"/>
</g>
<!-- 1819&#45;&#45;1823 -->
<g id="edge56" class="edge">
<title>1819&#45;&#45;1823</title>
<path fill="none" stroke="#ff7f50" d="M151.0163,-194.7628C155.7486,-206.2333 160.376,-221.4153 162.6925,-233.1829"/>
</g>
<!-- 1819&#45;&#45;1823 -->
<g id="edge57" class="edge">
<title>1819&#45;&#45;1823</title>
<path fill="none" stroke="#000000" d="M139.2493,-196.3606C141.5839,-208.1502 146.2176,-223.3207 150.948,-234.7579"/>
</g>
<!-- 1819&#45;&#45;1823 -->
<g id="edge58" class="edge">
<title>1819&#45;&#45;1823</title>
<path fill="none" stroke="#000000" d="M128.543,-194.706C126.9128,-208.4158 132.0571,-227.2001 140.3866,-239.4642"/>
</g>
<!-- 1819&#45;&#45;1823 -->
<g id="edge59" class="edge">
<title>1819&#45;&#45;1823</title>
<path fill="none" stroke="#bdb76b" d="M121.3697,-191.9504C111.1817,-209.15 117.9703,-235.5909 134.2826,-247.197"/>
</g>
<!-- 1819&#45;&#45;1823 -->
<g id="edge60" class="edge">
<title>1819&#45;&#45;1823</title>
<path fill="none" stroke="#e9967a" d="M117.7036,-189.8125C93.6394,-211.1539 103.5653,-246.9884 133.8859,-253.3981"/>
</g>
<!-- 1819&#45;&#45;1823 -->
<g id="edge61" class="edge">
<title>1819&#45;&#45;1823</title>
<path fill="none" stroke="#ffa500" d="M116.1267,-188.4226C75.5855,-213.6049 88.0739,-256.6802 134.5473,-256.1271"/>
</g>
<!-- 1819&#45;&#45;1823 -->
<g id="edge62" class="edge">
<title>1819&#45;&#45;1823</title>
<path fill="none" stroke="#8fbc8f" d="M115.2041,-187.7067C57.6442,-216.8402 72.0149,-264.9534 135.1958,-257.3587"/>
</g>
<!-- 1819&#45;&#45;1823 -->
<g id="edge63" class="edge">
<title>1819&#45;&#45;1823</title>
<path fill="none" stroke="#b03060" d="M114.7821,-187.221C39.9027,-220.4764 55.5173,-272.2433 135.4668,-258.0181"/>
</g>
<!-- 1820&#45;&#45;1821 -->
<g id="edge111" class="edge">
<title>1820&#45;&#45;1821</title>
<path fill="none" stroke="#0000ff" d="M190.9753,-150.6024C137.6203,-234.0853 185.8809,-270.4843 250.762,-196.2629"/>
</g>
<!-- 1820&#45;&#45;1821 -->
<g id="edge112" class="edge">
<title>1820&#45;&#45;1821</title>
<path fill="none" stroke="#ffebcd" d="M215.5913,-117.7542C280.4868,-43.4406 328.7966,-79.7755 275.5234,-163.2209"/>
</g>
<!-- 1820&#45;&#45;1821 -->
<g id="edge113" class="edge">
<title>1820&#45;&#45;1821</title>
<path fill="none" stroke="#dc143c" d="M216.0486,-117.6856C270.9054,-58.7473 316.934,-93.519 275.2975,-163.0673"/>
</g>
<!-- 1820&#45;&#45;1821 -->
<g id="edge114" class="edge">
<title>1820&#45;&#45;1821</title>
<path fill="none" stroke="#ee82ee" d="M216.481,-117.9718C261.7324,-74.2173 304.8916,-107.0048 274.7527,-163.1055"/>
</g>
<!-- 1820&#45;&#45;1821 -->
<g id="edge115" class="edge">
<title>1820&#45;&#45;1821</title>
<path fill="none" stroke="#a52a2a" d="M217.4088,-118.4647C253.3941,-90.3008 292.2653,-120.1132 273.9008,-162.9592"/>
</g>
<!-- 1820&#45;&#45;1821 -->
<g id="edge116" class="edge">
<title>1820&#45;&#45;1821</title>
<path fill="none" stroke="#7fff00" d="M220.22,-119.5076C247.3012,-107.9499 278.7913,-132.9184 272.1732,-162.63"/>
</g>
<!-- 1820&#45;&#45;1821 -->
<g id="edge117" class="edge">
<title>1820&#45;&#45;1821</title>
<path fill="none" stroke="#00ffff" d="M227.818,-125.4404C245.7326,-128.7474 264.9679,-145.2969 268.0299,-162.0118"/>
</g>
<!-- 1820&#45;&#45;1821 -->
<g id="edge118" class="edge">
<title>1820&#45;&#45;1821</title>
<path fill="none" stroke="#ff7f50" d="M230.2544,-138.8187C240.7532,-144.9145 251.653,-153.7975 258.4286,-162.0853"/>
</g>
<!-- 1820&#45;&#45;1821 -->
<g id="edge119" class="edge">
<title>1820&#45;&#45;1821</title>
<path fill="none" stroke="#000000" d="M220.9319,-147.779C228.7076,-153.5915 237.7407,-160.3441 245.515,-166.1556"/>
</g>
<!-- 1820&#45;&#45;1821 -->
<g id="edge120" class="edge">
<title>1820&#45;&#45;1821</title>
<path fill="none" stroke="#000000" d="M208.0464,-151.8897C214.8302,-160.1696 225.7189,-169.0365 236.2041,-175.1204"/>
</g>
<!-- 1820&#45;&#45;1821 -->
<g id="edge121" class="edge">
<title>1820&#45;&#45;1821</title>
<path fill="none" stroke="#bdb76b" d="M198.4517,-152.1665C201.655,-168.7665 220.7267,-185.1383 238.5248,-188.4675"/>
</g>
<!-- 1820&#45;&#45;1821 -->
<g id="edge122" class="edge">
<title>1820&#45;&#45;1821</title>
<path fill="none" stroke="#e9967a" d="M194.1823,-151.655C187.8774,-181.3006 219.4396,-206.0835 246.4681,-194.3076"/>
</g>
<!-- 1820&#45;&#45;1821 -->
<g id="edge123" class="edge">
<title>1820&#45;&#45;1821</title>
<path fill="none" stroke="#ffa500" d="M192.4709,-151.1112C174.2793,-193.8261 212.9843,-223.5184 248.8913,-195.5645"/>
</g>
<!-- 1820&#45;&#45;1821 -->
<g id="edge124" class="edge">
<title>1820&#45;&#45;1821</title>
<path fill="none" stroke="#8fbc8f" d="M191.7094,-150.767C161.4614,-207 204.8421,-239.8384 250.1958,-195.7175"/>
</g>
<!-- 1820&#45;&#45;1821 -->
<g id="edge125" class="edge">
<title>1820&#45;&#45;1821</title>
<path fill="none" stroke="#b03060" d="M191.2494,-150.6692C149.3673,-220.4256 195.5883,-255.3133 250.5804,-196.0293"/>
</g>
<!-- 1820&#45;&#45;1822 -->
<g id="edge126" class="edge">
<title>1820&#45;&#45;1822</title>
<path fill="none" stroke="#000000" d="M178.027,-143.3278C86.8316,-185.7907 113.5119,-274.0391 212.0718,-258.8347"/>
</g>
<!-- 1820&#45;&#45;1822 -->
<g id="edge127" class="edge">
<title>1820&#45;&#45;1822</title>
<path fill="none" stroke="#0000ff" d="M229.3295,-127.7176C327.955,-112.4222 354.717,-200.6505 263.616,-243.1521"/>
</g>
<!-- 1820&#45;&#45;1822 -->
<g id="edge128" class="edge">
<title>1820&#45;&#45;1822</title>
<path fill="none" stroke="#ffebcd" d="M229.8989,-128.3262C311.6605,-120.2837 336.8037,-204.0675 263.1219,-242.7339"/>
</g>
<!-- 1820&#45;&#45;1822 -->
<g id="edge129" class="edge">
<title>1820&#45;&#45;1822</title>
<path fill="none" stroke="#dc143c" d="M230.4102,-129.4244C295.6616,-128.9105 318.7927,-206.9536 262.3685,-242.0918"/>
</g>
<!-- 1820&#45;&#45;1822 -->
<g id="edge130" class="edge">
<title>1820&#45;&#45;1822</title>
<path fill="none" stroke="#ee82ee" d="M231.0069,-131.4739C280.084,-138.8312 300.5575,-208.9076 261.3546,-240.8837"/>
</g>
<!-- 1820&#45;&#45;1822 -->
<g id="edge131" class="edge">
<title>1820&#45;&#45;1822</title>
<path fill="none" stroke="#a52a2a" d="M231.0737,-135.3778C265.3011,-150.167 282.4886,-210.2669 259.0706,-239.2163"/>
</g>
<!-- 1820&#45;&#45;1822 -->
<g id="edge132" class="edge">
<title>1820&#45;&#45;1822</title>
<path fill="none" stroke="#7fff00" d="M229.0267,-141.7391C251.3002,-161.8156 265.2922,-211.3707 254.6377,-237.3067"/>
</g>
<!-- 1820&#45;&#45;1822 -->
<g id="edge133" class="edge">
<title>1820&#45;&#45;1822</title>
<path fill="none" stroke="#00ffff" d="M222.0964,-147.1113C236.726,-168.6929 249.2667,-210.9893 247.7182,-235.0649"/>
</g>
<!-- 1820&#45;&#45;1822 -->
<g id="edge134" class="edge">
<title>1820&#45;&#45;1822</title>
<path fill="none" stroke="#ff7f50" d="M213.0454,-151.0296C222.2738,-173.1392 234.0429,-211.524 238.5061,-234.236"/>
</g>
<!-- 1820&#45;&#45;1822 -->
<g id="edge135" class="edge">
<title>1820&#45;&#45;1822</title>
<path fill="none" stroke="#000000" d="M202.9992,-152.1666C207.4379,-174.8363 219.2127,-213.2641 228.454,-235.4276"/>
</g>
<!-- 1820&#45;&#45;1822 -->
<g id="edge136" class="edge">
<title>1820&#45;&#45;1822</title>
<path fill="none" stroke="#000000" d="M193.8228,-151.3106C192.2152,-175.275 204.6854,-217.4965 219.2809,-239.1938"/>
</g>
<!-- 1820&#45;&#45;1822 -->
<g id="edge137" class="edge">
<title>1820&#45;&#45;1822</title>
<path fill="none" stroke="#bdb76b" d="M186.8995,-149.2099C176.1886,-175.2494 190.3428,-225.1252 212.7823,-245.042"/>
</g>
<!-- 1820&#45;&#45;1822 -->
<g id="edge138" class="edge">
<title>1820&#45;&#45;1822</title>
<path fill="none" stroke="#e9967a" d="M182.636,-147.1001C158.9912,-175.9232 176.0941,-236.1516 210.3063,-251.089"/>
</g>
<!-- 1820&#45;&#45;1822 -->
<g id="edge139" class="edge">
<title>1820&#45;&#45;1822</title>
<path fill="none" stroke="#ffa500" d="M180.1666,-145.6563C140.9894,-177.6255 161.4372,-247.6555 210.4753,-255.051"/>
</g>
<!-- 1820&#45;&#45;1822 -->
<g id="edge140" class="edge">
<title>1820&#45;&#45;1822</title>
<path fill="none" stroke="#8fbc8f" d="M178.8756,-144.6197C122.852,-179.8211 145.9507,-257.5228 210.9974,-257.1086"/>
</g>
<!-- 1820&#45;&#45;1822 -->
<g id="edge141" class="edge">
<title>1820&#45;&#45;1822</title>
<path fill="none" stroke="#b03060" d="M178.4549,-143.7742C104.6571,-182.4609 129.8938,-266.3853 211.8296,-258.1864"/>
</g>
<!-- 1821&#45;&#45;1822 -->
<g id="edge142" class="edge">
<title>1821&#45;&#45;1822</title>
<path fill="none" stroke="#0000ff" d="M237.7509,-172.3527C149.5207,-151.9934 131.7457,-204.9374 214.707,-242.8977"/>
</g>
<!-- 1821&#45;&#45;1822 -->
<g id="edge143" class="edge">
<title>1821&#45;&#45;1822</title>
<path fill="none" stroke="#ffebcd" d="M288.398,-189.6229C371.2451,-227.5992 353.377,-280.5092 265.0728,-260.0714"/>
</g>
<!-- 1821&#45;&#45;1822 -->
<g id="edge144" class="edge">
<title>1821&#45;&#45;1822</title>
<path fill="none" stroke="#dc143c" d="M287.9601,-189.9356C353.6884,-223.1413 337.03,-273.0049 265.3936,-259.6139"/>
</g>
<!-- 1821&#45;&#45;1822 -->
<g id="edge145" class="edge">
<title>1821&#45;&#45;1822</title>
<path fill="none" stroke="#ee82ee" d="M287.2573,-190.4418C335.9394,-219.0703 320.9995,-264.7565 266.0024,-258.7947"/>
</g>
<!-- 1821&#45;&#45;1822 -->
<g id="edge146" class="edge">
<title>1821&#45;&#45;1822</title>
<path fill="none" stroke="#a52a2a" d="M286.2653,-191.4979C317.9885,-215.7705 305.3663,-255.4224 266.7148,-257.0512"/>
</g>
<!-- 1821&#45;&#45;1822 -->
<g id="edge147" class="edge">
<title>1821&#45;&#45;1822</title>
<path fill="none" stroke="#7fff00" d="M283.7914,-193.103C300.0369,-212.873 290.8128,-244.0248 267.6835,-252.842"/>
</g>
<!-- 1821&#45;&#45;1822 -->
<g id="edge148" class="edge">
<title>1821&#45;&#45;1822</title>
<path fill="none" stroke="#00ffff" d="M278.5804,-195.5569C283.3636,-210.9451 277.0071,-232.8827 265.1371,-244.9665"/>
</g>
<!-- 1821&#45;&#45;1822 -->
<g id="edge149" class="edge">
<title>1821&#45;&#45;1822</title>
<path fill="none" stroke="#ff7f50" d="M269.4267,-197.8409C268.3257,-210.3041 263.0476,-226.5875 256.5047,-238.2002"/>
</g>
<!-- 1821&#45;&#45;1822 -->
<g id="edge150" class="edge">
<title>1821&#45;&#45;1822</title>
<path fill="none" stroke="#000000" d="M257.7788,-197.8727C253.9187,-209.1272 248.9631,-223.5756 245.1165,-234.7908"/>
</g>
<!-- 1821&#45;&#45;1822 -->
<g id="edge151" class="edge">
<title>1821&#45;&#45;1822</title>
<path fill="none" stroke="#000000" d="M246.3897,-194.3844C239.8512,-206.0398 234.5901,-222.3419 233.5252,-234.7806"/>
</g>
<!-- 1821&#45;&#45;1822 -->
<g id="edge152" class="edge">
<title>1821&#45;&#45;1822</title>
<path fill="none" stroke="#bdb76b" d="M237.9011,-187.4174C226.0133,-199.4567 219.6235,-221.3756 224.3515,-236.7893"/>
</g>
<!-- 1821&#45;&#45;1822 -->
<g id="edge153" class="edge">
<title>1821&#45;&#45;1822</title>
<path fill="none" stroke="#e9967a" d="M235.1312,-179.6732C212.1085,-188.5701 202.9611,-219.6396 219.1844,-239.3658"/>
</g>
<!-- 1821&#45;&#45;1822 -->
<g id="edge154" class="edge">
<title>1821&#45;&#45;1822</title>
<path fill="none" stroke="#ffa500" d="M235.9924,-175.4173C197.5239,-177.2128 185.0357,-216.7813 216.7495,-240.9964"/>
</g>
<!-- 1821&#45;&#45;1822 -->
<g id="edge155" class="edge">
<title>1821&#45;&#45;1822</title>
<path fill="none" stroke="#8fbc8f" d="M236.9799,-173.6641C181.9655,-167.6911 167.0197,-213.3906 215.7195,-242.0216"/>
</g>
<!-- 1821&#45;&#45;1822 -->
<g id="edge156" class="edge">
<title>1821&#45;&#45;1822</title>
<path fill="none" stroke="#b03060" d="M237.5365,-172.8364C165.9923,-159.4804 149.3174,-209.2355 214.8363,-242.4356"/>
</g>
<!-- 1823&#45;&#45;1820 -->
<g id="edge64" class="edge">
<title>1823&#45;&#45;1820</title>
<path fill="none" stroke="#000000" d="M188.9392,-258.4973C287.1514,-276.841 316.5904,-189.2448 226.4979,-143.991"/>
</g>
<!-- 1823&#45;&#45;1820 -->
<g id="edge65" class="edge">
<title>1823&#45;&#45;1820</title>
<path fill="none" stroke="#0000ff" d="M138.45,-241.4672C48.1468,-196.2088 77.646,-108.4476 176.0325,-126.9233"/>
</g>
<!-- 1823&#45;&#45;1820 -->
<g id="edge66" class="edge">
<title>1823&#45;&#45;1820</title>
<path fill="none" stroke="#ffebcd" d="M138.8393,-241.0232C65.8802,-200.0858 93.7967,-116.6207 175.7219,-127.5421"/>
</g>
<!-- 1823&#45;&#45;1820 -->
<g id="edge67" class="edge">
<title>1823&#45;&#45;1820</title>
<path fill="none" stroke="#dc143c" d="M139.4351,-240.3173C83.8897,-203.4353 109.5533,-125.8453 174.9961,-128.5775"/>
</g>
<!-- 1823&#45;&#45;1820 -->
<g id="edge68" class="edge">
<title>1823&#45;&#45;1820</title>
<path fill="none" stroke="#ee82ee" d="M140.6519,-239.3081C101.9916,-206.1798 124.7469,-136.2401 174.3165,-130.5708"/>
</g>
<!-- 1823&#45;&#45;1820 -->
<g id="edge69" class="edge">
<title>1823&#45;&#45;1820</title>
<path fill="none" stroke="#a52a2a" d="M142.8661,-237.6826C120.1237,-208.1372 139.0828,-148.4437 173.7422,-134.5601"/>
</g>
<!-- 1823&#45;&#45;1820 -->
<g id="edge70" class="edge">
<title>1823&#45;&#45;1820</title>
<path fill="none" stroke="#7fff00" d="M147.2889,-235.9567C137.2006,-209.6783 152.884,-160.0509 175.972,-140.7307"/>
</g>
<!-- 1823&#45;&#45;1820 -->
<g id="edge71" class="edge">
<title>1823&#45;&#45;1820</title>
<path fill="none" stroke="#00ffff" d="M154.1881,-234.0732C153.2156,-210.1318 166.9993,-168.1429 182.2942,-146.7996"/>
</g>
<!-- 1823&#45;&#45;1820 -->
<g id="edge72" class="edge">
<title>1823&#45;&#45;1820</title>
<path fill="none" stroke="#ff7f50" d="M163.3771,-233.2428C168.5154,-210.7129 181.4741,-172.653 191.3972,-150.7769"/>
</g>
<!-- 1823&#45;&#45;1820 -->
<g id="edge73" class="edge">
<title>1823&#45;&#45;1820</title>
<path fill="none" stroke="#000000" d="M173.3836,-234.6884C183.2922,-212.8658 196.2439,-174.8486 201.4079,-152.2773"/>
</g>
<!-- 1823&#45;&#45;1820 -->
<g id="edge74" class="edge">
<title>1823&#45;&#45;1820</title>
<path fill="none" stroke="#000000" d="M182.6364,-238.429C197.8274,-217.1163 211.493,-175.5137 210.6367,-151.5887"/>
</g>
<!-- 1823&#45;&#45;1820 -->
<g id="edge75" class="edge">
<title>1823&#45;&#45;1820</title>
<path fill="none" stroke="#bdb76b" d="M189.0704,-244.4686C211.9553,-225.0798 227.4746,-175.9624 217.6274,-149.7029"/>
</g>
<!-- 1823&#45;&#45;1820 -->
<g id="edge76" class="edge">
<title>1823&#45;&#45;1820</title>
<path fill="none" stroke="#e9967a" d="M190.9196,-250.8919C225.7531,-237.0922 244.8086,-177.0316 221.7961,-147.5121"/>
</g>
<!-- 1823&#45;&#45;1820 -->
<g id="edge77" class="edge">
<title>1823&#45;&#45;1820</title>
<path fill="none" stroke="#ffa500" d="M190.7321,-254.7931C240.1261,-248.9322 262.75,-179.1959 224.193,-146.1092"/>
</g>
<!-- 1823&#45;&#45;1820 -->
<g id="edge78" class="edge">
<title>1823&#45;&#45;1820</title>
<path fill="none" stroke="#8fbc8f" d="M189.594,-256.804C255.1369,-259.7202 280.9366,-182.153 225.5456,-145.1846"/>
</g>
<!-- 1823&#45;&#45;1820 -->
<g id="edge79" class="edge">
<title>1823&#45;&#45;1820</title>
<path fill="none" stroke="#b03060" d="M189.2403,-257.8688C270.9302,-268.6541 298.8078,-185.5275 226.2983,-144.5499"/>
</g>
<!-- 1823&#45;&#45;1821 -->
<g id="edge80" class="edge">
<title>1823&#45;&#45;1821</title>
<path fill="none" stroke="#0000ff" d="M175.3155,-267.7391C241.8914,-341.3118 321.9709,-284.6511 274.5223,-196.941"/>
</g>
<!-- 1823&#45;&#45;1821 -->
<g id="edge81" class="edge">
<title>1823&#45;&#45;1821</title>
<path fill="none" stroke="#ffebcd" d="M151.7945,-234.4986C104.2266,-146.7606 184.2499,-90.0244 250.838,-163.4705"/>
</g>
<!-- 1823&#45;&#45;1821 -->
<g id="edge82" class="edge">
<title>1823&#45;&#45;1821</title>
<path fill="none" stroke="#dc143c" d="M152.1662,-234.3076C116.1995,-160.3143 192.8568,-105.9539 250.5044,-163.801"/>
</g>
<!-- 1823&#45;&#45;1821 -->
<g id="edge83" class="edge">
<title>1823&#45;&#45;1821</title>
<path fill="none" stroke="#ee82ee" d="M152.8926,-234.2447C128.626,-173.7507 200.3414,-122.5521 249.5252,-163.9963"/>
</g>
<!-- 1823&#45;&#45;1821 -->
<g id="edge84" class="edge">
<title>1823&#45;&#45;1821</title>
<path fill="none" stroke="#a52a2a" d="M154.0839,-233.9105C141.9092,-186.5482 206.5304,-140.0499 247.9134,-164.7667"/>
</g>
<!-- 1823&#45;&#45;1821 -->
<g id="edge85" class="edge">
<title>1823&#45;&#45;1821</title>
<path fill="none" stroke="#7fff00" d="M156.4837,-233.5411C156.0224,-198.9267 209.3415,-159.708 243.8991,-166.9022"/>
</g>
<!-- 1823&#45;&#45;1821 -->
<g id="edge86" class="edge">
<title>1823&#45;&#45;1821</title>
<path fill="none" stroke="#00ffff" d="M161.4462,-233.2094C170.3271,-210.2396 208.5112,-181.4181 236.5407,-174.4945"/>
</g>
<!-- 1823&#45;&#45;1821 -->
<g id="edge87" class="edge">
<title>1823&#45;&#45;1821</title>
<path fill="none" stroke="#ff7f50" d="M170.5107,-233.9192C185.0707,-218.0099 214.5096,-196.6635 236.6375,-185.4856"/>
</g>
<!-- 1823&#45;&#45;1821 -->
<g id="edge88" class="edge">
<title>1823&#45;&#45;1821</title>
<path fill="none" stroke="#000000" d="M181.429,-237.9489C199.482,-225.2527 226.4234,-206.3056 244.561,-193.5498"/>
</g>
<!-- 1823&#45;&#45;1821 -->
<g id="edge89" class="edge">
<title>1823&#45;&#45;1821</title>
<path fill="none" stroke="#000000" d="M189.8053,-245.7327C211.9685,-234.4995 241.3735,-213.1495 255.8517,-197.2736"/>
</g>
<!-- 1823&#45;&#45;1821 -->
<g id="edge90" class="edge">
<title>1823&#45;&#45;1821</title>
<path fill="none" stroke="#bdb76b" d="M189.8422,-256.7885C217.8119,-249.8186 255.8082,-221.1372 264.7585,-198.2229"/>
</g>
<!-- 1823&#45;&#45;1821 -->
<g id="edge91" class="edge">
<title>1823&#45;&#45;1821</title>
<path fill="none" stroke="#e9967a" d="M182.4043,-264.4249C216.944,-271.5635 270.1676,-232.4154 269.7668,-197.833"/>
</g>
<!-- 1823&#45;&#45;1821 -->
<g id="edge92" class="edge">
<title>1823&#45;&#45;1821</title>
<path fill="none" stroke="#ffa500" d="M178.1063,-266.4111C219.5033,-291.4532 284.4383,-244.8017 272.1447,-197.3231"/>
</g>
<!-- 1823&#45;&#45;1821 -->
<g id="edge93" class="edge">
<title>1823&#45;&#45;1821</title>
<path fill="none" stroke="#8fbc8f" d="M176.6384,-267.247C225.7995,-308.8026 297.5646,-257.6531 273.3944,-197.1642"/>
</g>
<!-- 1823&#45;&#45;1821 -->
<g id="edge94" class="edge">
<title>1823&#45;&#45;1821</title>
<path fill="none" stroke="#b03060" d="M175.9354,-267.7051C233.5652,-325.2469 310.0217,-270.9128 274.076,-196.9928"/>
</g>
<!-- 1823&#45;&#45;1822 -->
<g id="edge95" class="edge">
<title>1823&#45;&#45;1822</title>
<path fill="none" stroke="#000000" d="M162.536,-269.491C167.0965,-380.3723 230.3281,-381.3855 238.2569,-270.8355"/>
</g>
<!-- 1823&#45;&#45;1822 -->
<g id="edge96" class="edge">
<title>1823&#45;&#45;1822</title>
<path fill="none" stroke="#0000ff" d="M163.0742,-233.306C170.9302,-122.6094 234.164,-123.4771 238.8016,-234.214"/>
</g>
<!-- 1823&#45;&#45;1822 -->
<g id="edge97" class="edge">
<title>1823&#45;&#45;1822</title>
<path fill="none" stroke="#ffebcd" d="M163.2482,-233.2575C171.6949,-140.5439 232.9843,-141.4785 238.6423,-234.448"/>
</g>
<!-- 1823&#45;&#45;1822 -->
<g id="edge98" class="edge">
<title>1823&#45;&#45;1822</title>
<path fill="none" stroke="#dc143c" d="M163.5276,-233.2461C172.7912,-158.6147 231.2789,-159.4604 238.3524,-234.2861"/>
</g>
<!-- 1823&#45;&#45;1822 -->
<g id="edge99" class="edge">
<title>1823&#45;&#45;1822</title>
<path fill="none" stroke="#ee82ee" d="M164.0513,-233.1166C174.5683,-176.5732 229.1992,-177.4773 237.8819,-234.4895"/>
</g>
<!-- 1823&#45;&#45;1822 -->
<g id="edge100" class="edge">
<title>1823&#45;&#45;1822</title>
<path fill="none" stroke="#a52a2a" d="M165.0503,-233.3081C177.1953,-194.5934 225.9961,-195.3727 236.8804,-234.5369"/>
</g>
<!-- 1823&#45;&#45;1822 -->
<g id="edge101" class="edge">
<title>1823&#45;&#45;1822</title>
<path fill="none" stroke="#7fff00" d="M167.6134,-233.6702C181.796,-212.6697 220.4517,-213.1843 234.1461,-234.479"/>
</g>
<!-- 1823&#45;&#45;1822 -->
<g id="edge102" class="edge">
<title>1823&#45;&#45;1822</title>
<path fill="none" stroke="#00ffff" d="M176.2677,-235.6493C190.3171,-230.1048 211.8365,-230.4413 225.6713,-236.4333"/>
</g>
<!-- 1823&#45;&#45;1822 -->
<g id="edge103" class="edge">
<title>1823&#45;&#45;1822</title>
<path fill="none" stroke="#ff7f50" d="M189.243,-245.3195C196.7669,-245.0576 204.9364,-245.1815 212.4407,-245.6718"/>
</g>
<!-- 1823&#45;&#45;1822 -->
<g id="edge104" class="edge">
<title>1823&#45;&#45;1822</title>
<path fill="none" stroke="#000000" d="M189.0506,-258.2611C196.4769,-258.741 204.5452,-258.8629 211.989,-258.6079"/>
</g>
<!-- 1823&#45;&#45;1822 -->
<g id="edge105" class="edge">
<title>1823&#45;&#45;1822</title>
<path fill="none" stroke="#000000" d="M175.4432,-267.3887C189.2647,-273.4766 210.9393,-273.8495 225.0678,-268.2785"/>
</g>
<!-- 1823&#45;&#45;1822 -->
<g id="edge106" class="edge">
<title>1823&#45;&#45;1822</title>
<path fill="none" stroke="#bdb76b" d="M167.0841,-269.262C180.6358,-290.675 219.2897,-291.3101 233.6114,-270.4322"/>
</g>
<!-- 1823&#45;&#45;1822 -->
<g id="edge107" class="edge">
<title>1823&#45;&#45;1822</title>
<path fill="none" stroke="#e9967a" d="M164.5113,-269.5477C175.4996,-308.6064 224.3019,-309.2788 236.3462,-270.4556"/>
</g>
<!-- 1823&#45;&#45;1822 -->
<g id="edge108" class="edge">
<title>1823&#45;&#45;1822</title>
<path fill="none" stroke="#ffa500" d="M163.5071,-269.7094C172.3378,-326.5405 226.9714,-327.2615 237.3459,-270.5328"/>
</g>
<!-- 1823&#45;&#45;1822 -->
<g id="edge109" class="edge">
<title>1823&#45;&#45;1822</title>
<path fill="none" stroke="#8fbc8f" d="M162.9874,-269.5644C170.0274,-344.4382 228.5145,-345.3324 237.81,-270.7501"/>
</g>
<!-- 1823&#45;&#45;1822 -->
<g id="edge110" class="edge">
<title>1823&#45;&#45;1822</title>
<path fill="none" stroke="#b03060" d="M162.7085,-269.5446C168.3942,-362.4684 229.6843,-363.3569 238.1047,-270.5968"/>
</g>
<!-- Cluster 72 -->
<g id="node6" class="node">
<title>Cluster 72</title>
<polygon fill="none" stroke="#000000" points="381,-355 308,-355 308,-319 381,-319 381,-355"/>
<text text-anchor="middle" x="344.5" y="-333.3" font-family="Times,serif" font-size="14.00" fill="#000000">Cluster 72</text>
</g>
<!-- p443&#45;p143 -->
<g id="node7" class="node">
<title>p443&#45;p143</title>
<polygon fill="none" stroke="#bdb76b" points="427,-113 352,-113 352,-77 427,-77 427,-113"/>
<text text-anchor="middle" x="389.5" y="-91.3" font-family="Times,serif" font-size="14.00" fill="#000000">p443&#45;p143</text>
</g>
<!-- p993&#45;p25 -->
<g id="node8" class="node">
<title>p993&#45;p25</title>
<polygon fill="none" stroke="#a52a2a" points="156,-465 88,-465 88,-429 156,-429 156,-465"/>
<text text-anchor="middle" x="122" y="-443.3" font-family="Times,serif" font-size="14.00" fill="#000000">p993&#45;p25</text>
</g>
<!-- p993&#45;p110 -->
<g id="node9" class="node">
<title>p993&#45;p110</title>
<polygon fill="none" stroke="#000000" points="141,-399 66,-399 66,-363 141,-363 141,-399"/>
<text text-anchor="middle" x="103.5" y="-377.3" font-family="Times,serif" font-size="14.00" fill="#000000">p993&#45;p110</text>
</g>
<!-- p143&#45;p143 -->
<g id="node10" class="node">
<title>p143&#45;p143</title>
<polygon fill="none" stroke="#000000" points="449,-179 374,-179 374,-143 449,-143 449,-179"/>
<text text-anchor="middle" x="411.5" y="-157.3" font-family="Times,serif" font-size="14.00" fill="#000000">p143&#45;p143</text>
</g>
<!-- p22&#45;p22 -->
<g id="node11" class="node">
<title>p22&#45;p22</title>
<polygon fill="none" stroke="#000000" points="62,-465 0,-465 0,-429 62,-429 62,-465"/>
<text text-anchor="middle" x="31" y="-443.3" font-family="Times,serif" font-size="14.00" fill="#000000">p22&#45;p22</text>
</g>
<!-- p25&#45;p25 -->
<g id="node12" class="node">
<title>p25&#45;p25</title>
<polygon fill="none" stroke="#0000ff" points="62,-333 0,-333 0,-297 62,-297 62,-333"/>
<text text-anchor="middle" x="31" y="-311.3" font-family="Times,serif" font-size="14.00" fill="#000000">p25&#45;p25</text>
</g>
<!-- p993&#45;p143 -->
<g id="node13" class="node">
<title>p993&#45;p143</title>
<polygon fill="none" stroke="#e9967a" points="449,-421 374,-421 374,-385 449,-385 449,-421"/>
<text text-anchor="middle" x="411.5" y="-399.3" font-family="Times,serif" font-size="14.00" fill="#000000">p993&#45;p143</text>
</g>
<!-- p443&#45;p25 -->
<g id="node14" class="node">
<title>p443&#45;p25</title>
<polygon fill="none" stroke="#ee82ee" points="68,-113 0,-113 0,-77 68,-77 68,-113"/>
<text text-anchor="middle" x="34" y="-91.3" font-family="Times,serif" font-size="14.00" fill="#000000">p443&#45;p25</text>
</g>
<!-- p443&#45;p443 -->
<g id="node15" class="node">
<title>p443&#45;p443</title>
<polygon fill="none" stroke="#ffa500" points="350,-421 275,-421 275,-385 350,-385 350,-421"/>
<text text-anchor="middle" x="312.5" y="-399.3" font-family="Times,serif" font-size="14.00" fill="#000000">p443&#45;p443</text>
</g>
<!-- p143&#45;p25 -->
<g id="node16" class="node">
<title>p143&#45;p25</title>
<polygon fill="none" stroke="#dc143c" points="68,-47 0,-47 0,-11 68,-11 68,-47"/>
<text text-anchor="middle" x="34" y="-25.3" font-family="Times,serif" font-size="14.00" fill="#000000">p143&#45;p25</text>
</g>
<!-- p143&#45;p110 -->
<g id="node17" class="node">
<title>p143&#45;p110</title>
<polygon fill="none" stroke="#00ffff" points="471,-245 396,-245 396,-209 471,-209 471,-245"/>
<text text-anchor="middle" x="433.5" y="-223.3" font-family="Times,serif" font-size="14.00" fill="#000000">p143&#45;p110</text>
</g>
<!-- p993&#45;p443 -->
<g id="node18" class="node">
<title>p993&#45;p443</title>
<polygon fill="none" stroke="#8fbc8f" points="251,-443 176,-443 176,-407 251,-407 251,-443"/>
<text text-anchor="middle" x="213.5" y="-421.3" font-family="Times,serif" font-size="14.00" fill="#000000">p993&#45;p443</text>
</g>
<!-- p110&#45;p25 -->
<g id="node19" class="node">
<title>p110&#45;p25</title>
<polygon fill="none" stroke="#ffebcd" points="222,-36 154,-36 154,0 222,0 222,-36"/>
<text text-anchor="middle" x="188" y="-14.3" font-family="Times,serif" font-size="14.00" fill="#000000">p110&#45;p25</text>
</g>
<!-- p443&#45;p110 -->
<g id="node20" class="node">
<title>p443&#45;p110</title>
<polygon fill="none" stroke="#ff7f50" points="482,-311 407,-311 407,-275 482,-275 482,-311"/>
<text text-anchor="middle" x="444.5" y="-289.3" font-family="Times,serif" font-size="14.00" fill="#000000">p443&#45;p110</text>
</g>
<!-- p110&#45;p110 -->
<g id="node21" class="node">
<title>p110&#45;p110</title>
<polygon fill="none" stroke="#7fff00" points="394,-47 319,-47 319,-11 394,-11 394,-47"/>
<text text-anchor="middle" x="356.5" y="-25.3" font-family="Times,serif" font-size="14.00" fill="#000000">p110&#45;p110</text>
</g>
<!-- p993&#45;p993 -->
<g id="node22" class="node">
<title>p993&#45;p993</title>
<polygon fill="none" stroke="#b03060" points="493,-47 418,-47 418,-11 493,-11 493,-47"/>
<text text-anchor="middle" x="455.5" y="-25.3" font-family="Times,serif" font-size="14.00" fill="#000000">p993&#45;p993</text>
</g>
</g>
</svg>
