<?xml version="1.0" encoding="UTF-8" standalone="no"?>
<!DOCTYPE svg PUBLIC "-//W3C//DTD SVG 1.1//EN"
 "http://www.w3.org/Graphics/SVG/1.1/DTD/svg11.dtd">
<!-- Generated by graphviz version 2.40.1 (20161225.0304)
 -->
<!-- Title: %3 Pages: 1 -->
<svg width="385pt" height="367pt"
 viewBox="0.00 0.00 385.00 367.00" xmlns="http://www.w3.org/2000/svg" xmlns:xlink="http://www.w3.org/1999/xlink">
<g id="graph0" class="graph" transform="scale(1 1) rotate(0) translate(4 363)">
<title>%3</title>
<polygon fill="#ffffff" stroke="transparent" points="-4,4 -4,-363 381,-363 381,4 -4,4"/>
<!-- 730 -->
<g id="node1" class="node">
<title>730</title>
<ellipse fill="#0098d2" stroke="#0098d2" cx="119.7807" cy="-106.878" rx="27" ry="18"/>
<text text-anchor="middle" x="119.7807" y="-103.178" font-family="Times,serif" font-size="14.00" fill="#000000">730</text>
</g>
<!-- 731 -->
<g id="node2" class="node">
<title>731</title>
<ellipse fill="#0098d2" stroke="#0098d2" cx="230.0146" cy="-171.0211" rx="27" ry="18"/>
<text text-anchor="middle" x="230.0146" y="-167.3211" font-family="Times,serif" font-size="14.00" fill="#000000">731</text>
</g>
<!-- 730&#45;&#45;731 -->
<g id="edge1" class="edge">
<title>730&#45;&#45;731</title>
<path fill="none" stroke="#000000" d="M135.3853,-121.9353C153.7048,-134.9054 184.1777,-152.7625 205.6137,-163.1763"/>
</g>
<!-- 730&#45;&#45;731 -->
<g id="edge2" class="edge">
<title>730&#45;&#45;731</title>
<path fill="none" stroke="#0000ff" d="M144.3274,-114.7936C165.7985,-125.2382 196.2537,-143.0943 214.5197,-156.0415"/>
</g>
<!-- 732 -->
<g id="node3" class="node">
<title>732</title>
<ellipse fill="#0098d2" stroke="#0098d2" cx="27" cy="-135.0273" rx="27" ry="18"/>
<text text-anchor="middle" x="27" y="-131.3273" font-family="Times,serif" font-size="14.00" fill="#000000">732</text>
</g>
<!-- 730&#45;&#45;732 -->
<g id="edge3" class="edge">
<title>730&#45;&#45;732</title>
<path fill="none" stroke="#000000" d="M92.6596,-108.7414C78.1094,-112.1538 60.4925,-117.5899 47.1632,-122.8184"/>
</g>
<!-- 730&#45;&#45;732 -->
<g id="edge4" class="edge">
<title>730&#45;&#45;732</title>
<path fill="none" stroke="#0000ff" d="M99.4884,-119.1373C86.0981,-124.3803 68.4226,-129.8246 53.8713,-133.2223"/>
</g>
<!-- 733 -->
<g id="node4" class="node">
<title>733</title>
<ellipse fill="#0098d2" stroke="#0098d2" cx="77.223" cy="-265.9046" rx="27" ry="18"/>
<text text-anchor="middle" x="77.223" y="-262.2046" font-family="Times,serif" font-size="14.00" fill="#000000">733</text>
</g>
<!-- 730&#45;&#45;733 -->
<g id="edge5" class="edge">
<title>730&#45;&#45;733</title>
<path fill="none" stroke="#000000" d="M96.5145,-116.3089C96.0077,-116.6543 95.5814,-116.9908 95.2529,-117.3143 83.9625,-128.4339 68.5883,-166.8063 66.3151,-182.4892 64.5469,-194.6884 69.8593,-227.0909 73.6743,-247.7056"/>
</g>
<!-- 730&#45;&#45;733 -->
<g id="edge6" class="edge">
<title>730&#45;&#45;733</title>
<path fill="none" stroke="#0000ff" d="M100.5487,-119.5638C100.2051,-119.9478 99.874,-120.3391 99.5574,-120.7373 80.7782,-144.3629 79.9344,-154.222 74.7721,-183.9572 72.7294,-195.7226 74.4198,-227.2948 75.8233,-247.6104"/>
</g>
<!-- 734 -->
<g id="node5" class="node">
<title>734</title>
<ellipse fill="#0098d2" stroke="#0098d2" cx="171.5861" cy="-223.5043" rx="27" ry="18"/>
<text text-anchor="middle" x="171.5861" y="-219.8043" font-family="Times,serif" font-size="14.00" fill="#000000">734</text>
</g>
<!-- 730&#45;&#45;734 -->
<g id="edge7" class="edge">
<title>730&#45;&#45;734</title>
<path fill="none" stroke="#000000" d="M122.4733,-124.8052C129.7782,-147.4046 146.7557,-185.8141 158.9452,-207.4792"/>
</g>
<!-- 730&#45;&#45;734 -->
<g id="edge8" class="edge">
<title>730&#45;&#45;734</title>
<path fill="none" stroke="#0000ff" d="M132.5019,-123.0457C144.6395,-144.6546 161.477,-182.7385 168.8106,-205.3211"/>
</g>
<!-- 735 -->
<g id="node6" class="node">
<title>735</title>
<ellipse fill="#0098d2" stroke="#0098d2" cx="115.0744" cy="-25.0197" rx="27" ry="18"/>
<text text-anchor="middle" x="115.0744" y="-21.3197" font-family="Times,serif" font-size="14.00" fill="#000000">735</text>
</g>
<!-- 730&#45;&#45;735 -->
<g id="edge9" class="edge">
<title>730&#45;&#45;735</title>
<path fill="none" stroke="#000000" d="M124.4286,-88.79C125.0624,-75.0722 123.9928,-56.3196 121.8045,-42.7023"/>
</g>
<!-- 730&#45;&#45;735 -->
<g id="edge10" class="edge">
<title>730&#45;&#45;735</title>
<path fill="none" stroke="#0000ff" d="M113.0256,-89.0393C110.8431,-75.3656 109.7843,-56.5825 110.4364,-42.8987"/>
</g>
<!-- 736 -->
<g id="node7" class="node">
<title>736</title>
<ellipse fill="#0098d2" stroke="#0098d2" cx="30.2092" cy="-208.1226" rx="27" ry="18"/>
<text text-anchor="middle" x="30.2092" y="-204.4226" font-family="Times,serif" font-size="14.00" fill="#000000">736</text>
</g>
<!-- 730&#45;&#45;736 -->
<g id="edge11" class="edge">
<title>730&#45;&#45;736</title>
<path fill="none" stroke="#000000" d="M101.1204,-120.1732C82.0727,-138.3653 53.5921,-170.7159 39.0743,-190.7803"/>
</g>
<!-- 730&#45;&#45;736 -->
<g id="edge12" class="edge">
<title>730&#45;&#45;736</title>
<path fill="none" stroke="#0000ff" d="M110.9549,-124.1659C96.4317,-144.2504 67.8658,-176.6967 48.8008,-194.893"/>
</g>
<!-- 737 -->
<g id="node8" class="node">
<title>737</title>
<ellipse fill="#0098d2" stroke="#0098d2" cx="255.8017" cy="-46.2541" rx="27" ry="18"/>
<text text-anchor="middle" x="255.8017" y="-42.5541" font-family="Times,serif" font-size="14.00" fill="#000000">737</text>
</g>
<!-- 730&#45;&#45;737 -->
<g id="edge13" class="edge">
<title>730&#45;&#45;737</title>
<path fill="none" stroke="#000000" d="M145.6178,-101.1288C172.4917,-91.417 213.8263,-72.889 237.5105,-59.8567"/>
</g>
<!-- 730&#45;&#45;737 -->
<g id="edge14" class="edge">
<title>730&#45;&#45;737</title>
<path fill="none" stroke="#0000ff" d="M137.8338,-93.4065C161.4401,-80.3887 202.8666,-61.8078 229.8341,-52.0505"/>
</g>
<!-- 738 -->
<g id="node9" class="node">
<title>738</title>
<ellipse fill="#0098d2" stroke="#0098d2" cx="306.6725" cy="-179.2665" rx="27" ry="18"/>
<text text-anchor="middle" x="306.6725" y="-175.5665" font-family="Times,serif" font-size="14.00" fill="#000000">738</text>
</g>
<!-- 730&#45;&#45;738 -->
<g id="edge15" class="edge">
<title>730&#45;&#45;738</title>
<path fill="none" stroke="#000000" d="M143.44,-115.9514C169.5608,-125.9828 212.9326,-142.6687 250.238,-157.1619 261.1073,-161.3846 273.1438,-166.093 283.2919,-170.072"/>
</g>
<!-- 730&#45;&#45;738 -->
<g id="edge16" class="edge">
<title>730&#45;&#45;738</title>
<path fill="none" stroke="#0000ff" d="M144.8973,-113.8865C177.8911,-123.2222 234.0631,-139.5958 253.7041,-148.2415 265.1952,-153.2997 277.3294,-160.2745 287.0723,-166.3243"/>
</g>
<!-- 739 -->
<g id="node10" class="node">
<title>739</title>
<ellipse fill="#0098d2" stroke="#0098d2" cx="272.9563" cy="-245.2325" rx="27" ry="18"/>
<text text-anchor="middle" x="272.9563" y="-241.5325" font-family="Times,serif" font-size="14.00" fill="#000000">739</text>
</g>
<!-- 730&#45;&#45;739 -->
<g id="edge17" class="edge">
<title>730&#45;&#45;739</title>
<path fill="none" stroke="#000000" d="M131.6668,-123.2451C157.8868,-151.4201 220.3278,-207.9435 252.7754,-233.0078"/>
</g>
<!-- 730&#45;&#45;739 -->
<g id="edge18" class="edge">
<title>730&#45;&#45;739</title>
<path fill="none" stroke="#0000ff" d="M140.0459,-119.1678C172.5081,-144.2577 234.838,-200.6832 261.0482,-228.8418"/>
</g>
<!-- 740 -->
<g id="node11" class="node">
<title>740</title>
<ellipse fill="#0098d2" stroke="#0098d2" cx="198.0525" cy="-99.0619" rx="27" ry="18"/>
<text text-anchor="middle" x="198.0525" y="-95.3619" font-family="Times,serif" font-size="14.00" fill="#000000">740</text>
</g>
<!-- 730&#45;&#45;740 -->
<g id="edge19" class="edge">
<title>730&#45;&#45;740</title>
<path fill="none" stroke="#000000" d="M146.4803,-110.6472C155.5126,-110.2411 165.5306,-109.207 174.3171,-107.7664"/>
</g>
<!-- 730&#45;&#45;740 -->
<g id="edge20" class="edge">
<title>730&#45;&#45;740</title>
<path fill="none" stroke="#0000ff" d="M143.4912,-98.1776C152.3207,-96.7288 162.3968,-95.6905 171.4673,-95.2876"/>
</g>
<!-- 741 -->
<g id="node12" class="node">
<title>741</title>
<ellipse fill="#0098d2" stroke="#0098d2" cx="52.8784" cy="-67.4885" rx="27" ry="18"/>
<text text-anchor="middle" x="52.8784" y="-63.7885" font-family="Times,serif" font-size="14.00" fill="#000000">741</text>
</g>
<!-- 730&#45;&#45;741 -->
<g id="edge21" class="edge">
<title>730&#45;&#45;741</title>
<path fill="none" stroke="#000000" d="M105.2588,-91.3384C97.2427,-85.6498 87.1064,-79.548 77.8747,-74.8137"/>
</g>
<!-- 730&#45;&#45;741 -->
<g id="edge22" class="edge">
<title>730&#45;&#45;741</title>
<path fill="none" stroke="#0000ff" d="M95.0203,-99.6736C85.6889,-94.9038 75.4037,-88.7164 67.3043,-82.9599"/>
</g>
<!-- 742 -->
<g id="node13" class="node">
<title>742</title>
<ellipse fill="#0098d2" stroke="#0098d2" cx="141.7492" cy="-297.3353" rx="27" ry="18"/>
<text text-anchor="middle" x="141.7492" y="-293.6353" font-family="Times,serif" font-size="14.00" fill="#000000">742</text>
</g>
<!-- 730&#45;&#45;742 -->
<g id="edge23" class="edge">
<title>730&#45;&#45;742</title>
<path fill="none" stroke="#000000" d="M123.0156,-125.019C125.7053,-140.6328 129.4926,-163.8376 131.9712,-184.1751 136.0469,-217.6177 139.0396,-256.8285 140.5776,-279.1801"/>
</g>
<!-- 730&#45;&#45;742 -->
<g id="edge24" class="edge">
<title>730&#45;&#45;742</title>
<path fill="none" stroke="#0000ff" d="M128.1538,-124.1359C134.8802,-139.0998 143.7235,-161.5991 146.8609,-182.36 149.5904,-200.4214 145.811,-251.3624 143.4336,-278.9461"/>
</g>
<!-- 743 -->
<g id="node14" class="node">
<title>743</title>
<ellipse fill="#0098d2" stroke="#0098d2" cx="186.3991" cy="-18" rx="27" ry="18"/>
<text text-anchor="middle" x="186.3991" y="-14.3" font-family="Times,serif" font-size="14.00" fill="#000000">743</text>
</g>
<!-- 730&#45;&#45;743 -->
<g id="edge25" class="edge">
<title>730&#45;&#45;743</title>
<path fill="none" stroke="#000000" d="M137.3463,-92.6195C151.2009,-77.0884 169.5483,-52.4162 179.5927,-35.6745"/>
</g>
<!-- 730&#45;&#45;743 -->
<g id="edge26" class="edge">
<title>730&#45;&#45;743</title>
<path fill="none" stroke="#0000ff" d="M126.6474,-89.103C136.7276,-72.3251 155.0897,-47.6468 168.9276,-32.153"/>
</g>
<!-- 744 -->
<g id="node15" class="node">
<title>744</title>
<ellipse fill="#0098d2" stroke="#0098d2" cx="103.3716" cy="-184.0662" rx="27" ry="18"/>
<text text-anchor="middle" x="103.3716" y="-180.3662" font-family="Times,serif" font-size="14.00" fill="#000000">744</text>
</g>
<!-- 730&#45;&#45;744 -->
<g id="edge27" class="edge">
<title>730&#45;&#45;744</title>
<path fill="none" stroke="#000000" d="M110.1797,-123.9562C106.2349,-136.444 102.6951,-153.3373 101.3877,-166.0408"/>
</g>
<!-- 730&#45;&#45;744 -->
<g id="edge28" class="edge">
<title>730&#45;&#45;744</title>
<path fill="none" stroke="#0000ff" d="M121.734,-125.198C120.3978,-137.912 116.8621,-154.7151 112.931,-167.1196"/>
</g>
<!-- 745 -->
<g id="node16" class="node">
<title>745</title>
<ellipse fill="#0098d2" stroke="#0098d2" cx="294.6595" cy="-107.0827" rx="27" ry="18"/>
<text text-anchor="middle" x="294.6595" y="-103.3827" font-family="Times,serif" font-size="14.00" fill="#000000">745</text>
</g>
<!-- 730&#45;&#45;745 -->
<g id="edge29" class="edge">
<title>730&#45;&#45;745</title>
<path fill="none" stroke="#000000" d="M144.6868,-114.1734C163.4366,-119.4329 187.6349,-125.6603 197.876,-125.9003 211.4667,-126.2189 245.4726,-118.8914 269.2914,-113.2928"/>
</g>
<!-- 730&#45;&#45;745 -->
<g id="edge30" class="edge">
<title>730&#45;&#45;745</title>
<path fill="none" stroke="#0000ff" d="M145.979,-111.5965C164.6339,-114.8085 188.1134,-118.5122 197.9858,-118.6619 211.1556,-118.8616 244.1366,-114.5239 267.8935,-111.1045"/>
</g>
<!-- 746 -->
<g id="node17" class="node">
<title>746</title>
<ellipse fill="#0098d2" stroke="#0098d2" cx="216.7664" cy="-289.2369" rx="27" ry="18"/>
<text text-anchor="middle" x="216.7664" y="-285.5369" font-family="Times,serif" font-size="14.00" fill="#000000">746</text>
</g>
<!-- 730&#45;&#45;746 -->
<g id="edge31" class="edge">
<title>730&#45;&#45;746</title>
<path fill="none" stroke="#000000" d="M132.0502,-123.284C151.9869,-150.1623 190.3028,-202.8207 200.1859,-223.5757 209.5544,-243.2501 213.3048,-248.1596 216.9858,-269.6375 217.0544,-270.0379 217.1162,-270.4437 217.1715,-270.8534"/>
</g>
<!-- 730&#45;&#45;746 -->
<g id="edge32" class="edge">
<title>730&#45;&#45;746</title>
<path fill="none" stroke="#0000ff" d="M133.1144,-122.7163C158.8481,-153.2848 212.8518,-217.4386 212.8944,-217.5242 223.2178,-238.2689 225.9665,-245.2348 224.4727,-268.3579 224.4033,-269.4327 224.2574,-270.5212 224.0526,-271.6074"/>
</g>
<!-- 731&#45;&#45;732 -->
<g id="edge163" class="edge">
<title>731&#45;&#45;732</title>
<path fill="none" stroke="#000000" d="M206.3266,-162.1653C168.3305,-152.5381 93.9978,-139.318 54.0008,-135.0349"/>
</g>
<!-- 731&#45;&#45;732 -->
<g id="edge164" class="edge">
<title>731&#45;&#45;732</title>
<path fill="none" stroke="#0000ff" d="M202.648,-170.9741C162.6179,-166.6557 88.7633,-153.5156 50.8377,-143.9209"/>
</g>
<!-- 731&#45;&#45;733 -->
<g id="edge165" class="edge">
<title>731&#45;&#45;733</title>
<path fill="none" stroke="#000000" d="M205.6538,-178.9329C184.9181,-185.8778 156.8818,-195.8277 146.7677,-202.0252 135.1079,-209.1697 109.0956,-234.1467 92.4182,-250.65"/>
</g>
<!-- 731&#45;&#45;733 -->
<g id="edge166" class="edge">
<title>731&#45;&#45;733</title>
<path fill="none" stroke="#0000ff" d="M206.9791,-180.9086C190.9904,-188.1088 169.3949,-198.5172 151.4368,-209.5946 130.6736,-222.4022 108.6111,-239.6696 94.0058,-251.6798"/>
</g>
<!-- 731&#45;&#45;734 -->
<g id="edge167" class="edge">
<title>731&#45;&#45;734</title>
<path fill="none" stroke="#000000" d="M208.3107,-182.1216C199.1819,-189.2684 189.0435,-198.5483 181.6658,-206.5744"/>
</g>
<!-- 731&#45;&#45;734 -->
<g id="edge168" class="edge">
<title>731&#45;&#45;734</title>
<path fill="none" stroke="#0000ff" d="M220.0703,-187.8034C212.6789,-195.8662 202.467,-205.2202 193.2795,-212.412"/>
</g>
<!-- 731&#45;&#45;735 -->
<g id="edge169" class="edge">
<title>731&#45;&#45;735</title>
<path fill="none" stroke="#000000" d="M210.9125,-158.2179C210.5299,-157.8691 210.1557,-157.5168 209.7915,-157.1616 190.3059,-138.1534 146.3969,-72.7477 125.9656,-41.707"/>
</g>
<!-- 731&#45;&#45;735 -->
<g id="edge170" class="edge">
<title>731&#45;&#45;735</title>
<path fill="none" stroke="#0000ff" d="M207.3724,-161.1635C207.0755,-160.9592 206.783,-160.752 206.4953,-160.5419 186.4823,-145.9221 183.9007,-139.0093 169.3722,-118.9299 151.0629,-93.6253 133.6872,-61.6884 123.7328,-42.3603"/>
</g>
<!-- 731&#45;&#45;736 -->
<g id="edge171" class="edge">
<title>731&#45;&#45;736</title>
<path fill="none" stroke="#000000" d="M205.3976,-178.5436C180.0501,-186.0085 139.2172,-197.2559 103.2126,-203.6659 83.6848,-207.1424 78.6191,-207.1468 58.8092,-208.1407 58.315,-208.1655 57.8159,-208.1883 57.3131,-208.2093"/>
</g>
<!-- 731&#45;&#45;736 -->
<g id="edge172" class="edge">
<title>731&#45;&#45;736</title>
<path fill="none" stroke="#0000ff" d="M207.2011,-180.6762C177.1488,-193.1829 125.65,-213.8267 105.6034,-217.0937 85.2308,-220.414 79.6159,-218.5581 59.1832,-215.63 57.9528,-215.4537 56.6993,-215.2448 55.4377,-215.0109"/>
</g>
<!-- 731&#45;&#45;737 -->
<g id="edge173" class="edge">
<title>731&#45;&#45;737</title>
<path fill="none" stroke="#000000" d="M238.5903,-153.8763C245.9407,-130.4482 254.5558,-88.6304 256.9597,-64.5946"/>
</g>
<!-- 731&#45;&#45;737 -->
<g id="edge174" class="edge">
<title>731&#45;&#45;737</title>
<path fill="none" stroke="#0000ff" d="M228.8289,-152.9594C231.1953,-128.9527 239.8592,-86.8594 247.2413,-63.3499"/>
</g>
<!-- 731&#45;&#45;738 -->
<g id="edge175" class="edge">
<title>731&#45;&#45;738</title>
<path fill="none" stroke="#000000" d="M253.5929,-179.9218C261.9584,-181.352 271.4295,-182.4039 280.0323,-182.8651"/>
</g>
<!-- 731&#45;&#45;738 -->
<g id="edge176" class="edge">
<title>731&#45;&#45;738</title>
<path fill="none" stroke="#0000ff" d="M256.6548,-167.4225C265.2173,-167.8815 274.64,-168.9257 282.9765,-170.3457"/>
</g>
<!-- 731&#45;&#45;739 -->
<g id="edge177" class="edge">
<title>731&#45;&#45;739</title>
<path fill="none" stroke="#000000" d="M234.0714,-189.1988C239.7028,-201.8078 249.1571,-218.337 257.4695,-230.2064"/>
</g>
<!-- 731&#45;&#45;739 -->
<g id="edge178" class="edge">
<title>731&#45;&#45;739</title>
<path fill="none" stroke="#0000ff" d="M245.4974,-186.0415C253.8876,-198.0209 263.442,-214.7494 269.0545,-227.4031"/>
</g>
<!-- 731&#45;&#45;740 -->
<g id="edge179" class="edge">
<title>731&#45;&#45;740</title>
<path fill="none" stroke="#000000" d="M228.1487,-152.7291C224.3612,-141.0262 217.7892,-126.0355 211.5841,-114.8515"/>
</g>
<!-- 731&#45;&#45;740 -->
<g id="edge180" class="edge">
<title>731&#45;&#45;740</title>
<path fill="none" stroke="#0000ff" d="M216.5093,-155.279C210.2479,-144.0025 203.6083,-128.8384 199.83,-117.0799"/>
</g>
<!-- 731&#45;&#45;741 -->
<g id="edge181" class="edge">
<title>731&#45;&#45;741</title>
<path fill="none" stroke="#000000" d="M210.953,-158.1745C210.5582,-157.8388 210.1705,-157.5009 209.7915,-157.1616 177.5596,-128.3048 181.7523,-108.1295 146.2237,-83.4447 121.6428,-66.3662 112.9664,-61.7136 83.0828,-60.0204 81.3625,-59.9229 79.6018,-59.966 77.8377,-60.1159"/>
</g>
<!-- 731&#45;&#45;741 -->
<g id="edge182" class="edge">
<title>731&#45;&#45;741</title>
<path fill="none" stroke="#0000ff" d="M207.1382,-161.3419C206.9913,-161.2442 206.8453,-161.1458 206.7006,-161.0468 171.7531,-137.1404 174.8991,-117.0013 140.0039,-93.0187 116.6399,-76.9611 109.2189,-73.4939 81.4774,-67.6514 80.9933,-67.5495 80.5034,-67.4552 80.0091,-67.3682"/>
</g>
<!-- 732&#45;&#45;733 -->
<g id="edge183" class="edge">
<title>732&#45;&#45;733</title>
<path fill="none" stroke="#000000" d="M35.1201,-152.3236C41.8619,-166.9942 51.5134,-188.7285 58.8092,-208.1407 63.7631,-221.3217 68.5695,-236.5038 72.0256,-247.9806"/>
</g>
<!-- 732&#45;&#45;733 -->
<g id="edge184" class="edge">
<title>732&#45;&#45;733</title>
<path fill="none" stroke="#0000ff" d="M37.4724,-151.8695C47.9232,-168.9444 63.0032,-194.3943 66.8356,-205.1243 71.7965,-219.0141 74.4245,-235.5621 75.7931,-247.8662"/>
</g>
<!-- 732&#45;&#45;734 -->
<g id="edge185" class="edge">
<title>732&#45;&#45;734</title>
<path fill="none" stroke="#000000" d="M37.1882,-151.7534C48.6847,-170.1765 67.1393,-198.2897 77.219,-205.947 101.5078,-224.3985 111.4043,-226.7345 141.8119,-229.1407 142.7528,-229.2151 144.016,-229.1577 145.4921,-229.004"/>
</g>
<!-- 732&#45;&#45;734 -->
<g id="edge186" class="edge">
<title>732&#45;&#45;734</title>
<path fill="none" stroke="#0000ff" d="M39.7866,-150.8856C53.0766,-167.0797 73.314,-190.8654 83.0362,-197.8482 106.5656,-214.7477 114.6124,-217.5894 142.9863,-223.4328 143.471,-223.5326 143.9612,-223.6248 144.4559,-223.7097"/>
</g>
<!-- 732&#45;&#45;735 -->
<g id="edge187" class="edge">
<title>732&#45;&#45;735</title>
<path fill="none" stroke="#000000" d="M45.078,-121.5457C56.1626,-112.6929 70.1743,-100.3861 80.4828,-87.5067 91.6248,-73.5859 101.1636,-55.5833 107.3774,-42.4956"/>
</g>
<!-- 732&#45;&#45;735 -->
<g id="edge188" class="edge">
<title>732&#45;&#45;735</title>
<path fill="none" stroke="#0000ff" d="M41.0006,-119.2747C50.2415,-108.7357 62.5353,-94.4502 72.9329,-81.4625 83.465,-68.3068 94.8722,-52.9574 103.1506,-41.6023"/>
</g>
<!-- 732&#45;&#45;736 -->
<g id="edge189" class="edge">
<title>732&#45;&#45;736</title>
<path fill="none" stroke="#000000" d="M21.9043,-152.9794C21.247,-164.4382 21.8929,-179.221 23.5466,-190.5961"/>
</g>
<!-- 732&#45;&#45;736 -->
<g id="edge190" class="edge">
<title>732&#45;&#45;736</title>
<path fill="none" stroke="#0000ff" d="M33.7033,-152.8363C35.331,-164.2015 35.96,-178.8804 35.2999,-190.2567"/>
</g>
<!-- 732&#45;&#45;737 -->
<g id="edge191" class="edge">
<title>732&#45;&#45;737</title>
<path fill="none" stroke="#000000" d="M45.9185,-121.9827C46.3589,-121.7083 46.7971,-121.4383 47.2317,-121.1737 69.7904,-107.4433 75.4735,-103.8531 99.5574,-93.0187 154.6705,-68.2254 167.6856,-56.6442 227.2021,-46.1587 227.6894,-46.0728 228.1821,-45.9938 228.679,-45.9212"/>
</g>
<!-- 732&#45;&#45;737 -->
<g id="edge192" class="edge">
<title>732&#45;&#45;737</title>
<path fill="none" stroke="#0000ff" d="M40.1725,-118.8597C41.3586,-117.6984 42.5818,-116.5878 43.8222,-115.5755 64.593,-98.6251 71.95,-96.997 96.4194,-86.043 124.2845,-73.569 195.9626,-44.0947 226.3819,-41.4996 227.204,-41.4294 228.2787,-41.4508 229.53,-41.5418"/>
</g>
<!-- 732&#45;&#45;738 -->
<g id="edge193" class="edge">
<title>732&#45;&#45;738</title>
<path fill="none" stroke="#000000" d="M50.703,-143.8998C100.0236,-162.2297 210.9452,-202.71 229.2717,-202.9578 239.7975,-203.1001 264.5298,-194.9542 283.2066,-188.184"/>
</g>
<!-- 732&#45;&#45;738 -->
<g id="edge194" class="edge">
<title>732&#45;&#45;738</title>
<path fill="none" stroke="#0000ff" d="M51.5222,-143.1104C97.3635,-157.9964 194.8307,-188.5018 230.0143,-190.6211 247.182,-191.6552 266.3222,-188.8221 281.1705,-185.7305"/>
</g>
<!-- 732&#45;&#45;739 -->
<g id="edge195" class="edge">
<title>732&#45;&#45;739</title>
<path fill="none" stroke="#000000" d="M51.2195,-142.9832C70.9486,-149.6737 99.4482,-159.8122 123.707,-170.2841 170.5311,-190.497 223.4745,-218.3189 251.9914,-233.7337"/>
</g>
<!-- 732&#45;&#45;739 -->
<g id="edge196" class="edge">
<title>732&#45;&#45;739</title>
<path fill="none" stroke="#0000ff" d="M53.9716,-138.0659C75.1037,-141.0556 104.9918,-146.6528 129.6516,-156.5124 155.3121,-166.7721 221.1478,-210.2097 253.851,-232.2439"/>
</g>
<!-- 732&#45;&#45;740 -->
<g id="edge197" class="edge">
<title>732&#45;&#45;740</title>
<path fill="none" stroke="#000000" d="M43.885,-120.9003C61.5301,-107.5128 90.7003,-89.131 119.7807,-87.278 137.5867,-86.1434 157.4676,-89.1938 172.7245,-92.4715"/>
</g>
<!-- 732&#45;&#45;740 -->
<g id="edge198" class="edge">
<title>732&#45;&#45;740</title>
<path fill="none" stroke="#0000ff" d="M40.1789,-118.8676C41.3636,-117.7046 42.5847,-116.5914 43.8222,-115.5755 58.6525,-103.4017 99.7705,-74.7685 118.8635,-72.8716 129.8736,-71.7777 155.976,-81.3326 175.198,-89.1983"/>
</g>
<!-- 732&#45;&#45;741 -->
<g id="edge199" class="edge">
<title>732&#45;&#45;741</title>
<path fill="none" stroke="#000000" d="M39.5914,-119.0955C44.4602,-109.1311 49.3158,-96.2869 52.1167,-85.8906"/>
</g>
<!-- 732&#45;&#45;741 -->
<g id="edge200" class="edge">
<title>732&#45;&#45;741</title>
<path fill="none" stroke="#0000ff" d="M27.6795,-116.932C30.4511,-106.5418 35.3145,-93.6306 40.2032,-83.5921"/>
</g>
<!-- 733&#45;&#45;734 -->
<g id="edge201" class="edge">
<title>733&#45;&#45;734</title>
<path fill="none" stroke="#000000" d="M103.4745,-260.6347C119.678,-254.6358 139.9877,-245.3825 154.2161,-237.4525"/>
</g>
<!-- 733&#45;&#45;734 -->
<g id="edge202" class="edge">
<title>733&#45;&#45;734</title>
<path fill="none" stroke="#0000ff" d="M94.4829,-252.0178C108.8002,-244.0275 129.3291,-234.6794 145.6208,-228.6685"/>
</g>
<!-- 733&#45;&#45;735 -->
<g id="edge203" class="edge">
<title>733&#45;&#45;735</title>
<path fill="none" stroke="#000000" d="M75.4499,-247.8855C74.1057,-231.2785 72.7926,-205.9029 74.7721,-183.9572 79.5001,-131.5386 98.4233,-71.9278 108.556,-42.8944"/>
</g>
<!-- 733&#45;&#45;735 -->
<g id="edge204" class="edge">
<title>733&#45;&#45;735</title>
<path fill="none" stroke="#0000ff" d="M74.2744,-247.9038C71.0385,-227.5071 66.2905,-195.4214 66.3657,-183.1992 66.5859,-147.4189 67.49,-137.7682 77.8215,-103.5112 84.521,-81.2969 96.6232,-57.4363 105.2036,-41.9489"/>
</g>
<!-- 733&#45;&#45;736 -->
<g id="edge205" class="edge">
<title>733&#45;&#45;736</title>
<path fill="none" stroke="#000000" d="M70.4019,-248.2073C64.6791,-239.5409 56.5326,-229.3433 49.0034,-221.3519"/>
</g>
<!-- 733&#45;&#45;736 -->
<g id="edge206" class="edge">
<title>733&#45;&#45;736</title>
<path fill="none" stroke="#0000ff" d="M58.5499,-252.8037C50.987,-244.7933 42.7838,-234.5327 37.0303,-225.8199"/>
</g>
<!-- 733&#45;&#45;737 -->
<g id="edge207" class="edge">
<title>733&#45;&#45;737</title>
<path fill="none" stroke="#000000" d="M93.1312,-251.1106C129.5645,-217.1268 216.9937,-134.9591 227.1289,-119.6591 233.3624,-110.2491 243.4718,-82.4753 249.8713,-63.9188"/>
</g>
<!-- 733&#45;&#45;737 -->
<g id="edge208" class="edge">
<title>733&#45;&#45;737</title>
<path fill="none" stroke="#0000ff" d="M91.9278,-250.7373C123.4415,-218.108 196.6151,-141.6414 218.2285,-112.9535 222.5629,-107.2004 223.04,-105.3395 226.6524,-99.1076 233.4729,-87.3415 240.8721,-73.9191 246.5033,-63.5567"/>
</g>
<!-- 733&#45;&#45;738 -->
<g id="edge209" class="edge">
<title>733&#45;&#45;738</title>
<path fill="none" stroke="#000000" d="M104.3315,-264.0239C123.9497,-262.3894 151.0736,-259.5665 174.6163,-255.0986 184.4387,-253.2345 187.1786,-253.2458 196.3287,-249.2171 214.8937,-241.0431 261.4046,-210.1287 287.7042,-192.2713"/>
</g>
<!-- 733&#45;&#45;738 -->
<g id="edge210" class="edge">
<title>733&#45;&#45;738</title>
<path fill="none" stroke="#0000ff" d="M102.9619,-259.95C121.9313,-255.4927 148.375,-249.1433 171.4819,-243.1042 180.5281,-240.7398 183.0219,-240.8048 191.7355,-237.414 225.8871,-224.1245 263.4165,-204.0187 285.9801,-191.284"/>
</g>
<!-- 733&#45;&#45;739 -->
<g id="edge211" class="edge">
<title>733&#45;&#45;739</title>
<path fill="none" stroke="#000000" d="M104.1234,-267.8787C142.1751,-266.5143 211.1814,-259.2016 248.0917,-252.5996"/>
</g>
<!-- 733&#45;&#45;739 -->
<g id="edge212" class="edge">
<title>733&#45;&#45;739</title>
<path fill="none" stroke="#0000ff" d="M101.9171,-258.5681C138.8036,-251.9548 208.0153,-244.6175 246.1135,-243.2563"/>
</g>
<!-- 733&#45;&#45;740 -->
<g id="edge213" class="edge">
<title>733&#45;&#45;740</title>
<path fill="none" stroke="#000000" d="M93.1874,-251.2044C119.6462,-220.3577 170.9387,-149.3938 190.516,-116.396"/>
</g>
<!-- 733&#45;&#45;740 -->
<g id="edge214" class="edge">
<title>733&#45;&#45;740</title>
<path fill="none" stroke="#0000ff" d="M84.8543,-248.4109C104.4631,-215.4096 155.4702,-144.8382 181.9316,-113.9448"/>
</g>
<!-- 733&#45;&#45;741 -->
<g id="edge215" class="edge">
<title>733&#45;&#45;741</title>
<path fill="none" stroke="#000000" d="M79.0794,-247.8037C78.0434,-209.9036 67.3521,-122.6281 59.1712,-85.1305"/>
</g>
<!-- 733&#45;&#45;741 -->
<g id="edge216" class="edge">
<title>733&#45;&#45;741</title>
<path fill="none" stroke="#0000ff" d="M70.8937,-248.0947C62.7239,-210.5342 52.0731,-123.5682 51.0245,-85.6777"/>
</g>
<!-- 734&#45;&#45;735 -->
<g id="edge217" class="edge">
<title>734&#45;&#45;735</title>
<path fill="none" stroke="#000000" d="M169.9044,-205.3134C167.15,-176.8736 161.3904,-123.0556 155.666,-104.6927 151.7664,-92.1835 135.3468,-61.5063 124.637,-42.1002"/>
</g>
<!-- 734&#45;&#45;735 -->
<g id="edge218" class="edge">
<title>734&#45;&#45;735</title>
<path fill="none" stroke="#0000ff" d="M168.3925,-205.2514C163.427,-177.3009 153.8327,-125.0549 148.3807,-106.878 141.5121,-83.9781 130.6622,-58.6242 123.2337,-42.3106"/>
</g>
<!-- 734&#45;&#45;736 -->
<g id="edge219" class="edge">
<title>734&#45;&#45;736</title>
<path fill="none" stroke="#000000" d="M147.2085,-215.5293C122.2064,-210.8948 83.4032,-206.6321 57.4165,-205.6372"/>
</g>
<!-- 734&#45;&#45;736 -->
<g id="edge220" class="edge">
<title>734&#45;&#45;736</title>
<path fill="none" stroke="#0000ff" d="M144.7428,-226.0034C118.8306,-225.0375 79.9314,-220.7785 54.8048,-216.1379"/>
</g>
<!-- 734&#45;&#45;737 -->
<g id="edge221" class="edge">
<title>734&#45;&#45;737</title>
<path fill="none" stroke="#000000" d="M183.9864,-207.368C203.453,-174.2202 239.1919,-98.8617 251.8022,-64.2203"/>
</g>
<!-- 734&#45;&#45;737 -->
<g id="edge222" class="edge">
<title>734&#45;&#45;737</title>
<path fill="none" stroke="#0000ff" d="M175.6427,-205.3815C188.3135,-170.6425 224.0208,-95.369 243.4477,-62.3117"/>
</g>
<!-- 734&#45;&#45;738 -->
<g id="edge223" class="edge">
<title>734&#45;&#45;738</title>
<path fill="none" stroke="#000000" d="M198.3551,-220.4075C224.2781,-213.9172 262.9799,-201.1513 286.4348,-191.2878"/>
</g>
<!-- 734&#45;&#45;738 -->
<g id="edge224" class="edge">
<title>734&#45;&#45;738</title>
<path fill="none" stroke="#0000ff" d="M191.9909,-211.4129C215.4243,-201.5749 253.9177,-188.8792 279.7785,-182.3947"/>
</g>
<!-- 734&#45;&#45;739 -->
<g id="edge225" class="edge">
<title>734&#45;&#45;739</title>
<path fill="none" stroke="#000000" d="M193.8815,-234.2157C209.1867,-238.7292 229.5821,-243.1594 245.8295,-245.5263"/>
</g>
<!-- 734&#45;&#45;739 -->
<g id="edge226" class="edge">
<title>734&#45;&#45;739</title>
<path fill="none" stroke="#0000ff" d="M198.6797,-223.2056C214.9821,-225.5785 235.47,-230.0316 250.801,-234.5624"/>
</g>
<!-- 734&#45;&#45;740 -->
<g id="edge227" class="edge">
<title>734&#45;&#45;740</title>
<path fill="none" stroke="#000000" d="M180.2549,-206.4345C187.7325,-183.0824 196.5753,-141.3732 199.1102,-117.3845"/>
</g>
<!-- 734&#45;&#45;740 -->
<g id="edge228" class="edge">
<title>734&#45;&#45;740</title>
<path fill="none" stroke="#0000ff" d="M170.4992,-205.46C172.9823,-181.6363 181.7886,-139.9926 189.2713,-116.4842"/>
</g>
<!-- 734&#45;&#45;741 -->
<g id="edge229" class="edge">
<title>734&#45;&#45;741</title>
<path fill="none" stroke="#000000" d="M163.5295,-206.0145C144.0288,-174.8508 95.2561,-110.6249 69.3406,-81.8494"/>
</g>
<!-- 734&#45;&#45;741 -->
<g id="edge230" class="edge">
<title>734&#45;&#45;741</title>
<path fill="none" stroke="#0000ff" d="M155.1535,-209.1761C129.2933,-180.4697 80.6232,-116.3909 61.0433,-85.1512"/>
</g>
<!-- 735&#45;&#45;736 -->
<g id="edge231" class="edge">
<title>735&#45;&#45;736</title>
<path fill="none" stroke="#000000" d="M102.9619,-41.1389C83.371,-75.2394 46.7864,-154.2936 34.1135,-190.0449"/>
</g>
<!-- 735&#45;&#45;736 -->
<g id="edge232" class="edge">
<title>735&#45;&#45;736</title>
<path fill="none" stroke="#0000ff" d="M111.215,-42.9706C98.6077,-78.5942 62.074,-157.564 42.4329,-191.8098"/>
</g>
<!-- 735&#45;&#45;737 -->
<g id="edge233" class="edge">
<title>735&#45;&#45;737</title>
<path fill="none" stroke="#000000" d="M136.1493,-36.3654C149.431,-42.7583 167.2088,-49.9571 184.0043,-52.4327 199.0836,-54.6553 216.0742,-53.3604 229.7296,-51.3959"/>
</g>
<!-- 735&#45;&#45;737 -->
<g id="edge234" class="edge">
<title>735&#45;&#45;737</title>
<path fill="none" stroke="#0000ff" d="M141.1088,-29.9555C154.5493,-32.4159 171.2455,-35.3436 186.2366,-37.5997 200.2974,-39.7158 216.0155,-41.705 228.939,-43.2413"/>
</g>
<!-- 735&#45;&#45;738 -->
<g id="edge235" class="edge">
<title>735&#45;&#45;738</title>
<path fill="none" stroke="#000000" d="M136.4224,-36.1976C162.4924,-50.0622 204.8765,-73.3675 218.3229,-85.235 236.0011,-100.8375 264.0188,-155.2204 282.7541,-169.5364 282.896,-169.6448 283.0393,-169.7523 283.1839,-169.8587"/>
</g>
<!-- 735&#45;&#45;738 -->
<g id="edge236" class="edge">
<title>735&#45;&#45;738</title>
<path fill="none" stroke="#0000ff" d="M138.0563,-34.9002C165.5641,-46.9864 209.7468,-67.3163 223.5591,-78.9753 259.8634,-109.6198 252.5607,-132.147 286.5561,-165.3344 286.9194,-165.6891 287.2926,-166.041 287.6741,-166.3897"/>
</g>
<!-- 735&#45;&#45;739 -->
<g id="edge237" class="edge">
<title>735&#45;&#45;739</title>
<path fill="none" stroke="#000000" d="M122.389,-42.3506C137.3042,-77.3248 171.3844,-155.2863 188.5401,-178.7181 193.9936,-186.1667 241.4075,-230.5332 249.1773,-235.5186 249.3269,-235.6145 249.4776,-235.7098 249.6292,-235.8045"/>
</g>
<!-- 735&#45;&#45;739 -->
<g id="edge238" class="edge">
<title>735&#45;&#45;739</title>
<path fill="none" stroke="#0000ff" d="M123.6472,-42.2089C139.0002,-72.3167 173.1289,-136.2055 209.7911,-184.8802 226.7189,-207.3545 231.5691,-212.8761 252.8252,-231.3104 253.2089,-231.6431 253.6006,-231.9751 253.9988,-232.3058"/>
</g>
<!-- 735&#45;&#45;740 -->
<g id="edge239" class="edge">
<title>735&#45;&#45;740</title>
<path fill="none" stroke="#000000" d="M126.0215,-41.8467C138.9973,-55.9067 160.6201,-75.359 176.8586,-87.6832"/>
</g>
<!-- 735&#45;&#45;740 -->
<g id="edge240" class="edge">
<title>735&#45;&#45;740</title>
<path fill="none" stroke="#0000ff" d="M136.4243,-36.5169C152.7175,-48.9021 174.3635,-68.393 187.2782,-82.4223"/>
</g>
<!-- 735&#45;&#45;741 -->
<g id="edge241" class="edge">
<title>735&#45;&#45;741</title>
<path fill="none" stroke="#000000" d="M91.1119,-33.6573C82.4126,-38.8708 72.9442,-45.4913 65.5708,-51.5634"/>
</g>
<!-- 735&#45;&#45;741 -->
<g id="edge242" class="edge">
<title>735&#45;&#45;741</title>
<path fill="none" stroke="#0000ff" d="M102.1297,-41.1521C94.8221,-47.1437 85.5144,-53.6456 76.9418,-58.7904"/>
</g>
<!-- 736&#45;&#45;737 -->
<g id="edge243" class="edge">
<title>736&#45;&#45;737</title>
<path fill="none" stroke="#000000" d="M47.1167,-194.0611C57.1424,-186.2357 70.3868,-176.7542 83.2611,-170.13 112.9869,-154.8354 201.374,-144.5252 225.6223,-121.5128 230.013,-117.3459 242.1271,-84.8053 249.6044,-63.8992"/>
</g>
<!-- 736&#45;&#45;737 -->
<g id="edge244" class="edge">
<title>736&#45;&#45;737</title>
<path fill="none" stroke="#0000ff" d="M41.8073,-191.4166C50.2163,-180.4306 62.5132,-166.4882 76.2905,-157.7 104.173,-139.9145 192.1996,-133.3559 218.2285,-112.9535 226.7425,-106.28 239.6296,-81.1007 247.8692,-63.6871"/>
</g>
<!-- 736&#45;&#45;738 -->
<g id="edge245" class="edge">
<title>736&#45;&#45;738</title>
<path fill="none" stroke="#000000" d="M55.4408,-214.9897C56.7015,-215.2292 57.9541,-215.4451 59.1832,-215.63 79.1828,-218.6387 84.4284,-218.3809 104.6415,-217.6991 161.399,-215.7845 176.0785,-215.2133 231.6047,-203.3006 249.1101,-199.545 268.3326,-193.3494 282.9309,-188.1945"/>
</g>
<!-- 736&#45;&#45;738 -->
<g id="edge246" class="edge">
<title>736&#45;&#45;738</title>
<path fill="none" stroke="#0000ff" d="M57.3131,-208.2093C57.8159,-208.1883 58.315,-208.1655 58.8092,-208.1407 78.6191,-207.1468 83.4798,-205.6752 103.2126,-203.6659 159.5749,-197.9267 173.8007,-197.6691 230.0143,-190.6211 246.8129,-188.5148 265.6221,-185.7368 280.3934,-183.4585"/>
</g>
<!-- 736&#45;&#45;739 -->
<g id="edge247" class="edge">
<title>736&#45;&#45;739</title>
<path fill="none" stroke="#000000" d="M55.2103,-215.0117C56.4662,-215.1859 57.7155,-215.3228 58.9433,-215.4129 109.1787,-219.0958 121.5186,-199.4379 171.6904,-203.9044 180.9899,-204.7323 183.1005,-206.5279 191.883,-209.6956 212.2435,-217.0395 234.7432,-227.06 250.849,-234.5809"/>
</g>
<!-- 736&#45;&#45;739 -->
<g id="edge248" class="edge">
<title>736&#45;&#45;739</title>
<path fill="none" stroke="#0000ff" d="M57.3138,-208.2215C57.8164,-208.1967 58.3152,-208.1698 58.8092,-208.1407 109.7477,-205.1326 121.8036,-193.5532 172.8201,-194.6061 183.2446,-194.8212 186.2,-194.7228 195.9828,-198.3305 207.7889,-202.6843 235.1576,-220.0899 253.8445,-232.4086"/>
</g>
<!-- 736&#45;&#45;740 -->
<g id="edge249" class="edge">
<title>736&#45;&#45;740</title>
<path fill="none" stroke="#000000" d="M48.7042,-194.4085C58.7952,-187.0497 71.5895,-177.9085 83.2611,-170.13 115.8098,-148.4382 154.705,-124.8246 177.8154,-111.0276"/>
</g>
<!-- 736&#45;&#45;740 -->
<g id="edge250" class="edge">
<title>736&#45;&#45;740</title>
<path fill="none" stroke="#0000ff" d="M42.263,-191.6612C50.6191,-181.0835 62.5092,-167.5698 75.2103,-158.0514 92.0001,-145.4689 144.5188,-121.9943 175.1489,-108.7809"/>
</g>
<!-- 736&#45;&#45;741 -->
<g id="edge251" class="edge">
<title>736&#45;&#45;741</title>
<path fill="none" stroke="#000000" d="M40.7968,-191.4769C51.4321,-174.2527 66.5097,-148.2467 68.0706,-136.8825 69.4113,-127.1217 63.1531,-102.4922 58.2709,-85.3927"/>
</g>
<!-- 736&#45;&#45;741 -->
<g id="edge252" class="edge">
<title>736&#45;&#45;741</title>
<path fill="none" stroke="#0000ff" d="M38.2983,-190.7974C44.5637,-176.2925 52.671,-154.8085 55.6,-135.0354 58.0728,-118.342 56.9067,-99.0878 55.413,-85.4356"/>
</g>
<!-- 737&#45;&#45;738 -->
<g id="edge253" class="edge">
<title>737&#45;&#45;738</title>
<path fill="none" stroke="#000000" d="M248.7862,-64.0289C248.5867,-64.9378 248.4206,-65.8455 248.2967,-66.742 245.5733,-86.4605 246.2439,-92.2564 251.6974,-111.4005 259.6107,-139.1798 260.3115,-149.6106 281.6523,-169.0753 282.0666,-169.4532 282.6223,-169.8496 283.2892,-170.2576"/>
</g>
<!-- 737&#45;&#45;738 -->
<g id="edge254" class="edge">
<title>737&#45;&#45;738</title>
<path fill="none" stroke="#0000ff" d="M255.5301,-64.6301C255.5696,-65.0422 255.6136,-65.4506 255.6624,-65.8539 261.2254,-111.815 258.485,-128.5189 286.5561,-165.3344 286.8639,-165.7382 287.1869,-166.1346 287.523,-166.5235"/>
</g>
<!-- 737&#45;&#45;739 -->
<g id="edge255" class="edge">
<title>737&#45;&#45;739</title>
<path fill="none" stroke="#000000" d="M253.2921,-64.2598C252.9572,-102.1372 260.4859,-189.6594 267.3056,-227.3921"/>
</g>
<!-- 737&#45;&#45;739 -->
<g id="edge256" class="edge">
<title>737&#45;&#45;739</title>
<path fill="none" stroke="#0000ff" d="M261.4195,-63.9126C268.2378,-101.4896 275.7792,-189.0296 275.4674,-227.0586"/>
</g>
<!-- 737&#45;&#45;740 -->
<g id="edge257" class="edge">
<title>737&#45;&#45;740</title>
<path fill="none" stroke="#000000" d="M234.2605,-57.4893C225.2266,-64.6886 215.2079,-74.0245 207.9309,-82.0892"/>
</g>
<!-- 737&#45;&#45;740 -->
<g id="edge258" class="edge">
<title>737&#45;&#45;740</title>
<path fill="none" stroke="#0000ff" d="M246.0569,-63.0786C238.7666,-71.18 228.6753,-80.5905 219.5833,-87.835"/>
</g>
<!-- 737&#45;&#45;741 -->
<g id="edge259" class="edge">
<title>737&#45;&#45;741</title>
<path fill="none" stroke="#000000" d="M228.7806,-44.3246C189.1776,-45.7326 115.938,-53.4267 77.6535,-60.2291"/>
</g>
<!-- 737&#45;&#45;741 -->
<g id="edge260" class="edge">
<title>737&#45;&#45;741</title>
<path fill="none" stroke="#0000ff" d="M230.9949,-53.5192C192.7173,-60.3174 119.5512,-68.0041 79.9479,-69.4163"/>
</g>
<!-- 738&#45;&#45;739 -->
<g id="edge261" class="edge">
<title>738&#45;&#45;739</title>
<path fill="none" stroke="#000000" d="M292.036,-194.52C285.9504,-204.3037 279.5671,-217.0032 275.6195,-227.2709"/>
</g>
<!-- 738&#45;&#45;739 -->
<g id="edge262" class="edge">
<title>738&#45;&#45;739</title>
<path fill="none" stroke="#0000ff" d="M304.0178,-197.2063C300.0708,-207.4778 293.6828,-220.1884 287.5929,-229.979"/>
</g>
<!-- 738&#45;&#45;740 -->
<g id="edge263" class="edge">
<title>738&#45;&#45;740</title>
<path fill="none" stroke="#000000" d="M293.5888,-163.4457C275.461,-147.2426 242.6964,-122.9007 220.6086,-109.1116"/>
</g>
<!-- 738&#45;&#45;740 -->
<g id="edge264" class="edge">
<title>738&#45;&#45;740</title>
<path fill="none" stroke="#0000ff" d="M284.0958,-169.204C262.0241,-155.4225 229.3054,-131.1158 211.1753,-114.9177"/>
</g>
<!-- 738&#45;&#45;741 -->
<g id="edge265" class="edge">
<title>738&#45;&#45;741</title>
<path fill="none" stroke="#000000" d="M284.421,-168.7331C252.753,-153.5863 196.3293,-125.9771 177.7822,-112.8889 161.5338,-101.4229 162.1137,-92.6516 145.1482,-82.2762 120.1482,-66.9872 112.349,-61.518 83.0828,-60.0204 81.362,-59.9323 79.6009,-59.9824 77.8366,-60.1376"/>
</g>
<!-- 738&#45;&#45;741 -->
<g id="edge266" class="edge">
<title>738&#45;&#45;741</title>
<path fill="none" stroke="#0000ff" d="M283.0684,-170.1751C250.1537,-157.3236 192.2188,-134.0179 173.0645,-121.9532 156.5425,-111.5465 156.5064,-103.4563 140.0039,-93.0187 116.0442,-77.8644 109.2189,-73.4939 81.4774,-67.6514 80.9933,-67.5495 80.5034,-67.4552 80.0091,-67.3682"/>
</g>
<!-- 739&#45;&#45;740 -->
<g id="edge267" class="edge">
<title>739&#45;&#45;740</title>
<path fill="none" stroke="#000000" d="M271.9887,-226.9753C270.4724,-203.3258 266.9398,-163.5003 259.8583,-150.7877 247.6683,-128.9041 242.9945,-122.9652 222.4556,-108.625 222.1582,-108.4174 221.8557,-108.2135 221.5487,-108.0132"/>
</g>
<!-- 739&#45;&#45;740 -->
<g id="edge268" class="edge">
<title>739&#45;&#45;740</title>
<path fill="none" stroke="#0000ff" d="M270.2158,-227.1841C267.2681,-208.6455 262.4735,-181.0505 258.6146,-171.0212 252.1747,-154.2841 229.5563,-124.0212 218.2285,-112.9535 217.865,-112.5983 217.4914,-112.246 217.1095,-111.8971"/>
</g>
<!-- 739&#45;&#45;741 -->
<g id="edge269" class="edge">
<title>739&#45;&#45;741</title>
<path fill="none" stroke="#000000" d="M252.7845,-232.9251C219.2919,-212.0217 150.6696,-167.2143 99.5574,-120.7373 87.0231,-109.3396 74.4548,-94.7802 65.5315,-83.7799"/>
</g>
<!-- 739&#45;&#45;741 -->
<g id="edge270" class="edge">
<title>739&#45;&#45;741</title>
<path fill="none" stroke="#0000ff" d="M250.1439,-236.0048C249.9883,-235.9246 249.8334,-235.8443 249.6794,-235.7637 212.087,-216.0976 118.8481,-162.4043 89.6955,-131.5812 76.7509,-117.8949 66.5465,-98.8233 60.2036,-85.0639"/>
</g>
<!-- 740&#45;&#45;741 -->
<g id="edge271" class="edge">
<title>740&#45;&#45;741</title>
<path fill="none" stroke="#000000" d="M175.4972,-88.8956C149.7471,-81.1645 107.6542,-71.9467 80.102,-67.9589"/>
</g>
<!-- 740&#45;&#45;741 -->
<g id="edge272" class="edge">
<title>740&#45;&#45;741</title>
<path fill="none" stroke="#0000ff" d="M170.9686,-98.6117C143.474,-94.6429 101.3955,-85.4358 75.5882,-77.7012"/>
</g>
<!-- 742&#45;&#45;731 -->
<g id="edge33" class="edge">
<title>742&#45;&#45;731</title>
<path fill="none" stroke="#000000" d="M158.1875,-282.95C178.0506,-265.4382 209.3005,-237.4213 213.1111,-231.1875 221.0211,-218.2479 225.33,-201.4964 227.611,-188.9721"/>
</g>
<!-- 742&#45;&#45;731 -->
<g id="edge34" class="edge">
<title>742&#45;&#45;731</title>
<path fill="none" stroke="#0000ff" d="M155.8221,-281.767C166.2114,-269.9728 180.4668,-253.1418 191.7355,-237.414 195.9327,-231.556 196.5284,-229.785 200.1859,-223.5757 207.0967,-211.8436 214.6709,-198.4983 220.4526,-188.2036"/>
</g>
<!-- 742&#45;&#45;732 -->
<g id="edge35" class="edge">
<title>742&#45;&#45;732</title>
<path fill="none" stroke="#000000" d="M134.5182,-279.9822C116.0117,-247.8678 68.1447,-180.0133 42.8488,-149.8741"/>
</g>
<!-- 742&#45;&#45;732 -->
<g id="edge36" class="edge">
<title>742&#45;&#45;732</title>
<path fill="none" stroke="#0000ff" d="M125.9004,-282.4885C100.7033,-252.467 53.1111,-185.0243 34.4492,-152.7584"/>
</g>
<!-- 742&#45;&#45;733 -->
<g id="edge37" class="edge">
<title>742&#45;&#45;733</title>
<path fill="none" stroke="#000000" d="M125.7945,-282.683C118.9234,-278.6367 110.7325,-274.5323 103.044,-271.2574"/>
</g>
<!-- 742&#45;&#45;733 -->
<g id="edge38" class="edge">
<title>742&#45;&#45;733</title>
<path fill="none" stroke="#0000ff" d="M115.6018,-291.8432C108.0627,-288.6149 100.0671,-284.6041 93.3237,-280.6428"/>
</g>
<!-- 742&#45;&#45;734 -->
<g id="edge39" class="edge">
<title>742&#45;&#45;734</title>
<path fill="none" stroke="#000000" d="M154.6094,-281.3015C160.61,-269.6185 166.9121,-253.8145 170.3725,-241.667"/>
</g>
<!-- 742&#45;&#45;734 -->
<g id="edge40" class="edge">
<title>742&#45;&#45;734</title>
<path fill="none" stroke="#0000ff" d="M142.9586,-279.1875C146.4107,-267.0642 152.6957,-251.2941 158.6871,-239.6138"/>
</g>
<!-- 742&#45;&#45;735 -->
<g id="edge41" class="edge">
<title>742&#45;&#45;735</title>
<path fill="none" stroke="#000000" d="M141.558,-279.3215C141.5294,-264.3634 141.753,-242.4875 142.9863,-223.4328 144.6891,-197.1259 160.9006,-131.4743 156.1744,-105.5394 153.7853,-92.4294 136.4667,-61.262 125.1003,-41.801"/>
</g>
<!-- 742&#45;&#45;735 -->
<g id="edge42" class="edge">
<title>742&#45;&#45;735</title>
<path fill="none" stroke="#0000ff" d="M134.0096,-279.7756C133.7924,-279.0469 133.5935,-278.3201 133.4178,-277.6009 127.6363,-253.9438 127.9704,-247.3157 129.0014,-222.9843 130.1089,-196.8494 151.2651,-132.8768 148.3807,-106.878 146.9443,-93.9308 132.7466,-62.1214 123.3697,-42.2106"/>
</g>
<!-- 742&#45;&#45;736 -->
<g id="edge43" class="edge">
<title>742&#45;&#45;736</title>
<path fill="none" stroke="#000000" d="M132.7795,-280.1536C124.9337,-265.6435 113.7447,-246.2792 107.0023,-240.4783 98.7322,-233.3631 73.5338,-223.3953 54.2545,-216.4156"/>
</g>
<!-- 742&#45;&#45;736 -->
<g id="edge44" class="edge">
<title>742&#45;&#45;736</title>
<path fill="none" stroke="#0000ff" d="M128.1156,-281.773C119.7346,-272.6355 108.5073,-261.1246 97.482,-252.0698 82.7305,-239.9549 64.5266,-228.234 50.7902,-219.955"/>
</g>
<!-- 742&#45;&#45;737 -->
<g id="edge45" class="edge">
<title>742&#45;&#45;737</title>
<path fill="none" stroke="#000000" d="M159.569,-283.6715C189.1417,-260.675 246.6182,-214.479 260.2486,-192.5791 265.0465,-184.8704 264.8431,-181.9168 265.6307,-172.8712 269.7746,-125.2821 257.7323,-113.5782 255.6624,-65.8539 255.6448,-65.448 255.6291,-65.0373 255.6152,-64.6231"/>
</g>
<!-- 742&#45;&#45;737 -->
<g id="edge46" class="edge">
<title>742&#45;&#45;737</title>
<path fill="none" stroke="#0000ff" d="M157.0035,-282.3748C182.9697,-256.7677 234.6203,-205.1893 250.2376,-184.8805 254.6251,-179.175 257.0174,-178.0392 258.6146,-171.0212 263.821,-148.1441 245.446,-89.1942 248.4804,-65.9292 248.5743,-65.2098 248.6978,-64.4832 248.8459,-63.755"/>
</g>
<!-- 742&#45;&#45;738 -->
<g id="edge47" class="edge">
<title>742&#45;&#45;738</title>
<path fill="none" stroke="#000000" d="M163.9669,-287.031C198.3114,-266.1416 263.1352,-219.6338 292.131,-194.977"/>
</g>
<!-- 742&#45;&#45;738 -->
<g id="edge48" class="edge">
<title>742&#45;&#45;738</title>
<path fill="none" stroke="#0000ff" d="M155.9817,-281.8881C184.8259,-257.2983 249.9987,-210.5269 284.4635,-189.5656"/>
</g>
<!-- 742&#45;&#45;739 -->
<g id="edge49" class="edge">
<title>742&#45;&#45;739</title>
<path fill="none" stroke="#000000" d="M160.3674,-284.169C180.0996,-271.142 212.7684,-252.122 244.3566,-245.1434 244.8398,-245.0367 245.3287,-244.9384 245.8221,-244.8481"/>
</g>
<!-- 742&#45;&#45;739 -->
<g id="edge50" class="edge">
<title>742&#45;&#45;739</title>
<path fill="none" stroke="#0000ff" d="M154.6086,-281.2636C155.9575,-279.9772 157.367,-278.7627 158.8132,-277.6908 175.3187,-265.4575 222.8192,-242.4596 243.2099,-239.9491 244.1439,-239.8342 245.4015,-239.8555 246.8733,-239.9771"/>
</g>
<!-- 742&#45;&#45;740 -->
<g id="edge51" class="edge">
<title>742&#45;&#45;740</title>
<path fill="none" stroke="#000000" d="M140.5961,-279.2123C139.9952,-264.1893 139.9176,-242.2792 142.9863,-223.4328 147.1252,-198.014 162.4369,-133.5715 177.7822,-112.8889 178.0855,-112.48 178.4048,-112.0792 178.7378,-111.6866"/>
</g>
<!-- 742&#45;&#45;740 -->
<g id="edge52" class="edge">
<title>742&#45;&#45;740</title>
<path fill="none" stroke="#0000ff" d="M134.0038,-279.777C133.7882,-279.0479 133.5913,-278.3206 133.4178,-277.6009 127.5263,-253.16 125.5088,-246.0567 129.2138,-221.1903 133.1507,-194.7681 153.8937,-128.0869 172.7076,-109.122 173.1063,-108.7202 173.6521,-108.3055 174.3139,-107.884"/>
</g>
<!-- 742&#45;&#45;741 -->
<g id="edge53" class="edge">
<title>742&#45;&#45;741</title>
<path fill="none" stroke="#000000" d="M130.8241,-280.5053C113.8474,-254.0938 82.21,-203.7359 74.7721,-183.9572 68.115,-166.255 59.7249,-113.8829 55.5321,-85.8238"/>
</g>
<!-- 742&#45;&#45;741 -->
<g id="edge54" class="edge">
<title>742&#45;&#45;741</title>
<path fill="none" stroke="#0000ff" d="M130.0616,-281.1062C109.9574,-253.0548 70.4729,-197.3235 66.6379,-187.0161 59.9059,-168.9221 55.7223,-114.6105 53.9195,-85.8763"/>
</g>
<!-- 742&#45;&#45;743 -->
<g id="edge55" class="edge">
<title>742&#45;&#45;743</title>
<path fill="none" stroke="#000000" d="M141.0754,-279.2785C140.7596,-264.2948 140.8321,-242.4055 142.9863,-223.4328 147.1689,-186.5961 172.1193,-78.5722 182.1769,-35.8148"/>
</g>
<!-- 742&#45;&#45;743 -->
<g id="edge56" class="edge">
<title>742&#45;&#45;743</title>
<path fill="none" stroke="#0000ff" d="M134.0059,-279.7765C133.7897,-279.0475 133.5921,-278.3204 133.4178,-277.6009 127.5674,-253.4527 126.6894,-246.5861 129.1345,-221.8599 132.8139,-184.6536 166.8101,-77.8405 180.5991,-35.5953"/>
</g>
<!-- 742&#45;&#45;744 -->
<g id="edge57" class="edge">
<title>742&#45;&#45;744</title>
<path fill="none" stroke="#000000" d="M140.8362,-279.2836C136.0023,-257.6651 123.9232,-221.8022 114.4566,-200.789"/>
</g>
<!-- 742&#45;&#45;744 -->
<g id="edge58" class="edge">
<title>742&#45;&#45;744</title>
<path fill="none" stroke="#0000ff" d="M130.7388,-280.778C121.2923,-259.8572 109.2109,-224.0298 104.3326,-202.3321"/>
</g>
<!-- 742&#45;&#45;745 -->
<g id="edge59" class="edge">
<title>742&#45;&#45;745</title>
<path fill="none" stroke="#000000" d="M159.305,-283.4964C188.4792,-260.2355 245.3711,-213.6517 260.2486,-192.5791 264.3321,-186.7952 279.2188,-148.1384 288.0177,-124.8307"/>
</g>
<!-- 742&#45;&#45;745 -->
<g id="edge60" class="edge">
<title>742&#45;&#45;745</title>
<path fill="none" stroke="#0000ff" d="M157.0035,-282.3748C182.9697,-256.7677 234.6203,-205.1893 250.2376,-184.8805 254.6251,-179.175 254.9852,-177.2366 258.6146,-171.0212 267.8551,-155.197 278.0904,-136.9726 285.2777,-124.0551"/>
</g>
<!-- 742&#45;&#45;746 -->
<g id="edge61" class="edge">
<title>742&#45;&#45;746</title>
<path fill="none" stroke="#000000" d="M168.2581,-300.9607C176.3565,-300.5155 185.2051,-299.5323 193.1018,-298.1948"/>
</g>
<!-- 742&#45;&#45;746 -->
<g id="edge62" class="edge">
<title>742&#45;&#45;746</title>
<path fill="none" stroke="#0000ff" d="M165.216,-288.411C173.13,-287.062 182.018,-286.0687 190.1568,-285.6171"/>
</g>
<!-- 743&#45;&#45;731 -->
<g id="edge63" class="edge">
<title>743&#45;&#45;731</title>
<path fill="none" stroke="#000000" d="M195.8778,-34.9997C206.6727,-54.6984 223.3022,-86.1877 226.6524,-99.1076 231.2891,-116.9886 231.6895,-138.1968 231.2021,-152.9088"/>
</g>
<!-- 743&#45;&#45;731 -->
<g id="edge64" class="edge">
<title>743&#45;&#45;731</title>
<path fill="none" stroke="#0000ff" d="M198.9895,-34.0236C213.2775,-52.6541 235.0913,-82.6398 238.3531,-96.0738 240.8828,-106.4923 236.7567,-134.2801 233.4643,-152.9071"/>
</g>
<!-- 743&#45;&#45;732 -->
<g id="edge65" class="edge">
<title>743&#45;&#45;732</title>
<path fill="none" stroke="#000000" d="M164.1229,-28.6304C130.7951,-49.4573 69.113,-94.8551 41.2246,-119.1962"/>
</g>
<!-- 743&#45;&#45;732 -->
<g id="edge66" class="edge">
<title>743&#45;&#45;732</title>
<path fill="none" stroke="#0000ff" d="M172.49,-33.5552C144.6896,-57.884 82.4423,-103.703 49.0438,-124.542"/>
</g>
<!-- 743&#45;&#45;733 -->
<g id="edge67" class="edge">
<title>743&#45;&#45;733</title>
<path fill="none" stroke="#000000" d="M181.1199,-35.8909C170.1027,-72.9008 144.5585,-156.9862 131.9712,-184.1751 128.9416,-190.7191 127.3995,-191.9479 123.4821,-198.0023 111.9503,-215.8249 98.1922,-235.8767 88.7059,-249.5252"/>
</g>
<!-- 743&#45;&#45;733 -->
<g id="edge68" class="edge">
<title>743&#45;&#45;733</title>
<path fill="none" stroke="#0000ff" d="M183.3201,-35.8974C176.5425,-74.2396 159.7373,-163.3563 145.4959,-190.4363 138.4646,-203.8063 110.3645,-232.9874 92.4795,-250.8916"/>
</g>
<!-- 743&#45;&#45;734 -->
<g id="edge69" class="edge">
<title>743&#45;&#45;734</title>
<path fill="none" stroke="#000000" d="M179.7355,-35.6446C172.4838,-55.2855 161.6991,-85.9509 160.3214,-98.1505 158.0307,-118.4355 165.0906,-175.9193 169.0627,-205.433"/>
</g>
<!-- 743&#45;&#45;734 -->
<g id="edge70" class="edge">
<title>743&#45;&#45;734</title>
<path fill="none" stroke="#0000ff" d="M181.4487,-35.9188C177.238,-52.1988 171.5385,-77.0122 169.4526,-99.0162 167.557,-119.013 169.5394,-175.6157 170.7652,-205.0751"/>
</g>
<!-- 743&#45;&#45;735 -->
<g id="edge71" class="edge">
<title>743&#45;&#45;735</title>
<path fill="none" stroke="#000000" d="M160.0113,-14.0529C153.1151,-14.3934 145.722,-15.1426 138.9638,-16.1891"/>
</g>
<!-- 743&#45;&#45;735 -->
<g id="edge72" class="edge">
<title>743&#45;&#45;735</title>
<path fill="none" stroke="#0000ff" d="M162.4849,-26.8344C155.7521,-27.876 148.3906,-28.6226 141.5191,-28.964"/>
</g>
<!-- 743&#45;&#45;736 -->
<g id="edge73" class="edge">
<title>743&#45;&#45;736</title>
<path fill="none" stroke="#000000" d="M166.8066,-30.8156C139.3716,-49.1145 91.4177,-82.5167 79.6445,-99.918 69.0637,-115.5568 48.3672,-164.0821 37.4241,-190.4851"/>
</g>
<!-- 743&#45;&#45;736 -->
<g id="edge74" class="edge">
<title>743&#45;&#45;736</title>
<path fill="none" stroke="#0000ff" d="M168.7557,-32.1334C146.7953,-49.9121 110.7268,-79.7839 99.5574,-93.0187 85.4991,-109.6766 55.0008,-163.3688 39.5817,-191.1021"/>
</g>
<!-- 743&#45;&#45;737 -->
<g id="edge75" class="edge">
<title>743&#45;&#45;737</title>
<path fill="none" stroke="#000000" d="M204.1407,-31.9017C211.7453,-35.6906 220.7778,-39.4692 229.1532,-42.3888"/>
</g>
<!-- 743&#45;&#45;737 -->
<g id="edge76" class="edge">
<title>743&#45;&#45;737</title>
<path fill="none" stroke="#0000ff" d="M213.1129,-21.8881C221.5715,-24.84 230.6942,-28.6651 238.336,-32.4903"/>
</g>
<!-- 743&#45;&#45;738 -->
<g id="edge77" class="edge">
<title>743&#45;&#45;738</title>
<path fill="none" stroke="#000000" d="M194.2013,-35.3416C213.7846,-67.3331 263.9608,-134.7542 290.2978,-164.621"/>
</g>
<!-- 743&#45;&#45;738 -->
<g id="edge78" class="edge">
<title>743&#45;&#45;738</title>
<path fill="none" stroke="#0000ff" d="M202.7738,-32.6455C229.0079,-62.3957 278.8954,-129.4073 298.6394,-161.5484"/>
</g>
<!-- 743&#45;&#45;739 -->
<g id="edge79" class="edge">
<title>743&#45;&#45;739</title>
<path fill="none" stroke="#000000" d="M196.2643,-34.8959C211.8922,-62.4135 242.3253,-119.2079 258.6146,-171.0212 264.5101,-189.7738 268.4158,-211.9951 270.6395,-227.1821"/>
</g>
<!-- 743&#45;&#45;739 -->
<g id="edge80" class="edge">
<title>743&#45;&#45;739</title>
<path fill="none" stroke="#0000ff" d="M199.0537,-34.2369C210.2481,-49.125 226.5388,-72.1374 237.7969,-93.8685 254.1463,-125.4273 258.0654,-134.053 266.0148,-168.695 270.5149,-188.306 272.1199,-211.376 272.6795,-227.0015"/>
</g>
<!-- 743&#45;&#45;740 -->
<g id="edge81" class="edge">
<title>743&#45;&#45;740</title>
<path fill="none" stroke="#000000" d="M183.2918,-35.9931C183.7881,-49.678 186.4481,-68.3828 189.7998,-81.867"/>
</g>
<!-- 743&#45;&#45;740 -->
<g id="edge82" class="edge">
<title>743&#45;&#45;740</title>
<path fill="none" stroke="#0000ff" d="M194.6472,-35.1763C198.0079,-48.6898 200.6743,-67.4551 201.1628,-81.1537"/>
</g>
<!-- 743&#45;&#45;741 -->
<g id="edge83" class="edge">
<title>743&#45;&#45;741</title>
<path fill="none" stroke="#000000" d="M167.4416,-31.0884C166.9808,-31.3274 166.5203,-31.5585 166.0613,-31.7803 150.3978,-39.349 106.1314,-52.4754 77.8531,-60.5232"/>
</g>
<!-- 743&#45;&#45;741 -->
<g id="edge84" class="edge">
<title>743&#45;&#45;741</title>
<path fill="none" stroke="#0000ff" d="M178.011,-35.589C176.1044,-38.2204 173.8546,-40.6619 171.2443,-42.4947 163.7734,-47.7405 111.8218,-57.3944 79.3068,-63.0407"/>
</g>
<!-- 743&#45;&#45;744 -->
<g id="edge85" class="edge">
<title>743&#45;&#45;744</title>
<path fill="none" stroke="#000000" d="M179.7611,-35.7278C165.5608,-73.4089 132.6743,-159.254 123.707,-170.2841 123.3855,-170.6797 123.0496,-171.0683 122.7014,-171.4498"/>
</g>
<!-- 743&#45;&#45;744 -->
<g id="edge86" class="edge">
<title>743&#45;&#45;744</title>
<path fill="none" stroke="#0000ff" d="M180.3528,-35.6346C166.666,-75.3836 133.9748,-169.2898 128.8447,-174.4631 128.5131,-174.7975 128.0785,-175.138 127.5589,-175.4818"/>
</g>
<!-- 743&#45;&#45;745 -->
<g id="edge87" class="edge">
<title>743&#45;&#45;745</title>
<path fill="none" stroke="#000000" d="M199.5882,-33.9175C207.9557,-43.6364 219.263,-56.0978 230.2872,-66.1269 247.2291,-81.5396 251.6571,-85.6139 271.4676,-97.1086 271.6186,-97.1962 271.7706,-97.2836 271.9234,-97.3706"/>
</g>
<!-- 743&#45;&#45;745 -->
<g id="edge88" class="edge">
<title>743&#45;&#45;745</title>
<path fill="none" stroke="#0000ff" d="M202.5739,-32.7354C219.892,-48.289 248.4499,-73.3115 274.4465,-93.2163 274.8503,-93.5255 275.2605,-93.8361 275.6756,-94.1472"/>
</g>
<!-- 743&#45;&#45;746 -->
<g id="edge89" class="edge">
<title>743&#45;&#45;746</title>
<path fill="none" stroke="#000000" d="M179.5387,-35.5301C171.9979,-55.4242 160.9193,-86.814 161.0118,-99.2928 161.3074,-139.1373 210.8893,-230.261 216.9858,-269.6375 217.0479,-270.039 217.1038,-270.4457 217.1539,-270.8563"/>
</g>
<!-- 743&#45;&#45;746 -->
<g id="edge90" class="edge">
<title>743&#45;&#45;746</title>
<path fill="none" stroke="#0000ff" d="M181.5213,-35.9407C176.2964,-55.8905 168.8074,-86.9775 169.4526,-99.0162 171.5733,-138.5875 225.2208,-229.0468 224.3994,-268.6663 224.3774,-269.7279 224.2694,-270.8022 224.0946,-271.8739"/>
</g>
<!-- 744&#45;&#45;731 -->
<g id="edge91" class="edge">
<title>744&#45;&#45;731</title>
<path fill="none" stroke="#000000" d="M130.1852,-186.9265C152.5163,-186.2093 184.046,-182.929 205.6634,-179.0542"/>
</g>
<!-- 744&#45;&#45;731 -->
<g id="edge92" class="edge">
<title>744&#45;&#45;731</title>
<path fill="none" stroke="#0000ff" d="M127.8282,-176.0141C149.4309,-172.1497 180.8721,-168.8803 203.1647,-168.1619"/>
</g>
<!-- 744&#45;&#45;732 -->
<g id="edge93" class="edge">
<title>744&#45;&#45;732</title>
<path fill="none" stroke="#000000" d="M89.5129,-168.3696C78.8407,-160.0531 63.9092,-150.3146 51.2884,-143.3728"/>
</g>
<!-- 744&#45;&#45;732 -->
<g id="edge94" class="edge">
<title>744&#45;&#45;732</title>
<path fill="none" stroke="#0000ff" d="M79.2118,-175.7913C66.4848,-168.8016 51.3796,-158.9463 40.6585,-150.5675"/>
</g>
<!-- 744&#45;&#45;733 -->
<g id="edge95" class="edge">
<title>744&#45;&#45;733</title>
<path fill="none" stroke="#000000" d="M92.1197,-200.4878C86.2416,-214.179 80.091,-233.631 77.2044,-247.7755"/>
</g>
<!-- 744&#45;&#45;733 -->
<g id="edge96" class="edge">
<title>744&#45;&#45;733</title>
<path fill="none" stroke="#0000ff" d="M103.3655,-202.3162C100.4743,-216.4228 94.3603,-235.755 88.5093,-249.4029"/>
</g>
<!-- 744&#45;&#45;734 -->
<g id="edge97" class="edge">
<title>744&#45;&#45;734</title>
<path fill="none" stroke="#000000" d="M117.9413,-199.4066C126.2666,-205.2314 136.892,-211.5139 146.503,-216.3378"/>
</g>
<!-- 744&#45;&#45;734 -->
<g id="edge98" class="edge">
<title>744&#45;&#45;734</title>
<path fill="none" stroke="#0000ff" d="M128.5109,-191.2608C138.0149,-196.0348 148.5038,-202.2301 156.7763,-207.9961"/>
</g>
<!-- 744&#45;&#45;735 -->
<g id="edge99" class="edge">
<title>744&#45;&#45;735</title>
<path fill="none" stroke="#000000" d="M98.3062,-166.3138C94.4051,-150.7553 89.8699,-127.4315 91.1807,-106.878 91.9759,-94.4081 102.1188,-62.7688 108.921,-42.7041"/>
</g>
<!-- 744&#45;&#45;735 -->
<g id="edge100" class="edge">
<title>744&#45;&#45;735</title>
<path fill="none" stroke="#0000ff" d="M95.8699,-166.5659C87.9779,-147.4508 76.7459,-117.8924 77.4264,-106.0009 78.1784,-92.8585 94.5123,-61.4984 105.4018,-41.9115"/>
</g>
<!-- 744&#45;&#45;736 -->
<g id="edge101" class="edge">
<title>744&#45;&#45;736</title>
<path fill="none" stroke="#000000" d="M76.1787,-186.2181C67.2671,-188.6473 57.5622,-191.9327 49.3697,-195.3164"/>
</g>
<!-- 744&#45;&#45;736 -->
<g id="edge102" class="edge">
<title>744&#45;&#45;736</title>
<path fill="none" stroke="#0000ff" d="M84.1422,-196.9007C75.9063,-200.2983 66.1517,-203.5946 57.2135,-206.022"/>
</g>
<!-- 744&#45;&#45;737 -->
<g id="edge103" class="edge">
<title>744&#45;&#45;737</title>
<path fill="none" stroke="#000000" d="M125.6362,-173.6496C158.941,-157.9134 218.787,-128.9779 226.1725,-120.8358 233.9887,-112.2189 244.216,-83.106 250.3824,-63.9049"/>
</g>
<!-- 744&#45;&#45;737 -->
<g id="edge104" class="edge">
<title>744&#45;&#45;737</title>
<path fill="none" stroke="#0000ff" d="M124.3524,-172.6384C153.2297,-156.6538 203.4552,-127.843 218.2285,-112.9535 225.8011,-105.3214 238.8186,-80.675 247.3574,-63.6042"/>
</g>
<!-- 744&#45;&#45;738 -->
<g id="edge105" class="edge">
<title>744&#45;&#45;738</title>
<path fill="none" stroke="#000000" d="M130.4799,-184.0417C130.9812,-184.0828 131.4787,-184.1272 131.9712,-184.1751 176.3661,-188.4999 185.991,-205.6742 230.5242,-203.1418 240.7474,-202.5605 264.5699,-194.6838 282.8506,-188.1414"/>
</g>
<!-- 744&#45;&#45;738 -->
<g id="edge106" class="edge">
<title>744&#45;&#45;738</title>
<path fill="none" stroke="#0000ff" d="M129.685,-179.6676C130.5086,-179.6219 131.3255,-179.5895 132.1311,-179.5724 175.9012,-178.6458 186.2409,-191.3772 230.0143,-190.6211 247.0763,-190.3263 266.0518,-187.5351 280.8433,-184.7969"/>
</g>
<!-- 744&#45;&#45;739 -->
<g id="edge107" class="edge">
<title>744&#45;&#45;739</title>
<path fill="none" stroke="#000000" d="M130.5017,-183.8978C130.9964,-183.9829 131.4866,-184.0752 131.9712,-184.1751 155.924,-189.1152 217.9304,-218.3207 251.1302,-234.4667"/>
</g>
<!-- 744&#45;&#45;739 -->
<g id="edge108" class="edge">
<title>744&#45;&#45;739</title>
<path fill="none" stroke="#0000ff" d="M129.7576,-179.6314C131.0141,-179.5427 132.0931,-179.5188 132.9182,-179.5799 162.3809,-181.7614 169.4845,-187.0572 196.4559,-199.1134 217.1036,-208.3428 239.0555,-222.027 254.1083,-232.0827"/>
</g>
<!-- 744&#45;&#45;740 -->
<g id="edge109" class="edge">
<title>744&#45;&#45;740</title>
<path fill="none" stroke="#000000" d="M124.3211,-172.4665C143.6722,-157.7218 171.5103,-132.5751 186.9396,-115.7862"/>
</g>
<!-- 744&#45;&#45;740 -->
<g id="edge110" class="edge">
<title>744&#45;&#45;740</title>
<path fill="none" stroke="#0000ff" d="M114.4051,-167.4283C129.804,-150.6549 157.6672,-125.478 177.0495,-110.7024"/>
</g>
<!-- 744&#45;&#45;741 -->
<g id="edge111" class="edge">
<title>744&#45;&#45;741</title>
<path fill="none" stroke="#000000" d="M100.7966,-165.9309C93.7318,-143.4316 77.3836,-105.491 65.498,-83.8455"/>
</g>
<!-- 744&#45;&#45;741 -->
<g id="edge112" class="edge">
<title>744&#45;&#45;741</title>
<path fill="none" stroke="#0000ff" d="M90.8366,-167.863C78.9441,-146.2438 62.535,-108.1764 55.4534,-85.6237"/>
</g>
<!-- 744&#45;&#45;745 -->
<g id="edge113" class="edge">
<title>744&#45;&#45;745</title>
<path fill="none" stroke="#000000" d="M129.3431,-178.6514C168.2075,-166.0825 240.5547,-136.8769 275.2125,-119.6778"/>
</g>
<!-- 744&#45;&#45;745 -->
<g id="edge114" class="edge">
<title>744&#45;&#45;745</title>
<path fill="none" stroke="#0000ff" d="M122.9187,-171.4214C157.5933,-154.2268 229.7683,-125.0917 268.6132,-112.5216"/>
</g>
<!-- 744&#45;&#45;746 -->
<g id="edge115" class="edge">
<title>744&#45;&#45;746</title>
<path fill="none" stroke="#000000" d="M110.6492,-201.4622C117.0702,-215.2977 127.5018,-234.555 140.878,-248.1114 155.4914,-262.9215 176.5803,-273.7651 192.8044,-280.5832"/>
</g>
<!-- 744&#45;&#45;746 -->
<g id="edge116" class="edge">
<title>744&#45;&#45;746</title>
<path fill="none" stroke="#0000ff" d="M116.6968,-200.0397C126.0074,-210.8983 138.9506,-225.4184 151.2893,-237.313 170.2271,-255.5691 175.7957,-259.3033 196.6988,-275.2717 197.102,-275.5797 197.5112,-275.8893 197.925,-276.1998"/>
</g>
<!-- 745&#45;&#45;731 -->
<g id="edge117" class="edge">
<title>745&#45;&#45;731</title>
<path fill="none" stroke="#000000" d="M274.161,-118.985C262.5667,-128.8081 248.7023,-142.6845 239.5471,-153.7112"/>
</g>
<!-- 745&#45;&#45;731 -->
<g id="edge118" class="edge">
<title>745&#45;&#45;731</title>
<path fill="none" stroke="#0000ff" d="M285.1979,-124.3071C276.0563,-135.3319 262.1765,-149.231 250.5622,-159.0771"/>
</g>
<!-- 745&#45;&#45;732 -->
<g id="edge119" class="edge">
<title>745&#45;&#45;732</title>
<path fill="none" stroke="#000000" d="M268.1293,-111.2251C224.1627,-117.8549 133.1625,-130.5863 55.6,-135.0354 55.106,-135.0638 54.6071,-135.0899 54.1045,-135.1139"/>
</g>
<!-- 745&#45;&#45;732 -->
<g id="edge120" class="edge">
<title>745&#45;&#45;732</title>
<path fill="none" stroke="#0000ff" d="M269.6261,-114.1198C226.3653,-125.5158 134.5031,-146.3284 55.9707,-141.5196 54.8426,-141.4505 53.6952,-141.3456 52.5401,-141.2115"/>
</g>
<!-- 745&#45;&#45;733 -->
<g id="edge121" class="edge">
<title>745&#45;&#45;733</title>
<path fill="none" stroke="#000000" d="M269.4997,-114.2999C249.9301,-120.5869 222.5671,-130.9028 201.198,-144.8672 176.9129,-160.7372 118.8199,-221.4314 91.698,-250.3432"/>
</g>
<!-- 745&#45;&#45;733 -->
<g id="edge122" class="edge">
<title>745&#45;&#45;733</title>
<path fill="none" stroke="#0000ff" d="M273.4573,-118.3966C255.9582,-128.016 230.6629,-142.5722 209.7915,-157.1616 165.6568,-188.0124 117.6985,-229.5648 93.386,-251.2639"/>
</g>
<!-- 745&#45;&#45;734 -->
<g id="edge123" class="edge">
<title>745&#45;&#45;734</title>
<path fill="none" stroke="#000000" d="M286.2506,-124.568C276.3476,-144.6179 259.9731,-175.9582 250.2376,-184.8805 241.556,-192.8371 214.5882,-205.3042 194.6603,-213.903"/>
</g>
<!-- 745&#45;&#45;734 -->
<g id="edge124" class="edge">
<title>745&#45;&#45;734</title>
<path fill="none" stroke="#0000ff" d="M288.0397,-124.607C278.5854,-149.4702 262.0526,-192.2751 259.3397,-194.8129 250.2194,-203.3446 219.6642,-212.1232 197.1846,-217.6797"/>
</g>
<!-- 745&#45;&#45;735 -->
<g id="edge125" class="edge">
<title>745&#45;&#45;735</title>
<path fill="none" stroke="#000000" d="M276.2629,-93.7689C244.009,-75.7825 177.3278,-45.2108 140.6249,-31.4845"/>
</g>
<!-- 745&#45;&#45;735 -->
<g id="edge126" class="edge">
<title>745&#45;&#45;735</title>
<path fill="none" stroke="#0000ff" d="M269.2155,-100.6576C232.5015,-86.9381 165.6333,-56.281 133.382,-38.2838"/>
</g>
<!-- 745&#45;&#45;736 -->
<g id="edge127" class="edge">
<title>745&#45;&#45;736</title>
<path fill="none" stroke="#000000" d="M268.6807,-112.2013C214.6849,-122.968 93.6421,-147.8201 77.0489,-157.4533 69.1865,-162.0179 54.1693,-178.997 43.2655,-192.0391"/>
</g>
<!-- 745&#45;&#45;736 -->
<g id="edge128" class="edge">
<title>745&#45;&#45;736</title>
<path fill="none" stroke="#0000ff" d="M269.2521,-113.5324C220.7591,-126.0242 116.6065,-153.792 83.2611,-170.13 70.2593,-176.5004 57.015,-185.9819 47.0212,-193.8709"/>
</g>
<!-- 745&#45;&#45;737 -->
<g id="edge129" class="edge">
<title>745&#45;&#45;737</title>
<path fill="none" stroke="#000000" d="M290.2068,-89.1933C285.6092,-80.05 278.7507,-69.1215 272.2724,-60.5423"/>
</g>
<!-- 745&#45;&#45;737 -->
<g id="edge130" class="edge">
<title>745&#45;&#45;737</title>
<path fill="none" stroke="#0000ff" d="M277.9726,-92.5075C271.5583,-83.9725 264.8008,-73.1851 260.2544,-64.1435"/>
</g>
<!-- 745&#45;&#45;738 -->
<g id="edge131" class="edge">
<title>745&#45;&#45;738</title>
<path fill="none" stroke="#000000" d="M291.7457,-125.1479C292.4387,-136.5152 294.8332,-151.0869 297.8284,-162.249"/>
</g>
<!-- 745&#45;&#45;738 -->
<g id="edge132" class="edge">
<title>745&#45;&#45;738</title>
<path fill="none" stroke="#0000ff" d="M303.5625,-124.3205C306.5424,-135.4994 308.9173,-150.0278 309.5947,-161.3407"/>
</g>
<!-- 745&#45;&#45;739 -->
<g id="edge133" class="edge">
<title>745&#45;&#45;739</title>
<path fill="none" stroke="#000000" d="M287.4682,-124.5935C281.9746,-138.7229 274.6761,-159.2835 270.6959,-177.9233 266.2845,-198.5824 263.7772,-204.2568 266.2053,-225.2417 266.2892,-225.9661 266.4008,-226.6987 266.5354,-227.4339"/>
</g>
<!-- 745&#45;&#45;739 -->
<g id="edge134" class="edge">
<title>745&#45;&#45;739</title>
<path fill="none" stroke="#0000ff" d="M289.9568,-124.8106C286.2615,-139.3119 281.2184,-160.4467 278.0729,-179.1633 274.6303,-199.6477 274.2739,-204.895 273.0863,-225.6327 273.0631,-226.0383 273.0417,-226.4488 273.0221,-226.8627"/>
</g>
<!-- 745&#45;&#45;740 -->
<g id="edge135" class="edge">
<title>745&#45;&#45;740</title>
<path fill="none" stroke="#000000" d="M270.2762,-99.0494C256.3813,-96.9063 238.9547,-95.4307 224.7003,-95.1791"/>
</g>
<!-- 745&#45;&#45;740 -->
<g id="edge136" class="edge">
<title>745&#45;&#45;740</title>
<path fill="none" stroke="#0000ff" d="M268.2694,-110.9699C253.995,-110.7322 236.4815,-109.2569 222.5157,-107.1075"/>
</g>
<!-- 745&#45;&#45;741 -->
<g id="edge137" class="edge">
<title>745&#45;&#45;741</title>
<path fill="none" stroke="#000000" d="M272.7436,-96.4592C258.3643,-89.5901 239.0714,-80.556 221.7997,-73.077 221.5759,-72.9801 82.0816,-60.8554 81.8388,-60.8787 80.7132,-60.9869 79.5679,-61.1251 78.4146,-61.2873"/>
</g>
<!-- 745&#45;&#45;741 -->
<g id="edge138" class="edge">
<title>745&#45;&#45;741</title>
<path fill="none" stroke="#0000ff" d="M269.8439,-99.9726C254.9234,-95.7032 235.5313,-90.1552 218.3229,-85.235 217.8623,-85.1033 81.9558,-67.677 81.4774,-67.6514 80.9834,-67.625 80.4844,-67.6003 79.9817,-67.5773"/>
</g>
<!-- 745&#45;&#45;746 -->
<g id="edge139" class="edge">
<title>745&#45;&#45;746</title>
<path fill="none" stroke="#000000" d="M283.0043,-123.5458C264.7203,-157.6657 231.4086,-235.7054 220.0596,-271.1621"/>
</g>
<!-- 745&#45;&#45;746 -->
<g id="edge140" class="edge">
<title>745&#45;&#45;746</title>
<path fill="none" stroke="#0000ff" d="M291.3612,-125.1732C280.0138,-160.6173 246.7402,-238.5714 228.4523,-272.7163"/>
</g>
<!-- 746&#45;&#45;731 -->
<g id="edge141" class="edge">
<title>746&#45;&#45;731</title>
<path fill="none" stroke="#000000" d="M223.7567,-271.8404C228.6031,-249.6236 232.8675,-211.3808 232.9848,-188.9237"/>
</g>
<!-- 746&#45;&#45;731 -->
<g id="edge142" class="edge">
<title>746&#45;&#45;731</title>
<path fill="none" stroke="#0000ff" d="M213.7966,-271.2419C213.9245,-248.885 218.142,-210.986 222.9516,-188.7522"/>
</g>
<!-- 746&#45;&#45;732 -->
<g id="edge143" class="edge">
<title>746&#45;&#45;732</title>
<path fill="none" stroke="#000000" d="M197.0909,-276.6342C164.9881,-255.9328 102.7749,-215.1928 83.0362,-197.8482 66.5879,-183.3948 50.1978,-164.338 39.4448,-151.0346"/>
</g>
<!-- 746&#45;&#45;732 -->
<g id="edge144" class="edge">
<title>746&#45;&#45;732</title>
<path fill="none" stroke="#0000ff" d="M195.6291,-277.913C161.55,-259.4325 96.153,-222.9579 76.7575,-204.9932 67.6918,-196.5962 49.4841,-169.7059 37.8023,-151.8365"/>
</g>
<!-- 746&#45;&#45;733 -->
<g id="edge145" class="edge">
<title>746&#45;&#45;733</title>
<path fill="none" stroke="#000000" d="M193.3284,-279.978C168.8143,-273.9282 130.3833,-267.4498 104.5181,-264.9708"/>
</g>
<!-- 746&#45;&#45;733 -->
<g id="edge146" class="edge">
<title>746&#45;&#45;733</title>
<path fill="none" stroke="#0000ff" d="M189.6269,-290.1856C163.7449,-287.7163 125.178,-281.2177 100.6168,-275.1526"/>
</g>
<!-- 746&#45;&#45;734 -->
<g id="edge147" class="edge">
<title>746&#45;&#45;734</title>
<path fill="none" stroke="#000000" d="M211.4533,-271.4087C205.7171,-260.8716 196.8559,-247.7689 188.8474,-237.8877"/>
</g>
<!-- 746&#45;&#45;734 -->
<g id="edge148" class="edge">
<title>746&#45;&#45;734</title>
<path fill="none" stroke="#0000ff" d="M199.6669,-275.0529C191.6072,-265.1381 182.6541,-251.9112 176.8799,-241.297"/>
</g>
<!-- 746&#45;&#45;735 -->
<g id="edge149" class="edge">
<title>746&#45;&#45;735</title>
<path fill="none" stroke="#000000" d="M224.0459,-271.6069C224.2523,-270.5208 224.4004,-269.4326 224.4727,-268.3579 226.0001,-245.6432 221.0484,-239.7828 213.3599,-218.3544 200.4905,-182.4869 146.5133,-82.4471 124.5145,-42.2001"/>
</g>
<!-- 746&#45;&#45;735 -->
<g id="edge150" class="edge">
<title>746&#45;&#45;735</title>
<path fill="none" stroke="#0000ff" d="M217.1715,-270.8534C217.1162,-270.4437 217.0544,-270.0379 216.9858,-269.6375 213.3048,-248.1596 208.2148,-243.8337 200.1859,-223.5757 173.3902,-155.966 138.3533,-76.8526 122.954,-42.4976"/>
</g>
<!-- 746&#45;&#45;736 -->
<g id="edge151" class="edge">
<title>746&#45;&#45;736</title>
<path fill="none" stroke="#000000" d="M197.8561,-276.1814C164.1431,-258.2457 93.756,-227.5522 55.7733,-214.136"/>
</g>
<!-- 746&#45;&#45;736 -->
<g id="edge152" class="edge">
<title>746&#45;&#45;736</title>
<path fill="none" stroke="#0000ff" d="M191.2754,-283.2493C153.2735,-269.8338 82.7184,-239.0661 49.0221,-221.1263"/>
</g>
<!-- 746&#45;&#45;737 -->
<g id="edge153" class="edge">
<title>746&#45;&#45;737</title>
<path fill="none" stroke="#000000" d="M224.6258,-271.8962C238.1151,-241.9495 264.4783,-182.5373 266.048,-172.191 269.6094,-148.7167 256.7443,-89.5721 255.6624,-65.8539 255.6439,-65.448 255.6274,-65.0374 255.6127,-64.6233"/>
</g>
<!-- 746&#45;&#45;737 -->
<g id="edge154" class="edge">
<title>746&#45;&#45;737</title>
<path fill="none" stroke="#0000ff" d="M224.1018,-271.5347C235.4202,-243.7873 256.1649,-190.9942 258.6146,-171.0212 264.3269,-124.446 242.4117,-112.4593 248.4804,-65.9292 248.5743,-65.2098 248.6978,-64.4832 248.8459,-63.755"/>
</g>
<!-- 746&#45;&#45;738 -->
<g id="edge155" class="edge">
<title>746&#45;&#45;738</title>
<path fill="none" stroke="#000000" d="M225.9904,-272.1132C237.7982,-251.4147 259.9593,-216.3736 286.343,-193.0526 286.7249,-192.7151 287.1154,-192.379 287.513,-192.045"/>
</g>
<!-- 746&#45;&#45;738 -->
<g id="edge156" class="edge">
<title>746&#45;&#45;738</title>
<path fill="none" stroke="#0000ff" d="M220.4977,-271.2033C224.0534,-257.0279 230.4582,-237.2409 240.9301,-222.4886 254.7104,-203.0754 261.8802,-200.6273 282.4575,-188.6547 282.6128,-188.5644 282.7691,-188.4746 282.9264,-188.3853"/>
</g>
<!-- 746&#45;&#45;739 -->
<g id="edge157" class="edge">
<title>746&#45;&#45;739</title>
<path fill="none" stroke="#000000" d="M239.7524,-279.399C247.3409,-274.1348 255.4259,-267.6399 261.7618,-261.6731"/>
</g>
<!-- 746&#45;&#45;739 -->
<g id="edge158" class="edge">
<title>746&#45;&#45;739</title>
<path fill="none" stroke="#0000ff" d="M228.0894,-272.6755C234.3744,-266.7715 242.3531,-260.3633 249.8576,-255.1486"/>
</g>
<!-- 746&#45;&#45;740 -->
<g id="edge159" class="edge">
<title>746&#45;&#45;740</title>
<path fill="none" stroke="#000000" d="M224.1157,-271.5035C224.2552,-270.5893 224.3455,-269.6746 224.3749,-268.7694 224.9606,-250.7017 171.7432,-129.9276 177.7822,-112.8889 177.9239,-112.489 178.1666,-112.0675 178.4938,-111.6301"/>
</g>
<!-- 746&#45;&#45;740 -->
<g id="edge160" class="edge">
<title>746&#45;&#45;740</title>
<path fill="none" stroke="#0000ff" d="M217.136,-270.8589C217.0913,-270.4476 217.0413,-270.04 216.9858,-269.6375 215.7218,-260.4853 166.2117,-118.3307 170.2709,-110.0312 170.566,-109.4276 171.8836,-108.6179 173.7961,-107.7106"/>
</g>
<!-- 746&#45;&#45;741 -->
<g id="edge161" class="edge">
<title>746&#45;&#45;741</title>
<path fill="none" stroke="#000000" d="M224.0526,-271.6074C224.2574,-270.5212 224.4033,-269.4327 224.4727,-268.3579 225.9665,-245.2348 224.8865,-237.351 212.8944,-217.5242 204.324,-203.3545 111.3435,-132.3701 99.5574,-120.7373 87.4998,-108.8365 74.8942,-94.3164 65.8353,-83.4592"/>
</g>
<!-- 746&#45;&#45;741 -->
<g id="edge162" class="edge">
<title>746&#45;&#45;741</title>
<path fill="none" stroke="#0000ff" d="M217.1715,-270.8534C217.1162,-270.4437 217.0544,-270.0379 216.9858,-269.6375 213.3048,-248.1596 209.5544,-243.2501 200.1859,-223.5757 197.0955,-217.0856 196.6639,-215.0637 191.883,-209.6956 153.5636,-166.6702 126.9447,-174.1612 89.0496,-130.7617 76.9156,-116.8653 66.8705,-98.2691 60.4782,-84.8537"/>
</g>
<!-- Cluster 15 -->
<g id="node18" class="node">
<title>Cluster 15</title>
<polygon fill="none" stroke="#000000" points="377,-340 304,-340 304,-304 377,-304 377,-340"/>
<text text-anchor="middle" x="340.5" y="-318.3" font-family="Times,serif" font-size="14.00" fill="#000000">Cluster 15</text>
</g>
<!-- ssh -->
<g id="node19" class="node">
<title>ssh</title>
<polygon fill="none" stroke="#000000" points="377,-55 323,-55 323,-19 377,-19 377,-55"/>
<text text-anchor="middle" x="350" y="-33.3" font-family="Times,serif" font-size="14.00" fill="#000000">ssh</text>
</g>
<!-- mail -->
<g id="node20" class="node">
<title>mail</title>
<polygon fill="none" stroke="#0000ff" points="73,-359 19,-359 19,-323 73,-323 73,-359"/>
<text text-anchor="middle" x="46" y="-337.3" font-family="Times,serif" font-size="14.00" fill="#000000">mail</text>
</g>
</g>
</svg>
