<?xml version="1.0" encoding="UTF-8" standalone="no"?>
<!DOCTYPE svg PUBLIC "-//W3C//DTD SVG 1.1//EN"
 "http://www.w3.org/Graphics/SVG/1.1/DTD/svg11.dtd">
<!-- Generated by graphviz version 2.40.1 (20161225.0304)
 -->
<!-- Title: %3 Pages: 1 -->
<svg width="700pt" height="348pt"
 viewBox="0.00 0.00 700.06 348.00" xmlns="http://www.w3.org/2000/svg" xmlns:xlink="http://www.w3.org/1999/xlink">
<g id="graph0" class="graph" transform="scale(1 1) rotate(0) translate(4 344)">
<title>%3</title>
<polygon fill="#ffffff" stroke="transparent" points="-4,4 -4,-344 696.0618,-344 696.0618,4 -4,4"/>
<!-- 1214 -->
<g id="node1" class="node">
<title>1214</title>
<ellipse fill="#00407d" stroke="#00407d" cx="469.334" cy="-228.6436" rx="28.6953" ry="18"/>
<text text-anchor="middle" x="469.334" y="-224.9436" font-family="Times,serif" font-size="14.00" fill="#000000">1214</text>
</g>
<!-- 1215 -->
<g id="node2" class="node">
<title>1215</title>
<ellipse fill="#00407d" stroke="#00407d" cx="663.4643" cy="-231.351" rx="28.6953" ry="18"/>
<text text-anchor="middle" x="663.4643" y="-227.651" font-family="Times,serif" font-size="14.00" fill="#000000">1215</text>
</g>
<!-- 1214&#45;&#45;1215 -->
<g id="edge1" class="edge">
<title>1214&#45;&#45;1215</title>
<path fill="none" stroke="#0000ff" d="M497.9786,-229.0431C534.6821,-229.555 597.9421,-230.4372 634.7022,-230.9499"/>
</g>
<!-- 1216 -->
<g id="node3" class="node">
<title>1216</title>
<ellipse fill="#00407d" stroke="#00407d" cx="386.1463" cy="-56" rx="28.6953" ry="18"/>
<text text-anchor="middle" x="386.1463" y="-52.3" font-family="Times,serif" font-size="14.00" fill="#000000">1216</text>
</g>
<!-- 1214&#45;&#45;1216 -->
<g id="edge2" class="edge">
<title>1214&#45;&#45;1216</title>
<path fill="none" stroke="#ee82ee" d="M467.9135,-210.5133C465.9024,-186.9837 461.8823,-147.1921 456.7477,-133.4694 451.3006,-118.9115 421.6625,-89.2664 402.5815,-71.1852"/>
</g>
<!-- 1214&#45;&#45;1216 -->
<g id="edge3" class="edge">
<title>1214&#45;&#45;1216</title>
<path fill="none" stroke="#ffa500" d="M466.3608,-210.6965C462.8928,-192.081 456.2454,-162.3155 445.76,-138.258 439.7057,-124.3672 414.9056,-92.0439 399.2823,-72.3274"/>
</g>
<!-- 1217 -->
<g id="node4" class="node">
<title>1217</title>
<ellipse fill="#00407d" stroke="#00407d" cx="340.6477" cy="-103.2126" rx="28.6953" ry="18"/>
<text text-anchor="middle" x="340.6477" y="-99.5126" font-family="Times,serif" font-size="14.00" fill="#000000">1217</text>
</g>
<!-- 1214&#45;&#45;1217 -->
<g id="edge4" class="edge">
<title>1214&#45;&#45;1217</title>
<path fill="none" stroke="#ee82ee" d="M463.0154,-210.9052C444.5868,-183.8724 394.9374,-134.8933 364.5432,-113.1672"/>
</g>
<!-- 1214&#45;&#45;1217 -->
<g id="edge5" class="edge">
<title>1214&#45;&#45;1217</title>
<path fill="none" stroke="#ffa500" d="M445.2941,-218.5856C414.8833,-196.8051 365.3527,-147.9282 346.959,-120.9403"/>
</g>
<!-- 1214&#45;&#45;1217 -->
<g id="edge6" class="edge">
<title>1214&#45;&#45;1217</title>
<path fill="none" stroke="#0000ff" d="M453.8114,-213.5137C429.0773,-189.4053 380.994,-142.5383 356.2253,-118.3961"/>
</g>
<!-- 1218 -->
<g id="node5" class="node">
<title>1218</title>
<ellipse fill="#00407d" stroke="#00407d" cx="451.3477" cy="-65.3574" rx="28.6953" ry="18"/>
<text text-anchor="middle" x="451.3477" y="-61.6574" font-family="Times,serif" font-size="14.00" fill="#000000">1218</text>
</g>
<!-- 1214&#45;&#45;1218 -->
<g id="edge7" class="edge">
<title>1214&#45;&#45;1218</title>
<path fill="none" stroke="#ffa500" d="M467.3404,-210.5453C463.8831,-179.1583 456.8138,-114.9802 453.3502,-83.5368"/>
</g>
<!-- 1219 -->
<g id="node6" class="node">
<title>1219</title>
<ellipse fill="#00407d" stroke="#00407d" cx="415.5625" cy="-138.2401" rx="28.6953" ry="18"/>
<text text-anchor="middle" x="415.5625" y="-134.5401" font-family="Times,serif" font-size="14.00" fill="#000000">1219</text>
</g>
<!-- 1214&#45;&#45;1219 -->
<g id="edge8" class="edge">
<title>1214&#45;&#45;1219</title>
<path fill="none" stroke="#ee82ee" d="M459.22,-211.6394C449.6065,-195.4767 435.2297,-171.3055 425.6312,-155.168"/>
</g>
<!-- 1220 -->
<g id="node7" class="node">
<title>1220</title>
<ellipse fill="#00407d" stroke="#00407d" cx="290.018" cy="-169.5352" rx="28.6953" ry="18"/>
<text text-anchor="middle" x="290.018" y="-165.8352" font-family="Times,serif" font-size="14.00" fill="#000000">1220</text>
</g>
<!-- 1214&#45;&#45;1220 -->
<g id="edge9" class="edge">
<title>1214&#45;&#45;1220</title>
<path fill="none" stroke="#ffa500" d="M440.7052,-227.4791C413.2664,-225.4157 371.2755,-219.7314 338.3502,-204.1218 327.3485,-198.906 316.2202,-191.1501 307.4194,-184.304"/>
</g>
<!-- 1221 -->
<g id="node8" class="node">
<title>1221</title>
<ellipse fill="#00407d" stroke="#00407d" cx="500.7311" cy="-179.4951" rx="28.6953" ry="18"/>
<text text-anchor="middle" x="500.7311" y="-175.7951" font-family="Times,serif" font-size="14.00" fill="#000000">1221</text>
</g>
<!-- 1214&#45;&#45;1221 -->
<g id="edge10" class="edge">
<title>1214&#45;&#45;1221</title>
<path fill="none" stroke="#0000ff" d="M486.3515,-214.1382C490.1658,-208.8595 493.877,-202.8547 496.7169,-197.3263"/>
</g>
<!-- 1214&#45;&#45;1221 -->
<g id="edge11" class="edge">
<title>1214&#45;&#45;1221</title>
<path fill="none" stroke="#ffa500" d="M473.3459,-210.8169C476.1831,-205.2931 479.8904,-199.2934 483.7014,-194.0174"/>
</g>
<!-- 1222 -->
<g id="node9" class="node">
<title>1222</title>
<ellipse fill="#00407d" stroke="#00407d" cx="506.7733" cy="-120.5805" rx="28.6953" ry="18"/>
<text text-anchor="middle" x="506.7733" y="-116.8805" font-family="Times,serif" font-size="14.00" fill="#000000">1222</text>
</g>
<!-- 1214&#45;&#45;1222 -->
<g id="edge12" class="edge">
<title>1214&#45;&#45;1222</title>
<path fill="none" stroke="#0000ff" d="M467.6465,-210.6233C466.7049,-190.0786 468.2645,-156.4071 485.3083,-134.3666 485.5782,-134.0176 485.9363,-133.6393 486.3674,-133.2383"/>
</g>
<!-- 1214&#45;&#45;1222 -->
<g id="edge13" class="edge">
<title>1214&#45;&#45;1222</title>
<path fill="none" stroke="#ffa500" d="M463.3731,-210.6523C460.8695,-200.894 458.8868,-188.5979 460.6131,-177.6073 464.1271,-155.2354 464.3663,-146.5045 480.6369,-130.7527 480.9855,-130.4153 481.4385,-130.0686 481.9776,-129.7163"/>
</g>
<!-- 1223 -->
<g id="node10" class="node">
<title>1223</title>
<ellipse fill="#00407d" stroke="#00407d" cx="393.3342" cy="-241.4178" rx="28.6953" ry="18"/>
<text text-anchor="middle" x="393.3342" y="-237.7178" font-family="Times,serif" font-size="14.00" fill="#000000">1223</text>
</g>
<!-- 1214&#45;&#45;1223 -->
<g id="edge14" class="edge">
<title>1214&#45;&#45;1223</title>
<path fill="none" stroke="#ee82ee" d="M444.0388,-220.1718C432.7915,-220.5522 419.8752,-222.9838 409.8827,-226.6946"/>
</g>
<!-- 1214&#45;&#45;1223 -->
<g id="edge15" class="edge">
<title>1214&#45;&#45;1223</title>
<path fill="none" stroke="#ffa500" d="M452.5087,-243.4691C442.5468,-247.1254 429.7516,-249.5168 418.6013,-249.8906"/>
</g>
<!-- 1214&#45;&#45;1223 -->
<g id="edge16" class="edge">
<title>1214&#45;&#45;1223</title>
<path fill="none" stroke="#0000ff" d="M441.466,-233.3277C434.8573,-234.4385 427.8074,-235.6235 421.1988,-236.7343"/>
</g>
<!-- 1224 -->
<g id="node11" class="node">
<title>1224</title>
<ellipse fill="#00407d" stroke="#00407d" cx="359.7527" cy="-190.2948" rx="28.6953" ry="18"/>
<text text-anchor="middle" x="359.7527" y="-186.5948" font-family="Times,serif" font-size="14.00" fill="#000000">1224</text>
</g>
<!-- 1214&#45;&#45;1224 -->
<g id="edge17" class="edge">
<title>1214&#45;&#45;1224</title>
<path fill="none" stroke="#ee82ee" d="M455.1069,-212.8268C438.2361,-202.8194 409.9215,-192.4518 388.4736,-188.1318"/>
</g>
<!-- 1214&#45;&#45;1224 -->
<g id="edge18" class="edge">
<title>1214&#45;&#45;1224</title>
<path fill="none" stroke="#ffa500" d="M440.9495,-230.8741C419.4956,-226.602 391.028,-216.204 374.0594,-206.1589"/>
</g>
<!-- 1214&#45;&#45;1224 -->
<g id="edge19" class="edge">
<title>1214&#45;&#45;1224</title>
<path fill="none" stroke="#0000ff" d="M444.1939,-219.8457C426.3749,-213.6098 402.5686,-205.2786 384.7759,-199.0519"/>
</g>
<!-- 1216&#45;&#45;1217 -->
<g id="edge101" class="edge">
<title>1216&#45;&#45;1217</title>
<path fill="none" stroke="#0000ff" d="M360.3412,-64.0063C353.2166,-69.978 346.4703,-77.7724 342.3734,-85.0329"/>
</g>
<!-- 1216&#45;&#45;1217 -->
<g id="edge102" class="edge">
<title>1216&#45;&#45;1217</title>
<path fill="none" stroke="#ee82ee" d="M384.4513,-74.1251C380.4057,-81.3155 373.7541,-89.0356 366.7048,-94.9941"/>
</g>
<!-- 1216&#45;&#45;1217 -->
<g id="edge103" class="edge">
<title>1216&#45;&#45;1217</title>
<path fill="none" stroke="#ffa500" d="M371.2483,-71.4592C366.2724,-76.6226 360.7251,-82.3788 355.7349,-87.557"/>
</g>
<!-- 1216&#45;&#45;1218 -->
<g id="edge104" class="edge">
<title>1216&#45;&#45;1218</title>
<path fill="none" stroke="#ee82ee" d="M410.2329,-66.1095C414.3726,-66.8897 418.709,-67.5421 422.949,-68.0247"/>
</g>
<!-- 1216&#45;&#45;1218 -->
<g id="edge105" class="edge">
<title>1216&#45;&#45;1218</title>
<path fill="none" stroke="#ffa500" d="M414.7466,-53.3558C418.9283,-53.8367 423.1991,-54.4819 427.2785,-55.2512"/>
</g>
<!-- 1217&#45;&#45;1218 -->
<g id="edge106" class="edge">
<title>1217&#45;&#45;1218</title>
<path fill="none" stroke="#ee82ee" d="M369.2058,-105.5806C390.9814,-101.3819 419.9655,-91.0106 437.1081,-80.981"/>
</g>
<!-- 1217&#45;&#45;1218 -->
<g id="edge107" class="edge">
<title>1217&#45;&#45;1218</title>
<path fill="none" stroke="#ffa500" d="M355.1236,-87.4511C372.3197,-77.4503 401.1958,-67.1395 422.8821,-62.9716"/>
</g>
<!-- 1217&#45;&#45;1218 -->
<g id="edge108" class="edge">
<title>1217&#45;&#45;1218</title>
<path fill="none" stroke="#8fbc8f" d="M366.0445,-94.5278C384.0454,-88.3722 408.0948,-80.1483 426.0691,-74.0017"/>
</g>
<!-- 1219&#45;&#45;1216 -->
<g id="edge20" class="edge">
<title>1219&#45;&#45;1216</title>
<path fill="none" stroke="#0000ff" d="M414.933,-120.1385C411.5284,-105.9386 404.6144,-86.3693 398.1776,-72.5755"/>
</g>
<!-- 1219&#45;&#45;1216 -->
<g id="edge21" class="edge">
<title>1219&#45;&#45;1216</title>
<path fill="none" stroke="#ee82ee" d="M403.4633,-121.5187C397.0637,-107.7715 390.2067,-88.3597 386.8041,-74.2197"/>
</g>
<!-- 1219&#45;&#45;1217 -->
<g id="edge22" class="edge">
<title>1219&#45;&#45;1217</title>
<path fill="none" stroke="#0000ff" d="M398.4307,-123.5807C389.4172,-118.453 378.1752,-113.0632 367.9992,-108.9515"/>
</g>
<!-- 1219&#45;&#45;1217 -->
<g id="edge23" class="edge">
<title>1219&#45;&#45;1217</title>
<path fill="none" stroke="#ee82ee" d="M388.3307,-132.5495C378.1808,-128.455 366.9558,-123.0808 357.9329,-117.9591"/>
</g>
<!-- 1219&#45;&#45;1218 -->
<g id="edge24" class="edge">
<title>1219&#45;&#45;1218</title>
<path fill="none" stroke="#ee82ee" d="M424.0431,-120.9679C429.7062,-109.434 437.1279,-94.3186 442.804,-82.7582"/>
</g>
<!-- 1219&#45;&#45;1220 -->
<g id="edge25" class="edge">
<title>1219&#45;&#45;1220</title>
<path fill="none" stroke="#ee82ee" d="M388.9378,-144.877C367.7764,-150.152 338.301,-157.4994 317.0372,-162.8"/>
</g>
<!-- 1219&#45;&#45;1221 -->
<g id="edge26" class="edge">
<title>1219&#45;&#45;1221</title>
<path fill="none" stroke="#ee82ee" d="M438.3862,-149.2957C450.6059,-155.2149 465.6151,-162.4852 477.8445,-168.409"/>
</g>
<!-- 1219&#45;&#45;1222 -->
<g id="edge27" class="edge">
<title>1219&#45;&#45;1222</title>
<path fill="none" stroke="#ee82ee" d="M442.9288,-132.9416C454.4731,-130.7065 467.8842,-128.1099 479.4264,-125.8752"/>
</g>
<!-- 1219&#45;&#45;1223 -->
<g id="edge28" class="edge">
<title>1219&#45;&#45;1223</title>
<path fill="none" stroke="#0000ff" d="M406.3919,-155.5666C400.3251,-174.3968 393.9335,-204.3224 391.9415,-223.414"/>
</g>
<!-- 1219&#45;&#45;1223 -->
<g id="edge29" class="edge">
<title>1219&#45;&#45;1223</title>
<path fill="none" stroke="#ee82ee" d="M416.9424,-156.3658C414.9364,-175.459 408.5612,-205.2895 402.5083,-224.0803"/>
</g>
<!-- 1219&#45;&#45;1224 -->
<g id="edge30" class="edge">
<title>1219&#45;&#45;1224</title>
<path fill="none" stroke="#0000ff" d="M393.5877,-150.0829C385.2033,-156.9717 376.1028,-165.6564 369.3831,-173.2484"/>
</g>
<!-- 1219&#45;&#45;1224 -->
<g id="edge31" class="edge">
<title>1219&#45;&#45;1224</title>
<path fill="none" stroke="#ee82ee" d="M405.8018,-155.4336C399.0917,-162.9943 390.0487,-171.6164 381.7149,-178.4624"/>
</g>
<!-- 1220&#45;&#45;1216 -->
<g id="edge32" class="edge">
<title>1220&#45;&#45;1216</title>
<path fill="none" stroke="#ee82ee" d="M314.9237,-160.5109C332.2861,-153.1097 354.9282,-141.0846 369.6964,-124.2236 375.3932,-117.7195 375.4724,-114.9052 378.0356,-106.6476 381.3027,-96.1222 383.3057,-83.9338 384.5027,-74.1628"/>
</g>
<!-- 1220&#45;&#45;1216 -->
<g id="edge33" class="edge">
<title>1220&#45;&#45;1216</title>
<path fill="none" stroke="#ffa500" d="M311.3253,-157.1645C326.6221,-147.5747 347.1055,-133.2176 361.9628,-117.0963 366.9183,-111.7192 367.7185,-109.8574 370.8451,-103.2472 375.2602,-93.913 378.8931,-82.9695 381.507,-73.9764"/>
</g>
<!-- 1220&#45;&#45;1217 -->
<g id="edge34" class="edge">
<title>1220&#45;&#45;1217</title>
<path fill="none" stroke="#ee82ee" d="M313.5355,-158.8039C324.1783,-148.4744 335.051,-133.34 340.1632,-121.2477"/>
</g>
<!-- 1220&#45;&#45;1217 -->
<g id="edge35" class="edge">
<title>1220&#45;&#45;1217</title>
<path fill="none" stroke="#ffa500" d="M290.6188,-151.2268C295.7961,-139.1386 306.6424,-124.0916 317.2402,-113.8372"/>
</g>
<!-- 1220&#45;&#45;1217 -->
<g id="edge36" class="edge">
<title>1220&#45;&#45;1217</title>
<path fill="none" stroke="#0000ff" d="M302.5332,-153.1408C310.2639,-143.014 320.1558,-130.056 327.9248,-119.879"/>
</g>
<!-- 1220&#45;&#45;1218 -->
<g id="edge37" class="edge">
<title>1220&#45;&#45;1218</title>
<path fill="none" stroke="#ffa500" d="M310.1243,-156.5517C341.1238,-136.5339 400.2429,-98.3581 431.242,-78.3405"/>
</g>
<!-- 1220&#45;&#45;1221 -->
<g id="edge39" class="edge">
<title>1220&#45;&#45;1221</title>
<path fill="none" stroke="#ffa500" d="M318.8944,-169.7186C331.4707,-169.8751 346.3798,-170.1637 359.8232,-170.6949 398.765,-172.2336 443.6901,-175.2557 472.144,-177.325"/>
</g>
<!-- 1220&#45;&#45;1222 -->
<g id="edge40" class="edge">
<title>1220&#45;&#45;1222</title>
<path fill="none" stroke="#ffa500" d="M318.7583,-169.8755C349.009,-169.3816 397.5982,-166.1431 436.8959,-152.112 453.0653,-146.3388 470.6823,-138.3774 484.1823,-131.899"/>
</g>
<!-- 1220&#45;&#45;1223 -->
<g id="edge41" class="edge">
<title>1220&#45;&#45;1223</title>
<path fill="none" stroke="#ee82ee" d="M305.3628,-184.9836C313.5322,-192.937 323.9161,-202.6259 333.7755,-210.6177 347.8895,-222.0585 350.9779,-226.2787 367.1956,-233.9873"/>
</g>
<!-- 1220&#45;&#45;1223 -->
<g id="edge42" class="edge">
<title>1220&#45;&#45;1223</title>
<path fill="none" stroke="#ffa500" d="M308.8207,-183.1696C325.3328,-195.0559 350.1166,-212.6921 372.0786,-227.4957 372.5158,-227.7904 372.9586,-228.088 373.4054,-228.3875"/>
</g>
<!-- 1220&#45;&#45;1223 -->
<g id="edge43" class="edge">
<title>1220&#45;&#45;1223</title>
<path fill="none" stroke="#0000ff" d="M307.2915,-184.2847C315.8153,-191.4189 326.3417,-200.0177 336.0628,-207.3698 350.6386,-218.3933 353.9285,-221.8263 369.8299,-230.8329 369.9851,-230.9208 370.1411,-231.0085 370.2979,-231.096"/>
</g>
<!-- 1220&#45;&#45;1224 -->
<g id="edge44" class="edge">
<title>1220&#45;&#45;1224</title>
<path fill="none" stroke="#ee82ee" d="M303.2117,-185.6493C311.443,-190.1069 322.2787,-193.7487 332.2797,-195.5511"/>
</g>
<!-- 1220&#45;&#45;1224 -->
<g id="edge45" class="edge">
<title>1220&#45;&#45;1224</title>
<path fill="none" stroke="#ffa500" d="M317.6972,-164.3164C327.6229,-166.1281 338.3457,-169.7408 346.515,-174.1569"/>
</g>
<!-- 1220&#45;&#45;1224 -->
<g id="edge46" class="edge">
<title>1220&#45;&#45;1224</title>
<path fill="none" stroke="#0000ff" d="M315.9846,-177.2653C321.7158,-178.9714 327.7907,-180.7799 333.5318,-182.489"/>
</g>
<!-- 5208 -->
<g id="node12" class="node">
<title>5208</title>
<ellipse fill="#00407d" stroke="#00407d" cx="28.5975" cy="-208.7576" rx="28.6953" ry="18"/>
<text text-anchor="middle" x="28.5975" y="-205.0576" font-family="Times,serif" font-size="14.00" fill="#000000">5208</text>
</g>
<!-- 1220&#45;&#45;5208 -->
<g id="edge38" class="edge">
<title>1220&#45;&#45;5208</title>
<path fill="none" stroke="#0000ff" d="M262.0414,-173.7327C211.857,-181.2621 107.0926,-196.9805 56.768,-204.531"/>
</g>
<!-- 1221&#45;&#45;1215 -->
<g id="edge47" class="edge">
<title>1221&#45;&#45;1215</title>
<path fill="none" stroke="#0000ff" d="M526.5167,-187.7119C556.9881,-197.4218 607.3807,-213.4797 637.7994,-223.1728"/>
</g>
<!-- 1221&#45;&#45;1216 -->
<g id="edge48" class="edge">
<title>1221&#45;&#45;1216</title>
<path fill="none" stroke="#ee82ee" d="M491.0814,-162.5329C472.0415,-137.7052 430.0777,-92.3098 405.2792,-69.5533"/>
</g>
<!-- 1221&#45;&#45;1216 -->
<g id="edge49" class="edge">
<title>1221&#45;&#45;1216</title>
<path fill="none" stroke="#ffa500" d="M481.5078,-165.8589C456.7378,-143.1119 414.9477,-97.9058 395.8881,-73.0823"/>
</g>
<!-- 1221&#45;&#45;1217 -->
<g id="edge50" class="edge">
<title>1221&#45;&#45;1217</title>
<path fill="none" stroke="#ee82ee" d="M473.1017,-174.011C446.2873,-168.4009 407.6592,-159.4717 394.1902,-152.0867 385.8145,-147.4943 368.5341,-131.1503 355.876,-118.6287"/>
</g>
<!-- 1221&#45;&#45;1217 -->
<g id="edge51" class="edge">
<title>1221&#45;&#45;1217</title>
<path fill="none" stroke="#ffa500" d="M471.9778,-180.3264C450.0006,-180.6783 421.5982,-180.4393 410.4318,-177.3292 399.1365,-174.1831 396.3619,-171.947 387.5272,-164.2379 379.5349,-157.2638 363.4087,-135.4434 352.3354,-119.9089"/>
</g>
<!-- 1221&#45;&#45;1217 -->
<g id="edge52" class="edge">
<title>1221&#45;&#45;1217</title>
<path fill="none" stroke="#0000ff" d="M472.2198,-177.5663C454.8744,-175.9185 432.3778,-172.927 412.9834,-167.5846 402.6794,-164.7463 399.579,-164.3417 390.8587,-158.1623 382.6455,-152.3422 365.8208,-133.2389 353.9296,-119.2025"/>
</g>
<!-- 1221&#45;&#45;1218 -->
<g id="edge53" class="edge">
<title>1221&#45;&#45;1218</title>
<path fill="none" stroke="#ffa500" d="M493.0149,-161.6611C483.7375,-140.2185 468.2629,-104.4529 459.0097,-83.0662"/>
</g>
<!-- 1221&#45;&#45;1222 -->
<g id="edge54" class="edge">
<title>1221&#45;&#45;1222</title>
<path fill="none" stroke="#0000ff" d="M508.8178,-162.1388C510.2279,-154.7604 511.0948,-146.1572 511.1755,-138.6979"/>
</g>
<!-- 1221&#45;&#45;1222 -->
<g id="edge55" class="edge">
<title>1221&#45;&#45;1222</title>
<path fill="none" stroke="#ffa500" d="M496.3276,-161.5033C496.399,-154.102 497.2485,-145.5575 498.6374,-138.1958"/>
</g>
<!-- 1221&#45;&#45;1223 -->
<g id="edge56" class="edge">
<title>1221&#45;&#45;1223</title>
<path fill="none" stroke="#ee82ee" d="M472.3246,-182.8623C449.5512,-192.0285 419.1368,-210.1836 403.3346,-224.4969"/>
</g>
<!-- 1221&#45;&#45;1223 -->
<g id="edge57" class="edge">
<title>1221&#45;&#45;1223</title>
<path fill="none" stroke="#ffa500" d="M490.6381,-196.4998C474.7831,-210.8243 444.3669,-228.9636 421.6253,-238.0971"/>
</g>
<!-- 1221&#45;&#45;1223 -->
<g id="edge58" class="edge">
<title>1221&#45;&#45;1223</title>
<path fill="none" stroke="#0000ff" d="M479.5129,-191.7291C460.6848,-202.585 433.3231,-218.3611 414.5083,-229.2093"/>
</g>
<!-- 1221&#45;&#45;1224 -->
<g id="edge59" class="edge">
<title>1221&#45;&#45;1224</title>
<path fill="none" stroke="#ee82ee" d="M475.37,-170.8734C448.5526,-168.8495 406.706,-172.1699 381.3907,-178.4168"/>
</g>
<!-- 1221&#45;&#45;1224 -->
<g id="edge60" class="edge">
<title>1221&#45;&#45;1224</title>
<path fill="none" stroke="#ffa500" d="M479.17,-191.3542C453.8774,-197.6097 412.0074,-200.9386 385.161,-198.9201"/>
</g>
<!-- 1221&#45;&#45;1224 -->
<g id="edge61" class="edge">
<title>1221&#45;&#45;1224</title>
<path fill="none" stroke="#0000ff" d="M472.202,-181.6806C447.7429,-183.5543 412.6862,-186.2399 388.2394,-188.1126"/>
</g>
<!-- 1222&#45;&#45;1215 -->
<g id="edge62" class="edge">
<title>1222&#45;&#45;1215</title>
<path fill="none" stroke="#0000ff" d="M525.9867,-134.1632C556.0599,-155.423 613.924,-196.3292 644.0938,-217.6573"/>
</g>
<!-- 1222&#45;&#45;1216 -->
<g id="edge63" class="edge">
<title>1222&#45;&#45;1216</title>
<path fill="none" stroke="#ee82ee" d="M490.0614,-105.8613C469.9149,-92.7224 435.9339,-74.3805 412.3138,-63.7892"/>
</g>
<!-- 1222&#45;&#45;1216 -->
<g id="edge64" class="edge">
<title>1222&#45;&#45;1216</title>
<path fill="none" stroke="#ffa500" d="M480.6419,-112.8075C457.0226,-102.2197 423.0216,-83.8684 402.8641,-70.7231"/>
</g>
<!-- 1222&#45;&#45;1217 -->
<g id="edge65" class="edge">
<title>1222&#45;&#45;1217</title>
<path fill="none" stroke="#ee82ee" d="M485.0243,-108.6205C454.6227,-100.3892 399.5136,-94.5007 366.8774,-95.8878"/>
</g>
<!-- 1222&#45;&#45;1217 -->
<g id="edge66" class="edge">
<title>1222&#45;&#45;1217</title>
<path fill="none" stroke="#ffa500" d="M480.5006,-127.9071C447.7812,-129.2905 392.5222,-123.3722 362.1797,-115.1137"/>
</g>
<!-- 1222&#45;&#45;1217 -->
<g id="edge67" class="edge">
<title>1222&#45;&#45;1217</title>
<path fill="none" stroke="#0000ff" d="M478.2153,-117.5949C447.6943,-114.404 399.595,-109.3753 369.1105,-106.1883"/>
</g>
<!-- 1222&#45;&#45;1218 -->
<g id="edge68" class="edge">
<title>1222&#45;&#45;1218</title>
<path fill="none" stroke="#ffa500" d="M491.3342,-105.1978C483.6467,-97.5384 474.3801,-88.3057 466.704,-80.6576"/>
</g>
<!-- 1222&#45;&#45;1223 -->
<g id="edge69" class="edge">
<title>1222&#45;&#45;1223</title>
<path fill="none" stroke="#ee82ee" d="M483.3745,-131.1853C456.2109,-152.338 414.2639,-197.6436 398.5272,-223.4349"/>
</g>
<!-- 1222&#45;&#45;1223 -->
<g id="edge70" class="edge">
<title>1222&#45;&#45;1223</title>
<path fill="none" stroke="#ffa500" d="M501.6692,-138.4174C486.019,-164.1556 444.0385,-209.5225 416.821,-230.7445"/>
</g>
<!-- 1222&#45;&#45;1223 -->
<g id="edge71" class="edge">
<title>1222&#45;&#45;1223</title>
<path fill="none" stroke="#0000ff" d="M491.9431,-136.3779C470.2026,-159.5363 429.9106,-202.456 408.168,-225.6166"/>
</g>
<!-- 1222&#45;&#45;1224 -->
<g id="edge72" class="edge">
<title>1222&#45;&#45;1224</title>
<path fill="none" stroke="#ee82ee" d="M478.0688,-122.7562C446.2365,-132.7311 396.5298,-156.789 372.8608,-174.1079"/>
</g>
<!-- 1222&#45;&#45;1224 -->
<g id="edge73" class="edge">
<title>1222&#45;&#45;1224</title>
<path fill="none" stroke="#ffa500" d="M493.7591,-136.6988C470.1081,-154.0371 420.2487,-178.1713 388.3776,-188.1441"/>
</g>
<!-- 1222&#45;&#45;1224 -->
<g id="edge74" class="edge">
<title>1222&#45;&#45;1224</title>
<path fill="none" stroke="#0000ff" d="M483.8013,-131.4734C456.3427,-144.4938 410.6497,-166.1605 383.0486,-179.2484"/>
</g>
<!-- 1223&#45;&#45;1216 -->
<g id="edge75" class="edge">
<title>1223&#45;&#45;1216</title>
<path fill="none" stroke="#0000ff" d="M402.749,-224.3231C403.2162,-223.1539 403.5353,-222.1349 403.6356,-221.362 404.8518,-211.9823 386.3416,-147.6298 385.3651,-138.2222 384.1286,-126.3095 384.8498,-94.6651 385.4917,-74.3172"/>
</g>
<!-- 1223&#45;&#45;1216 -->
<g id="edge76" class="edge">
<title>1223&#45;&#45;1216</title>
<path fill="none" stroke="#ee82ee" d="M393.6143,-223.0404C393.5716,-222.6287 393.5241,-222.2208 393.4714,-221.818 388.5107,-183.9171 372.3908,-177.0484 370.7923,-138.8577 370.5265,-132.5068 377.7055,-96.5561 382.3318,-74.1768"/>
</g>
<!-- 1223&#45;&#45;1216 -->
<g id="edge77" class="edge">
<title>1223&#45;&#45;1216</title>
<path fill="none" stroke="#ffa500" d="M396.8742,-223.348C396.8842,-222.7819 396.8799,-222.2202 396.8595,-221.666 396.1559,-202.6375 376.8281,-157.6508 375.6499,-138.6458 374.8946,-126.4623 379.7042,-94.3903 383.0604,-73.9985"/>
</g>
<!-- 1223&#45;&#45;1216 -->
<g id="edge78" class="edge">
<title>1223&#45;&#45;1216</title>
<path fill="none" stroke="#8fbc8f" d="M399.8848,-223.7016C400.0888,-222.8417 400.2182,-222.0958 400.2475,-221.514 401.2023,-202.5618 382.0714,-157.3457 380.5075,-138.434 379.5097,-126.3684 382.2825,-94.3513 384.2824,-73.9832"/>
</g>
<!-- 1223&#45;&#45;1217 -->
<g id="edge79" class="edge">
<title>1223&#45;&#45;1217</title>
<path fill="none" stroke="#0000ff" d="M402.5488,-223.9557C402.9192,-223.0625 403.2681,-222.1705 403.5872,-221.2895 409.5142,-204.9242 416.6542,-199.9558 412.2901,-183.1062 410.2133,-175.088 376.4218,-139.6297 356.0229,-118.7667"/>
</g>
<!-- 1223&#45;&#45;1217 -->
<g id="edge80" class="edge">
<title>1223&#45;&#45;1217</title>
<path fill="none" stroke="#ee82ee" d="M394.2697,-222.981C394.2404,-213.0916 393.3384,-200.8043 389.9501,-190.3405 385.2967,-175.9695 364.2168,-140.9224 351.1899,-119.9449"/>
</g>
<!-- 1223&#45;&#45;1217 -->
<g id="edge81" class="edge">
<title>1223&#45;&#45;1217</title>
<path fill="none" stroke="#ffa500" d="M397.9033,-223.1844C399.7544,-212.6896 400.7637,-199.3416 397.3968,-187.9291 395.1698,-180.3808 368.6322,-142.4115 352.6676,-119.9747"/>
</g>
<!-- 1223&#45;&#45;1217 -->
<g id="edge82" class="edge">
<title>1223&#45;&#45;1217</title>
<path fill="none" stroke="#8fbc8f" d="M399.6728,-223.621C399.8671,-222.8962 400.0491,-222.1758 400.2153,-221.4656 403.8862,-205.7808 409.0961,-201.0549 404.8434,-185.5177 402.7165,-177.7471 372.5424,-141.0284 354.3524,-119.3743"/>
</g>
<!-- 1223&#45;&#45;1218 -->
<g id="edge83" class="edge">
<title>1223&#45;&#45;1218</title>
<path fill="none" stroke="#ee82ee" d="M406.2008,-225.1021C425.9916,-199.799 461.9794,-152.8727 464.2053,-143.4293 466.8336,-132.2792 460.5703,-102.4944 455.8978,-83.1323"/>
</g>
<!-- 1223&#45;&#45;1218 -->
<g id="edge84" class="edge">
<title>1223&#45;&#45;1218</title>
<path fill="none" stroke="#ffa500" d="M403.2013,-224.0706C416.9698,-199.5434 440.8828,-155.6523 445.76,-138.258 448.5491,-128.3105 450.0513,-101.5164 450.7746,-83.3616"/>
</g>
<!-- 1223&#45;&#45;1218 -->
<g id="edge85" class="edge">
<title>1223&#45;&#45;1218</title>
<path fill="none" stroke="#8fbc8f" d="M404.4326,-224.5485C421.5134,-198.4084 452.6329,-150.0112 454.9827,-140.8436 457.6504,-130.4355 455.4127,-102.424 453.4598,-83.635"/>
</g>
<!-- 1223&#45;&#45;1224 -->
<g id="edge86" class="edge">
<title>1223&#45;&#45;1224</title>
<path fill="none" stroke="#0000ff" d="M400.691,-223.838C399.8079,-214.426 394.2328,-203.8944 386.8446,-196.6261"/>
</g>
<!-- 1223&#45;&#45;1224 -->
<g id="edge87" class="edge">
<title>1223&#45;&#45;1224</title>
<path fill="none" stroke="#ee82ee" d="M366.343,-235.1852C358.8958,-227.905 353.2694,-217.3036 352.3928,-207.8402"/>
</g>
<!-- 1223&#45;&#45;1224 -->
<g id="edge88" class="edge">
<title>1223&#45;&#45;1224</title>
<path fill="none" stroke="#ffa500" d="M375.9736,-226.8143C371.6956,-221.0791 367.4745,-214.464 364.2714,-208.4325"/>
</g>
<!-- 1223&#45;&#45;1224 -->
<g id="edge89" class="edge">
<title>1223&#45;&#45;1224</title>
<path fill="none" stroke="#8fbc8f" d="M388.9454,-223.5255C385.6991,-217.3754 381.375,-210.5947 377.0004,-204.7471"/>
</g>
<!-- 1224&#45;&#45;1216 -->
<g id="edge90" class="edge">
<title>1224&#45;&#45;1216</title>
<path fill="none" stroke="#0000ff" d="M376.9914,-175.7335C390.6074,-150.5971 400.3054,-99.5149 396.1826,-72.8737"/>
</g>
<!-- 1224&#45;&#45;1216 -->
<g id="edge91" class="edge">
<title>1224&#45;&#45;1216</title>
<path fill="none" stroke="#ee82ee" d="M349.7123,-173.3945C345.5966,-146.7232 355.3127,-95.6022 368.9425,-70.4971"/>
</g>
<!-- 1224&#45;&#45;1216 -->
<g id="edge92" class="edge">
<title>1224&#45;&#45;1216</title>
<path fill="none" stroke="#ffa500" d="M358.5351,-172.1062C360.8824,-146.2267 370.0986,-99.115 377.7713,-73.5757"/>
</g>
<!-- 1224&#45;&#45;1216 -->
<g id="edge93" class="edge">
<title>1224&#45;&#45;1216</title>
<path fill="none" stroke="#8fbc8f" d="M368.0937,-172.8322C375.7693,-147.3317 385.004,-100.1528 387.3604,-74.2268"/>
</g>
<!-- 1224&#45;&#45;1217 -->
<g id="edge94" class="edge">
<title>1224&#45;&#45;1217</title>
<path fill="none" stroke="#0000ff" d="M371.53,-173.8485C374.5186,-157.1346 369.3975,-131.7802 360.2393,-116.3493"/>
</g>
<!-- 1224&#45;&#45;1217 -->
<g id="edge95" class="edge">
<title>1224&#45;&#45;1217</title>
<path fill="none" stroke="#ee82ee" d="M340.0755,-177.0134C330.9899,-161.6009 325.9121,-136.4249 328.852,-119.7623"/>
</g>
<!-- 1224&#45;&#45;1217 -->
<g id="edge96" class="edge">
<title>1224&#45;&#45;1217</title>
<path fill="none" stroke="#ffa500" d="M350.196,-173.0347C345.3435,-158.0865 340.6728,-136.5505 339.0194,-121.3511"/>
</g>
<!-- 1224&#45;&#45;1217 -->
<g id="edge97" class="edge">
<title>1224&#45;&#45;1217</title>
<path fill="none" stroke="#8fbc8f" d="M361.3541,-171.9108C359.6739,-156.6935 355.0112,-135.25 350.1738,-120.3784"/>
</g>
<!-- 1224&#45;&#45;1218 -->
<g id="edge98" class="edge">
<title>1224&#45;&#45;1218</title>
<path fill="none" stroke="#ee82ee" d="M367.1715,-172.7603C377.9608,-148.9965 400.0505,-106.3057 429.9172,-79.1661 430.3087,-78.8103 430.7105,-78.4576 431.1206,-78.1085"/>
</g>
<!-- 1224&#45;&#45;1218 -->
<g id="edge99" class="edge">
<title>1224&#45;&#45;1218</title>
<path fill="none" stroke="#ffa500" d="M362.872,-172.176C365.1682,-160.4112 368.7273,-144.8263 373.509,-131.5412 376.2312,-123.9779 376.8662,-121.8729 381.5529,-115.3422 397.1519,-93.6063 400.9137,-86.1351 424.0613,-72.7196 424.3151,-72.5725 424.6048,-72.4231 424.9266,-72.2718"/>
</g>
<!-- 1224&#45;&#45;1218 -->
<g id="edge100" class="edge">
<title>1224&#45;&#45;1218</title>
<path fill="none" stroke="#8fbc8f" d="M365.2272,-172.4556C368.8142,-161.4519 373.8661,-147.1274 379.437,-134.8817 393.3744,-104.2453 399.7292,-95.6844 426.9892,-75.9428 427.138,-75.8351 427.2881,-75.7281 427.4394,-75.6219"/>
</g>
<!-- Cluster 39 -->
<g id="node13" class="node">
<title>Cluster 39</title>
<polygon fill="none" stroke="#000000" points="320,-302 247,-302 247,-266 320,-266 320,-302"/>
<text text-anchor="middle" x="283.5" y="-280.3" font-family="Times,serif" font-size="14.00" fill="#000000">Cluster 39</text>
</g>
<!-- web -->
<g id="node14" class="node">
<title>web</title>
<polygon fill="none" stroke="#ffa500" points="567,-36 513,-36 513,0 567,0 567,-36"/>
<text text-anchor="middle" x="540" y="-14.3" font-family="Times,serif" font-size="14.00" fill="#000000">web</text>
</g>
<!-- mail -->
<g id="node15" class="node">
<title>mail</title>
<polygon fill="none" stroke="#0000ff" points="453,-340 399,-340 399,-304 453,-304 453,-340"/>
<text text-anchor="middle" x="426" y="-318.3" font-family="Times,serif" font-size="14.00" fill="#000000">mail</text>
</g>
<!-- p993&#45;p443 -->
<g id="node16" class="node">
<title>p993&#45;p443</title>
<polygon fill="none" stroke="#8fbc8f" points="569,-321 494,-321 494,-285 569,-285 569,-321"/>
<text text-anchor="middle" x="531.5" y="-299.3" font-family="Times,serif" font-size="14.00" fill="#000000">p993&#45;p443</text>
</g>
<!-- p443&#45;p25 -->
<g id="node17" class="node">
<title>p443&#45;p25</title>
<polygon fill="none" stroke="#ee82ee" points="296,-55 228,-55 228,-19 296,-19 296,-55"/>
<text text-anchor="middle" x="262" y="-33.3" font-family="Times,serif" font-size="14.00" fill="#000000">p443&#45;p25</text>
</g>
</g>
</svg>
