<?xml version="1.0" encoding="UTF-8" standalone="no"?>
<!DOCTYPE svg PUBLIC "-//W3C//DTD SVG 1.1//EN"
 "http://www.w3.org/Graphics/SVG/1.1/DTD/svg11.dtd">
<!-- Generated by graphviz version 2.40.1 (20161225.0304)
 -->
<!-- Title: %3 Pages: 1 -->
<svg width="427pt" height="395pt"
 viewBox="0.00 0.00 427.00 395.00" xmlns="http://www.w3.org/2000/svg" xmlns:xlink="http://www.w3.org/1999/xlink">
<g id="graph0" class="graph" transform="scale(1 1) rotate(0) translate(4 391)">
<title>%3</title>
<polygon fill="#ffffff" stroke="transparent" points="-4,4 -4,-391 423,-391 423,4 -4,4"/>
<!-- 3000 -->
<g id="node1" class="node">
<title>3000</title>
<ellipse fill="#00407d" stroke="#00407d" cx="133.5975" cy="-135.7968" rx="28.6953" ry="18"/>
<text text-anchor="middle" x="133.5975" y="-132.0968" font-family="Times,serif" font-size="14.00" fill="#000000">3000</text>
</g>
<!-- 3001 -->
<g id="node2" class="node">
<title>3001</title>
<ellipse fill="#003dbe" stroke="#003dbe" cx="198.7989" cy="-92" rx="28.6953" ry="18"/>
<text text-anchor="middle" x="198.7989" y="-88.3" font-family="Times,serif" font-size="14.00" fill="#000000">3001</text>
</g>
<!-- 3000&#45;&#45;3001 -->
<g id="edge1" class="edge">
<title>3000&#45;&#45;3001</title>
<path fill="none" stroke="#0000ff" d="M157.931,-145.5274C176.5453,-143.2729 197.6835,-127.1088 201.8546,-110.1276"/>
</g>
<!-- 3000&#45;&#45;3001 -->
<g id="edge2" class="edge">
<title>3000&#45;&#45;3001</title>
<path fill="none" stroke="#ffebcd" d="M130.5289,-117.722C134.689,-100.64 156.0352,-84.3709 174.7333,-82.2379"/>
</g>
<!-- 3000&#45;&#45;3001 -->
<g id="edge3" class="edge">
<title>3000&#45;&#45;3001</title>
<path fill="none" stroke="#dc143c" d="M140.3414,-118.0066C147.8034,-109.8722 159.5379,-101.3025 170.6389,-95.5931"/>
</g>
<!-- 3000&#45;&#45;3001 -->
<g id="edge4" class="edge">
<title>3000&#45;&#45;3001</title>
<path fill="none" stroke="#ee82ee" d="M153.16,-122.6563C161.2624,-117.2139 170.6511,-110.9073 178.7988,-105.4344"/>
</g>
<!-- 3000&#45;&#45;3001 -->
<g id="edge5" class="edge">
<title>3000&#45;&#45;3001</title>
<path fill="none" stroke="#a52a2a" d="M161.6726,-132.2473C172.7612,-126.5572 184.4948,-118.0031 191.9794,-109.8725"/>
</g>
<!-- 3002 -->
<g id="node3" class="node">
<title>3002</title>
<ellipse fill="#00201c" stroke="#00201c" cx="274.4769" cy="-205.0707" rx="28.6953" ry="18"/>
<text text-anchor="middle" x="274.4769" y="-201.3707" font-family="Times,serif" font-size="14.00" fill="#000000">3002</text>
</g>
<!-- 3000&#45;&#45;3002 -->
<g id="edge6" class="edge">
<title>3000&#45;&#45;3002</title>
<path fill="none" stroke="#0000ff" d="M137.1933,-154.0706C154.4089,-179.1265 213.5044,-209.5766 248.7725,-213.1112"/>
</g>
<!-- 3000&#45;&#45;3002 -->
<g id="edge7" class="edge">
<title>3000&#45;&#45;3002</title>
<path fill="none" stroke="#ffebcd" d="M159.3517,-127.7613C194.7818,-131.3353 254.1968,-162.0228 271.1071,-187.1292"/>
</g>
<!-- 3000&#45;&#45;3002 -->
<g id="edge8" class="edge">
<title>3000&#45;&#45;3002</title>
<path fill="none" stroke="#dc143c" d="M162.0999,-138.185C192.6617,-148.1956 239.5312,-171.7511 261.9669,-188.8178"/>
</g>
<!-- 3000&#45;&#45;3002 -->
<g id="edge9" class="edge">
<title>3000&#45;&#45;3002</title>
<path fill="none" stroke="#ee82ee" d="M156.2322,-146.9269C182.5218,-159.8541 225.6327,-181.0528 251.8983,-193.9682"/>
</g>
<!-- 3000&#45;&#45;3002 -->
<g id="edge10" class="edge">
<title>3000&#45;&#45;3002</title>
<path fill="none" stroke="#a52a2a" d="M146.2919,-152.1897C168.7772,-169.2283 215.405,-192.6534 245.8851,-202.6533"/>
</g>
<!-- 3003 -->
<g id="node4" class="node">
<title>3003</title>
<ellipse fill="#001f8b" stroke="#001f8b" cx="269.5444" cy="-127.1883" rx="28.6953" ry="18"/>
<text text-anchor="middle" x="269.5444" y="-123.4883" font-family="Times,serif" font-size="14.00" fill="#000000">3003</text>
</g>
<!-- 3000&#45;&#45;3003 -->
<g id="edge11" class="edge">
<title>3000&#45;&#45;3003</title>
<path fill="none" stroke="#0000ff" d="M138.1177,-153.8989C159.9363,-200.2439 251.9644,-194.3161 267.4421,-145.4086"/>
</g>
<!-- 3000&#45;&#45;3003 -->
<g id="edge12" class="edge">
<title>3000&#45;&#45;3003</title>
<path fill="none" stroke="#ee82ee" d="M135.6858,-117.6205C151.1509,-68.5818 243.5408,-62.7054 265.1449,-109.3447"/>
</g>
<!-- 3000&#45;&#45;3003 -->
<g id="edge13" class="edge">
<title>3000&#45;&#45;3003</title>
<path fill="none" stroke="#ffebcd" d="M138.1611,-117.992C158.2414,-86.1177 237.9252,-80.9217 262.413,-109.6735"/>
</g>
<!-- 3000&#45;&#45;3003 -->
<g id="edge14" class="edge">
<title>3000&#45;&#45;3003</title>
<path fill="none" stroke="#ff7f50" d="M144.6388,-118.8774C169.2123,-103.0532 228.2862,-99.1377 255.4609,-111.3356"/>
</g>
<!-- 3000&#45;&#45;3003 -->
<g id="edge15" class="edge">
<title>3000&#45;&#45;3003</title>
<path fill="none" stroke="#dc143c" d="M155.3934,-124.0633C179.7184,-118.3946 219.0028,-115.8063 244.5531,-118.1155"/>
</g>
<!-- 3000&#45;&#45;3003 -->
<g id="edge16" class="edge">
<title>3000&#45;&#45;3003</title>
<path fill="none" stroke="#bdb76b" d="M162.0964,-133.9922C185.2985,-132.523 217.891,-130.4591 241.083,-128.9906"/>
</g>
<!-- 3000&#45;&#45;3003 -->
<g id="edge17" class="edge">
<title>3000&#45;&#45;3003</title>
<path fill="none" stroke="#ffa500" d="M158.5739,-144.8683C184.024,-147.1708 223.1119,-144.6118 247.4627,-138.9881"/>
</g>
<!-- 3000&#45;&#45;3003 -->
<g id="edge18" class="edge">
<title>3000&#45;&#45;3003</title>
<path fill="none" stroke="#a52a2a" d="M147.689,-151.6531C174.8844,-163.8544 234.007,-159.9254 258.5498,-144.0776"/>
</g>
<!-- 3000&#45;&#45;3003 -->
<g id="edge19" class="edge">
<title>3000&#45;&#45;3003</title>
<path fill="none" stroke="#8fbc8f" d="M140.9417,-153.5591C165.5804,-181.9247 244.3542,-176.8153 264.749,-145.3557"/>
</g>
<!-- 3004 -->
<g id="node5" class="node">
<title>3004</title>
<ellipse fill="#001f8b" stroke="#001f8b" cx="138.8161" cy="-213.5606" rx="28.6953" ry="18"/>
<text text-anchor="middle" x="138.8161" y="-209.8606" font-family="Times,serif" font-size="14.00" fill="#000000">3004</text>
</g>
<!-- 3000&#45;&#45;3004 -->
<g id="edge20" class="edge">
<title>3000&#45;&#45;3004</title>
<path fill="none" stroke="#0000ff" d="M105.2967,-139.1867C18.1498,-154.8641 21.8052,-210.0295 110.1757,-213.9763"/>
</g>
<!-- 3000&#45;&#45;3004 -->
<g id="edge21" class="edge">
<title>3000&#45;&#45;3004</title>
<path fill="none" stroke="#ffebcd" d="M162.4072,-135.3888C250.6702,-139.401 254.2127,-194.5748 166.9475,-210.2011"/>
</g>
<!-- 3000&#45;&#45;3004 -->
<g id="edge22" class="edge">
<title>3000&#45;&#45;3004</title>
<path fill="none" stroke="#dc143c" d="M162.2237,-135.9651C232.8027,-142.3165 236.2047,-193.951 166.9765,-209.6113"/>
</g>
<!-- 3000&#45;&#45;3004 -->
<g id="edge23" class="edge">
<title>3000&#45;&#45;3004</title>
<path fill="none" stroke="#ee82ee" d="M162.4801,-137.0174C215.1929,-146.1529 218.0383,-193.0226 166.395,-208.7652"/>
</g>
<!-- 3000&#45;&#45;3004 -->
<g id="edge24" class="edge">
<title>3000&#45;&#45;3004</title>
<path fill="none" stroke="#a52a2a" d="M162.0543,-138.8923C197.6255,-150.7152 200.0457,-191.004 165.7799,-207.0855"/>
</g>
<!-- 3000&#45;&#45;3004 -->
<g id="edge25" class="edge">
<title>3000&#45;&#45;3004</title>
<path fill="none" stroke="#7fff00" d="M160.3193,-142.3631C180.658,-156.2691 182.4785,-188.3314 163.4824,-204.2999"/>
</g>
<!-- 3000&#45;&#45;3004 -->
<g id="edge26" class="edge">
<title>3000&#45;&#45;3004</title>
<path fill="none" stroke="#00ffff" d="M155.3039,-147.5911C164.6848,-161.761 166.0301,-185.4179 158.1096,-200.2344"/>
</g>
<!-- 3000&#45;&#45;3004 -->
<g id="edge27" class="edge">
<title>3000&#45;&#45;3004</title>
<path fill="none" stroke="#ff7f50" d="M146.17,-152.2891C149.8789,-165.3446 151.0152,-183.5033 148.901,-196.663"/>
</g>
<!-- 3000&#45;&#45;3004 -->
<g id="edge28" class="edge">
<title>3000&#45;&#45;3004</title>
<path fill="none" stroke="#000000" d="M134.8078,-153.8329C135.6449,-166.3061 136.7547,-182.8428 137.5942,-195.353"/>
</g>
<!-- 3000&#45;&#45;3004 -->
<g id="edge29" class="edge">
<title>3000&#45;&#45;3004</title>
<path fill="none" stroke="#000000" d="M123.5184,-152.6585C121.3916,-165.85 122.5363,-184.0809 126.2681,-197.1545"/>
</g>
<!-- 3000&#45;&#45;3004 -->
<g id="edge30" class="edge">
<title>3000&#45;&#45;3004</title>
<path fill="none" stroke="#bdb76b" d="M114.2083,-149.3033C106.4258,-164.0715 107.7559,-187.4657 116.998,-201.5965"/>
</g>
<!-- 3000&#45;&#45;3004 -->
<g id="edge31" class="edge">
<title>3000&#45;&#45;3004</title>
<path fill="none" stroke="#e9967a" d="M108.7133,-145.2422C89.9864,-161.2403 91.8263,-193.0157 111.9743,-206.9119"/>
</g>
<!-- 3000&#45;&#45;3004 -->
<g id="edge32" class="edge">
<title>3000&#45;&#45;3004</title>
<path fill="none" stroke="#ffa500" d="M106.6663,-142.2566C72.3033,-158.3575 74.7858,-198.7868 110.5559,-210.5301"/>
</g>
<!-- 3000&#45;&#45;3004 -->
<g id="edge33" class="edge">
<title>3000&#45;&#45;3004</title>
<path fill="none" stroke="#8fbc8f" d="M105.9256,-140.6206C54.3519,-156.3994 57.2553,-203.2588 110.0158,-212.3542"/>
</g>
<!-- 3000&#45;&#45;3004 -->
<g id="edge34" class="edge">
<title>3000&#45;&#45;3004</title>
<path fill="none" stroke="#b03060" d="M105.5021,-139.7315C36.3052,-155.352 39.5793,-206.8923 109.8894,-213.365"/>
</g>
<!-- 3005 -->
<g id="node6" class="node">
<title>3005</title>
<ellipse fill="#001f8b" stroke="#001f8b" cx="208.5749" cy="-248.7111" rx="28.6953" ry="18"/>
<text text-anchor="middle" x="208.5749" y="-245.0111" font-family="Times,serif" font-size="14.00" fill="#000000">3005</text>
</g>
<!-- 3000&#45;&#45;3005 -->
<g id="edge35" class="edge">
<title>3000&#45;&#45;3005</title>
<path fill="none" stroke="#0000ff" d="M126.6855,-153.426C127.837,-179.9586 155.9102,-224.8294 181.0178,-243.0285"/>
</g>
<!-- 3000&#45;&#45;3005 -->
<g id="edge36" class="edge">
<title>3000&#45;&#45;3005</title>
<path fill="none" stroke="#ffebcd" d="M160.9215,-141.3112C186.0334,-159.3613 214.209,-204.2713 215.4789,-230.9081"/>
</g>
<!-- 3000&#45;&#45;3005 -->
<g id="edge37" class="edge">
<title>3000&#45;&#45;3005</title>
<path fill="none" stroke="#dc143c" d="M154.5862,-148.7266C173.6629,-169.0934 198.7412,-207.658 207.4272,-230.6952"/>
</g>
<!-- 3000&#45;&#45;3005 -->
<g id="edge38" class="edge">
<title>3000&#45;&#45;3005</title>
<path fill="none" stroke="#ee82ee" d="M144.6606,-152.4577C158.8364,-173.806 183.2688,-210.6007 197.4663,-231.9819"/>
</g>
<!-- 3000&#45;&#45;3005 -->
<g id="edge39" class="edge">
<title>3000&#45;&#45;3005</title>
<path fill="none" stroke="#a52a2a" d="M134.8069,-153.976C143.5926,-177.1458 168.8021,-215.843 187.868,-236.0814"/>
</g>
<!-- 3001&#45;&#45;3002 -->
<g id="edge40" class="edge">
<title>3001&#45;&#45;3002</title>
<path fill="none" stroke="#0000ff" d="M209.9655,-108.684C224.2736,-130.0618 248.9343,-166.9074 263.2645,-188.3183"/>
</g>
<!-- 3001&#45;&#45;3003 -->
<g id="edge41" class="edge">
<title>3001&#45;&#45;3003</title>
<path fill="none" stroke="#0000ff" d="M215.0597,-106.8534C223.2287,-111.7801 233.3157,-116.9378 242.5917,-120.9692"/>
</g>
<!-- 3001&#45;&#45;3003 -->
<g id="edge42" class="edge">
<title>3001&#45;&#45;3003</title>
<path fill="none" stroke="#ee82ee" d="M226.0178,-98.3351C235.1948,-102.338 245.1377,-107.4272 253.2166,-112.2945"/>
</g>
<!-- 3001&#45;&#45;3004 -->
<g id="edge43" class="edge">
<title>3001&#45;&#45;3004</title>
<path fill="none" stroke="#0000ff" d="M173.0793,-100.3269C150.4071,-120.9392 127.8785,-169.2151 129.6566,-196.1859"/>
</g>
<!-- 3001&#45;&#45;3004 -->
<g id="edge44" class="edge">
<title>3001&#45;&#45;3004</title>
<path fill="none" stroke="#ffebcd" d="M207.9423,-109.1394C209.8675,-136.0592 187.2816,-184.545 164.5472,-205.2233"/>
</g>
<!-- 3001&#45;&#45;3004 -->
<g id="edge45" class="edge">
<title>3001&#45;&#45;3004</title>
<path fill="none" stroke="#dc143c" d="M199.9153,-110.1865C194.0529,-134.7071 173.3777,-177.3355 156.8995,-199.5465"/>
</g>
<!-- 3001&#45;&#45;3004 -->
<g id="edge46" class="edge">
<title>3001&#45;&#45;3004</title>
<path fill="none" stroke="#ee82ee" d="M190.2048,-109.4167C178.8021,-132.5253 158.7889,-173.0839 147.3943,-196.1763"/>
</g>
<!-- 3001&#45;&#45;3004 -->
<g id="edge47" class="edge">
<title>3001&#45;&#45;3004</title>
<path fill="none" stroke="#a52a2a" d="M180.7044,-106.0292C164.202,-128.2794 143.4955,-170.9937 137.6721,-195.4901"/>
</g>
<!-- 3001&#45;&#45;3005 -->
<g id="edge48" class="edge">
<title>3001&#45;&#45;3005</title>
<path fill="none" stroke="#0000ff" d="M199.9395,-110.2835C201.8232,-140.4801 205.5627,-200.4242 207.4416,-230.5441"/>
</g>
<!-- 3002&#45;&#45;3003 -->
<g id="edge71" class="edge">
<title>3002&#45;&#45;3003</title>
<path fill="none" stroke="#0000ff" d="M279.1069,-187.0338C279.6148,-174.2948 278.5462,-157.3145 276.4461,-144.6953"/>
</g>
<!-- 3002&#45;&#45;3003 -->
<g id="edge72" class="edge">
<title>3002&#45;&#45;3003</title>
<path fill="none" stroke="#ee82ee" d="M267.5437,-187.3738C265.451,-174.6933 264.3955,-157.6828 264.9243,-144.9807"/>
</g>
<!-- 3004&#45;&#45;3002 -->
<g id="edge49" class="edge">
<title>3004&#45;&#45;3002</title>
<path fill="none" stroke="#0000ff" d="M152.8679,-229.4291C179.9977,-241.654 238.9959,-237.7765 263.4957,-221.9502"/>
</g>
<!-- 3004&#45;&#45;3002 -->
<g id="edge50" class="edge">
<title>3004&#45;&#45;3002</title>
<path fill="none" stroke="#ffebcd" d="M149.844,-196.651C174.3743,-180.8483 233.324,-176.9843 260.4331,-189.2058"/>
</g>
<!-- 3004&#45;&#45;3002 -->
<g id="edge51" class="edge">
<title>3004&#45;&#45;3002</title>
<path fill="none" stroke="#dc143c" d="M160.5724,-201.8462C184.8487,-196.1987 224.0505,-193.6447 249.5446,-195.9762"/>
</g>
<!-- 3004&#45;&#45;3002 -->
<g id="edge52" class="edge">
<title>3004&#45;&#45;3002</title>
<path fill="none" stroke="#ee82ee" d="M167.5863,-211.7601C190.6084,-210.3194 222.7371,-208.3087 245.7482,-206.8686"/>
</g>
<!-- 3004&#45;&#45;3002 -->
<g id="edge53" class="edge">
<title>3004&#45;&#45;3002</title>
<path fill="none" stroke="#a52a2a" d="M163.7336,-222.6538C189.1277,-224.9785 228.1334,-222.4536 252.4354,-216.8511"/>
</g>
<!-- 3004&#45;&#45;3003 -->
<g id="edge54" class="edge">
<title>3004&#45;&#45;3003</title>
<path fill="none" stroke="#0000ff" d="M155.0962,-228.4172C200.0868,-251.9014 284.0431,-195.3454 276.4795,-144.9611"/>
</g>
<!-- 3004&#45;&#45;3003 -->
<g id="edge55" class="edge">
<title>3004&#45;&#45;3003</title>
<path fill="none" stroke="#ee82ee" d="M131.8742,-195.742C124.3678,-145.3656 208.2995,-88.8465 253.2741,-112.3369"/>
</g>
<!-- 3004&#45;&#45;3003 -->
<g id="edge56" class="edge">
<title>3004&#45;&#45;3003</title>
<path fill="none" stroke="#ffebcd" d="M134.5983,-195.6823C138.3788,-157.9912 208.4926,-109.7968 248.3466,-114.9185"/>
</g>
<!-- 3004&#45;&#45;3003 -->
<g id="edge57" class="edge">
<title>3004&#45;&#45;3003</title>
<path fill="none" stroke="#ff7f50" d="M139.7938,-195.5037C153.0579,-168.7966 207.0134,-131.357 241.7761,-122.7504"/>
</g>
<!-- 3004&#45;&#45;3003 -->
<g id="edge58" class="edge">
<title>3004&#45;&#45;3003</title>
<path fill="none" stroke="#dc143c" d="M148.4189,-196.5907C168.2473,-176.7357 212.7776,-146.7195 242.1245,-132.8944"/>
</g>
<!-- 3004&#45;&#45;3003 -->
<g id="edge59" class="edge">
<title>3004&#45;&#45;3003</title>
<path fill="none" stroke="#bdb76b" d="M158.6709,-200.4425C183.242,-184.2084 224.8457,-156.7208 249.5027,-140.4299"/>
</g>
<!-- 3004&#45;&#45;3003 -->
<g id="edge60" class="edge">
<title>3004&#45;&#45;3003</title>
<path fill="none" stroke="#ffa500" d="M166.0991,-207.9189C195.3505,-194.167 239.7974,-164.2361 259.7506,-144.349"/>
</g>
<!-- 3004&#45;&#45;3003 -->
<g id="edge61" class="edge">
<title>3004&#45;&#45;3003</title>
<path fill="none" stroke="#a52a2a" d="M166.6716,-217.9769C201.462,-209.3232 255.3903,-171.8768 268.595,-145.1883"/>
</g>
<!-- 3004&#45;&#45;3003 -->
<g id="edge62" class="edge">
<title>3004&#45;&#45;3003</title>
<path fill="none" stroke="#8fbc8f" d="M159.8133,-225.8042C199.6161,-231.1119 269.9186,-182.8601 273.7576,-145.1123"/>
</g>
<!-- 3004&#45;&#45;3005 -->
<g id="edge63" class="edge">
<title>3004&#45;&#45;3005</title>
<path fill="none" stroke="#0000ff" d="M137.9833,-231.8582C144.3924,-248.8401 168.9054,-262.6277 187.9603,-261.3485"/>
</g>
<!-- 3004&#45;&#45;3005 -->
<g id="edge64" class="edge">
<title>3004&#45;&#45;3005</title>
<path fill="none" stroke="#ffebcd" d="M159.2305,-200.9373C178.3812,-199.5425 203.1513,-213.4704 209.4755,-230.5951"/>
</g>
<!-- 3004&#45;&#45;3005 -->
<g id="edge65" class="edge">
<title>3004&#45;&#45;3005</title>
<path fill="none" stroke="#dc143c" d="M167.8078,-213.8281C179.0189,-218.0113 191.0241,-224.6717 199.2079,-231.4836"/>
</g>
<!-- 3004&#45;&#45;3005 -->
<g id="edge66" class="edge">
<title>3004&#45;&#45;3005</title>
<path fill="none" stroke="#ee82ee" d="M161.2722,-224.876C169.2381,-228.8899 178.1985,-233.4049 186.1609,-237.417"/>
</g>
<!-- 3004&#45;&#45;3005 -->
<g id="edge67" class="edge">
<title>3004&#45;&#45;3005</title>
<path fill="none" stroke="#a52a2a" d="M148.2369,-230.8328C156.4915,-237.6891 168.608,-244.3866 179.8788,-248.5534"/>
</g>
<!-- 3005&#45;&#45;3002 -->
<g id="edge68" class="edge">
<title>3005&#45;&#45;3002</title>
<path fill="none" stroke="#0000ff" d="M228.3477,-235.6176C236.6887,-230.0941 246.3785,-223.6775 254.7181,-218.155"/>
</g>
<!-- 3005&#45;&#45;3003 -->
<g id="edge69" class="edge">
<title>3005&#45;&#45;3003</title>
<path fill="none" stroke="#0000ff" d="M222.1561,-232.7523C236.2243,-210.1397 256.7602,-169.0299 265.7625,-145.3027"/>
</g>
<!-- 3005&#45;&#45;3003 -->
<g id="edge70" class="edge">
<title>3005&#45;&#45;3003</title>
<path fill="none" stroke="#ee82ee" d="M212.3167,-230.7025C221.2882,-207.0178 241.829,-165.8836 255.9169,-143.2217"/>
</g>
<!-- Cluster 213 -->
<g id="node7" class="node">
<title>Cluster 213</title>
<polygon fill="none" stroke="#000000" points="341,-279 261,-279 261,-243 341,-243 341,-279"/>
<text text-anchor="middle" x="301" y="-257.3" font-family="Times,serif" font-size="14.00" fill="#000000">Cluster 213</text>
</g>
<!-- p443&#45;p143 -->
<g id="node8" class="node">
<title>p443&#45;p143</title>
<polygon fill="none" stroke="#bdb76b" points="147,-306 72,-306 72,-270 147,-270 147,-306"/>
<text text-anchor="middle" x="109.5" y="-284.3" font-family="Times,serif" font-size="14.00" fill="#000000">p443&#45;p143</text>
</g>
<!-- p993&#45;p25 -->
<g id="node9" class="node">
<title>p993&#45;p25</title>
<polygon fill="none" stroke="#a52a2a" points="77,-369 9,-369 9,-333 77,-333 77,-369"/>
<text text-anchor="middle" x="43" y="-347.3" font-family="Times,serif" font-size="14.00" fill="#000000">p993&#45;p25</text>
</g>
<!-- p993&#45;p110 -->
<g id="node10" class="node">
<title>p993&#45;p110</title>
<polygon fill="none" stroke="#000000" points="345,-90 270,-90 270,-54 345,-54 345,-90"/>
<text text-anchor="middle" x="307.5" y="-68.3" font-family="Times,serif" font-size="14.00" fill="#000000">p993&#45;p110</text>
</g>
<!-- p143&#45;p143 -->
<g id="node11" class="node">
<title>p143&#45;p143</title>
<polygon fill="none" stroke="#000000" points="129,-90 54,-90 54,-54 129,-54 129,-90"/>
<text text-anchor="middle" x="91.5" y="-68.3" font-family="Times,serif" font-size="14.00" fill="#000000">p143&#45;p143</text>
</g>
<!-- p25&#45;p25 -->
<g id="node12" class="node">
<title>p25&#45;p25</title>
<polygon fill="none" stroke="#0000ff" points="152,-36 90,-36 90,0 152,0 152,-36"/>
<text text-anchor="middle" x="121" y="-14.3" font-family="Times,serif" font-size="14.00" fill="#000000">p25&#45;p25</text>
</g>
<!-- p993&#45;p143 -->
<g id="node13" class="node">
<title>p993&#45;p143</title>
<polygon fill="none" stroke="#e9967a" points="372,-333 297,-333 297,-297 372,-297 372,-333"/>
<text text-anchor="middle" x="334.5" y="-311.3" font-family="Times,serif" font-size="14.00" fill="#000000">p993&#45;p143</text>
</g>
<!-- p443&#45;p25 -->
<g id="node14" class="node">
<title>p443&#45;p25</title>
<polygon fill="none" stroke="#ee82ee" points="68,-36 0,-36 0,0 68,0 68,-36"/>
<text text-anchor="middle" x="34" y="-14.3" font-family="Times,serif" font-size="14.00" fill="#000000">p443&#45;p25</text>
</g>
<!-- p443&#45;p443 -->
<g id="node15" class="node">
<title>p443&#45;p443</title>
<polygon fill="none" stroke="#ffa500" points="273,-333 198,-333 198,-297 273,-297 273,-333"/>
<text text-anchor="middle" x="235.5" y="-311.3" font-family="Times,serif" font-size="14.00" fill="#000000">p443&#45;p443</text>
</g>
<!-- p143&#45;p25 -->
<g id="node16" class="node">
<title>p143&#45;p25</title>
<polygon fill="none" stroke="#dc143c" points="419,-387 351,-387 351,-351 419,-351 419,-387"/>
<text text-anchor="middle" x="385" y="-365.3" font-family="Times,serif" font-size="14.00" fill="#000000">p143&#45;p25</text>
</g>
<!-- p143&#45;p110 -->
<g id="node17" class="node">
<title>p143&#45;p110</title>
<polygon fill="none" stroke="#00ffff" points="399,-144 324,-144 324,-108 399,-108 399,-144"/>
<text text-anchor="middle" x="361.5" y="-122.3" font-family="Times,serif" font-size="14.00" fill="#000000">p143&#45;p110</text>
</g>
<!-- p993&#45;p443 -->
<g id="node18" class="node">
<title>p993&#45;p443</title>
<polygon fill="none" stroke="#8fbc8f" points="399,-198 324,-198 324,-162 399,-162 399,-198"/>
<text text-anchor="middle" x="361.5" y="-176.3" font-family="Times,serif" font-size="14.00" fill="#000000">p993&#45;p443</text>
</g>
<!-- p110&#45;p25 -->
<g id="node19" class="node">
<title>p110&#45;p25</title>
<polygon fill="none" stroke="#ffebcd" points="329,-387 261,-387 261,-351 329,-351 329,-387"/>
<text text-anchor="middle" x="295" y="-365.3" font-family="Times,serif" font-size="14.00" fill="#000000">p110&#45;p25</text>
</g>
<!-- p443&#45;p110 -->
<g id="node20" class="node">
<title>p443&#45;p110</title>
<polygon fill="none" stroke="#ff7f50" points="174,-360 99,-360 99,-324 174,-324 174,-360"/>
<text text-anchor="middle" x="136.5" y="-338.3" font-family="Times,serif" font-size="14.00" fill="#000000">p443&#45;p110</text>
</g>
<!-- p110&#45;p110 -->
<g id="node21" class="node">
<title>p110&#45;p110</title>
<polygon fill="none" stroke="#7fff00" points="246,-45 171,-45 171,-9 246,-9 246,-45"/>
<text text-anchor="middle" x="208.5" y="-23.3" font-family="Times,serif" font-size="14.00" fill="#000000">p110&#45;p110</text>
</g>
<!-- p993&#45;p993 -->
<g id="node22" class="node">
<title>p993&#45;p993</title>
<polygon fill="none" stroke="#b03060" points="345,-36 270,-36 270,0 345,0 345,-36"/>
<text text-anchor="middle" x="307.5" y="-14.3" font-family="Times,serif" font-size="14.00" fill="#000000">p993&#45;p993</text>
</g>
</g>
</svg>
