<?xml version="1.0" encoding="UTF-8" standalone="no"?>
<!DOCTYPE svg PUBLIC "-//W3C//DTD SVG 1.1//EN"
 "http://www.w3.org/Graphics/SVG/1.1/DTD/svg11.dtd">
<!-- Generated by graphviz version 2.40.1 (20161225.0304)
 -->
<!-- Title: %3 Pages: 1 -->
<svg width="270pt" height="213pt"
 viewBox="0.00 0.00 270.00 213.00" xmlns="http://www.w3.org/2000/svg" xmlns:xlink="http://www.w3.org/1999/xlink">
<g id="graph0" class="graph" transform="scale(1 1) rotate(0) translate(4 209)">
<title>%3</title>
<polygon fill="#ffffff" stroke="transparent" points="-4,4 -4,-209 266,-209 266,4 -4,4"/>
<!-- 3716 -->
<g id="node1" class="node">
<title>3716</title>
<ellipse fill="#00ba68" stroke="#00ba68" cx="28.5975" cy="-62.0044" rx="28.6953" ry="18"/>
<text text-anchor="middle" x="28.5975" y="-58.3044" font-family="Times,serif" font-size="14.00" fill="#000000">3716</text>
</g>
<!-- 3717 -->
<g id="node2" class="node">
<title>3717</title>
<ellipse fill="#00ba68" stroke="#00ba68" cx="91.4993" cy="-18" rx="28.6953" ry="18"/>
<text text-anchor="middle" x="91.4993" y="-14.3" font-family="Times,serif" font-size="14.00" fill="#000000">3717</text>
</g>
<!-- 3716&#45;&#45;3717 -->
<g id="edge1" class="edge">
<title>3716&#45;&#45;3717</title>
<path fill="none" stroke="#ffa500" d="M47.8119,-48.5625C55.4713,-43.2042 64.2779,-37.0433 71.9684,-31.6633"/>
</g>
<!-- 3718 -->
<g id="node3" class="node">
<title>3718</title>
<ellipse fill="#00899a" stroke="#00899a" cx="152.9347" cy="-63.9248" rx="28.6953" ry="18"/>
<text text-anchor="middle" x="152.9347" y="-60.2248" font-family="Times,serif" font-size="14.00" fill="#000000">3718</text>
</g>
<!-- 3716&#45;&#45;3718 -->
<g id="edge2" class="edge">
<title>3716&#45;&#45;3718</title>
<path fill="none" stroke="#ffa500" d="M57.4354,-62.4498C77.5224,-62.7601 104.2004,-63.1721 124.2531,-63.4818"/>
</g>
<!-- 3719 -->
<g id="node4" class="node">
<title>3719</title>
<ellipse fill="#00ba68" stroke="#00ba68" cx="128.0315" cy="-136.5322" rx="28.6953" ry="18"/>
<text text-anchor="middle" x="128.0315" y="-132.8322" font-family="Times,serif" font-size="14.00" fill="#000000">3719</text>
</g>
<!-- 3716&#45;&#45;3719 -->
<g id="edge3" class="edge">
<title>3716&#45;&#45;3719</title>
<path fill="none" stroke="#ffa500" d="M47.3002,-76.0225C65.0775,-89.3469 91.6631,-109.2734 109.4125,-122.577"/>
</g>
<!-- 3720 -->
<g id="node5" class="node">
<title>3720</title>
<ellipse fill="#007992" stroke="#007992" cx="51.3152" cy="-135.3912" rx="28.6953" ry="18"/>
<text text-anchor="middle" x="51.3152" y="-131.6912" font-family="Times,serif" font-size="14.00" fill="#000000">3720</text>
</g>
<!-- 3716&#45;&#45;3720 -->
<g id="edge4" class="edge">
<title>3716&#45;&#45;3720</title>
<path fill="none" stroke="#ffa500" d="M34.0968,-79.7693C37.6423,-91.2227 42.2367,-106.0643 45.7878,-117.5355"/>
</g>
<!-- 3717&#45;&#45;3718 -->
<g id="edge8" class="edge">
<title>3717&#45;&#45;3718</title>
<path fill="none" stroke="#ffa500" d="M109.9319,-31.779C117.7076,-37.5915 126.7407,-44.3441 134.515,-50.1556"/>
</g>
<!-- 3717&#45;&#45;3719 -->
<g id="edge9" class="edge">
<title>3717&#45;&#45;3719</title>
<path fill="none" stroke="#ffa500" d="M96.9685,-35.7455C103.8556,-58.0912 115.6202,-96.2626 122.5248,-118.6654"/>
</g>
<!-- 3718&#45;&#45;3719 -->
<g id="edge10" class="edge">
<title>3718&#45;&#45;3719</title>
<path fill="none" stroke="#ffa500" d="M146.7788,-81.8727C142.9187,-93.1272 137.9631,-107.5756 134.1165,-118.7908"/>
</g>
<!-- 3720&#45;&#45;3717 -->
<g id="edge5" class="edge">
<title>3720&#45;&#45;3717</title>
<path fill="none" stroke="#ffa500" d="M57.4183,-117.562C65.015,-95.3695 77.9084,-57.7035 85.4704,-35.6123"/>
</g>
<!-- 3720&#45;&#45;3718 -->
<g id="edge6" class="edge">
<title>3720&#45;&#45;3718</title>
<path fill="none" stroke="#ffa500" d="M70.429,-121.9489C88.482,-109.2527 115.4234,-90.3056 133.561,-77.5498"/>
</g>
<!-- 3720&#45;&#45;3719 -->
<g id="edge7" class="edge">
<title>3720&#45;&#45;3719</title>
<path fill="none" stroke="#ffa500" d="M80.3183,-135.8226C86.5132,-135.9147 93.0549,-136.012 99.2418,-136.104"/>
</g>
<!-- Cluster 371 -->
<g id="node6" class="node">
<title>Cluster 371</title>
<polygon fill="none" stroke="#000000" points="262,-140 182,-140 182,-104 262,-104 262,-140"/>
<text text-anchor="middle" x="222" y="-118.3" font-family="Times,serif" font-size="14.00" fill="#000000">Cluster 371</text>
</g>
<!-- p443&#45;p443 -->
<g id="node7" class="node">
<title>p443&#45;p443</title>
<polygon fill="none" stroke="#ffa500" points="257,-205 182,-205 182,-169 257,-169 257,-205"/>
<text text-anchor="middle" x="219.5" y="-183.3" font-family="Times,serif" font-size="14.00" fill="#000000">p443&#45;p443</text>
</g>
</g>
</svg>
